G04 #@! TF.GenerationSoftware,KiCad,Pcbnew,(5.1.5-0-10_14)*
G04 #@! TF.CreationDate,2020-05-05T10:05:08-04:00*
G04 #@! TF.ProjectId,plate,706c6174-652e-46b6-9963-61645f706362,1*
G04 #@! TF.SameCoordinates,Original*
G04 #@! TF.FileFunction,Paste,Top*
G04 #@! TF.FilePolarity,Positive*
%FSLAX46Y46*%
G04 Gerber Fmt 4.6, Leading zero omitted, Abs format (unit mm)*
G04 Created by KiCad (PCBNEW (5.1.5-0-10_14)) date 2020-05-05 10:05:08*
%MOMM*%
%LPD*%
G04 APERTURE LIST*
%ADD10C,0.100000*%
%ADD11R,1.600000X2.600000*%
%ADD12R,2.600000X2.600000*%
%ADD13R,1.000000X1.500000*%
G04 APERTURE END LIST*
D10*
G36*
X86220866Y-132429922D02*
G01*
X85419644Y-131919487D01*
X86118134Y-130823078D01*
X86919356Y-131333513D01*
X86220866Y-132429922D01*
G37*
G36*
X88128280Y-129435882D02*
G01*
X87327058Y-128925447D01*
X88025548Y-127829038D01*
X88826770Y-128339473D01*
X88128280Y-129435882D01*
G37*
D11*
X100395000Y-129565000D03*
D12*
X89370000Y-131765000D03*
D13*
X94233600Y-123559800D03*
X91033600Y-123559800D03*
X94233600Y-118659800D03*
X91033600Y-118659800D03*
D10*
G36*
X106128280Y-129435882D02*
G01*
X105327058Y-128925447D01*
X106025548Y-127829038D01*
X106826770Y-128339473D01*
X106128280Y-129435882D01*
G37*
G36*
X104220866Y-132429922D02*
G01*
X103419644Y-131919487D01*
X104118134Y-130823078D01*
X104919356Y-131333513D01*
X104220866Y-132429922D01*
G37*
D12*
X107370000Y-131765000D03*
D11*
X118395000Y-129565000D03*
D13*
X109033600Y-118659800D03*
X112233600Y-118659800D03*
X109033600Y-123559800D03*
X112233600Y-123559800D03*
D10*
G36*
X88128280Y-147435882D02*
G01*
X87327058Y-146925447D01*
X88025548Y-145829038D01*
X88826770Y-146339473D01*
X88128280Y-147435882D01*
G37*
G36*
X86220866Y-150429922D02*
G01*
X85419644Y-149919487D01*
X86118134Y-148823078D01*
X86919356Y-149333513D01*
X86220866Y-150429922D01*
G37*
D12*
X89370000Y-149765000D03*
D11*
X100395000Y-147565000D03*
D13*
X91033600Y-136659800D03*
X94233600Y-136659800D03*
X91033600Y-141559800D03*
X94233600Y-141559800D03*
D10*
G36*
X104220866Y-150429922D02*
G01*
X103419644Y-149919487D01*
X104118134Y-148823078D01*
X104919356Y-149333513D01*
X104220866Y-150429922D01*
G37*
G36*
X106128280Y-147435882D02*
G01*
X105327058Y-146925447D01*
X106025548Y-145829038D01*
X106826770Y-146339473D01*
X106128280Y-147435882D01*
G37*
D11*
X118395000Y-147565000D03*
D12*
X107370000Y-149765000D03*
D13*
X112233600Y-141559800D03*
X109033600Y-141559800D03*
X112233600Y-136659800D03*
X109033600Y-136659800D03*
D10*
G36*
X158220866Y-150429922D02*
G01*
X157419644Y-149919487D01*
X158118134Y-148823078D01*
X158919356Y-149333513D01*
X158220866Y-150429922D01*
G37*
G36*
X160128280Y-147435882D02*
G01*
X159327058Y-146925447D01*
X160025548Y-145829038D01*
X160826770Y-146339473D01*
X160128280Y-147435882D01*
G37*
D11*
X172395000Y-147565000D03*
D12*
X161370000Y-149765000D03*
D13*
X181033600Y-136659800D03*
X184233600Y-136659800D03*
X181033600Y-141559800D03*
X184233600Y-141559800D03*
D10*
G36*
X178128280Y-147435882D02*
G01*
X177327058Y-146925447D01*
X178025548Y-145829038D01*
X178826770Y-146339473D01*
X178128280Y-147435882D01*
G37*
G36*
X176220866Y-150429922D02*
G01*
X175419644Y-149919487D01*
X176118134Y-148823078D01*
X176919356Y-149333513D01*
X176220866Y-150429922D01*
G37*
D12*
X179370000Y-149765000D03*
D11*
X190395000Y-147565000D03*
D13*
X166233600Y-141559800D03*
X163033600Y-141559800D03*
X166233600Y-136659800D03*
X163033600Y-136659800D03*
X145033600Y-136659800D03*
X148233600Y-136659800D03*
X145033600Y-141559800D03*
X148233600Y-141559800D03*
D11*
X136395000Y-147565000D03*
D12*
X125370000Y-149765000D03*
D13*
X130233600Y-141559800D03*
X127033600Y-141559800D03*
X130233600Y-136659800D03*
X127033600Y-136659800D03*
D10*
G36*
X122220866Y-150429922D02*
G01*
X121419644Y-149919487D01*
X122118134Y-148823078D01*
X122919356Y-149333513D01*
X122220866Y-150429922D01*
G37*
G36*
X124128280Y-147435882D02*
G01*
X123327058Y-146925447D01*
X124025548Y-145829038D01*
X124826770Y-146339473D01*
X124128280Y-147435882D01*
G37*
G36*
X142128280Y-147435882D02*
G01*
X141327058Y-146925447D01*
X142025548Y-145829038D01*
X142826770Y-146339473D01*
X142128280Y-147435882D01*
G37*
G36*
X140220866Y-150429922D02*
G01*
X139419644Y-149919487D01*
X140118134Y-148823078D01*
X140919356Y-149333513D01*
X140220866Y-150429922D01*
G37*
D12*
X143370000Y-149765000D03*
D11*
X154395000Y-147565000D03*
D10*
G36*
X160128280Y-129435882D02*
G01*
X159327058Y-128925447D01*
X160025548Y-127829038D01*
X160826770Y-128339473D01*
X160128280Y-129435882D01*
G37*
G36*
X158220866Y-132429922D02*
G01*
X157419644Y-131919487D01*
X158118134Y-130823078D01*
X158919356Y-131333513D01*
X158220866Y-132429922D01*
G37*
D12*
X161370000Y-131765000D03*
D11*
X172395000Y-129565000D03*
D13*
X184233600Y-123559800D03*
X181033600Y-123559800D03*
X184233600Y-118659800D03*
X181033600Y-118659800D03*
D10*
G36*
X176220866Y-132429922D02*
G01*
X175419644Y-131919487D01*
X176118134Y-130823078D01*
X176919356Y-131333513D01*
X176220866Y-132429922D01*
G37*
G36*
X178128280Y-129435882D02*
G01*
X177327058Y-128925447D01*
X178025548Y-127829038D01*
X178826770Y-128339473D01*
X178128280Y-129435882D01*
G37*
D11*
X190395000Y-129565000D03*
D12*
X179370000Y-131765000D03*
D13*
X163033600Y-118659800D03*
X166233600Y-118659800D03*
X163033600Y-123559800D03*
X166233600Y-123559800D03*
D10*
G36*
X140220866Y-132429922D02*
G01*
X139419644Y-131919487D01*
X140118134Y-130823078D01*
X140919356Y-131333513D01*
X140220866Y-132429922D01*
G37*
G36*
X142128280Y-129435882D02*
G01*
X141327058Y-128925447D01*
X142025548Y-127829038D01*
X142826770Y-128339473D01*
X142128280Y-129435882D01*
G37*
D11*
X154395000Y-129565000D03*
D12*
X143370000Y-131765000D03*
D13*
X148233600Y-123559800D03*
X145033600Y-123559800D03*
X148233600Y-118659800D03*
X145033600Y-118659800D03*
D10*
G36*
X124128280Y-129435882D02*
G01*
X123327058Y-128925447D01*
X124025548Y-127829038D01*
X124826770Y-128339473D01*
X124128280Y-129435882D01*
G37*
G36*
X122220866Y-132429922D02*
G01*
X121419644Y-131919487D01*
X122118134Y-130823078D01*
X122919356Y-131333513D01*
X122220866Y-132429922D01*
G37*
D12*
X125370000Y-131765000D03*
D11*
X136395000Y-129565000D03*
D13*
X127033600Y-118659800D03*
X130233600Y-118659800D03*
X127033600Y-123559800D03*
X130233600Y-123559800D03*
D10*
G36*
X86220866Y-96429922D02*
G01*
X85419644Y-95919487D01*
X86118134Y-94823078D01*
X86919356Y-95333513D01*
X86220866Y-96429922D01*
G37*
G36*
X88128280Y-93435882D02*
G01*
X87327058Y-92925447D01*
X88025548Y-91829038D01*
X88826770Y-92339473D01*
X88128280Y-93435882D01*
G37*
D11*
X100395000Y-93565000D03*
D12*
X89370000Y-95765000D03*
D13*
X94233600Y-87559800D03*
X91033600Y-87559800D03*
X94233600Y-82659800D03*
X91033600Y-82659800D03*
D10*
G36*
X106128280Y-93435882D02*
G01*
X105327058Y-92925447D01*
X106025548Y-91829038D01*
X106826770Y-92339473D01*
X106128280Y-93435882D01*
G37*
G36*
X104220866Y-96429922D02*
G01*
X103419644Y-95919487D01*
X104118134Y-94823078D01*
X104919356Y-95333513D01*
X104220866Y-96429922D01*
G37*
D12*
X107370000Y-95765000D03*
D11*
X118395000Y-93565000D03*
D13*
X109033600Y-82659800D03*
X112233600Y-82659800D03*
X109033600Y-87559800D03*
X112233600Y-87559800D03*
D10*
G36*
X88128280Y-111435882D02*
G01*
X87327058Y-110925447D01*
X88025548Y-109829038D01*
X88826770Y-110339473D01*
X88128280Y-111435882D01*
G37*
G36*
X86220866Y-114429922D02*
G01*
X85419644Y-113919487D01*
X86118134Y-112823078D01*
X86919356Y-113333513D01*
X86220866Y-114429922D01*
G37*
D12*
X89370000Y-113765000D03*
D11*
X100395000Y-111565000D03*
D13*
X91033600Y-100659800D03*
X94233600Y-100659800D03*
X91033600Y-105559800D03*
X94233600Y-105559800D03*
D10*
G36*
X104220866Y-114429922D02*
G01*
X103419644Y-113919487D01*
X104118134Y-112823078D01*
X104919356Y-113333513D01*
X104220866Y-114429922D01*
G37*
G36*
X106128280Y-111435882D02*
G01*
X105327058Y-110925447D01*
X106025548Y-109829038D01*
X106826770Y-110339473D01*
X106128280Y-111435882D01*
G37*
D11*
X118395000Y-111565000D03*
D12*
X107370000Y-113765000D03*
D13*
X112233600Y-105559800D03*
X109033600Y-105559800D03*
X112233600Y-100659800D03*
X109033600Y-100659800D03*
D10*
G36*
X158220866Y-114429922D02*
G01*
X157419644Y-113919487D01*
X158118134Y-112823078D01*
X158919356Y-113333513D01*
X158220866Y-114429922D01*
G37*
G36*
X160128280Y-111435882D02*
G01*
X159327058Y-110925447D01*
X160025548Y-109829038D01*
X160826770Y-110339473D01*
X160128280Y-111435882D01*
G37*
D11*
X172395000Y-111565000D03*
D12*
X161370000Y-113765000D03*
D13*
X181033600Y-100659800D03*
X184233600Y-100659800D03*
X181033600Y-105559800D03*
X184233600Y-105559800D03*
D10*
G36*
X178128280Y-111435882D02*
G01*
X177327058Y-110925447D01*
X178025548Y-109829038D01*
X178826770Y-110339473D01*
X178128280Y-111435882D01*
G37*
G36*
X176220866Y-114429922D02*
G01*
X175419644Y-113919487D01*
X176118134Y-112823078D01*
X176919356Y-113333513D01*
X176220866Y-114429922D01*
G37*
D12*
X179370000Y-113765000D03*
D11*
X190395000Y-111565000D03*
D13*
X166233600Y-105559800D03*
X163033600Y-105559800D03*
X166233600Y-100659800D03*
X163033600Y-100659800D03*
X145033600Y-100659800D03*
X148233600Y-100659800D03*
X145033600Y-105559800D03*
X148233600Y-105559800D03*
D11*
X136395000Y-111565000D03*
D12*
X125370000Y-113765000D03*
D13*
X130233600Y-105559800D03*
X127033600Y-105559800D03*
X130233600Y-100659800D03*
X127033600Y-100659800D03*
D10*
G36*
X122220866Y-114429922D02*
G01*
X121419644Y-113919487D01*
X122118134Y-112823078D01*
X122919356Y-113333513D01*
X122220866Y-114429922D01*
G37*
G36*
X124128280Y-111435882D02*
G01*
X123327058Y-110925447D01*
X124025548Y-109829038D01*
X124826770Y-110339473D01*
X124128280Y-111435882D01*
G37*
G36*
X142128280Y-111435882D02*
G01*
X141327058Y-110925447D01*
X142025548Y-109829038D01*
X142826770Y-110339473D01*
X142128280Y-111435882D01*
G37*
G36*
X140220866Y-114429922D02*
G01*
X139419644Y-113919487D01*
X140118134Y-112823078D01*
X140919356Y-113333513D01*
X140220866Y-114429922D01*
G37*
D12*
X143370000Y-113765000D03*
D11*
X154395000Y-111565000D03*
D10*
G36*
X160128280Y-93435882D02*
G01*
X159327058Y-92925447D01*
X160025548Y-91829038D01*
X160826770Y-92339473D01*
X160128280Y-93435882D01*
G37*
G36*
X158220866Y-96429922D02*
G01*
X157419644Y-95919487D01*
X158118134Y-94823078D01*
X158919356Y-95333513D01*
X158220866Y-96429922D01*
G37*
D12*
X161370000Y-95765000D03*
D11*
X172395000Y-93565000D03*
D13*
X184233600Y-87559800D03*
X181033600Y-87559800D03*
X184233600Y-82659800D03*
X181033600Y-82659800D03*
D10*
G36*
X176220866Y-96429922D02*
G01*
X175419644Y-95919487D01*
X176118134Y-94823078D01*
X176919356Y-95333513D01*
X176220866Y-96429922D01*
G37*
G36*
X178128280Y-93435882D02*
G01*
X177327058Y-92925447D01*
X178025548Y-91829038D01*
X178826770Y-92339473D01*
X178128280Y-93435882D01*
G37*
D11*
X190395000Y-93565000D03*
D12*
X179370000Y-95765000D03*
D13*
X163033600Y-82659800D03*
X166233600Y-82659800D03*
X163033600Y-87559800D03*
X166233600Y-87559800D03*
D10*
G36*
X140220866Y-96429922D02*
G01*
X139419644Y-95919487D01*
X140118134Y-94823078D01*
X140919356Y-95333513D01*
X140220866Y-96429922D01*
G37*
G36*
X142128280Y-93435882D02*
G01*
X141327058Y-92925447D01*
X142025548Y-91829038D01*
X142826770Y-92339473D01*
X142128280Y-93435882D01*
G37*
D11*
X154395000Y-93565000D03*
D12*
X143370000Y-95765000D03*
D13*
X148233600Y-87559800D03*
X145033600Y-87559800D03*
X148233600Y-82659800D03*
X145033600Y-82659800D03*
D10*
G36*
X124128280Y-93435882D02*
G01*
X123327058Y-92925447D01*
X124025548Y-91829038D01*
X124826770Y-92339473D01*
X124128280Y-93435882D01*
G37*
G36*
X122220866Y-96429922D02*
G01*
X121419644Y-95919487D01*
X122118134Y-94823078D01*
X122919356Y-95333513D01*
X122220866Y-96429922D01*
G37*
D12*
X125370000Y-95765000D03*
D11*
X136395000Y-93565000D03*
D13*
X127033600Y-82659800D03*
X130233600Y-82659800D03*
X127033600Y-87559800D03*
X130233600Y-87559800D03*
D10*
G36*
X86220866Y-78429922D02*
G01*
X85419644Y-77919487D01*
X86118134Y-76823078D01*
X86919356Y-77333513D01*
X86220866Y-78429922D01*
G37*
G36*
X88128280Y-75435882D02*
G01*
X87327058Y-74925447D01*
X88025548Y-73829038D01*
X88826770Y-74339473D01*
X88128280Y-75435882D01*
G37*
D11*
X100395000Y-75565000D03*
D12*
X89370000Y-77765000D03*
D13*
X94233600Y-69559800D03*
X91033600Y-69559800D03*
X94233600Y-64659800D03*
X91033600Y-64659800D03*
D10*
G36*
X106128280Y-75435882D02*
G01*
X105327058Y-74925447D01*
X106025548Y-73829038D01*
X106826770Y-74339473D01*
X106128280Y-75435882D01*
G37*
G36*
X104220866Y-78429922D02*
G01*
X103419644Y-77919487D01*
X104118134Y-76823078D01*
X104919356Y-77333513D01*
X104220866Y-78429922D01*
G37*
D12*
X107370000Y-77765000D03*
D11*
X118395000Y-75565000D03*
D13*
X109033600Y-64659800D03*
X112233600Y-64659800D03*
X109033600Y-69559800D03*
X112233600Y-69559800D03*
D10*
G36*
X160128280Y-75435882D02*
G01*
X159327058Y-74925447D01*
X160025548Y-73829038D01*
X160826770Y-74339473D01*
X160128280Y-75435882D01*
G37*
G36*
X158220866Y-78429922D02*
G01*
X157419644Y-77919487D01*
X158118134Y-76823078D01*
X158919356Y-77333513D01*
X158220866Y-78429922D01*
G37*
D12*
X161370000Y-77765000D03*
D11*
X172395000Y-75565000D03*
D13*
X184233600Y-69559800D03*
X181033600Y-69559800D03*
X184233600Y-64659800D03*
X181033600Y-64659800D03*
D10*
G36*
X176220866Y-78429922D02*
G01*
X175419644Y-77919487D01*
X176118134Y-76823078D01*
X176919356Y-77333513D01*
X176220866Y-78429922D01*
G37*
G36*
X178128280Y-75435882D02*
G01*
X177327058Y-74925447D01*
X178025548Y-73829038D01*
X178826770Y-74339473D01*
X178128280Y-75435882D01*
G37*
D11*
X190395000Y-75565000D03*
D12*
X179370000Y-77765000D03*
D13*
X163033600Y-64659800D03*
X166233600Y-64659800D03*
X163033600Y-69559800D03*
X166233600Y-69559800D03*
D10*
G36*
X140220866Y-78429922D02*
G01*
X139419644Y-77919487D01*
X140118134Y-76823078D01*
X140919356Y-77333513D01*
X140220866Y-78429922D01*
G37*
G36*
X142128280Y-75435882D02*
G01*
X141327058Y-74925447D01*
X142025548Y-73829038D01*
X142826770Y-74339473D01*
X142128280Y-75435882D01*
G37*
D11*
X154395000Y-75565000D03*
D12*
X143370000Y-77765000D03*
D13*
X148233600Y-69559800D03*
X145033600Y-69559800D03*
X148233600Y-64659800D03*
X145033600Y-64659800D03*
D10*
G36*
X124128280Y-75435882D02*
G01*
X123327058Y-74925447D01*
X124025548Y-73829038D01*
X124826770Y-74339473D01*
X124128280Y-75435882D01*
G37*
G36*
X122220866Y-78429922D02*
G01*
X121419644Y-77919487D01*
X122118134Y-76823078D01*
X122919356Y-77333513D01*
X122220866Y-78429922D01*
G37*
D12*
X125370000Y-77765000D03*
D11*
X136395000Y-75565000D03*
D13*
X127033600Y-64659800D03*
X130233600Y-64659800D03*
X127033600Y-69559800D03*
X130233600Y-69559800D03*
D10*
G36*
X158220866Y-60429922D02*
G01*
X157419644Y-59919487D01*
X158118134Y-58823078D01*
X158919356Y-59333513D01*
X158220866Y-60429922D01*
G37*
G36*
X160128280Y-57435882D02*
G01*
X159327058Y-56925447D01*
X160025548Y-55829038D01*
X160826770Y-56339473D01*
X160128280Y-57435882D01*
G37*
D11*
X172395000Y-57565000D03*
D12*
X161370000Y-59765000D03*
D13*
X166233600Y-51559800D03*
X163033600Y-51559800D03*
X166233600Y-46659800D03*
X163033600Y-46659800D03*
D10*
G36*
X178128280Y-57435882D02*
G01*
X177327058Y-56925447D01*
X178025548Y-55829038D01*
X178826770Y-56339473D01*
X178128280Y-57435882D01*
G37*
G36*
X176220866Y-60429922D02*
G01*
X175419644Y-59919487D01*
X176118134Y-58823078D01*
X176919356Y-59333513D01*
X176220866Y-60429922D01*
G37*
D12*
X179370000Y-59765000D03*
D11*
X190395000Y-57565000D03*
D13*
X181033600Y-46659800D03*
X184233600Y-46659800D03*
X181033600Y-51559800D03*
X184233600Y-51559800D03*
D10*
G36*
X122220866Y-60429922D02*
G01*
X121419644Y-59919487D01*
X122118134Y-58823078D01*
X122919356Y-59333513D01*
X122220866Y-60429922D01*
G37*
G36*
X124128280Y-57435882D02*
G01*
X123327058Y-56925447D01*
X124025548Y-55829038D01*
X124826770Y-56339473D01*
X124128280Y-57435882D01*
G37*
D11*
X136395000Y-57565000D03*
D12*
X125370000Y-59765000D03*
D13*
X130233600Y-51559800D03*
X127033600Y-51559800D03*
X130233600Y-46659800D03*
X127033600Y-46659800D03*
D10*
G36*
X142128280Y-57435882D02*
G01*
X141327058Y-56925447D01*
X142025548Y-55829038D01*
X142826770Y-56339473D01*
X142128280Y-57435882D01*
G37*
G36*
X140220866Y-60429922D02*
G01*
X139419644Y-59919487D01*
X140118134Y-58823078D01*
X140919356Y-59333513D01*
X140220866Y-60429922D01*
G37*
D12*
X143370000Y-59765000D03*
D11*
X154395000Y-57565000D03*
D13*
X145033600Y-46659800D03*
X148233600Y-46659800D03*
X145033600Y-51559800D03*
X148233600Y-51559800D03*
D12*
X89370000Y-59765000D03*
D11*
X100395000Y-57565000D03*
D10*
G36*
X104220866Y-60429922D02*
G01*
X103419644Y-59919487D01*
X104118134Y-58823078D01*
X104919356Y-59333513D01*
X104220866Y-60429922D01*
G37*
G36*
X106128280Y-57435882D02*
G01*
X105327058Y-56925447D01*
X106025548Y-55829038D01*
X106826770Y-56339473D01*
X106128280Y-57435882D01*
G37*
D11*
X118395000Y-57565000D03*
D12*
X107370000Y-59765000D03*
D13*
X112233600Y-51559800D03*
X109033600Y-51559800D03*
X112233600Y-46659800D03*
X109033600Y-46659800D03*
X91033600Y-46659800D03*
X94233600Y-46659800D03*
X91033600Y-51559800D03*
X94233600Y-51559800D03*
D10*
G36*
X88128280Y-57435882D02*
G01*
X87327058Y-56925447D01*
X88025548Y-55829038D01*
X88826770Y-56339473D01*
X88128280Y-57435882D01*
G37*
G36*
X86220866Y-60429922D02*
G01*
X85419644Y-59919487D01*
X86118134Y-58823078D01*
X86919356Y-59333513D01*
X86220866Y-60429922D01*
G37*
M02*
