G04 #@! TF.GenerationSoftware,KiCad,Pcbnew,(5.1.5-0-10_14)*
G04 #@! TF.CreationDate,2020-05-05T10:05:08-04:00*
G04 #@! TF.ProjectId,plate,706c6174-652e-46b6-9963-61645f706362,1*
G04 #@! TF.SameCoordinates,Original*
G04 #@! TF.FileFunction,Paste,Bot*
G04 #@! TF.FilePolarity,Positive*
%FSLAX46Y46*%
G04 Gerber Fmt 4.6, Leading zero omitted, Abs format (unit mm)*
G04 Created by KiCad (PCBNEW (5.1.5-0-10_14)) date 2020-05-05 10:05:08*
%MOMM*%
%LPD*%
G04 APERTURE LIST*
%ADD10C,0.100000*%
%ADD11R,2.550000X2.500000*%
%ADD12R,1.000000X1.500000*%
G04 APERTURE END LIST*
D10*
G36*
X88153780Y-129424382D02*
G01*
X87352558Y-128913947D01*
X88051048Y-127817538D01*
X88852270Y-128327973D01*
X88153780Y-129424382D01*
G37*
G36*
X86246366Y-132418422D02*
G01*
X85445144Y-131907987D01*
X86143634Y-130811578D01*
X86944856Y-131322013D01*
X86246366Y-132418422D01*
G37*
D11*
X98735000Y-120735000D03*
X85285000Y-123275000D03*
D12*
X94233600Y-128339400D03*
X91033600Y-128339400D03*
X94233600Y-133239400D03*
X91033600Y-133239400D03*
D10*
G36*
X104246366Y-132418422D02*
G01*
X103445144Y-131907987D01*
X104143634Y-130811578D01*
X104944856Y-131322013D01*
X104246366Y-132418422D01*
G37*
G36*
X106153780Y-129424382D02*
G01*
X105352558Y-128913947D01*
X106051048Y-127817538D01*
X106852270Y-128327973D01*
X106153780Y-129424382D01*
G37*
D11*
X103285000Y-123275000D03*
X116735000Y-120735000D03*
D12*
X109033600Y-133239400D03*
X112233600Y-133239400D03*
X109033600Y-128339400D03*
X112233600Y-128339400D03*
D10*
G36*
X86246366Y-150418422D02*
G01*
X85445144Y-149907987D01*
X86143634Y-148811578D01*
X86944856Y-149322013D01*
X86246366Y-150418422D01*
G37*
G36*
X88153780Y-147424382D02*
G01*
X87352558Y-146913947D01*
X88051048Y-145817538D01*
X88852270Y-146327973D01*
X88153780Y-147424382D01*
G37*
D11*
X85285000Y-141275000D03*
X98735000Y-138735000D03*
D12*
X91033600Y-151239400D03*
X94233600Y-151239400D03*
X91033600Y-146339400D03*
X94233600Y-146339400D03*
D10*
G36*
X106153780Y-147424382D02*
G01*
X105352558Y-146913947D01*
X106051048Y-145817538D01*
X106852270Y-146327973D01*
X106153780Y-147424382D01*
G37*
G36*
X104246366Y-150418422D02*
G01*
X103445144Y-149907987D01*
X104143634Y-148811578D01*
X104944856Y-149322013D01*
X104246366Y-150418422D01*
G37*
D11*
X116735000Y-138735000D03*
X103285000Y-141275000D03*
D12*
X112233600Y-146339400D03*
X109033600Y-146339400D03*
X112233600Y-151239400D03*
X109033600Y-151239400D03*
D10*
G36*
X160153780Y-147424382D02*
G01*
X159352558Y-146913947D01*
X160051048Y-145817538D01*
X160852270Y-146327973D01*
X160153780Y-147424382D01*
G37*
G36*
X158246366Y-150418422D02*
G01*
X157445144Y-149907987D01*
X158143634Y-148811578D01*
X158944856Y-149322013D01*
X158246366Y-150418422D01*
G37*
D11*
X170735000Y-138735000D03*
X157285000Y-141275000D03*
D12*
X181033600Y-151239400D03*
X184233600Y-151239400D03*
X181033600Y-146339400D03*
X184233600Y-146339400D03*
D10*
G36*
X176246366Y-150418422D02*
G01*
X175445144Y-149907987D01*
X176143634Y-148811578D01*
X176944856Y-149322013D01*
X176246366Y-150418422D01*
G37*
G36*
X178153780Y-147424382D02*
G01*
X177352558Y-146913947D01*
X178051048Y-145817538D01*
X178852270Y-146327973D01*
X178153780Y-147424382D01*
G37*
D11*
X175285000Y-141275000D03*
X188735000Y-138735000D03*
D12*
X166233600Y-146339400D03*
X163033600Y-146339400D03*
X166233600Y-151239400D03*
X163033600Y-151239400D03*
X130233600Y-146339400D03*
X127033600Y-146339400D03*
X130233600Y-151239400D03*
X127033600Y-151239400D03*
D11*
X134735000Y-138735000D03*
X121285000Y-141275000D03*
D10*
G36*
X140246366Y-150418422D02*
G01*
X139445144Y-149907987D01*
X140143634Y-148811578D01*
X140944856Y-149322013D01*
X140246366Y-150418422D01*
G37*
G36*
X142153780Y-147424382D02*
G01*
X141352558Y-146913947D01*
X142051048Y-145817538D01*
X142852270Y-146327973D01*
X142153780Y-147424382D01*
G37*
D11*
X139285000Y-141275000D03*
X152735000Y-138735000D03*
D10*
G36*
X124153780Y-147424382D02*
G01*
X123352558Y-146913947D01*
X124051048Y-145817538D01*
X124852270Y-146327973D01*
X124153780Y-147424382D01*
G37*
G36*
X122246366Y-150418422D02*
G01*
X121445144Y-149907987D01*
X122143634Y-148811578D01*
X122944856Y-149322013D01*
X122246366Y-150418422D01*
G37*
D12*
X145033600Y-151239400D03*
X148233600Y-151239400D03*
X145033600Y-146339400D03*
X148233600Y-146339400D03*
D10*
G36*
X158246366Y-132418422D02*
G01*
X157445144Y-131907987D01*
X158143634Y-130811578D01*
X158944856Y-131322013D01*
X158246366Y-132418422D01*
G37*
G36*
X160153780Y-129424382D02*
G01*
X159352558Y-128913947D01*
X160051048Y-127817538D01*
X160852270Y-128327973D01*
X160153780Y-129424382D01*
G37*
D11*
X157285000Y-123275000D03*
X170735000Y-120735000D03*
D12*
X184233600Y-128339400D03*
X181033600Y-128339400D03*
X184233600Y-133239400D03*
X181033600Y-133239400D03*
D10*
G36*
X178153780Y-129424382D02*
G01*
X177352558Y-128913947D01*
X178051048Y-127817538D01*
X178852270Y-128327973D01*
X178153780Y-129424382D01*
G37*
G36*
X176246366Y-132418422D02*
G01*
X175445144Y-131907987D01*
X176143634Y-130811578D01*
X176944856Y-131322013D01*
X176246366Y-132418422D01*
G37*
D11*
X188735000Y-120735000D03*
X175285000Y-123275000D03*
D12*
X163033600Y-133239400D03*
X166233600Y-133239400D03*
X163033600Y-128339400D03*
X166233600Y-128339400D03*
X127033600Y-133239400D03*
X130233600Y-133239400D03*
X127033600Y-128339400D03*
X130233600Y-128339400D03*
D10*
G36*
X142153780Y-129424382D02*
G01*
X141352558Y-128913947D01*
X142051048Y-127817538D01*
X142852270Y-128327973D01*
X142153780Y-129424382D01*
G37*
G36*
X140246366Y-132418422D02*
G01*
X139445144Y-131907987D01*
X140143634Y-130811578D01*
X140944856Y-131322013D01*
X140246366Y-132418422D01*
G37*
D11*
X152735000Y-120735000D03*
X139285000Y-123275000D03*
D12*
X148233600Y-128339400D03*
X145033600Y-128339400D03*
X148233600Y-133239400D03*
X145033600Y-133239400D03*
D10*
G36*
X122246366Y-132418422D02*
G01*
X121445144Y-131907987D01*
X122143634Y-130811578D01*
X122944856Y-131322013D01*
X122246366Y-132418422D01*
G37*
G36*
X124153780Y-129424382D02*
G01*
X123352558Y-128913947D01*
X124051048Y-127817538D01*
X124852270Y-128327973D01*
X124153780Y-129424382D01*
G37*
D11*
X121285000Y-123275000D03*
X134735000Y-120735000D03*
D10*
G36*
X88153780Y-93424382D02*
G01*
X87352558Y-92913947D01*
X88051048Y-91817538D01*
X88852270Y-92327973D01*
X88153780Y-93424382D01*
G37*
G36*
X86246366Y-96418422D02*
G01*
X85445144Y-95907987D01*
X86143634Y-94811578D01*
X86944856Y-95322013D01*
X86246366Y-96418422D01*
G37*
D11*
X98735000Y-84735000D03*
X85285000Y-87275000D03*
D12*
X94233600Y-92339400D03*
X91033600Y-92339400D03*
X94233600Y-97239400D03*
X91033600Y-97239400D03*
D10*
G36*
X104246366Y-96418422D02*
G01*
X103445144Y-95907987D01*
X104143634Y-94811578D01*
X104944856Y-95322013D01*
X104246366Y-96418422D01*
G37*
G36*
X106153780Y-93424382D02*
G01*
X105352558Y-92913947D01*
X106051048Y-91817538D01*
X106852270Y-92327973D01*
X106153780Y-93424382D01*
G37*
D11*
X103285000Y-87275000D03*
X116735000Y-84735000D03*
D12*
X109033600Y-97239400D03*
X112233600Y-97239400D03*
X109033600Y-92339400D03*
X112233600Y-92339400D03*
D10*
G36*
X86246366Y-114418422D02*
G01*
X85445144Y-113907987D01*
X86143634Y-112811578D01*
X86944856Y-113322013D01*
X86246366Y-114418422D01*
G37*
G36*
X88153780Y-111424382D02*
G01*
X87352558Y-110913947D01*
X88051048Y-109817538D01*
X88852270Y-110327973D01*
X88153780Y-111424382D01*
G37*
D11*
X85285000Y-105275000D03*
X98735000Y-102735000D03*
D12*
X91033600Y-115239400D03*
X94233600Y-115239400D03*
X91033600Y-110339400D03*
X94233600Y-110339400D03*
D10*
G36*
X106153780Y-111424382D02*
G01*
X105352558Y-110913947D01*
X106051048Y-109817538D01*
X106852270Y-110327973D01*
X106153780Y-111424382D01*
G37*
G36*
X104246366Y-114418422D02*
G01*
X103445144Y-113907987D01*
X104143634Y-112811578D01*
X104944856Y-113322013D01*
X104246366Y-114418422D01*
G37*
D11*
X116735000Y-102735000D03*
X103285000Y-105275000D03*
D12*
X112233600Y-110339400D03*
X109033600Y-110339400D03*
X112233600Y-115239400D03*
X109033600Y-115239400D03*
D10*
G36*
X160153780Y-111424382D02*
G01*
X159352558Y-110913947D01*
X160051048Y-109817538D01*
X160852270Y-110327973D01*
X160153780Y-111424382D01*
G37*
G36*
X158246366Y-114418422D02*
G01*
X157445144Y-113907987D01*
X158143634Y-112811578D01*
X158944856Y-113322013D01*
X158246366Y-114418422D01*
G37*
D11*
X170735000Y-102735000D03*
X157285000Y-105275000D03*
D12*
X181033600Y-115239400D03*
X184233600Y-115239400D03*
X181033600Y-110339400D03*
X184233600Y-110339400D03*
D10*
G36*
X176246366Y-114418422D02*
G01*
X175445144Y-113907987D01*
X176143634Y-112811578D01*
X176944856Y-113322013D01*
X176246366Y-114418422D01*
G37*
G36*
X178153780Y-111424382D02*
G01*
X177352558Y-110913947D01*
X178051048Y-109817538D01*
X178852270Y-110327973D01*
X178153780Y-111424382D01*
G37*
D11*
X175285000Y-105275000D03*
X188735000Y-102735000D03*
D12*
X166233600Y-110339400D03*
X163033600Y-110339400D03*
X166233600Y-115239400D03*
X163033600Y-115239400D03*
X130233600Y-110339400D03*
X127033600Y-110339400D03*
X130233600Y-115239400D03*
X127033600Y-115239400D03*
D11*
X134735000Y-102735000D03*
X121285000Y-105275000D03*
D10*
G36*
X140246366Y-114418422D02*
G01*
X139445144Y-113907987D01*
X140143634Y-112811578D01*
X140944856Y-113322013D01*
X140246366Y-114418422D01*
G37*
G36*
X142153780Y-111424382D02*
G01*
X141352558Y-110913947D01*
X142051048Y-109817538D01*
X142852270Y-110327973D01*
X142153780Y-111424382D01*
G37*
D11*
X139285000Y-105275000D03*
X152735000Y-102735000D03*
D10*
G36*
X124153780Y-111424382D02*
G01*
X123352558Y-110913947D01*
X124051048Y-109817538D01*
X124852270Y-110327973D01*
X124153780Y-111424382D01*
G37*
G36*
X122246366Y-114418422D02*
G01*
X121445144Y-113907987D01*
X122143634Y-112811578D01*
X122944856Y-113322013D01*
X122246366Y-114418422D01*
G37*
D12*
X145033600Y-115239400D03*
X148233600Y-115239400D03*
X145033600Y-110339400D03*
X148233600Y-110339400D03*
D10*
G36*
X158246366Y-96418422D02*
G01*
X157445144Y-95907987D01*
X158143634Y-94811578D01*
X158944856Y-95322013D01*
X158246366Y-96418422D01*
G37*
G36*
X160153780Y-93424382D02*
G01*
X159352558Y-92913947D01*
X160051048Y-91817538D01*
X160852270Y-92327973D01*
X160153780Y-93424382D01*
G37*
D11*
X157285000Y-87275000D03*
X170735000Y-84735000D03*
D12*
X184233600Y-92339400D03*
X181033600Y-92339400D03*
X184233600Y-97239400D03*
X181033600Y-97239400D03*
D10*
G36*
X178153780Y-93424382D02*
G01*
X177352558Y-92913947D01*
X178051048Y-91817538D01*
X178852270Y-92327973D01*
X178153780Y-93424382D01*
G37*
G36*
X176246366Y-96418422D02*
G01*
X175445144Y-95907987D01*
X176143634Y-94811578D01*
X176944856Y-95322013D01*
X176246366Y-96418422D01*
G37*
D11*
X188735000Y-84735000D03*
X175285000Y-87275000D03*
D12*
X163033600Y-97239400D03*
X166233600Y-97239400D03*
X163033600Y-92339400D03*
X166233600Y-92339400D03*
X127033600Y-97239400D03*
X130233600Y-97239400D03*
X127033600Y-92339400D03*
X130233600Y-92339400D03*
D10*
G36*
X142153780Y-93424382D02*
G01*
X141352558Y-92913947D01*
X142051048Y-91817538D01*
X142852270Y-92327973D01*
X142153780Y-93424382D01*
G37*
G36*
X140246366Y-96418422D02*
G01*
X139445144Y-95907987D01*
X140143634Y-94811578D01*
X140944856Y-95322013D01*
X140246366Y-96418422D01*
G37*
D11*
X152735000Y-84735000D03*
X139285000Y-87275000D03*
D12*
X148233600Y-92339400D03*
X145033600Y-92339400D03*
X148233600Y-97239400D03*
X145033600Y-97239400D03*
D10*
G36*
X122246366Y-96418422D02*
G01*
X121445144Y-95907987D01*
X122143634Y-94811578D01*
X122944856Y-95322013D01*
X122246366Y-96418422D01*
G37*
G36*
X124153780Y-93424382D02*
G01*
X123352558Y-92913947D01*
X124051048Y-91817538D01*
X124852270Y-92327973D01*
X124153780Y-93424382D01*
G37*
D11*
X121285000Y-87275000D03*
X134735000Y-84735000D03*
D10*
G36*
X88153780Y-75424382D02*
G01*
X87352558Y-74913947D01*
X88051048Y-73817538D01*
X88852270Y-74327973D01*
X88153780Y-75424382D01*
G37*
G36*
X86246366Y-78418422D02*
G01*
X85445144Y-77907987D01*
X86143634Y-76811578D01*
X86944856Y-77322013D01*
X86246366Y-78418422D01*
G37*
D11*
X98735000Y-66735000D03*
X85285000Y-69275000D03*
D12*
X94233600Y-74339400D03*
X91033600Y-74339400D03*
X94233600Y-79239400D03*
X91033600Y-79239400D03*
D10*
G36*
X104246366Y-78418422D02*
G01*
X103445144Y-77907987D01*
X104143634Y-76811578D01*
X104944856Y-77322013D01*
X104246366Y-78418422D01*
G37*
G36*
X106153780Y-75424382D02*
G01*
X105352558Y-74913947D01*
X106051048Y-73817538D01*
X106852270Y-74327973D01*
X106153780Y-75424382D01*
G37*
D11*
X103285000Y-69275000D03*
X116735000Y-66735000D03*
D12*
X109033600Y-79239400D03*
X112233600Y-79239400D03*
X109033600Y-74339400D03*
X112233600Y-74339400D03*
D10*
G36*
X158246366Y-78418422D02*
G01*
X157445144Y-77907987D01*
X158143634Y-76811578D01*
X158944856Y-77322013D01*
X158246366Y-78418422D01*
G37*
G36*
X160153780Y-75424382D02*
G01*
X159352558Y-74913947D01*
X160051048Y-73817538D01*
X160852270Y-74327973D01*
X160153780Y-75424382D01*
G37*
D11*
X157285000Y-69275000D03*
X170735000Y-66735000D03*
D12*
X184233600Y-74339400D03*
X181033600Y-74339400D03*
X184233600Y-79239400D03*
X181033600Y-79239400D03*
D10*
G36*
X178153780Y-75424382D02*
G01*
X177352558Y-74913947D01*
X178051048Y-73817538D01*
X178852270Y-74327973D01*
X178153780Y-75424382D01*
G37*
G36*
X176246366Y-78418422D02*
G01*
X175445144Y-77907987D01*
X176143634Y-76811578D01*
X176944856Y-77322013D01*
X176246366Y-78418422D01*
G37*
D11*
X188735000Y-66735000D03*
X175285000Y-69275000D03*
D12*
X163033600Y-79239400D03*
X166233600Y-79239400D03*
X163033600Y-74339400D03*
X166233600Y-74339400D03*
X127033600Y-79239400D03*
X130233600Y-79239400D03*
X127033600Y-74339400D03*
X130233600Y-74339400D03*
D10*
G36*
X142153780Y-75424382D02*
G01*
X141352558Y-74913947D01*
X142051048Y-73817538D01*
X142852270Y-74327973D01*
X142153780Y-75424382D01*
G37*
G36*
X140246366Y-78418422D02*
G01*
X139445144Y-77907987D01*
X140143634Y-76811578D01*
X140944856Y-77322013D01*
X140246366Y-78418422D01*
G37*
D11*
X152735000Y-66735000D03*
X139285000Y-69275000D03*
D12*
X148233600Y-74339400D03*
X145033600Y-74339400D03*
X148233600Y-79239400D03*
X145033600Y-79239400D03*
D10*
G36*
X122246366Y-78418422D02*
G01*
X121445144Y-77907987D01*
X122143634Y-76811578D01*
X122944856Y-77322013D01*
X122246366Y-78418422D01*
G37*
G36*
X124153780Y-75424382D02*
G01*
X123352558Y-74913947D01*
X124051048Y-73817538D01*
X124852270Y-74327973D01*
X124153780Y-75424382D01*
G37*
D11*
X121285000Y-69275000D03*
X134735000Y-66735000D03*
D10*
G36*
X160153780Y-57424382D02*
G01*
X159352558Y-56913947D01*
X160051048Y-55817538D01*
X160852270Y-56327973D01*
X160153780Y-57424382D01*
G37*
G36*
X158246366Y-60418422D02*
G01*
X157445144Y-59907987D01*
X158143634Y-58811578D01*
X158944856Y-59322013D01*
X158246366Y-60418422D01*
G37*
D11*
X170735000Y-48735000D03*
X157285000Y-51275000D03*
D12*
X166233600Y-56339400D03*
X163033600Y-56339400D03*
X166233600Y-61239400D03*
X163033600Y-61239400D03*
D10*
G36*
X176246366Y-60418422D02*
G01*
X175445144Y-59907987D01*
X176143634Y-58811578D01*
X176944856Y-59322013D01*
X176246366Y-60418422D01*
G37*
G36*
X178153780Y-57424382D02*
G01*
X177352558Y-56913947D01*
X178051048Y-55817538D01*
X178852270Y-56327973D01*
X178153780Y-57424382D01*
G37*
D11*
X175285000Y-51275000D03*
X188735000Y-48735000D03*
D12*
X181033600Y-61239400D03*
X184233600Y-61239400D03*
X181033600Y-56339400D03*
X184233600Y-56339400D03*
D10*
G36*
X124153780Y-57424382D02*
G01*
X123352558Y-56913947D01*
X124051048Y-55817538D01*
X124852270Y-56327973D01*
X124153780Y-57424382D01*
G37*
G36*
X122246366Y-60418422D02*
G01*
X121445144Y-59907987D01*
X122143634Y-58811578D01*
X122944856Y-59322013D01*
X122246366Y-60418422D01*
G37*
D11*
X134735000Y-48735000D03*
X121285000Y-51275000D03*
D12*
X130233600Y-56339400D03*
X127033600Y-56339400D03*
X130233600Y-61239400D03*
X127033600Y-61239400D03*
D10*
G36*
X140246366Y-60418422D02*
G01*
X139445144Y-59907987D01*
X140143634Y-58811578D01*
X140944856Y-59322013D01*
X140246366Y-60418422D01*
G37*
G36*
X142153780Y-57424382D02*
G01*
X141352558Y-56913947D01*
X142051048Y-55817538D01*
X142852270Y-56327973D01*
X142153780Y-57424382D01*
G37*
D11*
X139285000Y-51275000D03*
X152735000Y-48735000D03*
D12*
X145033600Y-61239400D03*
X148233600Y-61239400D03*
X145033600Y-56339400D03*
X148233600Y-56339400D03*
D10*
G36*
X106153780Y-57424382D02*
G01*
X105352558Y-56913947D01*
X106051048Y-55817538D01*
X106852270Y-56327973D01*
X106153780Y-57424382D01*
G37*
G36*
X104246366Y-60418422D02*
G01*
X103445144Y-59907987D01*
X104143634Y-58811578D01*
X104944856Y-59322013D01*
X104246366Y-60418422D01*
G37*
D11*
X116735000Y-48735000D03*
X103285000Y-51275000D03*
D12*
X112233600Y-56339400D03*
X109033600Y-56339400D03*
X112233600Y-61239400D03*
X109033600Y-61239400D03*
X91033600Y-61239400D03*
X94233600Y-61239400D03*
X91033600Y-56339400D03*
X94233600Y-56339400D03*
D11*
X85285000Y-51275000D03*
X98735000Y-48735000D03*
D10*
G36*
X86246366Y-60418422D02*
G01*
X85445144Y-59907987D01*
X86143634Y-58811578D01*
X86944856Y-59322013D01*
X86246366Y-60418422D01*
G37*
G36*
X88153780Y-57424382D02*
G01*
X87352558Y-56913947D01*
X88051048Y-55817538D01*
X88852270Y-56327973D01*
X88153780Y-57424382D01*
G37*
M02*
