G04 #@! TF.GenerationSoftware,KiCad,Pcbnew,(5.1.5-0-10_14)*
G04 #@! TF.CreationDate,2020-05-05T10:05:08-04:00*
G04 #@! TF.ProjectId,plate,706c6174-652e-46b6-9963-61645f706362,1*
G04 #@! TF.SameCoordinates,Original*
G04 #@! TF.FileFunction,Soldermask,Top*
G04 #@! TF.FilePolarity,Negative*
%FSLAX46Y46*%
G04 Gerber Fmt 4.6, Leading zero omitted, Abs format (unit mm)*
G04 Created by KiCad (PCBNEW (5.1.5-0-10_14)) date 2020-05-05 10:05:08*
%MOMM*%
%LPD*%
G04 APERTURE LIST*
%ADD10C,1.600000*%
%ADD11R,1.600000X1.600000*%
%ADD12C,0.100000*%
%ADD13R,1.600000X2.600000*%
%ADD14C,3.000000*%
%ADD15C,3.429000*%
%ADD16R,2.600000X2.600000*%
%ADD17C,1.701800*%
%ADD18C,2.000000*%
%ADD19C,4.000000*%
%ADD20R,1.000000X1.500000*%
G04 APERTURE END LIST*
D10*
X85045000Y-118215000D03*
X100245000Y-118215000D03*
X100345000Y-125365000D03*
D11*
X84963000Y-129215000D03*
D10*
X100345000Y-123565000D03*
X84963000Y-127415000D03*
X87045000Y-118115000D03*
D11*
X100345000Y-127165000D03*
D10*
X84963000Y-125615000D03*
D12*
G36*
X86220866Y-132429922D02*
G01*
X85419644Y-131919487D01*
X86118134Y-130823078D01*
X86919356Y-131333513D01*
X86220866Y-132429922D01*
G37*
G36*
X88128280Y-129435882D02*
G01*
X87327058Y-128925447D01*
X88025548Y-127829038D01*
X88826770Y-128339473D01*
X88128280Y-129435882D01*
G37*
D10*
X87045000Y-133515000D03*
D13*
X100395000Y-129565000D03*
D14*
X92645000Y-131765000D03*
D15*
X92645000Y-125815000D03*
D14*
X97645000Y-129565000D03*
D16*
X89370000Y-131765000D03*
D17*
X87145000Y-125815000D03*
X98145000Y-125815000D03*
D18*
X97725000Y-125815000D03*
D14*
X95185000Y-120735000D03*
D19*
X92645000Y-125815000D03*
D14*
X88835000Y-123275000D03*
D18*
X87565000Y-125815000D03*
D20*
X94233600Y-123559800D03*
X91033600Y-123559800D03*
X94233600Y-118659800D03*
X91033600Y-118659800D03*
D12*
G36*
X85339873Y-134469553D02*
G01*
X83990447Y-133609873D01*
X84850127Y-132260447D01*
X86199553Y-133120127D01*
X85339873Y-134469553D01*
G37*
D10*
X89189223Y-126938357D03*
X103045000Y-118215000D03*
X118245000Y-118215000D03*
X118345000Y-125365000D03*
D11*
X102963000Y-129215000D03*
D10*
X118345000Y-123565000D03*
X102963000Y-127415000D03*
X105045000Y-118115000D03*
D11*
X118345000Y-127165000D03*
D10*
X102963000Y-125615000D03*
D12*
G36*
X106128280Y-129435882D02*
G01*
X105327058Y-128925447D01*
X106025548Y-127829038D01*
X106826770Y-128339473D01*
X106128280Y-129435882D01*
G37*
G36*
X104220866Y-132429922D02*
G01*
X103419644Y-131919487D01*
X104118134Y-130823078D01*
X104919356Y-131333513D01*
X104220866Y-132429922D01*
G37*
D10*
X105045000Y-133515000D03*
D17*
X116145000Y-125815000D03*
X105145000Y-125815000D03*
D16*
X107370000Y-131765000D03*
D14*
X115645000Y-129565000D03*
D15*
X110645000Y-125815000D03*
D14*
X110645000Y-131765000D03*
D13*
X118395000Y-129565000D03*
D18*
X105565000Y-125815000D03*
D14*
X106835000Y-123275000D03*
D19*
X110645000Y-125815000D03*
D14*
X113185000Y-120735000D03*
D18*
X115725000Y-125815000D03*
D20*
X109033600Y-118659800D03*
X112233600Y-118659800D03*
X109033600Y-123559800D03*
X112233600Y-123559800D03*
D10*
X107189223Y-126938357D03*
D12*
G36*
X103339873Y-134469553D02*
G01*
X101990447Y-133609873D01*
X102850127Y-132260447D01*
X104199553Y-133120127D01*
X103339873Y-134469553D01*
G37*
D10*
X85045000Y-136215000D03*
X100245000Y-136215000D03*
X100345000Y-143365000D03*
D11*
X84963000Y-147215000D03*
D10*
X100345000Y-141565000D03*
X84963000Y-145415000D03*
X87045000Y-136115000D03*
D11*
X100345000Y-145165000D03*
D10*
X84963000Y-143615000D03*
D12*
G36*
X88128280Y-147435882D02*
G01*
X87327058Y-146925447D01*
X88025548Y-145829038D01*
X88826770Y-146339473D01*
X88128280Y-147435882D01*
G37*
G36*
X86220866Y-150429922D02*
G01*
X85419644Y-149919487D01*
X86118134Y-148823078D01*
X86919356Y-149333513D01*
X86220866Y-150429922D01*
G37*
D10*
X87045000Y-151515000D03*
D17*
X98145000Y-143815000D03*
X87145000Y-143815000D03*
D16*
X89370000Y-149765000D03*
D14*
X97645000Y-147565000D03*
D15*
X92645000Y-143815000D03*
D14*
X92645000Y-149765000D03*
D13*
X100395000Y-147565000D03*
D18*
X87565000Y-143815000D03*
D14*
X88835000Y-141275000D03*
D19*
X92645000Y-143815000D03*
D14*
X95185000Y-138735000D03*
D18*
X97725000Y-143815000D03*
D20*
X91033600Y-136659800D03*
X94233600Y-136659800D03*
X91033600Y-141559800D03*
X94233600Y-141559800D03*
D10*
X89189223Y-144938357D03*
D12*
G36*
X85339873Y-152469553D02*
G01*
X83990447Y-151609873D01*
X84850127Y-150260447D01*
X86199553Y-151120127D01*
X85339873Y-152469553D01*
G37*
D10*
X103045000Y-136215000D03*
X118245000Y-136215000D03*
X118345000Y-143365000D03*
D11*
X102963000Y-147215000D03*
D10*
X118345000Y-141565000D03*
X102963000Y-145415000D03*
X105045000Y-136115000D03*
D11*
X118345000Y-145165000D03*
D10*
X102963000Y-143615000D03*
D12*
G36*
X104220866Y-150429922D02*
G01*
X103419644Y-149919487D01*
X104118134Y-148823078D01*
X104919356Y-149333513D01*
X104220866Y-150429922D01*
G37*
G36*
X106128280Y-147435882D02*
G01*
X105327058Y-146925447D01*
X106025548Y-145829038D01*
X106826770Y-146339473D01*
X106128280Y-147435882D01*
G37*
D10*
X105045000Y-151515000D03*
D13*
X118395000Y-147565000D03*
D14*
X110645000Y-149765000D03*
D15*
X110645000Y-143815000D03*
D14*
X115645000Y-147565000D03*
D16*
X107370000Y-149765000D03*
D17*
X105145000Y-143815000D03*
X116145000Y-143815000D03*
D18*
X115725000Y-143815000D03*
D14*
X113185000Y-138735000D03*
D19*
X110645000Y-143815000D03*
D14*
X106835000Y-141275000D03*
D18*
X105565000Y-143815000D03*
D20*
X112233600Y-141559800D03*
X109033600Y-141559800D03*
X112233600Y-136659800D03*
X109033600Y-136659800D03*
D12*
G36*
X103339873Y-152469553D02*
G01*
X101990447Y-151609873D01*
X102850127Y-150260447D01*
X104199553Y-151120127D01*
X103339873Y-152469553D01*
G37*
D10*
X107189223Y-144938357D03*
X156963000Y-145415000D03*
X159045000Y-136115000D03*
D11*
X172345000Y-145165000D03*
D10*
X156963000Y-143615000D03*
D12*
G36*
X158220866Y-150429922D02*
G01*
X157419644Y-149919487D01*
X158118134Y-148823078D01*
X158919356Y-149333513D01*
X158220866Y-150429922D01*
G37*
G36*
X160128280Y-147435882D02*
G01*
X159327058Y-146925447D01*
X160025548Y-145829038D01*
X160826770Y-146339473D01*
X160128280Y-147435882D01*
G37*
D10*
X159045000Y-151515000D03*
D13*
X172395000Y-147565000D03*
D14*
X164645000Y-149765000D03*
D15*
X164645000Y-143815000D03*
D14*
X169645000Y-147565000D03*
D16*
X161370000Y-149765000D03*
D17*
X159145000Y-143815000D03*
X170145000Y-143815000D03*
D18*
X169725000Y-143815000D03*
D14*
X167185000Y-138735000D03*
D19*
X164645000Y-143815000D03*
D14*
X160835000Y-141275000D03*
D18*
X159565000Y-143815000D03*
D10*
X179189223Y-144938357D03*
D12*
G36*
X175339873Y-152469553D02*
G01*
X173990447Y-151609873D01*
X174850127Y-150260447D01*
X176199553Y-151120127D01*
X175339873Y-152469553D01*
G37*
D20*
X181033600Y-136659800D03*
X184233600Y-136659800D03*
X181033600Y-141559800D03*
X184233600Y-141559800D03*
D12*
G36*
X157339873Y-152469553D02*
G01*
X155990447Y-151609873D01*
X156850127Y-150260447D01*
X158199553Y-151120127D01*
X157339873Y-152469553D01*
G37*
D10*
X161189223Y-144938357D03*
X190345000Y-143365000D03*
D11*
X174963000Y-147215000D03*
D10*
X190345000Y-141565000D03*
X174963000Y-145415000D03*
X175045000Y-136215000D03*
X190245000Y-136215000D03*
D12*
G36*
X178128280Y-147435882D02*
G01*
X177327058Y-146925447D01*
X178025548Y-145829038D01*
X178826770Y-146339473D01*
X178128280Y-147435882D01*
G37*
G36*
X176220866Y-150429922D02*
G01*
X175419644Y-149919487D01*
X176118134Y-148823078D01*
X176919356Y-149333513D01*
X176220866Y-150429922D01*
G37*
D10*
X177045000Y-151515000D03*
D17*
X188145000Y-143815000D03*
X177145000Y-143815000D03*
D16*
X179370000Y-149765000D03*
D14*
X187645000Y-147565000D03*
D15*
X182645000Y-143815000D03*
D14*
X182645000Y-149765000D03*
D13*
X190395000Y-147565000D03*
D10*
X177045000Y-136115000D03*
D11*
X190345000Y-145165000D03*
D10*
X174963000Y-143615000D03*
D11*
X156963000Y-147215000D03*
D10*
X172345000Y-141565000D03*
D18*
X177565000Y-143815000D03*
D14*
X178835000Y-141275000D03*
D19*
X182645000Y-143815000D03*
D14*
X185185000Y-138735000D03*
D18*
X187725000Y-143815000D03*
D20*
X166233600Y-141559800D03*
X163033600Y-141559800D03*
X166233600Y-136659800D03*
X163033600Y-136659800D03*
D10*
X157045000Y-136215000D03*
X172245000Y-136215000D03*
X172345000Y-143365000D03*
D12*
G36*
X121339873Y-152469553D02*
G01*
X119990447Y-151609873D01*
X120850127Y-150260447D01*
X122199553Y-151120127D01*
X121339873Y-152469553D01*
G37*
D10*
X125189223Y-144938357D03*
X143189223Y-144938357D03*
D12*
G36*
X139339873Y-152469553D02*
G01*
X137990447Y-151609873D01*
X138850127Y-150260447D01*
X140199553Y-151120127D01*
X139339873Y-152469553D01*
G37*
D20*
X145033600Y-136659800D03*
X148233600Y-136659800D03*
X145033600Y-141559800D03*
X148233600Y-141559800D03*
D13*
X136395000Y-147565000D03*
D14*
X128645000Y-149765000D03*
D15*
X128645000Y-143815000D03*
D14*
X133645000Y-147565000D03*
D16*
X125370000Y-149765000D03*
D17*
X123145000Y-143815000D03*
X134145000Y-143815000D03*
D18*
X133725000Y-143815000D03*
D14*
X131185000Y-138735000D03*
D19*
X128645000Y-143815000D03*
D14*
X124835000Y-141275000D03*
D18*
X123565000Y-143815000D03*
D20*
X130233600Y-141559800D03*
X127033600Y-141559800D03*
X130233600Y-136659800D03*
X127033600Y-136659800D03*
D10*
X120963000Y-145415000D03*
X123045000Y-136115000D03*
D11*
X136345000Y-145165000D03*
D10*
X120963000Y-143615000D03*
D12*
G36*
X122220866Y-150429922D02*
G01*
X121419644Y-149919487D01*
X122118134Y-148823078D01*
X122919356Y-149333513D01*
X122220866Y-150429922D01*
G37*
G36*
X124128280Y-147435882D02*
G01*
X123327058Y-146925447D01*
X124025548Y-145829038D01*
X124826770Y-146339473D01*
X124128280Y-147435882D01*
G37*
D10*
X123045000Y-151515000D03*
X139045000Y-136215000D03*
X154245000Y-136215000D03*
X154345000Y-143365000D03*
D11*
X138963000Y-147215000D03*
D10*
X154345000Y-141565000D03*
X138963000Y-145415000D03*
X141045000Y-136115000D03*
D11*
X154345000Y-145165000D03*
D10*
X138963000Y-143615000D03*
D12*
G36*
X142128280Y-147435882D02*
G01*
X141327058Y-146925447D01*
X142025548Y-145829038D01*
X142826770Y-146339473D01*
X142128280Y-147435882D01*
G37*
G36*
X140220866Y-150429922D02*
G01*
X139419644Y-149919487D01*
X140118134Y-148823078D01*
X140919356Y-149333513D01*
X140220866Y-150429922D01*
G37*
D10*
X141045000Y-151515000D03*
D17*
X152145000Y-143815000D03*
X141145000Y-143815000D03*
D16*
X143370000Y-149765000D03*
D14*
X151645000Y-147565000D03*
D15*
X146645000Y-143815000D03*
D14*
X146645000Y-149765000D03*
D13*
X154395000Y-147565000D03*
D18*
X141565000Y-143815000D03*
D14*
X142835000Y-141275000D03*
D19*
X146645000Y-143815000D03*
D14*
X149185000Y-138735000D03*
D18*
X151725000Y-143815000D03*
D11*
X120963000Y-147215000D03*
D10*
X121045000Y-136215000D03*
X136245000Y-136215000D03*
X136345000Y-143365000D03*
X136345000Y-141565000D03*
X156963000Y-127415000D03*
X159045000Y-118115000D03*
D11*
X172345000Y-127165000D03*
D10*
X156963000Y-125615000D03*
D12*
G36*
X160128280Y-129435882D02*
G01*
X159327058Y-128925447D01*
X160025548Y-127829038D01*
X160826770Y-128339473D01*
X160128280Y-129435882D01*
G37*
G36*
X158220866Y-132429922D02*
G01*
X157419644Y-131919487D01*
X158118134Y-130823078D01*
X158919356Y-131333513D01*
X158220866Y-132429922D01*
G37*
D10*
X159045000Y-133515000D03*
D17*
X170145000Y-125815000D03*
X159145000Y-125815000D03*
D16*
X161370000Y-131765000D03*
D14*
X169645000Y-129565000D03*
D15*
X164645000Y-125815000D03*
D14*
X164645000Y-131765000D03*
D13*
X172395000Y-129565000D03*
D18*
X159565000Y-125815000D03*
D14*
X160835000Y-123275000D03*
D19*
X164645000Y-125815000D03*
D14*
X167185000Y-120735000D03*
D18*
X169725000Y-125815000D03*
D12*
G36*
X175339873Y-134469553D02*
G01*
X173990447Y-133609873D01*
X174850127Y-132260447D01*
X176199553Y-133120127D01*
X175339873Y-134469553D01*
G37*
D10*
X179189223Y-126938357D03*
D20*
X184233600Y-123559800D03*
X181033600Y-123559800D03*
X184233600Y-118659800D03*
X181033600Y-118659800D03*
D10*
X161189223Y-126938357D03*
D12*
G36*
X157339873Y-134469553D02*
G01*
X155990447Y-133609873D01*
X156850127Y-132260447D01*
X158199553Y-133120127D01*
X157339873Y-134469553D01*
G37*
D10*
X190345000Y-125365000D03*
D11*
X174963000Y-129215000D03*
D10*
X190345000Y-123565000D03*
X174963000Y-127415000D03*
X175045000Y-118215000D03*
X190245000Y-118215000D03*
D12*
G36*
X176220866Y-132429922D02*
G01*
X175419644Y-131919487D01*
X176118134Y-130823078D01*
X176919356Y-131333513D01*
X176220866Y-132429922D01*
G37*
G36*
X178128280Y-129435882D02*
G01*
X177327058Y-128925447D01*
X178025548Y-127829038D01*
X178826770Y-128339473D01*
X178128280Y-129435882D01*
G37*
D10*
X177045000Y-133515000D03*
D13*
X190395000Y-129565000D03*
D14*
X182645000Y-131765000D03*
D15*
X182645000Y-125815000D03*
D14*
X187645000Y-129565000D03*
D16*
X179370000Y-131765000D03*
D17*
X177145000Y-125815000D03*
X188145000Y-125815000D03*
D10*
X177045000Y-118115000D03*
D11*
X190345000Y-127165000D03*
D10*
X174963000Y-125615000D03*
D11*
X156963000Y-129215000D03*
D10*
X172345000Y-123565000D03*
D18*
X187725000Y-125815000D03*
D14*
X185185000Y-120735000D03*
D19*
X182645000Y-125815000D03*
D14*
X178835000Y-123275000D03*
D18*
X177565000Y-125815000D03*
D20*
X163033600Y-118659800D03*
X166233600Y-118659800D03*
X163033600Y-123559800D03*
X166233600Y-123559800D03*
D10*
X157045000Y-118215000D03*
X172245000Y-118215000D03*
X172345000Y-125365000D03*
X125189223Y-126938357D03*
D12*
G36*
X121339873Y-134469553D02*
G01*
X119990447Y-133609873D01*
X120850127Y-132260447D01*
X122199553Y-133120127D01*
X121339873Y-134469553D01*
G37*
D10*
X139045000Y-118215000D03*
X154245000Y-118215000D03*
X154345000Y-125365000D03*
D11*
X138963000Y-129215000D03*
D10*
X154345000Y-123565000D03*
X138963000Y-127415000D03*
X141045000Y-118115000D03*
D11*
X154345000Y-127165000D03*
D10*
X138963000Y-125615000D03*
D12*
G36*
X140220866Y-132429922D02*
G01*
X139419644Y-131919487D01*
X140118134Y-130823078D01*
X140919356Y-131333513D01*
X140220866Y-132429922D01*
G37*
G36*
X142128280Y-129435882D02*
G01*
X141327058Y-128925447D01*
X142025548Y-127829038D01*
X142826770Y-128339473D01*
X142128280Y-129435882D01*
G37*
D10*
X141045000Y-133515000D03*
D13*
X154395000Y-129565000D03*
D14*
X146645000Y-131765000D03*
D15*
X146645000Y-125815000D03*
D14*
X151645000Y-129565000D03*
D16*
X143370000Y-131765000D03*
D17*
X141145000Y-125815000D03*
X152145000Y-125815000D03*
D18*
X151725000Y-125815000D03*
D14*
X149185000Y-120735000D03*
D19*
X146645000Y-125815000D03*
D14*
X142835000Y-123275000D03*
D18*
X141565000Y-125815000D03*
D20*
X148233600Y-123559800D03*
X145033600Y-123559800D03*
X148233600Y-118659800D03*
X145033600Y-118659800D03*
D12*
G36*
X139339873Y-134469553D02*
G01*
X137990447Y-133609873D01*
X138850127Y-132260447D01*
X140199553Y-133120127D01*
X139339873Y-134469553D01*
G37*
D10*
X143189223Y-126938357D03*
X121045000Y-118215000D03*
X136245000Y-118215000D03*
X136345000Y-125365000D03*
D11*
X120963000Y-129215000D03*
D10*
X136345000Y-123565000D03*
X120963000Y-127415000D03*
X123045000Y-118115000D03*
D11*
X136345000Y-127165000D03*
D10*
X120963000Y-125615000D03*
D12*
G36*
X124128280Y-129435882D02*
G01*
X123327058Y-128925447D01*
X124025548Y-127829038D01*
X124826770Y-128339473D01*
X124128280Y-129435882D01*
G37*
G36*
X122220866Y-132429922D02*
G01*
X121419644Y-131919487D01*
X122118134Y-130823078D01*
X122919356Y-131333513D01*
X122220866Y-132429922D01*
G37*
D10*
X123045000Y-133515000D03*
D17*
X134145000Y-125815000D03*
X123145000Y-125815000D03*
D16*
X125370000Y-131765000D03*
D14*
X133645000Y-129565000D03*
D15*
X128645000Y-125815000D03*
D14*
X128645000Y-131765000D03*
D13*
X136395000Y-129565000D03*
D18*
X123565000Y-125815000D03*
D14*
X124835000Y-123275000D03*
D19*
X128645000Y-125815000D03*
D14*
X131185000Y-120735000D03*
D18*
X133725000Y-125815000D03*
D20*
X127033600Y-118659800D03*
X130233600Y-118659800D03*
X127033600Y-123559800D03*
X130233600Y-123559800D03*
D10*
X85045000Y-82215000D03*
X100245000Y-82215000D03*
X100345000Y-89365000D03*
D11*
X84963000Y-93215000D03*
D10*
X100345000Y-87565000D03*
X84963000Y-91415000D03*
X87045000Y-82115000D03*
D11*
X100345000Y-91165000D03*
D10*
X84963000Y-89615000D03*
D12*
G36*
X86220866Y-96429922D02*
G01*
X85419644Y-95919487D01*
X86118134Y-94823078D01*
X86919356Y-95333513D01*
X86220866Y-96429922D01*
G37*
G36*
X88128280Y-93435882D02*
G01*
X87327058Y-92925447D01*
X88025548Y-91829038D01*
X88826770Y-92339473D01*
X88128280Y-93435882D01*
G37*
D10*
X87045000Y-97515000D03*
D13*
X100395000Y-93565000D03*
D14*
X92645000Y-95765000D03*
D15*
X92645000Y-89815000D03*
D14*
X97645000Y-93565000D03*
D16*
X89370000Y-95765000D03*
D17*
X87145000Y-89815000D03*
X98145000Y-89815000D03*
D18*
X97725000Y-89815000D03*
D14*
X95185000Y-84735000D03*
D19*
X92645000Y-89815000D03*
D14*
X88835000Y-87275000D03*
D18*
X87565000Y-89815000D03*
D20*
X94233600Y-87559800D03*
X91033600Y-87559800D03*
X94233600Y-82659800D03*
X91033600Y-82659800D03*
D12*
G36*
X85339873Y-98469553D02*
G01*
X83990447Y-97609873D01*
X84850127Y-96260447D01*
X86199553Y-97120127D01*
X85339873Y-98469553D01*
G37*
D10*
X89189223Y-90938357D03*
X103045000Y-82215000D03*
X118245000Y-82215000D03*
X118345000Y-89365000D03*
D11*
X102963000Y-93215000D03*
D10*
X118345000Y-87565000D03*
X102963000Y-91415000D03*
X105045000Y-82115000D03*
D11*
X118345000Y-91165000D03*
D10*
X102963000Y-89615000D03*
D12*
G36*
X106128280Y-93435882D02*
G01*
X105327058Y-92925447D01*
X106025548Y-91829038D01*
X106826770Y-92339473D01*
X106128280Y-93435882D01*
G37*
G36*
X104220866Y-96429922D02*
G01*
X103419644Y-95919487D01*
X104118134Y-94823078D01*
X104919356Y-95333513D01*
X104220866Y-96429922D01*
G37*
D10*
X105045000Y-97515000D03*
D17*
X116145000Y-89815000D03*
X105145000Y-89815000D03*
D16*
X107370000Y-95765000D03*
D14*
X115645000Y-93565000D03*
D15*
X110645000Y-89815000D03*
D14*
X110645000Y-95765000D03*
D13*
X118395000Y-93565000D03*
D18*
X105565000Y-89815000D03*
D14*
X106835000Y-87275000D03*
D19*
X110645000Y-89815000D03*
D14*
X113185000Y-84735000D03*
D18*
X115725000Y-89815000D03*
D20*
X109033600Y-82659800D03*
X112233600Y-82659800D03*
X109033600Y-87559800D03*
X112233600Y-87559800D03*
D10*
X107189223Y-90938357D03*
D12*
G36*
X103339873Y-98469553D02*
G01*
X101990447Y-97609873D01*
X102850127Y-96260447D01*
X104199553Y-97120127D01*
X103339873Y-98469553D01*
G37*
D10*
X85045000Y-100215000D03*
X100245000Y-100215000D03*
X100345000Y-107365000D03*
D11*
X84963000Y-111215000D03*
D10*
X100345000Y-105565000D03*
X84963000Y-109415000D03*
X87045000Y-100115000D03*
D11*
X100345000Y-109165000D03*
D10*
X84963000Y-107615000D03*
D12*
G36*
X88128280Y-111435882D02*
G01*
X87327058Y-110925447D01*
X88025548Y-109829038D01*
X88826770Y-110339473D01*
X88128280Y-111435882D01*
G37*
G36*
X86220866Y-114429922D02*
G01*
X85419644Y-113919487D01*
X86118134Y-112823078D01*
X86919356Y-113333513D01*
X86220866Y-114429922D01*
G37*
D10*
X87045000Y-115515000D03*
D17*
X98145000Y-107815000D03*
X87145000Y-107815000D03*
D16*
X89370000Y-113765000D03*
D14*
X97645000Y-111565000D03*
D15*
X92645000Y-107815000D03*
D14*
X92645000Y-113765000D03*
D13*
X100395000Y-111565000D03*
D18*
X87565000Y-107815000D03*
D14*
X88835000Y-105275000D03*
D19*
X92645000Y-107815000D03*
D14*
X95185000Y-102735000D03*
D18*
X97725000Y-107815000D03*
D20*
X91033600Y-100659800D03*
X94233600Y-100659800D03*
X91033600Y-105559800D03*
X94233600Y-105559800D03*
D10*
X89189223Y-108938357D03*
D12*
G36*
X85339873Y-116469553D02*
G01*
X83990447Y-115609873D01*
X84850127Y-114260447D01*
X86199553Y-115120127D01*
X85339873Y-116469553D01*
G37*
D10*
X103045000Y-100215000D03*
X118245000Y-100215000D03*
X118345000Y-107365000D03*
D11*
X102963000Y-111215000D03*
D10*
X118345000Y-105565000D03*
X102963000Y-109415000D03*
X105045000Y-100115000D03*
D11*
X118345000Y-109165000D03*
D10*
X102963000Y-107615000D03*
D12*
G36*
X104220866Y-114429922D02*
G01*
X103419644Y-113919487D01*
X104118134Y-112823078D01*
X104919356Y-113333513D01*
X104220866Y-114429922D01*
G37*
G36*
X106128280Y-111435882D02*
G01*
X105327058Y-110925447D01*
X106025548Y-109829038D01*
X106826770Y-110339473D01*
X106128280Y-111435882D01*
G37*
D10*
X105045000Y-115515000D03*
D13*
X118395000Y-111565000D03*
D14*
X110645000Y-113765000D03*
D15*
X110645000Y-107815000D03*
D14*
X115645000Y-111565000D03*
D16*
X107370000Y-113765000D03*
D17*
X105145000Y-107815000D03*
X116145000Y-107815000D03*
D18*
X115725000Y-107815000D03*
D14*
X113185000Y-102735000D03*
D19*
X110645000Y-107815000D03*
D14*
X106835000Y-105275000D03*
D18*
X105565000Y-107815000D03*
D20*
X112233600Y-105559800D03*
X109033600Y-105559800D03*
X112233600Y-100659800D03*
X109033600Y-100659800D03*
D12*
G36*
X103339873Y-116469553D02*
G01*
X101990447Y-115609873D01*
X102850127Y-114260447D01*
X104199553Y-115120127D01*
X103339873Y-116469553D01*
G37*
D10*
X107189223Y-108938357D03*
X156963000Y-109415000D03*
X159045000Y-100115000D03*
D11*
X172345000Y-109165000D03*
D10*
X156963000Y-107615000D03*
D12*
G36*
X158220866Y-114429922D02*
G01*
X157419644Y-113919487D01*
X158118134Y-112823078D01*
X158919356Y-113333513D01*
X158220866Y-114429922D01*
G37*
G36*
X160128280Y-111435882D02*
G01*
X159327058Y-110925447D01*
X160025548Y-109829038D01*
X160826770Y-110339473D01*
X160128280Y-111435882D01*
G37*
D10*
X159045000Y-115515000D03*
D13*
X172395000Y-111565000D03*
D14*
X164645000Y-113765000D03*
D15*
X164645000Y-107815000D03*
D14*
X169645000Y-111565000D03*
D16*
X161370000Y-113765000D03*
D17*
X159145000Y-107815000D03*
X170145000Y-107815000D03*
D18*
X169725000Y-107815000D03*
D14*
X167185000Y-102735000D03*
D19*
X164645000Y-107815000D03*
D14*
X160835000Y-105275000D03*
D18*
X159565000Y-107815000D03*
D10*
X179189223Y-108938357D03*
D12*
G36*
X175339873Y-116469553D02*
G01*
X173990447Y-115609873D01*
X174850127Y-114260447D01*
X176199553Y-115120127D01*
X175339873Y-116469553D01*
G37*
D20*
X181033600Y-100659800D03*
X184233600Y-100659800D03*
X181033600Y-105559800D03*
X184233600Y-105559800D03*
D12*
G36*
X157339873Y-116469553D02*
G01*
X155990447Y-115609873D01*
X156850127Y-114260447D01*
X158199553Y-115120127D01*
X157339873Y-116469553D01*
G37*
D10*
X161189223Y-108938357D03*
X190345000Y-107365000D03*
D11*
X174963000Y-111215000D03*
D10*
X190345000Y-105565000D03*
X174963000Y-109415000D03*
X175045000Y-100215000D03*
X190245000Y-100215000D03*
D12*
G36*
X178128280Y-111435882D02*
G01*
X177327058Y-110925447D01*
X178025548Y-109829038D01*
X178826770Y-110339473D01*
X178128280Y-111435882D01*
G37*
G36*
X176220866Y-114429922D02*
G01*
X175419644Y-113919487D01*
X176118134Y-112823078D01*
X176919356Y-113333513D01*
X176220866Y-114429922D01*
G37*
D10*
X177045000Y-115515000D03*
D17*
X188145000Y-107815000D03*
X177145000Y-107815000D03*
D16*
X179370000Y-113765000D03*
D14*
X187645000Y-111565000D03*
D15*
X182645000Y-107815000D03*
D14*
X182645000Y-113765000D03*
D13*
X190395000Y-111565000D03*
D10*
X177045000Y-100115000D03*
D11*
X190345000Y-109165000D03*
D10*
X174963000Y-107615000D03*
D11*
X156963000Y-111215000D03*
D10*
X172345000Y-105565000D03*
D18*
X177565000Y-107815000D03*
D14*
X178835000Y-105275000D03*
D19*
X182645000Y-107815000D03*
D14*
X185185000Y-102735000D03*
D18*
X187725000Y-107815000D03*
D20*
X166233600Y-105559800D03*
X163033600Y-105559800D03*
X166233600Y-100659800D03*
X163033600Y-100659800D03*
D10*
X157045000Y-100215000D03*
X172245000Y-100215000D03*
X172345000Y-107365000D03*
D12*
G36*
X121339873Y-116469553D02*
G01*
X119990447Y-115609873D01*
X120850127Y-114260447D01*
X122199553Y-115120127D01*
X121339873Y-116469553D01*
G37*
D10*
X125189223Y-108938357D03*
X143189223Y-108938357D03*
D12*
G36*
X139339873Y-116469553D02*
G01*
X137990447Y-115609873D01*
X138850127Y-114260447D01*
X140199553Y-115120127D01*
X139339873Y-116469553D01*
G37*
D20*
X145033600Y-100659800D03*
X148233600Y-100659800D03*
X145033600Y-105559800D03*
X148233600Y-105559800D03*
D13*
X136395000Y-111565000D03*
D14*
X128645000Y-113765000D03*
D15*
X128645000Y-107815000D03*
D14*
X133645000Y-111565000D03*
D16*
X125370000Y-113765000D03*
D17*
X123145000Y-107815000D03*
X134145000Y-107815000D03*
D18*
X133725000Y-107815000D03*
D14*
X131185000Y-102735000D03*
D19*
X128645000Y-107815000D03*
D14*
X124835000Y-105275000D03*
D18*
X123565000Y-107815000D03*
D20*
X130233600Y-105559800D03*
X127033600Y-105559800D03*
X130233600Y-100659800D03*
X127033600Y-100659800D03*
D10*
X120963000Y-109415000D03*
X123045000Y-100115000D03*
D11*
X136345000Y-109165000D03*
D10*
X120963000Y-107615000D03*
D12*
G36*
X122220866Y-114429922D02*
G01*
X121419644Y-113919487D01*
X122118134Y-112823078D01*
X122919356Y-113333513D01*
X122220866Y-114429922D01*
G37*
G36*
X124128280Y-111435882D02*
G01*
X123327058Y-110925447D01*
X124025548Y-109829038D01*
X124826770Y-110339473D01*
X124128280Y-111435882D01*
G37*
D10*
X123045000Y-115515000D03*
X139045000Y-100215000D03*
X154245000Y-100215000D03*
X154345000Y-107365000D03*
D11*
X138963000Y-111215000D03*
D10*
X154345000Y-105565000D03*
X138963000Y-109415000D03*
X141045000Y-100115000D03*
D11*
X154345000Y-109165000D03*
D10*
X138963000Y-107615000D03*
D12*
G36*
X142128280Y-111435882D02*
G01*
X141327058Y-110925447D01*
X142025548Y-109829038D01*
X142826770Y-110339473D01*
X142128280Y-111435882D01*
G37*
G36*
X140220866Y-114429922D02*
G01*
X139419644Y-113919487D01*
X140118134Y-112823078D01*
X140919356Y-113333513D01*
X140220866Y-114429922D01*
G37*
D10*
X141045000Y-115515000D03*
D17*
X152145000Y-107815000D03*
X141145000Y-107815000D03*
D16*
X143370000Y-113765000D03*
D14*
X151645000Y-111565000D03*
D15*
X146645000Y-107815000D03*
D14*
X146645000Y-113765000D03*
D13*
X154395000Y-111565000D03*
D18*
X141565000Y-107815000D03*
D14*
X142835000Y-105275000D03*
D19*
X146645000Y-107815000D03*
D14*
X149185000Y-102735000D03*
D18*
X151725000Y-107815000D03*
D11*
X120963000Y-111215000D03*
D10*
X121045000Y-100215000D03*
X136245000Y-100215000D03*
X136345000Y-107365000D03*
X136345000Y-105565000D03*
X156963000Y-91415000D03*
X159045000Y-82115000D03*
D11*
X172345000Y-91165000D03*
D10*
X156963000Y-89615000D03*
D12*
G36*
X160128280Y-93435882D02*
G01*
X159327058Y-92925447D01*
X160025548Y-91829038D01*
X160826770Y-92339473D01*
X160128280Y-93435882D01*
G37*
G36*
X158220866Y-96429922D02*
G01*
X157419644Y-95919487D01*
X158118134Y-94823078D01*
X158919356Y-95333513D01*
X158220866Y-96429922D01*
G37*
D10*
X159045000Y-97515000D03*
D17*
X170145000Y-89815000D03*
X159145000Y-89815000D03*
D16*
X161370000Y-95765000D03*
D14*
X169645000Y-93565000D03*
D15*
X164645000Y-89815000D03*
D14*
X164645000Y-95765000D03*
D13*
X172395000Y-93565000D03*
D18*
X159565000Y-89815000D03*
D14*
X160835000Y-87275000D03*
D19*
X164645000Y-89815000D03*
D14*
X167185000Y-84735000D03*
D18*
X169725000Y-89815000D03*
D12*
G36*
X175339873Y-98469553D02*
G01*
X173990447Y-97609873D01*
X174850127Y-96260447D01*
X176199553Y-97120127D01*
X175339873Y-98469553D01*
G37*
D10*
X179189223Y-90938357D03*
D20*
X184233600Y-87559800D03*
X181033600Y-87559800D03*
X184233600Y-82659800D03*
X181033600Y-82659800D03*
D10*
X161189223Y-90938357D03*
D12*
G36*
X157339873Y-98469553D02*
G01*
X155990447Y-97609873D01*
X156850127Y-96260447D01*
X158199553Y-97120127D01*
X157339873Y-98469553D01*
G37*
D10*
X190345000Y-89365000D03*
D11*
X174963000Y-93215000D03*
D10*
X190345000Y-87565000D03*
X174963000Y-91415000D03*
X175045000Y-82215000D03*
X190245000Y-82215000D03*
D12*
G36*
X176220866Y-96429922D02*
G01*
X175419644Y-95919487D01*
X176118134Y-94823078D01*
X176919356Y-95333513D01*
X176220866Y-96429922D01*
G37*
G36*
X178128280Y-93435882D02*
G01*
X177327058Y-92925447D01*
X178025548Y-91829038D01*
X178826770Y-92339473D01*
X178128280Y-93435882D01*
G37*
D10*
X177045000Y-97515000D03*
D13*
X190395000Y-93565000D03*
D14*
X182645000Y-95765000D03*
D15*
X182645000Y-89815000D03*
D14*
X187645000Y-93565000D03*
D16*
X179370000Y-95765000D03*
D17*
X177145000Y-89815000D03*
X188145000Y-89815000D03*
D10*
X177045000Y-82115000D03*
D11*
X190345000Y-91165000D03*
D10*
X174963000Y-89615000D03*
D11*
X156963000Y-93215000D03*
D10*
X172345000Y-87565000D03*
D18*
X187725000Y-89815000D03*
D14*
X185185000Y-84735000D03*
D19*
X182645000Y-89815000D03*
D14*
X178835000Y-87275000D03*
D18*
X177565000Y-89815000D03*
D20*
X163033600Y-82659800D03*
X166233600Y-82659800D03*
X163033600Y-87559800D03*
X166233600Y-87559800D03*
D10*
X157045000Y-82215000D03*
X172245000Y-82215000D03*
X172345000Y-89365000D03*
X125189223Y-90938357D03*
D12*
G36*
X121339873Y-98469553D02*
G01*
X119990447Y-97609873D01*
X120850127Y-96260447D01*
X122199553Y-97120127D01*
X121339873Y-98469553D01*
G37*
D10*
X139045000Y-82215000D03*
X154245000Y-82215000D03*
X154345000Y-89365000D03*
D11*
X138963000Y-93215000D03*
D10*
X154345000Y-87565000D03*
X138963000Y-91415000D03*
X141045000Y-82115000D03*
D11*
X154345000Y-91165000D03*
D10*
X138963000Y-89615000D03*
D12*
G36*
X140220866Y-96429922D02*
G01*
X139419644Y-95919487D01*
X140118134Y-94823078D01*
X140919356Y-95333513D01*
X140220866Y-96429922D01*
G37*
G36*
X142128280Y-93435882D02*
G01*
X141327058Y-92925447D01*
X142025548Y-91829038D01*
X142826770Y-92339473D01*
X142128280Y-93435882D01*
G37*
D10*
X141045000Y-97515000D03*
D13*
X154395000Y-93565000D03*
D14*
X146645000Y-95765000D03*
D15*
X146645000Y-89815000D03*
D14*
X151645000Y-93565000D03*
D16*
X143370000Y-95765000D03*
D17*
X141145000Y-89815000D03*
X152145000Y-89815000D03*
D18*
X151725000Y-89815000D03*
D14*
X149185000Y-84735000D03*
D19*
X146645000Y-89815000D03*
D14*
X142835000Y-87275000D03*
D18*
X141565000Y-89815000D03*
D20*
X148233600Y-87559800D03*
X145033600Y-87559800D03*
X148233600Y-82659800D03*
X145033600Y-82659800D03*
D12*
G36*
X139339873Y-98469553D02*
G01*
X137990447Y-97609873D01*
X138850127Y-96260447D01*
X140199553Y-97120127D01*
X139339873Y-98469553D01*
G37*
D10*
X143189223Y-90938357D03*
X121045000Y-82215000D03*
X136245000Y-82215000D03*
X136345000Y-89365000D03*
D11*
X120963000Y-93215000D03*
D10*
X136345000Y-87565000D03*
X120963000Y-91415000D03*
X123045000Y-82115000D03*
D11*
X136345000Y-91165000D03*
D10*
X120963000Y-89615000D03*
D12*
G36*
X124128280Y-93435882D02*
G01*
X123327058Y-92925447D01*
X124025548Y-91829038D01*
X124826770Y-92339473D01*
X124128280Y-93435882D01*
G37*
G36*
X122220866Y-96429922D02*
G01*
X121419644Y-95919487D01*
X122118134Y-94823078D01*
X122919356Y-95333513D01*
X122220866Y-96429922D01*
G37*
D10*
X123045000Y-97515000D03*
D17*
X134145000Y-89815000D03*
X123145000Y-89815000D03*
D16*
X125370000Y-95765000D03*
D14*
X133645000Y-93565000D03*
D15*
X128645000Y-89815000D03*
D14*
X128645000Y-95765000D03*
D13*
X136395000Y-93565000D03*
D18*
X123565000Y-89815000D03*
D14*
X124835000Y-87275000D03*
D19*
X128645000Y-89815000D03*
D14*
X131185000Y-84735000D03*
D18*
X133725000Y-89815000D03*
D20*
X127033600Y-82659800D03*
X130233600Y-82659800D03*
X127033600Y-87559800D03*
X130233600Y-87559800D03*
D10*
X85045000Y-64215000D03*
X100245000Y-64215000D03*
X100345000Y-71365000D03*
D11*
X84963000Y-75215000D03*
D10*
X100345000Y-69565000D03*
X84963000Y-73415000D03*
X87045000Y-64115000D03*
D11*
X100345000Y-73165000D03*
D10*
X84963000Y-71615000D03*
D12*
G36*
X86220866Y-78429922D02*
G01*
X85419644Y-77919487D01*
X86118134Y-76823078D01*
X86919356Y-77333513D01*
X86220866Y-78429922D01*
G37*
G36*
X88128280Y-75435882D02*
G01*
X87327058Y-74925447D01*
X88025548Y-73829038D01*
X88826770Y-74339473D01*
X88128280Y-75435882D01*
G37*
D10*
X87045000Y-79515000D03*
D13*
X100395000Y-75565000D03*
D14*
X92645000Y-77765000D03*
D15*
X92645000Y-71815000D03*
D14*
X97645000Y-75565000D03*
D16*
X89370000Y-77765000D03*
D17*
X87145000Y-71815000D03*
X98145000Y-71815000D03*
D18*
X97725000Y-71815000D03*
D14*
X95185000Y-66735000D03*
D19*
X92645000Y-71815000D03*
D14*
X88835000Y-69275000D03*
D18*
X87565000Y-71815000D03*
D20*
X94233600Y-69559800D03*
X91033600Y-69559800D03*
X94233600Y-64659800D03*
X91033600Y-64659800D03*
D12*
G36*
X85339873Y-80469553D02*
G01*
X83990447Y-79609873D01*
X84850127Y-78260447D01*
X86199553Y-79120127D01*
X85339873Y-80469553D01*
G37*
D10*
X89189223Y-72938357D03*
X103045000Y-64215000D03*
X118245000Y-64215000D03*
X118345000Y-71365000D03*
D11*
X102963000Y-75215000D03*
D10*
X118345000Y-69565000D03*
X102963000Y-73415000D03*
X105045000Y-64115000D03*
D11*
X118345000Y-73165000D03*
D10*
X102963000Y-71615000D03*
D12*
G36*
X106128280Y-75435882D02*
G01*
X105327058Y-74925447D01*
X106025548Y-73829038D01*
X106826770Y-74339473D01*
X106128280Y-75435882D01*
G37*
G36*
X104220866Y-78429922D02*
G01*
X103419644Y-77919487D01*
X104118134Y-76823078D01*
X104919356Y-77333513D01*
X104220866Y-78429922D01*
G37*
D10*
X105045000Y-79515000D03*
D17*
X116145000Y-71815000D03*
X105145000Y-71815000D03*
D16*
X107370000Y-77765000D03*
D14*
X115645000Y-75565000D03*
D15*
X110645000Y-71815000D03*
D14*
X110645000Y-77765000D03*
D13*
X118395000Y-75565000D03*
D18*
X105565000Y-71815000D03*
D14*
X106835000Y-69275000D03*
D19*
X110645000Y-71815000D03*
D14*
X113185000Y-66735000D03*
D18*
X115725000Y-71815000D03*
D20*
X109033600Y-64659800D03*
X112233600Y-64659800D03*
X109033600Y-69559800D03*
X112233600Y-69559800D03*
D10*
X107189223Y-72938357D03*
D12*
G36*
X103339873Y-80469553D02*
G01*
X101990447Y-79609873D01*
X102850127Y-78260447D01*
X104199553Y-79120127D01*
X103339873Y-80469553D01*
G37*
D10*
X156963000Y-73415000D03*
X159045000Y-64115000D03*
D11*
X172345000Y-73165000D03*
D10*
X156963000Y-71615000D03*
D12*
G36*
X160128280Y-75435882D02*
G01*
X159327058Y-74925447D01*
X160025548Y-73829038D01*
X160826770Y-74339473D01*
X160128280Y-75435882D01*
G37*
G36*
X158220866Y-78429922D02*
G01*
X157419644Y-77919487D01*
X158118134Y-76823078D01*
X158919356Y-77333513D01*
X158220866Y-78429922D01*
G37*
D10*
X159045000Y-79515000D03*
D17*
X170145000Y-71815000D03*
X159145000Y-71815000D03*
D16*
X161370000Y-77765000D03*
D14*
X169645000Y-75565000D03*
D15*
X164645000Y-71815000D03*
D14*
X164645000Y-77765000D03*
D13*
X172395000Y-75565000D03*
D18*
X159565000Y-71815000D03*
D14*
X160835000Y-69275000D03*
D19*
X164645000Y-71815000D03*
D14*
X167185000Y-66735000D03*
D18*
X169725000Y-71815000D03*
D12*
G36*
X175339873Y-80469553D02*
G01*
X173990447Y-79609873D01*
X174850127Y-78260447D01*
X176199553Y-79120127D01*
X175339873Y-80469553D01*
G37*
D10*
X179189223Y-72938357D03*
D20*
X184233600Y-69559800D03*
X181033600Y-69559800D03*
X184233600Y-64659800D03*
X181033600Y-64659800D03*
D10*
X161189223Y-72938357D03*
D12*
G36*
X157339873Y-80469553D02*
G01*
X155990447Y-79609873D01*
X156850127Y-78260447D01*
X158199553Y-79120127D01*
X157339873Y-80469553D01*
G37*
D10*
X190345000Y-71365000D03*
D11*
X174963000Y-75215000D03*
D10*
X190345000Y-69565000D03*
X174963000Y-73415000D03*
X175045000Y-64215000D03*
X190245000Y-64215000D03*
D12*
G36*
X176220866Y-78429922D02*
G01*
X175419644Y-77919487D01*
X176118134Y-76823078D01*
X176919356Y-77333513D01*
X176220866Y-78429922D01*
G37*
G36*
X178128280Y-75435882D02*
G01*
X177327058Y-74925447D01*
X178025548Y-73829038D01*
X178826770Y-74339473D01*
X178128280Y-75435882D01*
G37*
D10*
X177045000Y-79515000D03*
D13*
X190395000Y-75565000D03*
D14*
X182645000Y-77765000D03*
D15*
X182645000Y-71815000D03*
D14*
X187645000Y-75565000D03*
D16*
X179370000Y-77765000D03*
D17*
X177145000Y-71815000D03*
X188145000Y-71815000D03*
D10*
X177045000Y-64115000D03*
D11*
X190345000Y-73165000D03*
D10*
X174963000Y-71615000D03*
D11*
X156963000Y-75215000D03*
D10*
X172345000Y-69565000D03*
D18*
X187725000Y-71815000D03*
D14*
X185185000Y-66735000D03*
D19*
X182645000Y-71815000D03*
D14*
X178835000Y-69275000D03*
D18*
X177565000Y-71815000D03*
D20*
X163033600Y-64659800D03*
X166233600Y-64659800D03*
X163033600Y-69559800D03*
X166233600Y-69559800D03*
D10*
X157045000Y-64215000D03*
X172245000Y-64215000D03*
X172345000Y-71365000D03*
X125189223Y-72938357D03*
D12*
G36*
X121339873Y-80469553D02*
G01*
X119990447Y-79609873D01*
X120850127Y-78260447D01*
X122199553Y-79120127D01*
X121339873Y-80469553D01*
G37*
D10*
X139045000Y-64215000D03*
X154245000Y-64215000D03*
X154345000Y-71365000D03*
D11*
X138963000Y-75215000D03*
D10*
X154345000Y-69565000D03*
X138963000Y-73415000D03*
X141045000Y-64115000D03*
D11*
X154345000Y-73165000D03*
D10*
X138963000Y-71615000D03*
D12*
G36*
X140220866Y-78429922D02*
G01*
X139419644Y-77919487D01*
X140118134Y-76823078D01*
X140919356Y-77333513D01*
X140220866Y-78429922D01*
G37*
G36*
X142128280Y-75435882D02*
G01*
X141327058Y-74925447D01*
X142025548Y-73829038D01*
X142826770Y-74339473D01*
X142128280Y-75435882D01*
G37*
D10*
X141045000Y-79515000D03*
D13*
X154395000Y-75565000D03*
D14*
X146645000Y-77765000D03*
D15*
X146645000Y-71815000D03*
D14*
X151645000Y-75565000D03*
D16*
X143370000Y-77765000D03*
D17*
X141145000Y-71815000D03*
X152145000Y-71815000D03*
D18*
X151725000Y-71815000D03*
D14*
X149185000Y-66735000D03*
D19*
X146645000Y-71815000D03*
D14*
X142835000Y-69275000D03*
D18*
X141565000Y-71815000D03*
D20*
X148233600Y-69559800D03*
X145033600Y-69559800D03*
X148233600Y-64659800D03*
X145033600Y-64659800D03*
D12*
G36*
X139339873Y-80469553D02*
G01*
X137990447Y-79609873D01*
X138850127Y-78260447D01*
X140199553Y-79120127D01*
X139339873Y-80469553D01*
G37*
D10*
X143189223Y-72938357D03*
X121045000Y-64215000D03*
X136245000Y-64215000D03*
X136345000Y-71365000D03*
D11*
X120963000Y-75215000D03*
D10*
X136345000Y-69565000D03*
X120963000Y-73415000D03*
X123045000Y-64115000D03*
D11*
X136345000Y-73165000D03*
D10*
X120963000Y-71615000D03*
D12*
G36*
X124128280Y-75435882D02*
G01*
X123327058Y-74925447D01*
X124025548Y-73829038D01*
X124826770Y-74339473D01*
X124128280Y-75435882D01*
G37*
G36*
X122220866Y-78429922D02*
G01*
X121419644Y-77919487D01*
X122118134Y-76823078D01*
X122919356Y-77333513D01*
X122220866Y-78429922D01*
G37*
D10*
X123045000Y-79515000D03*
D17*
X134145000Y-71815000D03*
X123145000Y-71815000D03*
D16*
X125370000Y-77765000D03*
D14*
X133645000Y-75565000D03*
D15*
X128645000Y-71815000D03*
D14*
X128645000Y-77765000D03*
D13*
X136395000Y-75565000D03*
D18*
X123565000Y-71815000D03*
D14*
X124835000Y-69275000D03*
D19*
X128645000Y-71815000D03*
D14*
X131185000Y-66735000D03*
D18*
X133725000Y-71815000D03*
D20*
X127033600Y-64659800D03*
X130233600Y-64659800D03*
X127033600Y-69559800D03*
X130233600Y-69559800D03*
D10*
X157045000Y-46215000D03*
X172245000Y-46215000D03*
X172345000Y-53365000D03*
D11*
X156963000Y-57215000D03*
D10*
X172345000Y-51565000D03*
X156963000Y-55415000D03*
X159045000Y-46115000D03*
D11*
X172345000Y-55165000D03*
D10*
X156963000Y-53615000D03*
D12*
G36*
X158220866Y-60429922D02*
G01*
X157419644Y-59919487D01*
X158118134Y-58823078D01*
X158919356Y-59333513D01*
X158220866Y-60429922D01*
G37*
G36*
X160128280Y-57435882D02*
G01*
X159327058Y-56925447D01*
X160025548Y-55829038D01*
X160826770Y-56339473D01*
X160128280Y-57435882D01*
G37*
D10*
X159045000Y-61515000D03*
D13*
X172395000Y-57565000D03*
D14*
X164645000Y-59765000D03*
D15*
X164645000Y-53815000D03*
D14*
X169645000Y-57565000D03*
D16*
X161370000Y-59765000D03*
D17*
X159145000Y-53815000D03*
X170145000Y-53815000D03*
D18*
X169725000Y-53815000D03*
D14*
X167185000Y-48735000D03*
D19*
X164645000Y-53815000D03*
D14*
X160835000Y-51275000D03*
D18*
X159565000Y-53815000D03*
D20*
X166233600Y-51559800D03*
X163033600Y-51559800D03*
X166233600Y-46659800D03*
X163033600Y-46659800D03*
D12*
G36*
X157339873Y-62469553D02*
G01*
X155990447Y-61609873D01*
X156850127Y-60260447D01*
X158199553Y-61120127D01*
X157339873Y-62469553D01*
G37*
D10*
X161189223Y-54938357D03*
X175045000Y-46215000D03*
X190245000Y-46215000D03*
X190345000Y-53365000D03*
D11*
X174963000Y-57215000D03*
D10*
X190345000Y-51565000D03*
X174963000Y-55415000D03*
X177045000Y-46115000D03*
D11*
X190345000Y-55165000D03*
D10*
X174963000Y-53615000D03*
D12*
G36*
X178128280Y-57435882D02*
G01*
X177327058Y-56925447D01*
X178025548Y-55829038D01*
X178826770Y-56339473D01*
X178128280Y-57435882D01*
G37*
G36*
X176220866Y-60429922D02*
G01*
X175419644Y-59919487D01*
X176118134Y-58823078D01*
X176919356Y-59333513D01*
X176220866Y-60429922D01*
G37*
D10*
X177045000Y-61515000D03*
D17*
X188145000Y-53815000D03*
X177145000Y-53815000D03*
D16*
X179370000Y-59765000D03*
D14*
X187645000Y-57565000D03*
D15*
X182645000Y-53815000D03*
D14*
X182645000Y-59765000D03*
D13*
X190395000Y-57565000D03*
D18*
X177565000Y-53815000D03*
D14*
X178835000Y-51275000D03*
D19*
X182645000Y-53815000D03*
D14*
X185185000Y-48735000D03*
D18*
X187725000Y-53815000D03*
D20*
X181033600Y-46659800D03*
X184233600Y-46659800D03*
X181033600Y-51559800D03*
X184233600Y-51559800D03*
D10*
X179189223Y-54938357D03*
D12*
G36*
X175339873Y-62469553D02*
G01*
X173990447Y-61609873D01*
X174850127Y-60260447D01*
X176199553Y-61120127D01*
X175339873Y-62469553D01*
G37*
D10*
X121045000Y-46215000D03*
X136245000Y-46215000D03*
X136345000Y-53365000D03*
D11*
X120963000Y-57215000D03*
D10*
X136345000Y-51565000D03*
X120963000Y-55415000D03*
X123045000Y-46115000D03*
D11*
X136345000Y-55165000D03*
D10*
X120963000Y-53615000D03*
D12*
G36*
X122220866Y-60429922D02*
G01*
X121419644Y-59919487D01*
X122118134Y-58823078D01*
X122919356Y-59333513D01*
X122220866Y-60429922D01*
G37*
G36*
X124128280Y-57435882D02*
G01*
X123327058Y-56925447D01*
X124025548Y-55829038D01*
X124826770Y-56339473D01*
X124128280Y-57435882D01*
G37*
D10*
X123045000Y-61515000D03*
D13*
X136395000Y-57565000D03*
D14*
X128645000Y-59765000D03*
D15*
X128645000Y-53815000D03*
D14*
X133645000Y-57565000D03*
D16*
X125370000Y-59765000D03*
D17*
X123145000Y-53815000D03*
X134145000Y-53815000D03*
D18*
X133725000Y-53815000D03*
D14*
X131185000Y-48735000D03*
D19*
X128645000Y-53815000D03*
D14*
X124835000Y-51275000D03*
D18*
X123565000Y-53815000D03*
D20*
X130233600Y-51559800D03*
X127033600Y-51559800D03*
X130233600Y-46659800D03*
X127033600Y-46659800D03*
D12*
G36*
X121339873Y-62469553D02*
G01*
X119990447Y-61609873D01*
X120850127Y-60260447D01*
X122199553Y-61120127D01*
X121339873Y-62469553D01*
G37*
D10*
X125189223Y-54938357D03*
X139045000Y-46215000D03*
X154245000Y-46215000D03*
X154345000Y-53365000D03*
D11*
X138963000Y-57215000D03*
D10*
X154345000Y-51565000D03*
X138963000Y-55415000D03*
X141045000Y-46115000D03*
D11*
X154345000Y-55165000D03*
D10*
X138963000Y-53615000D03*
D12*
G36*
X142128280Y-57435882D02*
G01*
X141327058Y-56925447D01*
X142025548Y-55829038D01*
X142826770Y-56339473D01*
X142128280Y-57435882D01*
G37*
G36*
X140220866Y-60429922D02*
G01*
X139419644Y-59919487D01*
X140118134Y-58823078D01*
X140919356Y-59333513D01*
X140220866Y-60429922D01*
G37*
D10*
X141045000Y-61515000D03*
D17*
X152145000Y-53815000D03*
X141145000Y-53815000D03*
D16*
X143370000Y-59765000D03*
D14*
X151645000Y-57565000D03*
D15*
X146645000Y-53815000D03*
D14*
X146645000Y-59765000D03*
D13*
X154395000Y-57565000D03*
D18*
X141565000Y-53815000D03*
D14*
X142835000Y-51275000D03*
D19*
X146645000Y-53815000D03*
D14*
X149185000Y-48735000D03*
D18*
X151725000Y-53815000D03*
D20*
X145033600Y-46659800D03*
X148233600Y-46659800D03*
X145033600Y-51559800D03*
X148233600Y-51559800D03*
D10*
X143189223Y-54938357D03*
D12*
G36*
X139339873Y-62469553D02*
G01*
X137990447Y-61609873D01*
X138850127Y-60260447D01*
X140199553Y-61120127D01*
X139339873Y-62469553D01*
G37*
D17*
X98145000Y-53815000D03*
X87145000Y-53815000D03*
D16*
X89370000Y-59765000D03*
D14*
X97645000Y-57565000D03*
D15*
X92645000Y-53815000D03*
D14*
X92645000Y-59765000D03*
D13*
X100395000Y-57565000D03*
D10*
X103045000Y-46215000D03*
X118245000Y-46215000D03*
X118345000Y-53365000D03*
D11*
X102963000Y-57215000D03*
D10*
X118345000Y-51565000D03*
X102963000Y-55415000D03*
X105045000Y-46115000D03*
D11*
X118345000Y-55165000D03*
D10*
X102963000Y-53615000D03*
D12*
G36*
X104220866Y-60429922D02*
G01*
X103419644Y-59919487D01*
X104118134Y-58823078D01*
X104919356Y-59333513D01*
X104220866Y-60429922D01*
G37*
G36*
X106128280Y-57435882D02*
G01*
X105327058Y-56925447D01*
X106025548Y-55829038D01*
X106826770Y-56339473D01*
X106128280Y-57435882D01*
G37*
D10*
X105045000Y-61515000D03*
D13*
X118395000Y-57565000D03*
D14*
X110645000Y-59765000D03*
D15*
X110645000Y-53815000D03*
D14*
X115645000Y-57565000D03*
D16*
X107370000Y-59765000D03*
D17*
X105145000Y-53815000D03*
X116145000Y-53815000D03*
D18*
X115725000Y-53815000D03*
D14*
X113185000Y-48735000D03*
D19*
X110645000Y-53815000D03*
D14*
X106835000Y-51275000D03*
D18*
X105565000Y-53815000D03*
D20*
X112233600Y-51559800D03*
X109033600Y-51559800D03*
X112233600Y-46659800D03*
X109033600Y-46659800D03*
D12*
G36*
X103339873Y-62469553D02*
G01*
X101990447Y-61609873D01*
X102850127Y-60260447D01*
X104199553Y-61120127D01*
X103339873Y-62469553D01*
G37*
D10*
X107189223Y-54938357D03*
X89189223Y-54938357D03*
D12*
G36*
X85339873Y-62469553D02*
G01*
X83990447Y-61609873D01*
X84850127Y-60260447D01*
X86199553Y-61120127D01*
X85339873Y-62469553D01*
G37*
D20*
X91033600Y-46659800D03*
X94233600Y-46659800D03*
X91033600Y-51559800D03*
X94233600Y-51559800D03*
D18*
X87565000Y-53815000D03*
D14*
X88835000Y-51275000D03*
D19*
X92645000Y-53815000D03*
D14*
X95185000Y-48735000D03*
D18*
X97725000Y-53815000D03*
D10*
X87045000Y-61515000D03*
D12*
G36*
X88128280Y-57435882D02*
G01*
X87327058Y-56925447D01*
X88025548Y-55829038D01*
X88826770Y-56339473D01*
X88128280Y-57435882D01*
G37*
G36*
X86220866Y-60429922D02*
G01*
X85419644Y-59919487D01*
X86118134Y-58823078D01*
X86919356Y-59333513D01*
X86220866Y-60429922D01*
G37*
D10*
X84963000Y-53615000D03*
D11*
X100345000Y-55165000D03*
D10*
X87045000Y-46115000D03*
X84963000Y-55415000D03*
X100345000Y-51565000D03*
D11*
X84963000Y-57215000D03*
D10*
X100345000Y-53365000D03*
X100245000Y-46215000D03*
X85045000Y-46215000D03*
M02*
