G04 #@! TF.GenerationSoftware,KiCad,Pcbnew,(5.1.5-0-10_14)*
G04 #@! TF.CreationDate,2020-05-05T10:05:08-04:00*
G04 #@! TF.ProjectId,plate,706c6174-652e-46b6-9963-61645f706362,1*
G04 #@! TF.SameCoordinates,Original*
G04 #@! TF.FileFunction,Copper,L1,Top*
G04 #@! TF.FilePolarity,Positive*
%FSLAX46Y46*%
G04 Gerber Fmt 4.6, Leading zero omitted, Abs format (unit mm)*
G04 Created by KiCad (PCBNEW (5.1.5-0-10_14)) date 2020-05-05 10:05:08*
%MOMM*%
%LPD*%
G04 APERTURE LIST*
%ADD10C,1.600000*%
%ADD11R,1.600000X1.600000*%
%ADD12C,0.100000*%
%ADD13R,1.600000X2.600000*%
%ADD14R,2.600000X2.600000*%
%ADD15R,1.000000X1.500000*%
%ADD16C,0.400000*%
%ADD17C,0.250000*%
%ADD18C,0.300000*%
G04 APERTURE END LIST*
D10*
X85045000Y-118215000D03*
X100245000Y-118215000D03*
X100345000Y-125365000D03*
D11*
X84963000Y-129215000D03*
D10*
X100345000Y-123565000D03*
X84963000Y-127415000D03*
X87045000Y-118115000D03*
D11*
X100345000Y-127165000D03*
D10*
X84963000Y-125615000D03*
G04 #@! TA.AperFunction,SMDPad,CuDef*
D12*
G36*
X86220866Y-132429922D02*
G01*
X85419644Y-131919487D01*
X86118134Y-130823078D01*
X86919356Y-131333513D01*
X86220866Y-132429922D01*
G37*
G04 #@! TD.AperFunction*
G04 #@! TA.AperFunction,SMDPad,CuDef*
G36*
X88128280Y-129435882D02*
G01*
X87327058Y-128925447D01*
X88025548Y-127829038D01*
X88826770Y-128339473D01*
X88128280Y-129435882D01*
G37*
G04 #@! TD.AperFunction*
D10*
X87045000Y-133515000D03*
D13*
X100395000Y-129565000D03*
D14*
X89370000Y-131765000D03*
D15*
X94233600Y-123559800D03*
X91033600Y-123559800D03*
X94233600Y-118659800D03*
X91033600Y-118659800D03*
G04 #@! TA.AperFunction,ComponentPad*
D12*
G36*
X85339873Y-134469553D02*
G01*
X83990447Y-133609873D01*
X84850127Y-132260447D01*
X86199553Y-133120127D01*
X85339873Y-134469553D01*
G37*
G04 #@! TD.AperFunction*
D10*
X89189223Y-126938357D03*
X103045000Y-118215000D03*
X118245000Y-118215000D03*
X118345000Y-125365000D03*
D11*
X102963000Y-129215000D03*
D10*
X118345000Y-123565000D03*
X102963000Y-127415000D03*
X105045000Y-118115000D03*
D11*
X118345000Y-127165000D03*
D10*
X102963000Y-125615000D03*
G04 #@! TA.AperFunction,SMDPad,CuDef*
D12*
G36*
X106128280Y-129435882D02*
G01*
X105327058Y-128925447D01*
X106025548Y-127829038D01*
X106826770Y-128339473D01*
X106128280Y-129435882D01*
G37*
G04 #@! TD.AperFunction*
G04 #@! TA.AperFunction,SMDPad,CuDef*
G36*
X104220866Y-132429922D02*
G01*
X103419644Y-131919487D01*
X104118134Y-130823078D01*
X104919356Y-131333513D01*
X104220866Y-132429922D01*
G37*
G04 #@! TD.AperFunction*
D10*
X105045000Y-133515000D03*
D14*
X107370000Y-131765000D03*
D13*
X118395000Y-129565000D03*
D15*
X109033600Y-118659800D03*
X112233600Y-118659800D03*
X109033600Y-123559800D03*
X112233600Y-123559800D03*
D10*
X107189223Y-126938357D03*
G04 #@! TA.AperFunction,ComponentPad*
D12*
G36*
X103339873Y-134469553D02*
G01*
X101990447Y-133609873D01*
X102850127Y-132260447D01*
X104199553Y-133120127D01*
X103339873Y-134469553D01*
G37*
G04 #@! TD.AperFunction*
D10*
X85045000Y-136215000D03*
X100245000Y-136215000D03*
X100345000Y-143365000D03*
D11*
X84963000Y-147215000D03*
D10*
X100345000Y-141565000D03*
X84963000Y-145415000D03*
X87045000Y-136115000D03*
D11*
X100345000Y-145165000D03*
D10*
X84963000Y-143615000D03*
G04 #@! TA.AperFunction,SMDPad,CuDef*
D12*
G36*
X88128280Y-147435882D02*
G01*
X87327058Y-146925447D01*
X88025548Y-145829038D01*
X88826770Y-146339473D01*
X88128280Y-147435882D01*
G37*
G04 #@! TD.AperFunction*
G04 #@! TA.AperFunction,SMDPad,CuDef*
G36*
X86220866Y-150429922D02*
G01*
X85419644Y-149919487D01*
X86118134Y-148823078D01*
X86919356Y-149333513D01*
X86220866Y-150429922D01*
G37*
G04 #@! TD.AperFunction*
D10*
X87045000Y-151515000D03*
D14*
X89370000Y-149765000D03*
D13*
X100395000Y-147565000D03*
D15*
X91033600Y-136659800D03*
X94233600Y-136659800D03*
X91033600Y-141559800D03*
X94233600Y-141559800D03*
D10*
X89189223Y-144938357D03*
G04 #@! TA.AperFunction,ComponentPad*
D12*
G36*
X85339873Y-152469553D02*
G01*
X83990447Y-151609873D01*
X84850127Y-150260447D01*
X86199553Y-151120127D01*
X85339873Y-152469553D01*
G37*
G04 #@! TD.AperFunction*
D10*
X103045000Y-136215000D03*
X118245000Y-136215000D03*
X118345000Y-143365000D03*
D11*
X102963000Y-147215000D03*
D10*
X118345000Y-141565000D03*
X102963000Y-145415000D03*
X105045000Y-136115000D03*
D11*
X118345000Y-145165000D03*
D10*
X102963000Y-143615000D03*
G04 #@! TA.AperFunction,SMDPad,CuDef*
D12*
G36*
X104220866Y-150429922D02*
G01*
X103419644Y-149919487D01*
X104118134Y-148823078D01*
X104919356Y-149333513D01*
X104220866Y-150429922D01*
G37*
G04 #@! TD.AperFunction*
G04 #@! TA.AperFunction,SMDPad,CuDef*
G36*
X106128280Y-147435882D02*
G01*
X105327058Y-146925447D01*
X106025548Y-145829038D01*
X106826770Y-146339473D01*
X106128280Y-147435882D01*
G37*
G04 #@! TD.AperFunction*
D10*
X105045000Y-151515000D03*
D13*
X118395000Y-147565000D03*
D14*
X107370000Y-149765000D03*
D15*
X112233600Y-141559800D03*
X109033600Y-141559800D03*
X112233600Y-136659800D03*
X109033600Y-136659800D03*
G04 #@! TA.AperFunction,ComponentPad*
D12*
G36*
X103339873Y-152469553D02*
G01*
X101990447Y-151609873D01*
X102850127Y-150260447D01*
X104199553Y-151120127D01*
X103339873Y-152469553D01*
G37*
G04 #@! TD.AperFunction*
D10*
X107189223Y-144938357D03*
X156963000Y-145415000D03*
X159045000Y-136115000D03*
D11*
X172345000Y-145165000D03*
D10*
X156963000Y-143615000D03*
G04 #@! TA.AperFunction,SMDPad,CuDef*
D12*
G36*
X158220866Y-150429922D02*
G01*
X157419644Y-149919487D01*
X158118134Y-148823078D01*
X158919356Y-149333513D01*
X158220866Y-150429922D01*
G37*
G04 #@! TD.AperFunction*
G04 #@! TA.AperFunction,SMDPad,CuDef*
G36*
X160128280Y-147435882D02*
G01*
X159327058Y-146925447D01*
X160025548Y-145829038D01*
X160826770Y-146339473D01*
X160128280Y-147435882D01*
G37*
G04 #@! TD.AperFunction*
D10*
X159045000Y-151515000D03*
D13*
X172395000Y-147565000D03*
D14*
X161370000Y-149765000D03*
D10*
X179189223Y-144938357D03*
G04 #@! TA.AperFunction,ComponentPad*
D12*
G36*
X175339873Y-152469553D02*
G01*
X173990447Y-151609873D01*
X174850127Y-150260447D01*
X176199553Y-151120127D01*
X175339873Y-152469553D01*
G37*
G04 #@! TD.AperFunction*
D15*
X181033600Y-136659800D03*
X184233600Y-136659800D03*
X181033600Y-141559800D03*
X184233600Y-141559800D03*
G04 #@! TA.AperFunction,ComponentPad*
D12*
G36*
X157339873Y-152469553D02*
G01*
X155990447Y-151609873D01*
X156850127Y-150260447D01*
X158199553Y-151120127D01*
X157339873Y-152469553D01*
G37*
G04 #@! TD.AperFunction*
D10*
X161189223Y-144938357D03*
X190345000Y-143365000D03*
D11*
X174963000Y-147215000D03*
D10*
X190345000Y-141565000D03*
X174963000Y-145415000D03*
X175045000Y-136215000D03*
X190245000Y-136215000D03*
G04 #@! TA.AperFunction,SMDPad,CuDef*
D12*
G36*
X178128280Y-147435882D02*
G01*
X177327058Y-146925447D01*
X178025548Y-145829038D01*
X178826770Y-146339473D01*
X178128280Y-147435882D01*
G37*
G04 #@! TD.AperFunction*
G04 #@! TA.AperFunction,SMDPad,CuDef*
G36*
X176220866Y-150429922D02*
G01*
X175419644Y-149919487D01*
X176118134Y-148823078D01*
X176919356Y-149333513D01*
X176220866Y-150429922D01*
G37*
G04 #@! TD.AperFunction*
D10*
X177045000Y-151515000D03*
D14*
X179370000Y-149765000D03*
D13*
X190395000Y-147565000D03*
D10*
X177045000Y-136115000D03*
D11*
X190345000Y-145165000D03*
D10*
X174963000Y-143615000D03*
D11*
X156963000Y-147215000D03*
D10*
X172345000Y-141565000D03*
D15*
X166233600Y-141559800D03*
X163033600Y-141559800D03*
X166233600Y-136659800D03*
X163033600Y-136659800D03*
D10*
X157045000Y-136215000D03*
X172245000Y-136215000D03*
X172345000Y-143365000D03*
G04 #@! TA.AperFunction,ComponentPad*
D12*
G36*
X121339873Y-152469553D02*
G01*
X119990447Y-151609873D01*
X120850127Y-150260447D01*
X122199553Y-151120127D01*
X121339873Y-152469553D01*
G37*
G04 #@! TD.AperFunction*
D10*
X125189223Y-144938357D03*
X143189223Y-144938357D03*
G04 #@! TA.AperFunction,ComponentPad*
D12*
G36*
X139339873Y-152469553D02*
G01*
X137990447Y-151609873D01*
X138850127Y-150260447D01*
X140199553Y-151120127D01*
X139339873Y-152469553D01*
G37*
G04 #@! TD.AperFunction*
D15*
X145033600Y-136659800D03*
X148233600Y-136659800D03*
X145033600Y-141559800D03*
X148233600Y-141559800D03*
D13*
X136395000Y-147565000D03*
D14*
X125370000Y-149765000D03*
D15*
X130233600Y-141559800D03*
X127033600Y-141559800D03*
X130233600Y-136659800D03*
X127033600Y-136659800D03*
D10*
X120963000Y-145415000D03*
X123045000Y-136115000D03*
D11*
X136345000Y-145165000D03*
D10*
X120963000Y-143615000D03*
G04 #@! TA.AperFunction,SMDPad,CuDef*
D12*
G36*
X122220866Y-150429922D02*
G01*
X121419644Y-149919487D01*
X122118134Y-148823078D01*
X122919356Y-149333513D01*
X122220866Y-150429922D01*
G37*
G04 #@! TD.AperFunction*
G04 #@! TA.AperFunction,SMDPad,CuDef*
G36*
X124128280Y-147435882D02*
G01*
X123327058Y-146925447D01*
X124025548Y-145829038D01*
X124826770Y-146339473D01*
X124128280Y-147435882D01*
G37*
G04 #@! TD.AperFunction*
D10*
X123045000Y-151515000D03*
X139045000Y-136215000D03*
X154245000Y-136215000D03*
X154345000Y-143365000D03*
D11*
X138963000Y-147215000D03*
D10*
X154345000Y-141565000D03*
X138963000Y-145415000D03*
X141045000Y-136115000D03*
D11*
X154345000Y-145165000D03*
D10*
X138963000Y-143615000D03*
G04 #@! TA.AperFunction,SMDPad,CuDef*
D12*
G36*
X142128280Y-147435882D02*
G01*
X141327058Y-146925447D01*
X142025548Y-145829038D01*
X142826770Y-146339473D01*
X142128280Y-147435882D01*
G37*
G04 #@! TD.AperFunction*
G04 #@! TA.AperFunction,SMDPad,CuDef*
G36*
X140220866Y-150429922D02*
G01*
X139419644Y-149919487D01*
X140118134Y-148823078D01*
X140919356Y-149333513D01*
X140220866Y-150429922D01*
G37*
G04 #@! TD.AperFunction*
D10*
X141045000Y-151515000D03*
D14*
X143370000Y-149765000D03*
D13*
X154395000Y-147565000D03*
D11*
X120963000Y-147215000D03*
D10*
X121045000Y-136215000D03*
X136245000Y-136215000D03*
X136345000Y-143365000D03*
X136345000Y-141565000D03*
X156963000Y-127415000D03*
X159045000Y-118115000D03*
D11*
X172345000Y-127165000D03*
D10*
X156963000Y-125615000D03*
G04 #@! TA.AperFunction,SMDPad,CuDef*
D12*
G36*
X160128280Y-129435882D02*
G01*
X159327058Y-128925447D01*
X160025548Y-127829038D01*
X160826770Y-128339473D01*
X160128280Y-129435882D01*
G37*
G04 #@! TD.AperFunction*
G04 #@! TA.AperFunction,SMDPad,CuDef*
G36*
X158220866Y-132429922D02*
G01*
X157419644Y-131919487D01*
X158118134Y-130823078D01*
X158919356Y-131333513D01*
X158220866Y-132429922D01*
G37*
G04 #@! TD.AperFunction*
D10*
X159045000Y-133515000D03*
D14*
X161370000Y-131765000D03*
D13*
X172395000Y-129565000D03*
G04 #@! TA.AperFunction,ComponentPad*
D12*
G36*
X175339873Y-134469553D02*
G01*
X173990447Y-133609873D01*
X174850127Y-132260447D01*
X176199553Y-133120127D01*
X175339873Y-134469553D01*
G37*
G04 #@! TD.AperFunction*
D10*
X179189223Y-126938357D03*
D15*
X184233600Y-123559800D03*
X181033600Y-123559800D03*
X184233600Y-118659800D03*
X181033600Y-118659800D03*
D10*
X161189223Y-126938357D03*
G04 #@! TA.AperFunction,ComponentPad*
D12*
G36*
X157339873Y-134469553D02*
G01*
X155990447Y-133609873D01*
X156850127Y-132260447D01*
X158199553Y-133120127D01*
X157339873Y-134469553D01*
G37*
G04 #@! TD.AperFunction*
D10*
X190345000Y-125365000D03*
D11*
X174963000Y-129215000D03*
D10*
X190345000Y-123565000D03*
X174963000Y-127415000D03*
X175045000Y-118215000D03*
X190245000Y-118215000D03*
G04 #@! TA.AperFunction,SMDPad,CuDef*
D12*
G36*
X176220866Y-132429922D02*
G01*
X175419644Y-131919487D01*
X176118134Y-130823078D01*
X176919356Y-131333513D01*
X176220866Y-132429922D01*
G37*
G04 #@! TD.AperFunction*
G04 #@! TA.AperFunction,SMDPad,CuDef*
G36*
X178128280Y-129435882D02*
G01*
X177327058Y-128925447D01*
X178025548Y-127829038D01*
X178826770Y-128339473D01*
X178128280Y-129435882D01*
G37*
G04 #@! TD.AperFunction*
D10*
X177045000Y-133515000D03*
D13*
X190395000Y-129565000D03*
D14*
X179370000Y-131765000D03*
D10*
X177045000Y-118115000D03*
D11*
X190345000Y-127165000D03*
D10*
X174963000Y-125615000D03*
D11*
X156963000Y-129215000D03*
D10*
X172345000Y-123565000D03*
D15*
X163033600Y-118659800D03*
X166233600Y-118659800D03*
X163033600Y-123559800D03*
X166233600Y-123559800D03*
D10*
X157045000Y-118215000D03*
X172245000Y-118215000D03*
X172345000Y-125365000D03*
X125189223Y-126938357D03*
G04 #@! TA.AperFunction,ComponentPad*
D12*
G36*
X121339873Y-134469553D02*
G01*
X119990447Y-133609873D01*
X120850127Y-132260447D01*
X122199553Y-133120127D01*
X121339873Y-134469553D01*
G37*
G04 #@! TD.AperFunction*
D10*
X139045000Y-118215000D03*
X154245000Y-118215000D03*
X154345000Y-125365000D03*
D11*
X138963000Y-129215000D03*
D10*
X154345000Y-123565000D03*
X138963000Y-127415000D03*
X141045000Y-118115000D03*
D11*
X154345000Y-127165000D03*
D10*
X138963000Y-125615000D03*
G04 #@! TA.AperFunction,SMDPad,CuDef*
D12*
G36*
X140220866Y-132429922D02*
G01*
X139419644Y-131919487D01*
X140118134Y-130823078D01*
X140919356Y-131333513D01*
X140220866Y-132429922D01*
G37*
G04 #@! TD.AperFunction*
G04 #@! TA.AperFunction,SMDPad,CuDef*
G36*
X142128280Y-129435882D02*
G01*
X141327058Y-128925447D01*
X142025548Y-127829038D01*
X142826770Y-128339473D01*
X142128280Y-129435882D01*
G37*
G04 #@! TD.AperFunction*
D10*
X141045000Y-133515000D03*
D13*
X154395000Y-129565000D03*
D14*
X143370000Y-131765000D03*
D15*
X148233600Y-123559800D03*
X145033600Y-123559800D03*
X148233600Y-118659800D03*
X145033600Y-118659800D03*
G04 #@! TA.AperFunction,ComponentPad*
D12*
G36*
X139339873Y-134469553D02*
G01*
X137990447Y-133609873D01*
X138850127Y-132260447D01*
X140199553Y-133120127D01*
X139339873Y-134469553D01*
G37*
G04 #@! TD.AperFunction*
D10*
X143189223Y-126938357D03*
X121045000Y-118215000D03*
X136245000Y-118215000D03*
X136345000Y-125365000D03*
D11*
X120963000Y-129215000D03*
D10*
X136345000Y-123565000D03*
X120963000Y-127415000D03*
X123045000Y-118115000D03*
D11*
X136345000Y-127165000D03*
D10*
X120963000Y-125615000D03*
G04 #@! TA.AperFunction,SMDPad,CuDef*
D12*
G36*
X124128280Y-129435882D02*
G01*
X123327058Y-128925447D01*
X124025548Y-127829038D01*
X124826770Y-128339473D01*
X124128280Y-129435882D01*
G37*
G04 #@! TD.AperFunction*
G04 #@! TA.AperFunction,SMDPad,CuDef*
G36*
X122220866Y-132429922D02*
G01*
X121419644Y-131919487D01*
X122118134Y-130823078D01*
X122919356Y-131333513D01*
X122220866Y-132429922D01*
G37*
G04 #@! TD.AperFunction*
D10*
X123045000Y-133515000D03*
D14*
X125370000Y-131765000D03*
D13*
X136395000Y-129565000D03*
D15*
X127033600Y-118659800D03*
X130233600Y-118659800D03*
X127033600Y-123559800D03*
X130233600Y-123559800D03*
D10*
X85045000Y-82215000D03*
X100245000Y-82215000D03*
X100345000Y-89365000D03*
D11*
X84963000Y-93215000D03*
D10*
X100345000Y-87565000D03*
X84963000Y-91415000D03*
X87045000Y-82115000D03*
D11*
X100345000Y-91165000D03*
D10*
X84963000Y-89615000D03*
G04 #@! TA.AperFunction,SMDPad,CuDef*
D12*
G36*
X86220866Y-96429922D02*
G01*
X85419644Y-95919487D01*
X86118134Y-94823078D01*
X86919356Y-95333513D01*
X86220866Y-96429922D01*
G37*
G04 #@! TD.AperFunction*
G04 #@! TA.AperFunction,SMDPad,CuDef*
G36*
X88128280Y-93435882D02*
G01*
X87327058Y-92925447D01*
X88025548Y-91829038D01*
X88826770Y-92339473D01*
X88128280Y-93435882D01*
G37*
G04 #@! TD.AperFunction*
D10*
X87045000Y-97515000D03*
D13*
X100395000Y-93565000D03*
D14*
X89370000Y-95765000D03*
D15*
X94233600Y-87559800D03*
X91033600Y-87559800D03*
X94233600Y-82659800D03*
X91033600Y-82659800D03*
G04 #@! TA.AperFunction,ComponentPad*
D12*
G36*
X85339873Y-98469553D02*
G01*
X83990447Y-97609873D01*
X84850127Y-96260447D01*
X86199553Y-97120127D01*
X85339873Y-98469553D01*
G37*
G04 #@! TD.AperFunction*
D10*
X89189223Y-90938357D03*
X103045000Y-82215000D03*
X118245000Y-82215000D03*
X118345000Y-89365000D03*
D11*
X102963000Y-93215000D03*
D10*
X118345000Y-87565000D03*
X102963000Y-91415000D03*
X105045000Y-82115000D03*
D11*
X118345000Y-91165000D03*
D10*
X102963000Y-89615000D03*
G04 #@! TA.AperFunction,SMDPad,CuDef*
D12*
G36*
X106128280Y-93435882D02*
G01*
X105327058Y-92925447D01*
X106025548Y-91829038D01*
X106826770Y-92339473D01*
X106128280Y-93435882D01*
G37*
G04 #@! TD.AperFunction*
G04 #@! TA.AperFunction,SMDPad,CuDef*
G36*
X104220866Y-96429922D02*
G01*
X103419644Y-95919487D01*
X104118134Y-94823078D01*
X104919356Y-95333513D01*
X104220866Y-96429922D01*
G37*
G04 #@! TD.AperFunction*
D10*
X105045000Y-97515000D03*
D14*
X107370000Y-95765000D03*
D13*
X118395000Y-93565000D03*
D15*
X109033600Y-82659800D03*
X112233600Y-82659800D03*
X109033600Y-87559800D03*
X112233600Y-87559800D03*
D10*
X107189223Y-90938357D03*
G04 #@! TA.AperFunction,ComponentPad*
D12*
G36*
X103339873Y-98469553D02*
G01*
X101990447Y-97609873D01*
X102850127Y-96260447D01*
X104199553Y-97120127D01*
X103339873Y-98469553D01*
G37*
G04 #@! TD.AperFunction*
D10*
X85045000Y-100215000D03*
X100245000Y-100215000D03*
X100345000Y-107365000D03*
D11*
X84963000Y-111215000D03*
D10*
X100345000Y-105565000D03*
X84963000Y-109415000D03*
X87045000Y-100115000D03*
D11*
X100345000Y-109165000D03*
D10*
X84963000Y-107615000D03*
G04 #@! TA.AperFunction,SMDPad,CuDef*
D12*
G36*
X88128280Y-111435882D02*
G01*
X87327058Y-110925447D01*
X88025548Y-109829038D01*
X88826770Y-110339473D01*
X88128280Y-111435882D01*
G37*
G04 #@! TD.AperFunction*
G04 #@! TA.AperFunction,SMDPad,CuDef*
G36*
X86220866Y-114429922D02*
G01*
X85419644Y-113919487D01*
X86118134Y-112823078D01*
X86919356Y-113333513D01*
X86220866Y-114429922D01*
G37*
G04 #@! TD.AperFunction*
D10*
X87045000Y-115515000D03*
D14*
X89370000Y-113765000D03*
D13*
X100395000Y-111565000D03*
D15*
X91033600Y-100659800D03*
X94233600Y-100659800D03*
X91033600Y-105559800D03*
X94233600Y-105559800D03*
D10*
X89189223Y-108938357D03*
G04 #@! TA.AperFunction,ComponentPad*
D12*
G36*
X85339873Y-116469553D02*
G01*
X83990447Y-115609873D01*
X84850127Y-114260447D01*
X86199553Y-115120127D01*
X85339873Y-116469553D01*
G37*
G04 #@! TD.AperFunction*
D10*
X103045000Y-100215000D03*
X118245000Y-100215000D03*
X118345000Y-107365000D03*
D11*
X102963000Y-111215000D03*
D10*
X118345000Y-105565000D03*
X102963000Y-109415000D03*
X105045000Y-100115000D03*
D11*
X118345000Y-109165000D03*
D10*
X102963000Y-107615000D03*
G04 #@! TA.AperFunction,SMDPad,CuDef*
D12*
G36*
X104220866Y-114429922D02*
G01*
X103419644Y-113919487D01*
X104118134Y-112823078D01*
X104919356Y-113333513D01*
X104220866Y-114429922D01*
G37*
G04 #@! TD.AperFunction*
G04 #@! TA.AperFunction,SMDPad,CuDef*
G36*
X106128280Y-111435882D02*
G01*
X105327058Y-110925447D01*
X106025548Y-109829038D01*
X106826770Y-110339473D01*
X106128280Y-111435882D01*
G37*
G04 #@! TD.AperFunction*
D10*
X105045000Y-115515000D03*
D13*
X118395000Y-111565000D03*
D14*
X107370000Y-113765000D03*
D15*
X112233600Y-105559800D03*
X109033600Y-105559800D03*
X112233600Y-100659800D03*
X109033600Y-100659800D03*
G04 #@! TA.AperFunction,ComponentPad*
D12*
G36*
X103339873Y-116469553D02*
G01*
X101990447Y-115609873D01*
X102850127Y-114260447D01*
X104199553Y-115120127D01*
X103339873Y-116469553D01*
G37*
G04 #@! TD.AperFunction*
D10*
X107189223Y-108938357D03*
X156963000Y-109415000D03*
X159045000Y-100115000D03*
D11*
X172345000Y-109165000D03*
D10*
X156963000Y-107615000D03*
G04 #@! TA.AperFunction,SMDPad,CuDef*
D12*
G36*
X158220866Y-114429922D02*
G01*
X157419644Y-113919487D01*
X158118134Y-112823078D01*
X158919356Y-113333513D01*
X158220866Y-114429922D01*
G37*
G04 #@! TD.AperFunction*
G04 #@! TA.AperFunction,SMDPad,CuDef*
G36*
X160128280Y-111435882D02*
G01*
X159327058Y-110925447D01*
X160025548Y-109829038D01*
X160826770Y-110339473D01*
X160128280Y-111435882D01*
G37*
G04 #@! TD.AperFunction*
D10*
X159045000Y-115515000D03*
D13*
X172395000Y-111565000D03*
D14*
X161370000Y-113765000D03*
D10*
X179189223Y-108938357D03*
G04 #@! TA.AperFunction,ComponentPad*
D12*
G36*
X175339873Y-116469553D02*
G01*
X173990447Y-115609873D01*
X174850127Y-114260447D01*
X176199553Y-115120127D01*
X175339873Y-116469553D01*
G37*
G04 #@! TD.AperFunction*
D15*
X181033600Y-100659800D03*
X184233600Y-100659800D03*
X181033600Y-105559800D03*
X184233600Y-105559800D03*
G04 #@! TA.AperFunction,ComponentPad*
D12*
G36*
X157339873Y-116469553D02*
G01*
X155990447Y-115609873D01*
X156850127Y-114260447D01*
X158199553Y-115120127D01*
X157339873Y-116469553D01*
G37*
G04 #@! TD.AperFunction*
D10*
X161189223Y-108938357D03*
X190345000Y-107365000D03*
D11*
X174963000Y-111215000D03*
D10*
X190345000Y-105565000D03*
X174963000Y-109415000D03*
X175045000Y-100215000D03*
X190245000Y-100215000D03*
G04 #@! TA.AperFunction,SMDPad,CuDef*
D12*
G36*
X178128280Y-111435882D02*
G01*
X177327058Y-110925447D01*
X178025548Y-109829038D01*
X178826770Y-110339473D01*
X178128280Y-111435882D01*
G37*
G04 #@! TD.AperFunction*
G04 #@! TA.AperFunction,SMDPad,CuDef*
G36*
X176220866Y-114429922D02*
G01*
X175419644Y-113919487D01*
X176118134Y-112823078D01*
X176919356Y-113333513D01*
X176220866Y-114429922D01*
G37*
G04 #@! TD.AperFunction*
D10*
X177045000Y-115515000D03*
D14*
X179370000Y-113765000D03*
D13*
X190395000Y-111565000D03*
D10*
X177045000Y-100115000D03*
D11*
X190345000Y-109165000D03*
D10*
X174963000Y-107615000D03*
D11*
X156963000Y-111215000D03*
D10*
X172345000Y-105565000D03*
D15*
X166233600Y-105559800D03*
X163033600Y-105559800D03*
X166233600Y-100659800D03*
X163033600Y-100659800D03*
D10*
X157045000Y-100215000D03*
X172245000Y-100215000D03*
X172345000Y-107365000D03*
G04 #@! TA.AperFunction,ComponentPad*
D12*
G36*
X121339873Y-116469553D02*
G01*
X119990447Y-115609873D01*
X120850127Y-114260447D01*
X122199553Y-115120127D01*
X121339873Y-116469553D01*
G37*
G04 #@! TD.AperFunction*
D10*
X125189223Y-108938357D03*
X143189223Y-108938357D03*
G04 #@! TA.AperFunction,ComponentPad*
D12*
G36*
X139339873Y-116469553D02*
G01*
X137990447Y-115609873D01*
X138850127Y-114260447D01*
X140199553Y-115120127D01*
X139339873Y-116469553D01*
G37*
G04 #@! TD.AperFunction*
D15*
X145033600Y-100659800D03*
X148233600Y-100659800D03*
X145033600Y-105559800D03*
X148233600Y-105559800D03*
D13*
X136395000Y-111565000D03*
D14*
X125370000Y-113765000D03*
D15*
X130233600Y-105559800D03*
X127033600Y-105559800D03*
X130233600Y-100659800D03*
X127033600Y-100659800D03*
D10*
X120963000Y-109415000D03*
X123045000Y-100115000D03*
D11*
X136345000Y-109165000D03*
D10*
X120963000Y-107615000D03*
G04 #@! TA.AperFunction,SMDPad,CuDef*
D12*
G36*
X122220866Y-114429922D02*
G01*
X121419644Y-113919487D01*
X122118134Y-112823078D01*
X122919356Y-113333513D01*
X122220866Y-114429922D01*
G37*
G04 #@! TD.AperFunction*
G04 #@! TA.AperFunction,SMDPad,CuDef*
G36*
X124128280Y-111435882D02*
G01*
X123327058Y-110925447D01*
X124025548Y-109829038D01*
X124826770Y-110339473D01*
X124128280Y-111435882D01*
G37*
G04 #@! TD.AperFunction*
D10*
X123045000Y-115515000D03*
X139045000Y-100215000D03*
X154245000Y-100215000D03*
X154345000Y-107365000D03*
D11*
X138963000Y-111215000D03*
D10*
X154345000Y-105565000D03*
X138963000Y-109415000D03*
X141045000Y-100115000D03*
D11*
X154345000Y-109165000D03*
D10*
X138963000Y-107615000D03*
G04 #@! TA.AperFunction,SMDPad,CuDef*
D12*
G36*
X142128280Y-111435882D02*
G01*
X141327058Y-110925447D01*
X142025548Y-109829038D01*
X142826770Y-110339473D01*
X142128280Y-111435882D01*
G37*
G04 #@! TD.AperFunction*
G04 #@! TA.AperFunction,SMDPad,CuDef*
G36*
X140220866Y-114429922D02*
G01*
X139419644Y-113919487D01*
X140118134Y-112823078D01*
X140919356Y-113333513D01*
X140220866Y-114429922D01*
G37*
G04 #@! TD.AperFunction*
D10*
X141045000Y-115515000D03*
D14*
X143370000Y-113765000D03*
D13*
X154395000Y-111565000D03*
D11*
X120963000Y-111215000D03*
D10*
X121045000Y-100215000D03*
X136245000Y-100215000D03*
X136345000Y-107365000D03*
X136345000Y-105565000D03*
X156963000Y-91415000D03*
X159045000Y-82115000D03*
D11*
X172345000Y-91165000D03*
D10*
X156963000Y-89615000D03*
G04 #@! TA.AperFunction,SMDPad,CuDef*
D12*
G36*
X160128280Y-93435882D02*
G01*
X159327058Y-92925447D01*
X160025548Y-91829038D01*
X160826770Y-92339473D01*
X160128280Y-93435882D01*
G37*
G04 #@! TD.AperFunction*
G04 #@! TA.AperFunction,SMDPad,CuDef*
G36*
X158220866Y-96429922D02*
G01*
X157419644Y-95919487D01*
X158118134Y-94823078D01*
X158919356Y-95333513D01*
X158220866Y-96429922D01*
G37*
G04 #@! TD.AperFunction*
D10*
X159045000Y-97515000D03*
D14*
X161370000Y-95765000D03*
D13*
X172395000Y-93565000D03*
G04 #@! TA.AperFunction,ComponentPad*
D12*
G36*
X175339873Y-98469553D02*
G01*
X173990447Y-97609873D01*
X174850127Y-96260447D01*
X176199553Y-97120127D01*
X175339873Y-98469553D01*
G37*
G04 #@! TD.AperFunction*
D10*
X179189223Y-90938357D03*
D15*
X184233600Y-87559800D03*
X181033600Y-87559800D03*
X184233600Y-82659800D03*
X181033600Y-82659800D03*
D10*
X161189223Y-90938357D03*
G04 #@! TA.AperFunction,ComponentPad*
D12*
G36*
X157339873Y-98469553D02*
G01*
X155990447Y-97609873D01*
X156850127Y-96260447D01*
X158199553Y-97120127D01*
X157339873Y-98469553D01*
G37*
G04 #@! TD.AperFunction*
D10*
X190345000Y-89365000D03*
D11*
X174963000Y-93215000D03*
D10*
X190345000Y-87565000D03*
X174963000Y-91415000D03*
X175045000Y-82215000D03*
X190245000Y-82215000D03*
G04 #@! TA.AperFunction,SMDPad,CuDef*
D12*
G36*
X176220866Y-96429922D02*
G01*
X175419644Y-95919487D01*
X176118134Y-94823078D01*
X176919356Y-95333513D01*
X176220866Y-96429922D01*
G37*
G04 #@! TD.AperFunction*
G04 #@! TA.AperFunction,SMDPad,CuDef*
G36*
X178128280Y-93435882D02*
G01*
X177327058Y-92925447D01*
X178025548Y-91829038D01*
X178826770Y-92339473D01*
X178128280Y-93435882D01*
G37*
G04 #@! TD.AperFunction*
D10*
X177045000Y-97515000D03*
D13*
X190395000Y-93565000D03*
D14*
X179370000Y-95765000D03*
D10*
X177045000Y-82115000D03*
D11*
X190345000Y-91165000D03*
D10*
X174963000Y-89615000D03*
D11*
X156963000Y-93215000D03*
D10*
X172345000Y-87565000D03*
D15*
X163033600Y-82659800D03*
X166233600Y-82659800D03*
X163033600Y-87559800D03*
X166233600Y-87559800D03*
D10*
X157045000Y-82215000D03*
X172245000Y-82215000D03*
X172345000Y-89365000D03*
X125189223Y-90938357D03*
G04 #@! TA.AperFunction,ComponentPad*
D12*
G36*
X121339873Y-98469553D02*
G01*
X119990447Y-97609873D01*
X120850127Y-96260447D01*
X122199553Y-97120127D01*
X121339873Y-98469553D01*
G37*
G04 #@! TD.AperFunction*
D10*
X139045000Y-82215000D03*
X154245000Y-82215000D03*
X154345000Y-89365000D03*
D11*
X138963000Y-93215000D03*
D10*
X154345000Y-87565000D03*
X138963000Y-91415000D03*
X141045000Y-82115000D03*
D11*
X154345000Y-91165000D03*
D10*
X138963000Y-89615000D03*
G04 #@! TA.AperFunction,SMDPad,CuDef*
D12*
G36*
X140220866Y-96429922D02*
G01*
X139419644Y-95919487D01*
X140118134Y-94823078D01*
X140919356Y-95333513D01*
X140220866Y-96429922D01*
G37*
G04 #@! TD.AperFunction*
G04 #@! TA.AperFunction,SMDPad,CuDef*
G36*
X142128280Y-93435882D02*
G01*
X141327058Y-92925447D01*
X142025548Y-91829038D01*
X142826770Y-92339473D01*
X142128280Y-93435882D01*
G37*
G04 #@! TD.AperFunction*
D10*
X141045000Y-97515000D03*
D13*
X154395000Y-93565000D03*
D14*
X143370000Y-95765000D03*
D15*
X148233600Y-87559800D03*
X145033600Y-87559800D03*
X148233600Y-82659800D03*
X145033600Y-82659800D03*
G04 #@! TA.AperFunction,ComponentPad*
D12*
G36*
X139339873Y-98469553D02*
G01*
X137990447Y-97609873D01*
X138850127Y-96260447D01*
X140199553Y-97120127D01*
X139339873Y-98469553D01*
G37*
G04 #@! TD.AperFunction*
D10*
X143189223Y-90938357D03*
X121045000Y-82215000D03*
X136245000Y-82215000D03*
X136345000Y-89365000D03*
D11*
X120963000Y-93215000D03*
D10*
X136345000Y-87565000D03*
X120963000Y-91415000D03*
X123045000Y-82115000D03*
D11*
X136345000Y-91165000D03*
D10*
X120963000Y-89615000D03*
G04 #@! TA.AperFunction,SMDPad,CuDef*
D12*
G36*
X124128280Y-93435882D02*
G01*
X123327058Y-92925447D01*
X124025548Y-91829038D01*
X124826770Y-92339473D01*
X124128280Y-93435882D01*
G37*
G04 #@! TD.AperFunction*
G04 #@! TA.AperFunction,SMDPad,CuDef*
G36*
X122220866Y-96429922D02*
G01*
X121419644Y-95919487D01*
X122118134Y-94823078D01*
X122919356Y-95333513D01*
X122220866Y-96429922D01*
G37*
G04 #@! TD.AperFunction*
D10*
X123045000Y-97515000D03*
D14*
X125370000Y-95765000D03*
D13*
X136395000Y-93565000D03*
D15*
X127033600Y-82659800D03*
X130233600Y-82659800D03*
X127033600Y-87559800D03*
X130233600Y-87559800D03*
D10*
X85045000Y-64215000D03*
X100245000Y-64215000D03*
X100345000Y-71365000D03*
D11*
X84963000Y-75215000D03*
D10*
X100345000Y-69565000D03*
X84963000Y-73415000D03*
X87045000Y-64115000D03*
D11*
X100345000Y-73165000D03*
D10*
X84963000Y-71615000D03*
G04 #@! TA.AperFunction,SMDPad,CuDef*
D12*
G36*
X86220866Y-78429922D02*
G01*
X85419644Y-77919487D01*
X86118134Y-76823078D01*
X86919356Y-77333513D01*
X86220866Y-78429922D01*
G37*
G04 #@! TD.AperFunction*
G04 #@! TA.AperFunction,SMDPad,CuDef*
G36*
X88128280Y-75435882D02*
G01*
X87327058Y-74925447D01*
X88025548Y-73829038D01*
X88826770Y-74339473D01*
X88128280Y-75435882D01*
G37*
G04 #@! TD.AperFunction*
D10*
X87045000Y-79515000D03*
D13*
X100395000Y-75565000D03*
D14*
X89370000Y-77765000D03*
D15*
X94233600Y-69559800D03*
X91033600Y-69559800D03*
X94233600Y-64659800D03*
X91033600Y-64659800D03*
G04 #@! TA.AperFunction,ComponentPad*
D12*
G36*
X85339873Y-80469553D02*
G01*
X83990447Y-79609873D01*
X84850127Y-78260447D01*
X86199553Y-79120127D01*
X85339873Y-80469553D01*
G37*
G04 #@! TD.AperFunction*
D10*
X89189223Y-72938357D03*
X103045000Y-64215000D03*
X118245000Y-64215000D03*
X118345000Y-71365000D03*
D11*
X102963000Y-75215000D03*
D10*
X118345000Y-69565000D03*
X102963000Y-73415000D03*
X105045000Y-64115000D03*
D11*
X118345000Y-73165000D03*
D10*
X102963000Y-71615000D03*
G04 #@! TA.AperFunction,SMDPad,CuDef*
D12*
G36*
X106128280Y-75435882D02*
G01*
X105327058Y-74925447D01*
X106025548Y-73829038D01*
X106826770Y-74339473D01*
X106128280Y-75435882D01*
G37*
G04 #@! TD.AperFunction*
G04 #@! TA.AperFunction,SMDPad,CuDef*
G36*
X104220866Y-78429922D02*
G01*
X103419644Y-77919487D01*
X104118134Y-76823078D01*
X104919356Y-77333513D01*
X104220866Y-78429922D01*
G37*
G04 #@! TD.AperFunction*
D10*
X105045000Y-79515000D03*
D14*
X107370000Y-77765000D03*
D13*
X118395000Y-75565000D03*
D15*
X109033600Y-64659800D03*
X112233600Y-64659800D03*
X109033600Y-69559800D03*
X112233600Y-69559800D03*
D10*
X107189223Y-72938357D03*
G04 #@! TA.AperFunction,ComponentPad*
D12*
G36*
X103339873Y-80469553D02*
G01*
X101990447Y-79609873D01*
X102850127Y-78260447D01*
X104199553Y-79120127D01*
X103339873Y-80469553D01*
G37*
G04 #@! TD.AperFunction*
D10*
X156963000Y-73415000D03*
X159045000Y-64115000D03*
D11*
X172345000Y-73165000D03*
D10*
X156963000Y-71615000D03*
G04 #@! TA.AperFunction,SMDPad,CuDef*
D12*
G36*
X160128280Y-75435882D02*
G01*
X159327058Y-74925447D01*
X160025548Y-73829038D01*
X160826770Y-74339473D01*
X160128280Y-75435882D01*
G37*
G04 #@! TD.AperFunction*
G04 #@! TA.AperFunction,SMDPad,CuDef*
G36*
X158220866Y-78429922D02*
G01*
X157419644Y-77919487D01*
X158118134Y-76823078D01*
X158919356Y-77333513D01*
X158220866Y-78429922D01*
G37*
G04 #@! TD.AperFunction*
D10*
X159045000Y-79515000D03*
D14*
X161370000Y-77765000D03*
D13*
X172395000Y-75565000D03*
G04 #@! TA.AperFunction,ComponentPad*
D12*
G36*
X175339873Y-80469553D02*
G01*
X173990447Y-79609873D01*
X174850127Y-78260447D01*
X176199553Y-79120127D01*
X175339873Y-80469553D01*
G37*
G04 #@! TD.AperFunction*
D10*
X179189223Y-72938357D03*
D15*
X184233600Y-69559800D03*
X181033600Y-69559800D03*
X184233600Y-64659800D03*
X181033600Y-64659800D03*
D10*
X161189223Y-72938357D03*
G04 #@! TA.AperFunction,ComponentPad*
D12*
G36*
X157339873Y-80469553D02*
G01*
X155990447Y-79609873D01*
X156850127Y-78260447D01*
X158199553Y-79120127D01*
X157339873Y-80469553D01*
G37*
G04 #@! TD.AperFunction*
D10*
X190345000Y-71365000D03*
D11*
X174963000Y-75215000D03*
D10*
X190345000Y-69565000D03*
X174963000Y-73415000D03*
X175045000Y-64215000D03*
X190245000Y-64215000D03*
G04 #@! TA.AperFunction,SMDPad,CuDef*
D12*
G36*
X176220866Y-78429922D02*
G01*
X175419644Y-77919487D01*
X176118134Y-76823078D01*
X176919356Y-77333513D01*
X176220866Y-78429922D01*
G37*
G04 #@! TD.AperFunction*
G04 #@! TA.AperFunction,SMDPad,CuDef*
G36*
X178128280Y-75435882D02*
G01*
X177327058Y-74925447D01*
X178025548Y-73829038D01*
X178826770Y-74339473D01*
X178128280Y-75435882D01*
G37*
G04 #@! TD.AperFunction*
D10*
X177045000Y-79515000D03*
D13*
X190395000Y-75565000D03*
D14*
X179370000Y-77765000D03*
D10*
X177045000Y-64115000D03*
D11*
X190345000Y-73165000D03*
D10*
X174963000Y-71615000D03*
D11*
X156963000Y-75215000D03*
D10*
X172345000Y-69565000D03*
D15*
X163033600Y-64659800D03*
X166233600Y-64659800D03*
X163033600Y-69559800D03*
X166233600Y-69559800D03*
D10*
X157045000Y-64215000D03*
X172245000Y-64215000D03*
X172345000Y-71365000D03*
X125189223Y-72938357D03*
G04 #@! TA.AperFunction,ComponentPad*
D12*
G36*
X121339873Y-80469553D02*
G01*
X119990447Y-79609873D01*
X120850127Y-78260447D01*
X122199553Y-79120127D01*
X121339873Y-80469553D01*
G37*
G04 #@! TD.AperFunction*
D10*
X139045000Y-64215000D03*
X154245000Y-64215000D03*
X154345000Y-71365000D03*
D11*
X138963000Y-75215000D03*
D10*
X154345000Y-69565000D03*
X138963000Y-73415000D03*
X141045000Y-64115000D03*
D11*
X154345000Y-73165000D03*
D10*
X138963000Y-71615000D03*
G04 #@! TA.AperFunction,SMDPad,CuDef*
D12*
G36*
X140220866Y-78429922D02*
G01*
X139419644Y-77919487D01*
X140118134Y-76823078D01*
X140919356Y-77333513D01*
X140220866Y-78429922D01*
G37*
G04 #@! TD.AperFunction*
G04 #@! TA.AperFunction,SMDPad,CuDef*
G36*
X142128280Y-75435882D02*
G01*
X141327058Y-74925447D01*
X142025548Y-73829038D01*
X142826770Y-74339473D01*
X142128280Y-75435882D01*
G37*
G04 #@! TD.AperFunction*
D10*
X141045000Y-79515000D03*
D13*
X154395000Y-75565000D03*
D14*
X143370000Y-77765000D03*
D15*
X148233600Y-69559800D03*
X145033600Y-69559800D03*
X148233600Y-64659800D03*
X145033600Y-64659800D03*
G04 #@! TA.AperFunction,ComponentPad*
D12*
G36*
X139339873Y-80469553D02*
G01*
X137990447Y-79609873D01*
X138850127Y-78260447D01*
X140199553Y-79120127D01*
X139339873Y-80469553D01*
G37*
G04 #@! TD.AperFunction*
D10*
X143189223Y-72938357D03*
X121045000Y-64215000D03*
X136245000Y-64215000D03*
X136345000Y-71365000D03*
D11*
X120963000Y-75215000D03*
D10*
X136345000Y-69565000D03*
X120963000Y-73415000D03*
X123045000Y-64115000D03*
D11*
X136345000Y-73165000D03*
D10*
X120963000Y-71615000D03*
G04 #@! TA.AperFunction,SMDPad,CuDef*
D12*
G36*
X124128280Y-75435882D02*
G01*
X123327058Y-74925447D01*
X124025548Y-73829038D01*
X124826770Y-74339473D01*
X124128280Y-75435882D01*
G37*
G04 #@! TD.AperFunction*
G04 #@! TA.AperFunction,SMDPad,CuDef*
G36*
X122220866Y-78429922D02*
G01*
X121419644Y-77919487D01*
X122118134Y-76823078D01*
X122919356Y-77333513D01*
X122220866Y-78429922D01*
G37*
G04 #@! TD.AperFunction*
D10*
X123045000Y-79515000D03*
D14*
X125370000Y-77765000D03*
D13*
X136395000Y-75565000D03*
D15*
X127033600Y-64659800D03*
X130233600Y-64659800D03*
X127033600Y-69559800D03*
X130233600Y-69559800D03*
D10*
X157045000Y-46215000D03*
X172245000Y-46215000D03*
X172345000Y-53365000D03*
D11*
X156963000Y-57215000D03*
D10*
X172345000Y-51565000D03*
X156963000Y-55415000D03*
X159045000Y-46115000D03*
D11*
X172345000Y-55165000D03*
D10*
X156963000Y-53615000D03*
G04 #@! TA.AperFunction,SMDPad,CuDef*
D12*
G36*
X158220866Y-60429922D02*
G01*
X157419644Y-59919487D01*
X158118134Y-58823078D01*
X158919356Y-59333513D01*
X158220866Y-60429922D01*
G37*
G04 #@! TD.AperFunction*
G04 #@! TA.AperFunction,SMDPad,CuDef*
G36*
X160128280Y-57435882D02*
G01*
X159327058Y-56925447D01*
X160025548Y-55829038D01*
X160826770Y-56339473D01*
X160128280Y-57435882D01*
G37*
G04 #@! TD.AperFunction*
D10*
X159045000Y-61515000D03*
D13*
X172395000Y-57565000D03*
D14*
X161370000Y-59765000D03*
D15*
X166233600Y-51559800D03*
X163033600Y-51559800D03*
X166233600Y-46659800D03*
X163033600Y-46659800D03*
G04 #@! TA.AperFunction,ComponentPad*
D12*
G36*
X157339873Y-62469553D02*
G01*
X155990447Y-61609873D01*
X156850127Y-60260447D01*
X158199553Y-61120127D01*
X157339873Y-62469553D01*
G37*
G04 #@! TD.AperFunction*
D10*
X161189223Y-54938357D03*
X175045000Y-46215000D03*
X190245000Y-46215000D03*
X190345000Y-53365000D03*
D11*
X174963000Y-57215000D03*
D10*
X190345000Y-51565000D03*
X174963000Y-55415000D03*
X177045000Y-46115000D03*
D11*
X190345000Y-55165000D03*
D10*
X174963000Y-53615000D03*
G04 #@! TA.AperFunction,SMDPad,CuDef*
D12*
G36*
X178128280Y-57435882D02*
G01*
X177327058Y-56925447D01*
X178025548Y-55829038D01*
X178826770Y-56339473D01*
X178128280Y-57435882D01*
G37*
G04 #@! TD.AperFunction*
G04 #@! TA.AperFunction,SMDPad,CuDef*
G36*
X176220866Y-60429922D02*
G01*
X175419644Y-59919487D01*
X176118134Y-58823078D01*
X176919356Y-59333513D01*
X176220866Y-60429922D01*
G37*
G04 #@! TD.AperFunction*
D10*
X177045000Y-61515000D03*
D14*
X179370000Y-59765000D03*
D13*
X190395000Y-57565000D03*
D15*
X181033600Y-46659800D03*
X184233600Y-46659800D03*
X181033600Y-51559800D03*
X184233600Y-51559800D03*
D10*
X179189223Y-54938357D03*
G04 #@! TA.AperFunction,ComponentPad*
D12*
G36*
X175339873Y-62469553D02*
G01*
X173990447Y-61609873D01*
X174850127Y-60260447D01*
X176199553Y-61120127D01*
X175339873Y-62469553D01*
G37*
G04 #@! TD.AperFunction*
D10*
X121045000Y-46215000D03*
X136245000Y-46215000D03*
X136345000Y-53365000D03*
D11*
X120963000Y-57215000D03*
D10*
X136345000Y-51565000D03*
X120963000Y-55415000D03*
X123045000Y-46115000D03*
D11*
X136345000Y-55165000D03*
D10*
X120963000Y-53615000D03*
G04 #@! TA.AperFunction,SMDPad,CuDef*
D12*
G36*
X122220866Y-60429922D02*
G01*
X121419644Y-59919487D01*
X122118134Y-58823078D01*
X122919356Y-59333513D01*
X122220866Y-60429922D01*
G37*
G04 #@! TD.AperFunction*
G04 #@! TA.AperFunction,SMDPad,CuDef*
G36*
X124128280Y-57435882D02*
G01*
X123327058Y-56925447D01*
X124025548Y-55829038D01*
X124826770Y-56339473D01*
X124128280Y-57435882D01*
G37*
G04 #@! TD.AperFunction*
D10*
X123045000Y-61515000D03*
D13*
X136395000Y-57565000D03*
D14*
X125370000Y-59765000D03*
D15*
X130233600Y-51559800D03*
X127033600Y-51559800D03*
X130233600Y-46659800D03*
X127033600Y-46659800D03*
G04 #@! TA.AperFunction,ComponentPad*
D12*
G36*
X121339873Y-62469553D02*
G01*
X119990447Y-61609873D01*
X120850127Y-60260447D01*
X122199553Y-61120127D01*
X121339873Y-62469553D01*
G37*
G04 #@! TD.AperFunction*
D10*
X125189223Y-54938357D03*
X139045000Y-46215000D03*
X154245000Y-46215000D03*
X154345000Y-53365000D03*
D11*
X138963000Y-57215000D03*
D10*
X154345000Y-51565000D03*
X138963000Y-55415000D03*
X141045000Y-46115000D03*
D11*
X154345000Y-55165000D03*
D10*
X138963000Y-53615000D03*
G04 #@! TA.AperFunction,SMDPad,CuDef*
D12*
G36*
X142128280Y-57435882D02*
G01*
X141327058Y-56925447D01*
X142025548Y-55829038D01*
X142826770Y-56339473D01*
X142128280Y-57435882D01*
G37*
G04 #@! TD.AperFunction*
G04 #@! TA.AperFunction,SMDPad,CuDef*
G36*
X140220866Y-60429922D02*
G01*
X139419644Y-59919487D01*
X140118134Y-58823078D01*
X140919356Y-59333513D01*
X140220866Y-60429922D01*
G37*
G04 #@! TD.AperFunction*
D10*
X141045000Y-61515000D03*
D14*
X143370000Y-59765000D03*
D13*
X154395000Y-57565000D03*
D15*
X145033600Y-46659800D03*
X148233600Y-46659800D03*
X145033600Y-51559800D03*
X148233600Y-51559800D03*
D10*
X143189223Y-54938357D03*
G04 #@! TA.AperFunction,ComponentPad*
D12*
G36*
X139339873Y-62469553D02*
G01*
X137990447Y-61609873D01*
X138850127Y-60260447D01*
X140199553Y-61120127D01*
X139339873Y-62469553D01*
G37*
G04 #@! TD.AperFunction*
D14*
X89370000Y-59765000D03*
D13*
X100395000Y-57565000D03*
D10*
X103045000Y-46215000D03*
X118245000Y-46215000D03*
X118345000Y-53365000D03*
D11*
X102963000Y-57215000D03*
D10*
X118345000Y-51565000D03*
X102963000Y-55415000D03*
X105045000Y-46115000D03*
D11*
X118345000Y-55165000D03*
D10*
X102963000Y-53615000D03*
G04 #@! TA.AperFunction,SMDPad,CuDef*
D12*
G36*
X104220866Y-60429922D02*
G01*
X103419644Y-59919487D01*
X104118134Y-58823078D01*
X104919356Y-59333513D01*
X104220866Y-60429922D01*
G37*
G04 #@! TD.AperFunction*
G04 #@! TA.AperFunction,SMDPad,CuDef*
G36*
X106128280Y-57435882D02*
G01*
X105327058Y-56925447D01*
X106025548Y-55829038D01*
X106826770Y-56339473D01*
X106128280Y-57435882D01*
G37*
G04 #@! TD.AperFunction*
D10*
X105045000Y-61515000D03*
D13*
X118395000Y-57565000D03*
D14*
X107370000Y-59765000D03*
D15*
X112233600Y-51559800D03*
X109033600Y-51559800D03*
X112233600Y-46659800D03*
X109033600Y-46659800D03*
G04 #@! TA.AperFunction,ComponentPad*
D12*
G36*
X103339873Y-62469553D02*
G01*
X101990447Y-61609873D01*
X102850127Y-60260447D01*
X104199553Y-61120127D01*
X103339873Y-62469553D01*
G37*
G04 #@! TD.AperFunction*
D10*
X107189223Y-54938357D03*
X89189223Y-54938357D03*
G04 #@! TA.AperFunction,ComponentPad*
D12*
G36*
X85339873Y-62469553D02*
G01*
X83990447Y-61609873D01*
X84850127Y-60260447D01*
X86199553Y-61120127D01*
X85339873Y-62469553D01*
G37*
G04 #@! TD.AperFunction*
D15*
X91033600Y-46659800D03*
X94233600Y-46659800D03*
X91033600Y-51559800D03*
X94233600Y-51559800D03*
D10*
X87045000Y-61515000D03*
G04 #@! TA.AperFunction,SMDPad,CuDef*
D12*
G36*
X88128280Y-57435882D02*
G01*
X87327058Y-56925447D01*
X88025548Y-55829038D01*
X88826770Y-56339473D01*
X88128280Y-57435882D01*
G37*
G04 #@! TD.AperFunction*
G04 #@! TA.AperFunction,SMDPad,CuDef*
G36*
X86220866Y-60429922D02*
G01*
X85419644Y-59919487D01*
X86118134Y-58823078D01*
X86919356Y-59333513D01*
X86220866Y-60429922D01*
G37*
G04 #@! TD.AperFunction*
D10*
X84963000Y-53615000D03*
D11*
X100345000Y-55165000D03*
D10*
X87045000Y-46115000D03*
X84963000Y-55415000D03*
X100345000Y-51565000D03*
D11*
X84963000Y-57215000D03*
D10*
X100345000Y-53365000D03*
X100245000Y-46215000D03*
X85045000Y-46215000D03*
D16*
X115645000Y-55665000D03*
X112995000Y-53815000D03*
X110670600Y-56339400D03*
X108395000Y-57815000D03*
X104395000Y-57115000D03*
X113945000Y-51265000D03*
X108295000Y-53815000D03*
X112895000Y-57815000D03*
X110645000Y-61765000D03*
X113895000Y-55815000D03*
X110645000Y-46165000D03*
X144295000Y-53815000D03*
X148895000Y-57815000D03*
X146645000Y-61765000D03*
X149895000Y-55815000D03*
X146645000Y-46165000D03*
X151645000Y-55665000D03*
X148995000Y-53815000D03*
X144395000Y-57815000D03*
X146670600Y-56339400D03*
X140395000Y-57115000D03*
X149945000Y-51265000D03*
X133645000Y-55665000D03*
X130995000Y-53815000D03*
X128670600Y-56339400D03*
X126395000Y-57815000D03*
X122395000Y-57115000D03*
X131945000Y-51265000D03*
X126295000Y-53815000D03*
X130895000Y-57815000D03*
X128645000Y-61765000D03*
X131895000Y-55815000D03*
X128645000Y-46165000D03*
X180295000Y-53815000D03*
X184895000Y-57815000D03*
X182645000Y-61765000D03*
X185895000Y-55815000D03*
X182645000Y-46165000D03*
X187645000Y-55665000D03*
X184995000Y-53815000D03*
X180395000Y-57815000D03*
X182670600Y-56339400D03*
X176395000Y-57115000D03*
X185945000Y-51265000D03*
X169645000Y-55665000D03*
X166995000Y-53815000D03*
X164670600Y-56339400D03*
X162395000Y-57815000D03*
X158395000Y-57115000D03*
X167945000Y-51265000D03*
X162295000Y-53815000D03*
X166895000Y-57815000D03*
X164645000Y-61765000D03*
X167895000Y-55815000D03*
X164645000Y-46165000D03*
X151645000Y-73665000D03*
X126395000Y-75815000D03*
X122395000Y-75115000D03*
X128670600Y-74339400D03*
X130995000Y-71815000D03*
X131945000Y-69265000D03*
X148895000Y-75815000D03*
X144295000Y-71815000D03*
X149895000Y-73815000D03*
X146645000Y-79765000D03*
X146645000Y-64165000D03*
X108295000Y-71815000D03*
X148995000Y-71815000D03*
X144395000Y-75815000D03*
X146670600Y-74339400D03*
X140395000Y-75115000D03*
X149945000Y-69265000D03*
X126295000Y-71815000D03*
X131895000Y-73815000D03*
X128645000Y-79765000D03*
X130895000Y-75815000D03*
X128645000Y-64165000D03*
X133645000Y-73665000D03*
X162295000Y-71815000D03*
X166995000Y-71815000D03*
X164670600Y-74339400D03*
X162395000Y-75815000D03*
X158395000Y-75115000D03*
X167945000Y-69265000D03*
X180295000Y-71815000D03*
X184895000Y-75815000D03*
X182645000Y-79765000D03*
X185895000Y-73815000D03*
X182645000Y-64165000D03*
X187645000Y-73665000D03*
X184995000Y-71815000D03*
X180395000Y-75815000D03*
X182670600Y-74339400D03*
X176395000Y-75115000D03*
X185945000Y-69265000D03*
X112895000Y-75815000D03*
X110645000Y-79765000D03*
X113895000Y-73815000D03*
X110645000Y-64165000D03*
X115645000Y-73665000D03*
X112995000Y-71815000D03*
X108395000Y-75815000D03*
X110670600Y-74339400D03*
X104395000Y-75115000D03*
X113945000Y-69265000D03*
X166895000Y-75815000D03*
X164645000Y-79765000D03*
X167895000Y-73815000D03*
X164645000Y-64165000D03*
X169645000Y-73665000D03*
X97645000Y-73665000D03*
X94995000Y-71815000D03*
X92670600Y-74339400D03*
X90395000Y-75815000D03*
X86395000Y-75115000D03*
X95945000Y-69265000D03*
X90295000Y-71815000D03*
X94895000Y-75815000D03*
X92645000Y-79765000D03*
X95895000Y-73815000D03*
X92645000Y-64165000D03*
X151645000Y-91665000D03*
X126395000Y-93815000D03*
X122395000Y-93115000D03*
X128670600Y-92339400D03*
X130995000Y-89815000D03*
X131945000Y-87265000D03*
X148895000Y-93815000D03*
X144295000Y-89815000D03*
X149895000Y-91815000D03*
X146645000Y-97765000D03*
X146645000Y-82165000D03*
X108295000Y-89815000D03*
X148995000Y-89815000D03*
X144395000Y-93815000D03*
X146670600Y-92339400D03*
X140395000Y-93115000D03*
X149945000Y-87265000D03*
X126295000Y-89815000D03*
X94895000Y-111815000D03*
X92645000Y-115765000D03*
X95895000Y-109815000D03*
X92645000Y-100165000D03*
X151645000Y-109665000D03*
X97645000Y-109665000D03*
X167945000Y-105265000D03*
X158395000Y-111115000D03*
X180295000Y-107815000D03*
X184895000Y-111815000D03*
X182645000Y-115765000D03*
X185895000Y-109815000D03*
X182645000Y-100165000D03*
X187645000Y-109665000D03*
X131895000Y-91815000D03*
X128645000Y-97765000D03*
X130895000Y-93815000D03*
X128645000Y-82165000D03*
X133645000Y-91665000D03*
X162295000Y-89815000D03*
X94995000Y-107815000D03*
X92670600Y-110339400D03*
X90395000Y-111815000D03*
X86395000Y-111115000D03*
X95945000Y-105265000D03*
X126395000Y-111815000D03*
X122395000Y-111115000D03*
X166995000Y-89815000D03*
X164670600Y-92339400D03*
X162395000Y-93815000D03*
X158395000Y-93115000D03*
X167945000Y-87265000D03*
X180295000Y-89815000D03*
X184895000Y-93815000D03*
X182645000Y-97765000D03*
X185895000Y-91815000D03*
X182645000Y-82165000D03*
X187645000Y-91665000D03*
X184995000Y-89815000D03*
X180395000Y-93815000D03*
X182670600Y-92339400D03*
X176395000Y-93115000D03*
X185945000Y-87265000D03*
X162295000Y-107815000D03*
X166995000Y-107815000D03*
X164670600Y-110339400D03*
X162395000Y-111815000D03*
X184995000Y-107815000D03*
X180395000Y-111815000D03*
X182670600Y-110339400D03*
X176395000Y-111115000D03*
X185945000Y-105265000D03*
X112895000Y-111815000D03*
X110645000Y-115765000D03*
X128670600Y-110339400D03*
X130995000Y-107815000D03*
X131945000Y-105265000D03*
X148895000Y-111815000D03*
X144295000Y-107815000D03*
X149895000Y-109815000D03*
X146645000Y-115765000D03*
X146645000Y-100165000D03*
X108295000Y-107815000D03*
X148995000Y-107815000D03*
X144395000Y-111815000D03*
X146670600Y-110339400D03*
X140395000Y-111115000D03*
X149945000Y-105265000D03*
X126295000Y-107815000D03*
X131895000Y-109815000D03*
X128645000Y-115765000D03*
X130895000Y-111815000D03*
X128645000Y-100165000D03*
X133645000Y-109665000D03*
X164645000Y-100165000D03*
X169645000Y-109665000D03*
X90295000Y-107815000D03*
X113895000Y-109815000D03*
X110645000Y-100165000D03*
X115645000Y-109665000D03*
X112995000Y-107815000D03*
X108395000Y-111815000D03*
X110670600Y-110339400D03*
X104395000Y-111115000D03*
X113945000Y-105265000D03*
X166895000Y-111815000D03*
X164645000Y-115765000D03*
X167895000Y-109815000D03*
X112895000Y-93815000D03*
X110645000Y-97765000D03*
X113895000Y-91815000D03*
X110645000Y-82165000D03*
X115645000Y-91665000D03*
X112995000Y-89815000D03*
X108395000Y-93815000D03*
X110670600Y-92339400D03*
X104395000Y-93115000D03*
X113945000Y-87265000D03*
X166895000Y-93815000D03*
X164645000Y-97765000D03*
X167895000Y-91815000D03*
X164645000Y-82165000D03*
X169645000Y-91665000D03*
X97645000Y-91665000D03*
X94995000Y-89815000D03*
X92670600Y-92339400D03*
X90395000Y-93815000D03*
X86395000Y-93115000D03*
X95945000Y-87265000D03*
X90295000Y-89815000D03*
X94895000Y-93815000D03*
X92645000Y-97765000D03*
X95895000Y-91815000D03*
X92645000Y-82165000D03*
X151645000Y-127665000D03*
X126395000Y-129815000D03*
X122395000Y-129115000D03*
X128670600Y-128339400D03*
X130995000Y-125815000D03*
X131945000Y-123265000D03*
X148895000Y-129815000D03*
X144295000Y-125815000D03*
X149895000Y-127815000D03*
X146645000Y-133765000D03*
X146645000Y-118165000D03*
X108295000Y-125815000D03*
X148995000Y-125815000D03*
X144395000Y-129815000D03*
X146670600Y-128339400D03*
X140395000Y-129115000D03*
X149945000Y-123265000D03*
X126295000Y-125815000D03*
X94895000Y-147815000D03*
X92645000Y-151765000D03*
X95895000Y-145815000D03*
X92645000Y-136165000D03*
X151645000Y-145665000D03*
X97645000Y-145665000D03*
X167945000Y-141265000D03*
X158395000Y-147115000D03*
X180295000Y-143815000D03*
X184895000Y-147815000D03*
X182645000Y-151765000D03*
X185895000Y-145815000D03*
X182645000Y-136165000D03*
X187645000Y-145665000D03*
X131895000Y-127815000D03*
X128645000Y-133765000D03*
X130895000Y-129815000D03*
X128645000Y-118165000D03*
X133645000Y-127665000D03*
X162295000Y-125815000D03*
X94995000Y-143815000D03*
X92670600Y-146339400D03*
X90395000Y-147815000D03*
X86395000Y-147115000D03*
X95945000Y-141265000D03*
X126395000Y-147815000D03*
X122395000Y-147115000D03*
X166995000Y-125815000D03*
X164670600Y-128339400D03*
X162395000Y-129815000D03*
X158395000Y-129115000D03*
X167945000Y-123265000D03*
X180295000Y-125815000D03*
X184895000Y-129815000D03*
X182645000Y-133765000D03*
X185895000Y-127815000D03*
X182645000Y-118165000D03*
X187645000Y-127665000D03*
X184995000Y-125815000D03*
X180395000Y-129815000D03*
X182670600Y-128339400D03*
X176395000Y-129115000D03*
X185945000Y-123265000D03*
X162295000Y-143815000D03*
X166995000Y-143815000D03*
X164670600Y-146339400D03*
X162395000Y-147815000D03*
X184995000Y-143815000D03*
X180395000Y-147815000D03*
X182670600Y-146339400D03*
X176395000Y-147115000D03*
X185945000Y-141265000D03*
X112895000Y-147815000D03*
X110645000Y-151765000D03*
X128670600Y-146339400D03*
X130995000Y-143815000D03*
X131945000Y-141265000D03*
X148895000Y-147815000D03*
X144295000Y-143815000D03*
X149895000Y-145815000D03*
X146645000Y-151765000D03*
X146645000Y-136165000D03*
X108295000Y-143815000D03*
X148995000Y-143815000D03*
X144395000Y-147815000D03*
X146670600Y-146339400D03*
X140395000Y-147115000D03*
X149945000Y-141265000D03*
X126295000Y-143815000D03*
X131895000Y-145815000D03*
X128645000Y-151765000D03*
X130895000Y-147815000D03*
X128645000Y-136165000D03*
X133645000Y-145665000D03*
X164645000Y-136165000D03*
X169645000Y-145665000D03*
X90295000Y-143815000D03*
X113895000Y-145815000D03*
X110645000Y-136165000D03*
X115645000Y-145665000D03*
X112995000Y-143815000D03*
X108395000Y-147815000D03*
X110670600Y-146339400D03*
X104395000Y-147115000D03*
X113945000Y-141265000D03*
X166895000Y-147815000D03*
X164645000Y-151765000D03*
X167895000Y-145815000D03*
X112895000Y-129815000D03*
X110645000Y-133765000D03*
X113895000Y-127815000D03*
X110645000Y-118165000D03*
X115645000Y-127665000D03*
X112995000Y-125815000D03*
X108395000Y-129815000D03*
X110670600Y-128339400D03*
X104395000Y-129115000D03*
X113945000Y-123265000D03*
X166895000Y-129815000D03*
X164645000Y-133765000D03*
X167895000Y-127815000D03*
X164645000Y-118165000D03*
X169645000Y-127665000D03*
X97645000Y-127665000D03*
X94995000Y-125815000D03*
X92670600Y-128339400D03*
X90395000Y-129815000D03*
X86395000Y-129115000D03*
X95945000Y-123265000D03*
X90295000Y-125815000D03*
X94895000Y-129815000D03*
X92645000Y-133765000D03*
X95895000Y-127815000D03*
X92645000Y-118165000D03*
X97645000Y-55665000D03*
X94995000Y-53815000D03*
X92670600Y-56339400D03*
X90395000Y-57815000D03*
X86395000Y-57115000D03*
X95945000Y-51265000D03*
X90295000Y-53815000D03*
X94895000Y-57815000D03*
X92645000Y-61765000D03*
X95895000Y-55815000D03*
X92645000Y-46165000D03*
D17*
X107370000Y-57925546D02*
X106076914Y-56632460D01*
X107370000Y-59765000D02*
X106213000Y-59765000D01*
X107189223Y-54938357D02*
X107189223Y-55520151D01*
X107189223Y-55520151D02*
X106076914Y-56632460D01*
X107370000Y-59765000D02*
X107370000Y-57925546D01*
D18*
X107370000Y-55119134D02*
X107189223Y-54938357D01*
D17*
X104868000Y-58928000D02*
X104169500Y-59626500D01*
X105045000Y-46115000D02*
X105045000Y-52265000D01*
X104069099Y-53240901D02*
X104069099Y-54331433D01*
X105045000Y-52265000D02*
X104069099Y-53240901D01*
X104069099Y-54331433D02*
X104868000Y-55130334D01*
X104868000Y-55130334D02*
X104868000Y-58928000D01*
X105045000Y-61515000D02*
X105045000Y-60502000D01*
X105045000Y-60502000D02*
X104169500Y-59626500D01*
X103095000Y-61365000D02*
X104895000Y-61365000D01*
X104895000Y-61365000D02*
X105045000Y-61515000D01*
X118445000Y-57565000D02*
X118869991Y-57565000D01*
X115645000Y-55665000D02*
X116545000Y-55665000D01*
X118491000Y-57565000D02*
X118869991Y-57565000D01*
X116545000Y-55665000D02*
X118445000Y-57565000D01*
X102963000Y-53615000D02*
X102963000Y-53720322D01*
X112995000Y-53532158D02*
X112995000Y-53815000D01*
X112995000Y-52571200D02*
X112995000Y-53532158D01*
X112233600Y-51809800D02*
X112995000Y-52571200D01*
X112233600Y-51559800D02*
X112233600Y-51809800D01*
X102963000Y-53615000D02*
X102963000Y-53897998D01*
X110670600Y-56339400D02*
X108920600Y-56339400D01*
X108920600Y-56339400D02*
X108395000Y-56865000D01*
X108395000Y-56865000D02*
X108395000Y-57815000D01*
X108395000Y-57815000D02*
X108395000Y-57815000D01*
X102963000Y-53615000D02*
X102963000Y-53883000D01*
X102963000Y-53883000D02*
X104395000Y-55315000D01*
X104395000Y-55315000D02*
X104395000Y-57115000D01*
X104395000Y-57115000D02*
X104395000Y-57115000D01*
X118045000Y-51265000D02*
X118345000Y-51565000D01*
X113945000Y-51265000D02*
X118045000Y-51265000D01*
X108295000Y-52548400D02*
X108295000Y-53532158D01*
X108295000Y-53532158D02*
X108295000Y-53815000D01*
X109033600Y-51809800D02*
X108295000Y-52548400D01*
X109033600Y-51559800D02*
X109033600Y-51809800D01*
X117545001Y-52565001D02*
X118345000Y-53365000D01*
X114094999Y-52565001D02*
X117545001Y-52565001D01*
X113420001Y-53239999D02*
X114094999Y-52565001D01*
X113420001Y-56889999D02*
X113420001Y-53239999D01*
X113420001Y-56889999D02*
X113420001Y-57289999D01*
X113420001Y-57289999D02*
X112895000Y-57815000D01*
X112895000Y-57815000D02*
X112895000Y-57815000D01*
X113420001Y-51089999D02*
X113420001Y-53239999D01*
X115045000Y-48015000D02*
X115045000Y-49465000D01*
X113689800Y-46659800D02*
X115045000Y-48015000D01*
X115045000Y-49465000D02*
X113420001Y-51089999D01*
X112233600Y-46659800D02*
X113689800Y-46659800D01*
X114545000Y-55165000D02*
X113895000Y-55815000D01*
X118345000Y-55165000D02*
X114545000Y-55165000D01*
X113895000Y-57115000D02*
X113895000Y-55815000D01*
X113895000Y-55815000D02*
X113895000Y-55815000D01*
X110645000Y-61765000D02*
X112095000Y-61765000D01*
X112095000Y-61765000D02*
X113345000Y-60515000D01*
X113345000Y-60515000D02*
X113345000Y-57965000D01*
X113895000Y-57415000D02*
X113895000Y-57115000D01*
X113345000Y-57965000D02*
X113895000Y-57415000D01*
X109783600Y-46659800D02*
X110278400Y-46165000D01*
X109033600Y-46659800D02*
X109783600Y-46659800D01*
X110278400Y-46165000D02*
X110645000Y-46165000D01*
X110645000Y-46165000D02*
X110645000Y-46165000D01*
X149420001Y-56889999D02*
X149420001Y-53239999D01*
X149420001Y-57289999D02*
X148895000Y-57815000D01*
X148895000Y-57815000D02*
X148895000Y-57815000D01*
X144295000Y-53532158D02*
X144295000Y-53815000D01*
X149420001Y-56889999D02*
X149420001Y-57289999D01*
X151045000Y-49465000D02*
X149420001Y-51089999D01*
X149689800Y-46659800D02*
X151045000Y-48015000D01*
X150094999Y-52565001D02*
X153545001Y-52565001D01*
X145033600Y-51809800D02*
X144295000Y-52548400D01*
X149420001Y-53239999D02*
X150094999Y-52565001D01*
X144295000Y-52548400D02*
X144295000Y-53532158D01*
X145033600Y-51559800D02*
X145033600Y-51809800D01*
X149420001Y-51089999D02*
X149420001Y-53239999D01*
X153545001Y-52565001D02*
X154345000Y-53365000D01*
X151045000Y-48015000D02*
X151045000Y-49465000D01*
X148233600Y-46659800D02*
X149689800Y-46659800D01*
X150545000Y-55165000D02*
X149895000Y-55815000D01*
X154345000Y-55165000D02*
X150545000Y-55165000D01*
X149895000Y-57115000D02*
X149895000Y-55815000D01*
X149895000Y-55815000D02*
X149895000Y-55815000D01*
X146645000Y-61765000D02*
X148095000Y-61765000D01*
X148095000Y-61765000D02*
X149345000Y-60515000D01*
X149345000Y-60515000D02*
X149345000Y-57965000D01*
X149895000Y-57415000D02*
X149895000Y-57115000D01*
X149345000Y-57965000D02*
X149895000Y-57415000D01*
X145783600Y-46659800D02*
X146278400Y-46165000D01*
X145033600Y-46659800D02*
X145783600Y-46659800D01*
X146278400Y-46165000D02*
X146645000Y-46165000D01*
X146645000Y-46165000D02*
X146645000Y-46165000D01*
X154445000Y-57565000D02*
X154869991Y-57565000D01*
X151645000Y-55665000D02*
X152545000Y-55665000D01*
X140868000Y-58928000D02*
X140169500Y-59626500D01*
X143370000Y-57925546D02*
X142076914Y-56632460D01*
X143370000Y-59765000D02*
X142213000Y-59765000D01*
X154491000Y-57565000D02*
X154869991Y-57565000D01*
X141045000Y-46115000D02*
X141045000Y-52265000D01*
X140069099Y-53240901D02*
X140069099Y-54331433D01*
X141045000Y-52265000D02*
X140069099Y-53240901D01*
X140069099Y-54331433D02*
X140868000Y-55130334D01*
X140868000Y-55130334D02*
X140868000Y-58928000D01*
X141045000Y-61515000D02*
X141045000Y-60502000D01*
X141045000Y-60502000D02*
X140169500Y-59626500D01*
X139095000Y-61365000D02*
X140895000Y-61365000D01*
X140895000Y-61365000D02*
X141045000Y-61515000D01*
X143189223Y-54938357D02*
X143189223Y-55520151D01*
X143189223Y-55520151D02*
X142076914Y-56632460D01*
X143370000Y-59765000D02*
X143370000Y-57925546D01*
D18*
X143370000Y-55119134D02*
X143189223Y-54938357D01*
D17*
X138963000Y-53615000D02*
X138963000Y-53720322D01*
X152545000Y-55665000D02*
X154445000Y-57565000D01*
X148233600Y-51809800D02*
X148995000Y-52571200D01*
X148233600Y-51559800D02*
X148233600Y-51809800D01*
X148995000Y-53532158D02*
X148995000Y-53815000D01*
X148995000Y-52571200D02*
X148995000Y-53532158D01*
X140395000Y-55315000D02*
X140395000Y-57115000D01*
X144395000Y-56865000D02*
X144395000Y-57815000D01*
X138963000Y-53615000D02*
X138963000Y-53897998D01*
X146670600Y-56339400D02*
X144920600Y-56339400D01*
X144920600Y-56339400D02*
X144395000Y-56865000D01*
X138963000Y-53883000D02*
X140395000Y-55315000D01*
X138963000Y-53615000D02*
X138963000Y-53883000D01*
X140395000Y-57115000D02*
X140395000Y-57115000D01*
X144395000Y-57815000D02*
X144395000Y-57815000D01*
X149945000Y-51265000D02*
X154045000Y-51265000D01*
X154045000Y-51265000D02*
X154345000Y-51565000D01*
X125370000Y-57925546D02*
X124076914Y-56632460D01*
X125370000Y-59765000D02*
X124213000Y-59765000D01*
X125189223Y-54938357D02*
X125189223Y-55520151D01*
X125189223Y-55520151D02*
X124076914Y-56632460D01*
X125370000Y-59765000D02*
X125370000Y-57925546D01*
D18*
X125370000Y-55119134D02*
X125189223Y-54938357D01*
D17*
X122868000Y-58928000D02*
X122169500Y-59626500D01*
X123045000Y-46115000D02*
X123045000Y-52265000D01*
X122069099Y-53240901D02*
X122069099Y-54331433D01*
X123045000Y-52265000D02*
X122069099Y-53240901D01*
X122069099Y-54331433D02*
X122868000Y-55130334D01*
X122868000Y-55130334D02*
X122868000Y-58928000D01*
X123045000Y-61515000D02*
X123045000Y-60502000D01*
X123045000Y-60502000D02*
X122169500Y-59626500D01*
X121095000Y-61365000D02*
X122895000Y-61365000D01*
X122895000Y-61365000D02*
X123045000Y-61515000D01*
X136445000Y-57565000D02*
X136869991Y-57565000D01*
X133645000Y-55665000D02*
X134545000Y-55665000D01*
X136491000Y-57565000D02*
X136869991Y-57565000D01*
X134545000Y-55665000D02*
X136445000Y-57565000D01*
X120963000Y-53615000D02*
X120963000Y-53720322D01*
X130995000Y-53532158D02*
X130995000Y-53815000D01*
X130995000Y-52571200D02*
X130995000Y-53532158D01*
X130233600Y-51809800D02*
X130995000Y-52571200D01*
X130233600Y-51559800D02*
X130233600Y-51809800D01*
X120963000Y-53615000D02*
X120963000Y-53897998D01*
X128670600Y-56339400D02*
X126920600Y-56339400D01*
X126920600Y-56339400D02*
X126395000Y-56865000D01*
X126395000Y-56865000D02*
X126395000Y-57815000D01*
X126395000Y-57815000D02*
X126395000Y-57815000D01*
X120963000Y-53615000D02*
X120963000Y-53883000D01*
X120963000Y-53883000D02*
X122395000Y-55315000D01*
X122395000Y-55315000D02*
X122395000Y-57115000D01*
X122395000Y-57115000D02*
X122395000Y-57115000D01*
X136045000Y-51265000D02*
X136345000Y-51565000D01*
X131945000Y-51265000D02*
X136045000Y-51265000D01*
X126295000Y-52548400D02*
X126295000Y-53532158D01*
X126295000Y-53532158D02*
X126295000Y-53815000D01*
X127033600Y-51809800D02*
X126295000Y-52548400D01*
X127033600Y-51559800D02*
X127033600Y-51809800D01*
X135545001Y-52565001D02*
X136345000Y-53365000D01*
X132094999Y-52565001D02*
X135545001Y-52565001D01*
X131420001Y-53239999D02*
X132094999Y-52565001D01*
X131420001Y-56889999D02*
X131420001Y-53239999D01*
X131420001Y-56889999D02*
X131420001Y-57289999D01*
X131420001Y-57289999D02*
X130895000Y-57815000D01*
X130895000Y-57815000D02*
X130895000Y-57815000D01*
X131420001Y-51089999D02*
X131420001Y-53239999D01*
X133045000Y-48015000D02*
X133045000Y-49465000D01*
X131689800Y-46659800D02*
X133045000Y-48015000D01*
X133045000Y-49465000D02*
X131420001Y-51089999D01*
X130233600Y-46659800D02*
X131689800Y-46659800D01*
X132545000Y-55165000D02*
X131895000Y-55815000D01*
X136345000Y-55165000D02*
X132545000Y-55165000D01*
X131895000Y-57115000D02*
X131895000Y-55815000D01*
X131895000Y-55815000D02*
X131895000Y-55815000D01*
X128645000Y-61765000D02*
X130095000Y-61765000D01*
X130095000Y-61765000D02*
X131345000Y-60515000D01*
X131345000Y-60515000D02*
X131345000Y-57965000D01*
X131895000Y-57415000D02*
X131895000Y-57115000D01*
X131345000Y-57965000D02*
X131895000Y-57415000D01*
X127783600Y-46659800D02*
X128278400Y-46165000D01*
X127033600Y-46659800D02*
X127783600Y-46659800D01*
X128278400Y-46165000D02*
X128645000Y-46165000D01*
X128645000Y-46165000D02*
X128645000Y-46165000D01*
X185420001Y-56889999D02*
X185420001Y-53239999D01*
X185420001Y-57289999D02*
X184895000Y-57815000D01*
X184895000Y-57815000D02*
X184895000Y-57815000D01*
X180295000Y-53532158D02*
X180295000Y-53815000D01*
X185420001Y-56889999D02*
X185420001Y-57289999D01*
X187045000Y-49465000D02*
X185420001Y-51089999D01*
X185689800Y-46659800D02*
X187045000Y-48015000D01*
X186094999Y-52565001D02*
X189545001Y-52565001D01*
X181033600Y-51809800D02*
X180295000Y-52548400D01*
X185420001Y-53239999D02*
X186094999Y-52565001D01*
X180295000Y-52548400D02*
X180295000Y-53532158D01*
X181033600Y-51559800D02*
X181033600Y-51809800D01*
X185420001Y-51089999D02*
X185420001Y-53239999D01*
X189545001Y-52565001D02*
X190345000Y-53365000D01*
X187045000Y-48015000D02*
X187045000Y-49465000D01*
X184233600Y-46659800D02*
X185689800Y-46659800D01*
X186545000Y-55165000D02*
X185895000Y-55815000D01*
X190345000Y-55165000D02*
X186545000Y-55165000D01*
X185895000Y-57115000D02*
X185895000Y-55815000D01*
X185895000Y-55815000D02*
X185895000Y-55815000D01*
X182645000Y-61765000D02*
X184095000Y-61765000D01*
X184095000Y-61765000D02*
X185345000Y-60515000D01*
X185345000Y-60515000D02*
X185345000Y-57965000D01*
X185895000Y-57415000D02*
X185895000Y-57115000D01*
X185345000Y-57965000D02*
X185895000Y-57415000D01*
X181783600Y-46659800D02*
X182278400Y-46165000D01*
X181033600Y-46659800D02*
X181783600Y-46659800D01*
X182278400Y-46165000D02*
X182645000Y-46165000D01*
X182645000Y-46165000D02*
X182645000Y-46165000D01*
X190445000Y-57565000D02*
X190869991Y-57565000D01*
X187645000Y-55665000D02*
X188545000Y-55665000D01*
X176868000Y-58928000D02*
X176169500Y-59626500D01*
X179370000Y-57925546D02*
X178076914Y-56632460D01*
X179370000Y-59765000D02*
X178213000Y-59765000D01*
X190491000Y-57565000D02*
X190869991Y-57565000D01*
X177045000Y-46115000D02*
X177045000Y-52265000D01*
X176069099Y-53240901D02*
X176069099Y-54331433D01*
X177045000Y-52265000D02*
X176069099Y-53240901D01*
X176069099Y-54331433D02*
X176868000Y-55130334D01*
X176868000Y-55130334D02*
X176868000Y-58928000D01*
X177045000Y-61515000D02*
X177045000Y-60502000D01*
X177045000Y-60502000D02*
X176169500Y-59626500D01*
X175095000Y-61365000D02*
X176895000Y-61365000D01*
X176895000Y-61365000D02*
X177045000Y-61515000D01*
X179189223Y-54938357D02*
X179189223Y-55520151D01*
X179189223Y-55520151D02*
X178076914Y-56632460D01*
X179370000Y-59765000D02*
X179370000Y-57925546D01*
D18*
X179370000Y-55119134D02*
X179189223Y-54938357D01*
D17*
X174963000Y-53615000D02*
X174963000Y-53720322D01*
X188545000Y-55665000D02*
X190445000Y-57565000D01*
X184233600Y-51809800D02*
X184995000Y-52571200D01*
X184233600Y-51559800D02*
X184233600Y-51809800D01*
X184995000Y-53532158D02*
X184995000Y-53815000D01*
X184995000Y-52571200D02*
X184995000Y-53532158D01*
X176395000Y-55315000D02*
X176395000Y-57115000D01*
X180395000Y-56865000D02*
X180395000Y-57815000D01*
X174963000Y-53615000D02*
X174963000Y-53897998D01*
X182670600Y-56339400D02*
X180920600Y-56339400D01*
X180920600Y-56339400D02*
X180395000Y-56865000D01*
X174963000Y-53883000D02*
X176395000Y-55315000D01*
X174963000Y-53615000D02*
X174963000Y-53883000D01*
X176395000Y-57115000D02*
X176395000Y-57115000D01*
X180395000Y-57815000D02*
X180395000Y-57815000D01*
X185945000Y-51265000D02*
X190045000Y-51265000D01*
X190045000Y-51265000D02*
X190345000Y-51565000D01*
X161370000Y-57925546D02*
X160076914Y-56632460D01*
X161370000Y-59765000D02*
X160213000Y-59765000D01*
X161189223Y-54938357D02*
X161189223Y-55520151D01*
X161189223Y-55520151D02*
X160076914Y-56632460D01*
X161370000Y-59765000D02*
X161370000Y-57925546D01*
D18*
X161370000Y-55119134D02*
X161189223Y-54938357D01*
D17*
X158868000Y-58928000D02*
X158169500Y-59626500D01*
X159045000Y-46115000D02*
X159045000Y-52265000D01*
X158069099Y-53240901D02*
X158069099Y-54331433D01*
X159045000Y-52265000D02*
X158069099Y-53240901D01*
X158069099Y-54331433D02*
X158868000Y-55130334D01*
X158868000Y-55130334D02*
X158868000Y-58928000D01*
X159045000Y-61515000D02*
X159045000Y-60502000D01*
X159045000Y-60502000D02*
X158169500Y-59626500D01*
X157095000Y-61365000D02*
X158895000Y-61365000D01*
X158895000Y-61365000D02*
X159045000Y-61515000D01*
X172445000Y-57565000D02*
X172869991Y-57565000D01*
X169645000Y-55665000D02*
X170545000Y-55665000D01*
X172491000Y-57565000D02*
X172869991Y-57565000D01*
X170545000Y-55665000D02*
X172445000Y-57565000D01*
X156963000Y-53615000D02*
X156963000Y-53720322D01*
X166995000Y-53532158D02*
X166995000Y-53815000D01*
X166995000Y-52571200D02*
X166995000Y-53532158D01*
X166233600Y-51809800D02*
X166995000Y-52571200D01*
X166233600Y-51559800D02*
X166233600Y-51809800D01*
X156963000Y-53615000D02*
X156963000Y-53897998D01*
X164670600Y-56339400D02*
X162920600Y-56339400D01*
X162920600Y-56339400D02*
X162395000Y-56865000D01*
X162395000Y-56865000D02*
X162395000Y-57815000D01*
X162395000Y-57815000D02*
X162395000Y-57815000D01*
X156963000Y-53615000D02*
X156963000Y-53883000D01*
X156963000Y-53883000D02*
X158395000Y-55315000D01*
X158395000Y-55315000D02*
X158395000Y-57115000D01*
X158395000Y-57115000D02*
X158395000Y-57115000D01*
X172045000Y-51265000D02*
X172345000Y-51565000D01*
X167945000Y-51265000D02*
X172045000Y-51265000D01*
X162295000Y-52548400D02*
X162295000Y-53532158D01*
X162295000Y-53532158D02*
X162295000Y-53815000D01*
X163033600Y-51809800D02*
X162295000Y-52548400D01*
X163033600Y-51559800D02*
X163033600Y-51809800D01*
X171545001Y-52565001D02*
X172345000Y-53365000D01*
X168094999Y-52565001D02*
X171545001Y-52565001D01*
X167420001Y-53239999D02*
X168094999Y-52565001D01*
X167420001Y-56889999D02*
X167420001Y-53239999D01*
X167420001Y-56889999D02*
X167420001Y-57289999D01*
X167420001Y-57289999D02*
X166895000Y-57815000D01*
X166895000Y-57815000D02*
X166895000Y-57815000D01*
X167420001Y-51089999D02*
X167420001Y-53239999D01*
X169045000Y-48015000D02*
X169045000Y-49465000D01*
X167689800Y-46659800D02*
X169045000Y-48015000D01*
X169045000Y-49465000D02*
X167420001Y-51089999D01*
X166233600Y-46659800D02*
X167689800Y-46659800D01*
X168545000Y-55165000D02*
X167895000Y-55815000D01*
X172345000Y-55165000D02*
X168545000Y-55165000D01*
X167895000Y-57115000D02*
X167895000Y-55815000D01*
X167895000Y-55815000D02*
X167895000Y-55815000D01*
X164645000Y-61765000D02*
X166095000Y-61765000D01*
X166095000Y-61765000D02*
X167345000Y-60515000D01*
X167345000Y-60515000D02*
X167345000Y-57965000D01*
X167895000Y-57415000D02*
X167895000Y-57115000D01*
X167345000Y-57965000D02*
X167895000Y-57415000D01*
X163783600Y-46659800D02*
X164278400Y-46165000D01*
X163033600Y-46659800D02*
X163783600Y-46659800D01*
X164278400Y-46165000D02*
X164645000Y-46165000D01*
X164645000Y-46165000D02*
X164645000Y-46165000D01*
X154445000Y-75565000D02*
X154869991Y-75565000D01*
X126395000Y-74865000D02*
X126395000Y-75815000D01*
X122395000Y-75115000D02*
X122395000Y-75115000D01*
X122395000Y-73315000D02*
X122395000Y-75115000D01*
X126920600Y-74339400D02*
X126395000Y-74865000D01*
X126395000Y-75815000D02*
X126395000Y-75815000D01*
X120963000Y-71883000D02*
X122395000Y-73315000D01*
X120963000Y-71615000D02*
X120963000Y-71883000D01*
X128670600Y-74339400D02*
X126920600Y-74339400D01*
X120963000Y-71615000D02*
X120963000Y-71897998D01*
X130233600Y-69559800D02*
X130233600Y-69809800D01*
X130233600Y-69809800D02*
X130995000Y-70571200D01*
X130995000Y-70571200D02*
X130995000Y-71532158D01*
X130995000Y-71532158D02*
X130995000Y-71815000D01*
X131945000Y-69265000D02*
X136045000Y-69265000D01*
X136045000Y-69265000D02*
X136345000Y-69565000D01*
X134545000Y-73665000D02*
X136445000Y-75565000D01*
X148895000Y-75815000D02*
X148895000Y-75815000D01*
X149420001Y-74889999D02*
X149420001Y-75289999D01*
X144295000Y-71532158D02*
X144295000Y-71815000D01*
X149420001Y-75289999D02*
X148895000Y-75815000D01*
X149420001Y-74889999D02*
X149420001Y-71239999D01*
X149895000Y-73815000D02*
X149895000Y-73815000D01*
X149895000Y-75115000D02*
X149895000Y-73815000D01*
X150545000Y-73165000D02*
X149895000Y-73815000D01*
X154345000Y-73165000D02*
X150545000Y-73165000D01*
X148233600Y-64659800D02*
X149689800Y-64659800D01*
X153545001Y-70565001D02*
X154345000Y-71365000D01*
X151045000Y-66015000D02*
X151045000Y-67465000D01*
X144295000Y-70548400D02*
X144295000Y-71532158D01*
X149420001Y-71239999D02*
X150094999Y-70565001D01*
X149420001Y-69089999D02*
X149420001Y-71239999D01*
X145033600Y-69559800D02*
X145033600Y-69809800D01*
X149689800Y-64659800D02*
X151045000Y-66015000D01*
X151045000Y-67465000D02*
X149420001Y-69089999D01*
X150094999Y-70565001D02*
X153545001Y-70565001D01*
X145033600Y-69809800D02*
X144295000Y-70548400D01*
X120963000Y-71615000D02*
X120963000Y-71720322D01*
X146645000Y-79765000D02*
X148095000Y-79765000D01*
X148095000Y-79765000D02*
X149345000Y-78515000D01*
X145033600Y-64659800D02*
X145783600Y-64659800D01*
X149345000Y-78515000D02*
X149345000Y-75965000D01*
X146278400Y-64165000D02*
X146645000Y-64165000D01*
X145783600Y-64659800D02*
X146278400Y-64165000D01*
X149895000Y-75415000D02*
X149895000Y-75115000D01*
X146645000Y-64165000D02*
X146645000Y-64165000D01*
X149345000Y-75965000D02*
X149895000Y-75415000D01*
X152545000Y-73665000D02*
X154445000Y-75565000D01*
X148233600Y-69809800D02*
X148995000Y-70571200D01*
X148233600Y-69559800D02*
X148233600Y-69809800D01*
X148995000Y-71532158D02*
X148995000Y-71815000D01*
X148995000Y-70571200D02*
X148995000Y-71532158D01*
X140395000Y-73315000D02*
X140395000Y-75115000D01*
X144395000Y-74865000D02*
X144395000Y-75815000D01*
X138963000Y-71615000D02*
X138963000Y-71897998D01*
X146670600Y-74339400D02*
X144920600Y-74339400D01*
X144920600Y-74339400D02*
X144395000Y-74865000D01*
X138963000Y-71883000D02*
X140395000Y-73315000D01*
X138963000Y-71615000D02*
X138963000Y-71883000D01*
X140395000Y-75115000D02*
X140395000Y-75115000D01*
X144395000Y-75815000D02*
X144395000Y-75815000D01*
X149945000Y-69265000D02*
X154045000Y-69265000D01*
X154045000Y-69265000D02*
X154345000Y-69565000D01*
X131895000Y-75115000D02*
X131895000Y-73815000D01*
X133045000Y-67465000D02*
X131420001Y-69089999D01*
X133045000Y-66015000D02*
X133045000Y-67465000D01*
X131420001Y-69089999D02*
X131420001Y-71239999D01*
X161370000Y-77765000D02*
X161370000Y-75925546D01*
X131689800Y-64659800D02*
X133045000Y-66015000D01*
X130233600Y-64659800D02*
X131689800Y-64659800D01*
X131895000Y-73815000D02*
X131895000Y-73815000D01*
X136345000Y-73165000D02*
X132545000Y-73165000D01*
X132545000Y-73165000D02*
X131895000Y-73815000D01*
X130895000Y-75815000D02*
X130895000Y-75815000D01*
X131420001Y-75289999D02*
X130895000Y-75815000D01*
X131420001Y-74889999D02*
X131420001Y-75289999D01*
X131420001Y-74889999D02*
X131420001Y-71239999D01*
X131420001Y-71239999D02*
X132094999Y-70565001D01*
X132094999Y-70565001D02*
X135545001Y-70565001D01*
X127033600Y-69559800D02*
X127033600Y-69809800D01*
X127033600Y-69809800D02*
X126295000Y-70548400D01*
X135545001Y-70565001D02*
X136345000Y-71365000D01*
X126295000Y-70548400D02*
X126295000Y-71532158D01*
X126295000Y-71532158D02*
X126295000Y-71815000D01*
X128645000Y-79765000D02*
X130095000Y-79765000D01*
X130095000Y-79765000D02*
X131345000Y-78515000D01*
X131345000Y-78515000D02*
X131345000Y-75965000D01*
X131895000Y-75415000D02*
X131895000Y-75115000D01*
X131345000Y-75965000D02*
X131895000Y-75415000D01*
X127783600Y-64659800D02*
X128278400Y-64165000D01*
X127033600Y-64659800D02*
X127783600Y-64659800D01*
X128278400Y-64165000D02*
X128645000Y-64165000D01*
X128645000Y-64165000D02*
X128645000Y-64165000D01*
X136445000Y-75565000D02*
X136869991Y-75565000D01*
X133645000Y-73665000D02*
X134545000Y-73665000D01*
X122868000Y-76928000D02*
X122169500Y-77626500D01*
X125370000Y-75925546D02*
X124076914Y-74632460D01*
X125370000Y-77765000D02*
X124213000Y-77765000D01*
X136491000Y-75565000D02*
X136869991Y-75565000D01*
X123045000Y-64115000D02*
X123045000Y-70265000D01*
X122069099Y-71240901D02*
X122069099Y-72331433D01*
X123045000Y-70265000D02*
X122069099Y-71240901D01*
X122069099Y-72331433D02*
X122868000Y-73130334D01*
X122868000Y-73130334D02*
X122868000Y-76928000D01*
X123045000Y-79515000D02*
X123045000Y-78502000D01*
X123045000Y-78502000D02*
X122169500Y-77626500D01*
X121095000Y-79365000D02*
X122895000Y-79365000D01*
X122895000Y-79365000D02*
X123045000Y-79515000D01*
X125189223Y-72938357D02*
X125189223Y-73520151D01*
X125189223Y-73520151D02*
X124076914Y-74632460D01*
X125370000Y-77765000D02*
X125370000Y-75925546D01*
D18*
X125370000Y-73119134D02*
X125189223Y-72938357D01*
D17*
X190045000Y-69265000D02*
X190345000Y-69565000D01*
D18*
X161370000Y-73119134D02*
X161189223Y-72938357D01*
D17*
X170545000Y-73665000D02*
X172445000Y-75565000D01*
X156963000Y-71615000D02*
X156963000Y-71720322D01*
X166995000Y-71532158D02*
X166995000Y-71815000D01*
X166995000Y-70571200D02*
X166995000Y-71532158D01*
X166233600Y-69809800D02*
X166995000Y-70571200D01*
X166233600Y-69559800D02*
X166233600Y-69809800D01*
X156963000Y-71615000D02*
X156963000Y-71897998D01*
X164670600Y-74339400D02*
X162920600Y-74339400D01*
X162920600Y-74339400D02*
X162395000Y-74865000D01*
X162395000Y-74865000D02*
X162395000Y-75815000D01*
X162395000Y-75815000D02*
X162395000Y-75815000D01*
X156963000Y-71615000D02*
X156963000Y-71883000D01*
X156963000Y-71883000D02*
X158395000Y-73315000D01*
X158395000Y-73315000D02*
X158395000Y-75115000D01*
X158395000Y-75115000D02*
X158395000Y-75115000D01*
X172045000Y-69265000D02*
X172345000Y-69565000D01*
X167945000Y-69265000D02*
X172045000Y-69265000D01*
X185420001Y-74889999D02*
X185420001Y-71239999D01*
X185420001Y-75289999D02*
X184895000Y-75815000D01*
X184895000Y-75815000D02*
X184895000Y-75815000D01*
X180295000Y-71532158D02*
X180295000Y-71815000D01*
X185420001Y-74889999D02*
X185420001Y-75289999D01*
X187045000Y-67465000D02*
X185420001Y-69089999D01*
X185689800Y-64659800D02*
X187045000Y-66015000D01*
X186094999Y-70565001D02*
X189545001Y-70565001D01*
X181033600Y-69809800D02*
X180295000Y-70548400D01*
X185420001Y-71239999D02*
X186094999Y-70565001D01*
X180295000Y-70548400D02*
X180295000Y-71532158D01*
X181033600Y-69559800D02*
X181033600Y-69809800D01*
X185420001Y-69089999D02*
X185420001Y-71239999D01*
X189545001Y-70565001D02*
X190345000Y-71365000D01*
X187045000Y-66015000D02*
X187045000Y-67465000D01*
X184233600Y-64659800D02*
X185689800Y-64659800D01*
X186545000Y-73165000D02*
X185895000Y-73815000D01*
X190345000Y-73165000D02*
X186545000Y-73165000D01*
X185895000Y-75115000D02*
X185895000Y-73815000D01*
X185895000Y-73815000D02*
X185895000Y-73815000D01*
X182645000Y-79765000D02*
X184095000Y-79765000D01*
X184095000Y-79765000D02*
X185345000Y-78515000D01*
X185345000Y-78515000D02*
X185345000Y-75965000D01*
X185895000Y-75415000D02*
X185895000Y-75115000D01*
X185345000Y-75965000D02*
X185895000Y-75415000D01*
X181783600Y-64659800D02*
X182278400Y-64165000D01*
X181033600Y-64659800D02*
X181783600Y-64659800D01*
X182278400Y-64165000D02*
X182645000Y-64165000D01*
X182645000Y-64165000D02*
X182645000Y-64165000D01*
X190445000Y-75565000D02*
X190869991Y-75565000D01*
X187645000Y-73665000D02*
X188545000Y-73665000D01*
X176868000Y-76928000D02*
X176169500Y-77626500D01*
X179370000Y-75925546D02*
X178076914Y-74632460D01*
X179370000Y-77765000D02*
X178213000Y-77765000D01*
X190491000Y-75565000D02*
X190869991Y-75565000D01*
X177045000Y-64115000D02*
X177045000Y-70265000D01*
X176069099Y-71240901D02*
X176069099Y-72331433D01*
X177045000Y-70265000D02*
X176069099Y-71240901D01*
X176069099Y-72331433D02*
X176868000Y-73130334D01*
X176868000Y-73130334D02*
X176868000Y-76928000D01*
X177045000Y-79515000D02*
X177045000Y-78502000D01*
X177045000Y-78502000D02*
X176169500Y-77626500D01*
X175095000Y-79365000D02*
X176895000Y-79365000D01*
X176895000Y-79365000D02*
X177045000Y-79515000D01*
X179189223Y-72938357D02*
X179189223Y-73520151D01*
X179189223Y-73520151D02*
X178076914Y-74632460D01*
X179370000Y-77765000D02*
X179370000Y-75925546D01*
D18*
X179370000Y-73119134D02*
X179189223Y-72938357D01*
D17*
X174963000Y-71615000D02*
X174963000Y-71720322D01*
X188545000Y-73665000D02*
X190445000Y-75565000D01*
X184233600Y-69809800D02*
X184995000Y-70571200D01*
X184233600Y-69559800D02*
X184233600Y-69809800D01*
X184995000Y-71532158D02*
X184995000Y-71815000D01*
X184995000Y-70571200D02*
X184995000Y-71532158D01*
X176395000Y-73315000D02*
X176395000Y-75115000D01*
X180395000Y-74865000D02*
X180395000Y-75815000D01*
X174963000Y-71615000D02*
X174963000Y-71897998D01*
X182670600Y-74339400D02*
X180920600Y-74339400D01*
X180920600Y-74339400D02*
X180395000Y-74865000D01*
X174963000Y-71883000D02*
X176395000Y-73315000D01*
X174963000Y-71615000D02*
X174963000Y-71883000D01*
X176395000Y-75115000D02*
X176395000Y-75115000D01*
X180395000Y-75815000D02*
X180395000Y-75815000D01*
X185945000Y-69265000D02*
X190045000Y-69265000D01*
X138963000Y-71615000D02*
X138963000Y-71720322D01*
D18*
X143370000Y-73119134D02*
X143189223Y-72938357D01*
D17*
X113420001Y-74889999D02*
X113420001Y-71239999D01*
X113420001Y-75289999D02*
X112895000Y-75815000D01*
X112895000Y-75815000D02*
X112895000Y-75815000D01*
X108295000Y-71532158D02*
X108295000Y-71815000D01*
X113420001Y-74889999D02*
X113420001Y-75289999D01*
X115045000Y-67465000D02*
X113420001Y-69089999D01*
X113689800Y-64659800D02*
X115045000Y-66015000D01*
X114094999Y-70565001D02*
X117545001Y-70565001D01*
X109033600Y-69809800D02*
X108295000Y-70548400D01*
X113420001Y-71239999D02*
X114094999Y-70565001D01*
X108295000Y-70548400D02*
X108295000Y-71532158D01*
X109033600Y-69559800D02*
X109033600Y-69809800D01*
X113420001Y-69089999D02*
X113420001Y-71239999D01*
X117545001Y-70565001D02*
X118345000Y-71365000D01*
X115045000Y-66015000D02*
X115045000Y-67465000D01*
X112233600Y-64659800D02*
X113689800Y-64659800D01*
X114545000Y-73165000D02*
X113895000Y-73815000D01*
X118345000Y-73165000D02*
X114545000Y-73165000D01*
X113895000Y-75115000D02*
X113895000Y-73815000D01*
X113895000Y-73815000D02*
X113895000Y-73815000D01*
X110645000Y-79765000D02*
X112095000Y-79765000D01*
X112095000Y-79765000D02*
X113345000Y-78515000D01*
X113345000Y-78515000D02*
X113345000Y-75965000D01*
X113895000Y-75415000D02*
X113895000Y-75115000D01*
X113345000Y-75965000D02*
X113895000Y-75415000D01*
X109783600Y-64659800D02*
X110278400Y-64165000D01*
X109033600Y-64659800D02*
X109783600Y-64659800D01*
X110278400Y-64165000D02*
X110645000Y-64165000D01*
X110645000Y-64165000D02*
X110645000Y-64165000D01*
X118445000Y-75565000D02*
X118869991Y-75565000D01*
X115645000Y-73665000D02*
X116545000Y-73665000D01*
X104868000Y-76928000D02*
X104169500Y-77626500D01*
X107370000Y-75925546D02*
X106076914Y-74632460D01*
X107370000Y-77765000D02*
X106213000Y-77765000D01*
X118491000Y-75565000D02*
X118869991Y-75565000D01*
X105045000Y-64115000D02*
X105045000Y-70265000D01*
X104069099Y-71240901D02*
X104069099Y-72331433D01*
X105045000Y-70265000D02*
X104069099Y-71240901D01*
X104069099Y-72331433D02*
X104868000Y-73130334D01*
X104868000Y-73130334D02*
X104868000Y-76928000D01*
X105045000Y-79515000D02*
X105045000Y-78502000D01*
X105045000Y-78502000D02*
X104169500Y-77626500D01*
X103095000Y-79365000D02*
X104895000Y-79365000D01*
X104895000Y-79365000D02*
X105045000Y-79515000D01*
X107189223Y-72938357D02*
X107189223Y-73520151D01*
X107189223Y-73520151D02*
X106076914Y-74632460D01*
X107370000Y-77765000D02*
X107370000Y-75925546D01*
D18*
X107370000Y-73119134D02*
X107189223Y-72938357D01*
D17*
X140069099Y-72331433D02*
X140868000Y-73130334D01*
X143189223Y-73520151D02*
X142076914Y-74632460D01*
X141045000Y-70265000D02*
X140069099Y-71240901D01*
X141045000Y-79515000D02*
X141045000Y-78502000D01*
X141045000Y-78502000D02*
X140169500Y-77626500D01*
X140868000Y-73130334D02*
X140868000Y-76928000D01*
X140069099Y-71240901D02*
X140069099Y-72331433D01*
X141045000Y-64115000D02*
X141045000Y-70265000D01*
X143189223Y-72938357D02*
X143189223Y-73520151D01*
X143370000Y-77765000D02*
X143370000Y-75925546D01*
X139095000Y-79365000D02*
X140895000Y-79365000D01*
X154491000Y-75565000D02*
X154869991Y-75565000D01*
X140895000Y-79365000D02*
X141045000Y-79515000D01*
X102963000Y-71615000D02*
X102963000Y-71720322D01*
X116545000Y-73665000D02*
X118445000Y-75565000D01*
X112233600Y-69809800D02*
X112995000Y-70571200D01*
X112233600Y-69559800D02*
X112233600Y-69809800D01*
X112995000Y-71532158D02*
X112995000Y-71815000D01*
X112995000Y-70571200D02*
X112995000Y-71532158D01*
X104395000Y-73315000D02*
X104395000Y-75115000D01*
X108395000Y-74865000D02*
X108395000Y-75815000D01*
X102963000Y-71615000D02*
X102963000Y-71897998D01*
X110670600Y-74339400D02*
X108920600Y-74339400D01*
X108920600Y-74339400D02*
X108395000Y-74865000D01*
X102963000Y-71883000D02*
X104395000Y-73315000D01*
X102963000Y-71615000D02*
X102963000Y-71883000D01*
X104395000Y-75115000D02*
X104395000Y-75115000D01*
X108395000Y-75815000D02*
X108395000Y-75815000D01*
X157095000Y-79365000D02*
X158895000Y-79365000D01*
X158868000Y-73130334D02*
X158868000Y-76928000D01*
X161189223Y-72938357D02*
X161189223Y-73520151D01*
X161189223Y-73520151D02*
X160076914Y-74632460D01*
X159045000Y-79515000D02*
X159045000Y-78502000D01*
X158069099Y-72331433D02*
X158868000Y-73130334D01*
X158069099Y-71240901D02*
X158069099Y-72331433D01*
X172491000Y-75565000D02*
X172869991Y-75565000D01*
X159045000Y-78502000D02*
X158169500Y-77626500D01*
X158895000Y-79365000D02*
X159045000Y-79515000D01*
X159045000Y-64115000D02*
X159045000Y-70265000D01*
X159045000Y-70265000D02*
X158069099Y-71240901D01*
X143370000Y-77765000D02*
X142213000Y-77765000D01*
X113945000Y-69265000D02*
X118045000Y-69265000D01*
X118045000Y-69265000D02*
X118345000Y-69565000D01*
X161370000Y-77765000D02*
X160213000Y-77765000D01*
X140868000Y-76928000D02*
X140169500Y-77626500D01*
X151645000Y-73665000D02*
X152545000Y-73665000D01*
X172345000Y-73165000D02*
X168545000Y-73165000D01*
X167420001Y-69089999D02*
X167420001Y-71239999D01*
X167420001Y-74889999D02*
X167420001Y-71239999D01*
X167895000Y-73815000D02*
X167895000Y-73815000D01*
X162295000Y-70548400D02*
X162295000Y-71532158D01*
X167895000Y-75115000D02*
X167895000Y-73815000D01*
X163033600Y-69559800D02*
X163033600Y-69809800D01*
X163033600Y-69809800D02*
X162295000Y-70548400D01*
X166233600Y-64659800D02*
X167689800Y-64659800D01*
X166895000Y-75815000D02*
X166895000Y-75815000D01*
X171545001Y-70565001D02*
X172345000Y-71365000D01*
X167420001Y-75289999D02*
X166895000Y-75815000D01*
X167420001Y-71239999D02*
X168094999Y-70565001D01*
X162295000Y-71532158D02*
X162295000Y-71815000D01*
X168094999Y-70565001D02*
X171545001Y-70565001D01*
X167420001Y-74889999D02*
X167420001Y-75289999D01*
X167689800Y-64659800D02*
X169045000Y-66015000D01*
X169045000Y-67465000D02*
X167420001Y-69089999D01*
X168545000Y-73165000D02*
X167895000Y-73815000D01*
X169045000Y-66015000D02*
X169045000Y-67465000D01*
X164645000Y-79765000D02*
X166095000Y-79765000D01*
X166095000Y-79765000D02*
X167345000Y-78515000D01*
X167345000Y-78515000D02*
X167345000Y-75965000D01*
X167895000Y-75415000D02*
X167895000Y-75115000D01*
X167345000Y-75965000D02*
X167895000Y-75415000D01*
X163783600Y-64659800D02*
X164278400Y-64165000D01*
X163033600Y-64659800D02*
X163783600Y-64659800D01*
X164278400Y-64165000D02*
X164645000Y-64165000D01*
X164645000Y-64165000D02*
X164645000Y-64165000D01*
X172445000Y-75565000D02*
X172869991Y-75565000D01*
X169645000Y-73665000D02*
X170545000Y-73665000D01*
X158868000Y-76928000D02*
X158169500Y-77626500D01*
X161370000Y-75925546D02*
X160076914Y-74632460D01*
X143370000Y-75925546D02*
X142076914Y-74632460D01*
X89370000Y-75925546D02*
X88076914Y-74632460D01*
X89370000Y-77765000D02*
X88213000Y-77765000D01*
X89189223Y-72938357D02*
X89189223Y-73520151D01*
X89189223Y-73520151D02*
X88076914Y-74632460D01*
X89370000Y-77765000D02*
X89370000Y-75925546D01*
D18*
X89370000Y-73119134D02*
X89189223Y-72938357D01*
D17*
X86868000Y-76928000D02*
X86169500Y-77626500D01*
X87045000Y-64115000D02*
X87045000Y-70265000D01*
X86069099Y-71240901D02*
X86069099Y-72331433D01*
X87045000Y-70265000D02*
X86069099Y-71240901D01*
X86069099Y-72331433D02*
X86868000Y-73130334D01*
X86868000Y-73130334D02*
X86868000Y-76928000D01*
X87045000Y-79515000D02*
X87045000Y-78502000D01*
X87045000Y-78502000D02*
X86169500Y-77626500D01*
X85095000Y-79365000D02*
X86895000Y-79365000D01*
X86895000Y-79365000D02*
X87045000Y-79515000D01*
X100445000Y-75565000D02*
X100869991Y-75565000D01*
X97645000Y-73665000D02*
X98545000Y-73665000D01*
X100491000Y-75565000D02*
X100869991Y-75565000D01*
X98545000Y-73665000D02*
X100445000Y-75565000D01*
X84963000Y-71615000D02*
X84963000Y-71720322D01*
X94995000Y-71532158D02*
X94995000Y-71815000D01*
X94995000Y-70571200D02*
X94995000Y-71532158D01*
X94233600Y-69809800D02*
X94995000Y-70571200D01*
X94233600Y-69559800D02*
X94233600Y-69809800D01*
X84963000Y-71615000D02*
X84963000Y-71897998D01*
X92670600Y-74339400D02*
X90920600Y-74339400D01*
X90920600Y-74339400D02*
X90395000Y-74865000D01*
X90395000Y-74865000D02*
X90395000Y-75815000D01*
X90395000Y-75815000D02*
X90395000Y-75815000D01*
X84963000Y-71615000D02*
X84963000Y-71883000D01*
X84963000Y-71883000D02*
X86395000Y-73315000D01*
X86395000Y-73315000D02*
X86395000Y-75115000D01*
X86395000Y-75115000D02*
X86395000Y-75115000D01*
X100045000Y-69265000D02*
X100345000Y-69565000D01*
X95945000Y-69265000D02*
X100045000Y-69265000D01*
X90295000Y-70548400D02*
X90295000Y-71532158D01*
X90295000Y-71532158D02*
X90295000Y-71815000D01*
X91033600Y-69809800D02*
X90295000Y-70548400D01*
X91033600Y-69559800D02*
X91033600Y-69809800D01*
X99545001Y-70565001D02*
X100345000Y-71365000D01*
X96094999Y-70565001D02*
X99545001Y-70565001D01*
X95420001Y-71239999D02*
X96094999Y-70565001D01*
X95420001Y-74889999D02*
X95420001Y-71239999D01*
X95420001Y-74889999D02*
X95420001Y-75289999D01*
X95420001Y-75289999D02*
X94895000Y-75815000D01*
X94895000Y-75815000D02*
X94895000Y-75815000D01*
X95420001Y-69089999D02*
X95420001Y-71239999D01*
X97045000Y-66015000D02*
X97045000Y-67465000D01*
X95689800Y-64659800D02*
X97045000Y-66015000D01*
X97045000Y-67465000D02*
X95420001Y-69089999D01*
X94233600Y-64659800D02*
X95689800Y-64659800D01*
X96545000Y-73165000D02*
X95895000Y-73815000D01*
X100345000Y-73165000D02*
X96545000Y-73165000D01*
X95895000Y-75115000D02*
X95895000Y-73815000D01*
X95895000Y-73815000D02*
X95895000Y-73815000D01*
X92645000Y-79765000D02*
X94095000Y-79765000D01*
X94095000Y-79765000D02*
X95345000Y-78515000D01*
X95345000Y-78515000D02*
X95345000Y-75965000D01*
X95895000Y-75415000D02*
X95895000Y-75115000D01*
X95345000Y-75965000D02*
X95895000Y-75415000D01*
X91783600Y-64659800D02*
X92278400Y-64165000D01*
X91033600Y-64659800D02*
X91783600Y-64659800D01*
X92278400Y-64165000D02*
X92645000Y-64165000D01*
X92645000Y-64165000D02*
X92645000Y-64165000D01*
X154445000Y-93565000D02*
X154869991Y-93565000D01*
X126395000Y-92865000D02*
X126395000Y-93815000D01*
X122395000Y-93115000D02*
X122395000Y-93115000D01*
X122395000Y-91315000D02*
X122395000Y-93115000D01*
X126920600Y-92339400D02*
X126395000Y-92865000D01*
X126395000Y-93815000D02*
X126395000Y-93815000D01*
X120963000Y-89883000D02*
X122395000Y-91315000D01*
X120963000Y-89615000D02*
X120963000Y-89883000D01*
X128670600Y-92339400D02*
X126920600Y-92339400D01*
X120963000Y-89615000D02*
X120963000Y-89897998D01*
X130233600Y-87559800D02*
X130233600Y-87809800D01*
X130233600Y-87809800D02*
X130995000Y-88571200D01*
X130995000Y-88571200D02*
X130995000Y-89532158D01*
X130995000Y-89532158D02*
X130995000Y-89815000D01*
X131945000Y-87265000D02*
X136045000Y-87265000D01*
X136045000Y-87265000D02*
X136345000Y-87565000D01*
X134545000Y-91665000D02*
X136445000Y-93565000D01*
X148895000Y-93815000D02*
X148895000Y-93815000D01*
X149420001Y-92889999D02*
X149420001Y-93289999D01*
X144295000Y-89532158D02*
X144295000Y-89815000D01*
X149420001Y-93289999D02*
X148895000Y-93815000D01*
X149420001Y-92889999D02*
X149420001Y-89239999D01*
X149895000Y-91815000D02*
X149895000Y-91815000D01*
X149895000Y-93115000D02*
X149895000Y-91815000D01*
X150545000Y-91165000D02*
X149895000Y-91815000D01*
X154345000Y-91165000D02*
X150545000Y-91165000D01*
X148233600Y-82659800D02*
X149689800Y-82659800D01*
X153545001Y-88565001D02*
X154345000Y-89365000D01*
X151045000Y-84015000D02*
X151045000Y-85465000D01*
X144295000Y-88548400D02*
X144295000Y-89532158D01*
X149420001Y-89239999D02*
X150094999Y-88565001D01*
X149420001Y-87089999D02*
X149420001Y-89239999D01*
X145033600Y-87559800D02*
X145033600Y-87809800D01*
X149689800Y-82659800D02*
X151045000Y-84015000D01*
X151045000Y-85465000D02*
X149420001Y-87089999D01*
X150094999Y-88565001D02*
X153545001Y-88565001D01*
X145033600Y-87809800D02*
X144295000Y-88548400D01*
X120963000Y-89615000D02*
X120963000Y-89720322D01*
X146645000Y-97765000D02*
X148095000Y-97765000D01*
X148095000Y-97765000D02*
X149345000Y-96515000D01*
X145033600Y-82659800D02*
X145783600Y-82659800D01*
X149345000Y-96515000D02*
X149345000Y-93965000D01*
X146278400Y-82165000D02*
X146645000Y-82165000D01*
X145783600Y-82659800D02*
X146278400Y-82165000D01*
X149895000Y-93415000D02*
X149895000Y-93115000D01*
X146645000Y-82165000D02*
X146645000Y-82165000D01*
X149345000Y-93965000D02*
X149895000Y-93415000D01*
X152545000Y-91665000D02*
X154445000Y-93565000D01*
X148233600Y-87809800D02*
X148995000Y-88571200D01*
X148233600Y-87559800D02*
X148233600Y-87809800D01*
X148995000Y-89532158D02*
X148995000Y-89815000D01*
X148995000Y-88571200D02*
X148995000Y-89532158D01*
X140395000Y-91315000D02*
X140395000Y-93115000D01*
X144395000Y-92865000D02*
X144395000Y-93815000D01*
X138963000Y-89615000D02*
X138963000Y-89897998D01*
X146670600Y-92339400D02*
X144920600Y-92339400D01*
X144920600Y-92339400D02*
X144395000Y-92865000D01*
X138963000Y-89883000D02*
X140395000Y-91315000D01*
X138963000Y-89615000D02*
X138963000Y-89883000D01*
X140395000Y-93115000D02*
X140395000Y-93115000D01*
X144395000Y-93815000D02*
X144395000Y-93815000D01*
X149945000Y-87265000D02*
X154045000Y-87265000D01*
X154045000Y-87265000D02*
X154345000Y-87565000D01*
X99545001Y-106565001D02*
X100345000Y-107365000D01*
X91033600Y-105559800D02*
X91033600Y-105809800D01*
X91033600Y-105809800D02*
X90295000Y-106548400D01*
X90295000Y-107532158D02*
X90295000Y-107815000D01*
X94895000Y-111815000D02*
X94895000Y-111815000D01*
X90295000Y-106548400D02*
X90295000Y-107532158D01*
X95420001Y-111289999D02*
X94895000Y-111815000D01*
X95420001Y-110889999D02*
X95420001Y-111289999D01*
X95420001Y-110889999D02*
X95420001Y-107239999D01*
X95420001Y-107239999D02*
X96094999Y-106565001D01*
X96094999Y-106565001D02*
X99545001Y-106565001D01*
X95420001Y-105089999D02*
X95420001Y-107239999D01*
X97045000Y-102015000D02*
X97045000Y-103465000D01*
X95689800Y-100659800D02*
X97045000Y-102015000D01*
X97045000Y-103465000D02*
X95420001Y-105089999D01*
X94233600Y-100659800D02*
X95689800Y-100659800D01*
X96545000Y-109165000D02*
X95895000Y-109815000D01*
X100345000Y-109165000D02*
X96545000Y-109165000D01*
X95895000Y-111115000D02*
X95895000Y-109815000D01*
X95895000Y-109815000D02*
X95895000Y-109815000D01*
X92645000Y-115765000D02*
X94095000Y-115765000D01*
X94095000Y-115765000D02*
X95345000Y-114515000D01*
X95345000Y-114515000D02*
X95345000Y-111965000D01*
X95895000Y-111415000D02*
X95895000Y-111115000D01*
X95345000Y-111965000D02*
X95895000Y-111415000D01*
X91783600Y-100659800D02*
X92278400Y-100165000D01*
X91033600Y-100659800D02*
X91783600Y-100659800D01*
X92278400Y-100165000D02*
X92645000Y-100165000D01*
X92645000Y-100165000D02*
X92645000Y-100165000D01*
X154445000Y-111565000D02*
X154869991Y-111565000D01*
X100445000Y-111565000D02*
X100869991Y-111565000D01*
X97645000Y-109665000D02*
X98545000Y-109665000D01*
X172045000Y-105265000D02*
X172345000Y-105565000D01*
X167945000Y-105265000D02*
X172045000Y-105265000D01*
X185420001Y-110889999D02*
X185420001Y-107239999D01*
X185420001Y-111289999D02*
X184895000Y-111815000D01*
X184895000Y-111815000D02*
X184895000Y-111815000D01*
X180295000Y-107532158D02*
X180295000Y-107815000D01*
X185420001Y-110889999D02*
X185420001Y-111289999D01*
X187045000Y-103465000D02*
X185420001Y-105089999D01*
X185689800Y-100659800D02*
X187045000Y-102015000D01*
X186094999Y-106565001D02*
X189545001Y-106565001D01*
X181033600Y-105809800D02*
X180295000Y-106548400D01*
X185420001Y-107239999D02*
X186094999Y-106565001D01*
X180295000Y-106548400D02*
X180295000Y-107532158D01*
X181033600Y-105559800D02*
X181033600Y-105809800D01*
X185420001Y-105089999D02*
X185420001Y-107239999D01*
X189545001Y-106565001D02*
X190345000Y-107365000D01*
X187045000Y-102015000D02*
X187045000Y-103465000D01*
X184233600Y-100659800D02*
X185689800Y-100659800D01*
X186545000Y-109165000D02*
X185895000Y-109815000D01*
X190345000Y-109165000D02*
X186545000Y-109165000D01*
X185895000Y-111115000D02*
X185895000Y-109815000D01*
X185895000Y-109815000D02*
X185895000Y-109815000D01*
X182645000Y-115765000D02*
X184095000Y-115765000D01*
X184095000Y-115765000D02*
X185345000Y-114515000D01*
X185345000Y-114515000D02*
X185345000Y-111965000D01*
X185895000Y-111415000D02*
X185895000Y-111115000D01*
X185345000Y-111965000D02*
X185895000Y-111415000D01*
X181783600Y-100659800D02*
X182278400Y-100165000D01*
X181033600Y-100659800D02*
X181783600Y-100659800D01*
X182278400Y-100165000D02*
X182645000Y-100165000D01*
X182645000Y-100165000D02*
X182645000Y-100165000D01*
X190445000Y-111565000D02*
X190869991Y-111565000D01*
X187645000Y-109665000D02*
X188545000Y-109665000D01*
X176868000Y-112928000D02*
X176169500Y-113626500D01*
X179370000Y-111925546D02*
X178076914Y-110632460D01*
X179370000Y-113765000D02*
X178213000Y-113765000D01*
X190491000Y-111565000D02*
X190869991Y-111565000D01*
X177045000Y-100115000D02*
X177045000Y-106265000D01*
X176069099Y-107240901D02*
X176069099Y-108331433D01*
X177045000Y-106265000D02*
X176069099Y-107240901D01*
X176069099Y-108331433D02*
X176868000Y-109130334D01*
X176868000Y-109130334D02*
X176868000Y-112928000D01*
X177045000Y-115515000D02*
X177045000Y-114502000D01*
X177045000Y-114502000D02*
X176169500Y-113626500D01*
X131895000Y-93115000D02*
X131895000Y-91815000D01*
X133045000Y-85465000D02*
X131420001Y-87089999D01*
X133045000Y-84015000D02*
X133045000Y-85465000D01*
X131420001Y-87089999D02*
X131420001Y-89239999D01*
X161370000Y-95765000D02*
X161370000Y-93925546D01*
X131689800Y-82659800D02*
X133045000Y-84015000D01*
X130233600Y-82659800D02*
X131689800Y-82659800D01*
X131895000Y-91815000D02*
X131895000Y-91815000D01*
X136345000Y-91165000D02*
X132545000Y-91165000D01*
X132545000Y-91165000D02*
X131895000Y-91815000D01*
X130895000Y-93815000D02*
X130895000Y-93815000D01*
X131420001Y-93289999D02*
X130895000Y-93815000D01*
X131420001Y-92889999D02*
X131420001Y-93289999D01*
X131420001Y-92889999D02*
X131420001Y-89239999D01*
X131420001Y-89239999D02*
X132094999Y-88565001D01*
X132094999Y-88565001D02*
X135545001Y-88565001D01*
X127033600Y-87559800D02*
X127033600Y-87809800D01*
X127033600Y-87809800D02*
X126295000Y-88548400D01*
X135545001Y-88565001D02*
X136345000Y-89365000D01*
X126295000Y-88548400D02*
X126295000Y-89532158D01*
X126295000Y-89532158D02*
X126295000Y-89815000D01*
X128645000Y-97765000D02*
X130095000Y-97765000D01*
X130095000Y-97765000D02*
X131345000Y-96515000D01*
X131345000Y-96515000D02*
X131345000Y-93965000D01*
X131895000Y-93415000D02*
X131895000Y-93115000D01*
X131345000Y-93965000D02*
X131895000Y-93415000D01*
X127783600Y-82659800D02*
X128278400Y-82165000D01*
X127033600Y-82659800D02*
X127783600Y-82659800D01*
X128278400Y-82165000D02*
X128645000Y-82165000D01*
X128645000Y-82165000D02*
X128645000Y-82165000D01*
X136445000Y-93565000D02*
X136869991Y-93565000D01*
X133645000Y-91665000D02*
X134545000Y-91665000D01*
X122868000Y-94928000D02*
X122169500Y-95626500D01*
X125370000Y-93925546D02*
X124076914Y-92632460D01*
X125370000Y-95765000D02*
X124213000Y-95765000D01*
X136491000Y-93565000D02*
X136869991Y-93565000D01*
X123045000Y-82115000D02*
X123045000Y-88265000D01*
X122069099Y-89240901D02*
X122069099Y-90331433D01*
X123045000Y-88265000D02*
X122069099Y-89240901D01*
X122069099Y-90331433D02*
X122868000Y-91130334D01*
X122868000Y-91130334D02*
X122868000Y-94928000D01*
X123045000Y-97515000D02*
X123045000Y-96502000D01*
X123045000Y-96502000D02*
X122169500Y-95626500D01*
X121095000Y-97365000D02*
X122895000Y-97365000D01*
X122895000Y-97365000D02*
X123045000Y-97515000D01*
X125189223Y-90938357D02*
X125189223Y-91520151D01*
X125189223Y-91520151D02*
X124076914Y-92632460D01*
X125370000Y-95765000D02*
X125370000Y-93925546D01*
D18*
X125370000Y-91119134D02*
X125189223Y-90938357D01*
D17*
X190045000Y-87265000D02*
X190345000Y-87565000D01*
X86868000Y-112928000D02*
X86169500Y-113626500D01*
X89370000Y-111925546D02*
X88076914Y-110632460D01*
X89370000Y-113765000D02*
X88213000Y-113765000D01*
X100491000Y-111565000D02*
X100869991Y-111565000D01*
X87045000Y-100115000D02*
X87045000Y-106265000D01*
X86069099Y-107240901D02*
X86069099Y-108331433D01*
X87045000Y-106265000D02*
X86069099Y-107240901D01*
X86069099Y-108331433D02*
X86868000Y-109130334D01*
X86868000Y-109130334D02*
X86868000Y-112928000D01*
X87045000Y-115515000D02*
X87045000Y-114502000D01*
X87045000Y-114502000D02*
X86169500Y-113626500D01*
X85095000Y-115365000D02*
X86895000Y-115365000D01*
X86895000Y-115365000D02*
X87045000Y-115515000D01*
X89189223Y-108938357D02*
X89189223Y-109520151D01*
X89189223Y-109520151D02*
X88076914Y-110632460D01*
X89370000Y-113765000D02*
X89370000Y-111925546D01*
D18*
X89370000Y-109119134D02*
X89189223Y-108938357D01*
D17*
X98545000Y-109665000D02*
X100445000Y-111565000D01*
X84963000Y-107615000D02*
X84963000Y-107720322D01*
X94995000Y-107532158D02*
X94995000Y-107815000D01*
X94995000Y-106571200D02*
X94995000Y-107532158D01*
X94233600Y-105809800D02*
X94995000Y-106571200D01*
X94233600Y-105559800D02*
X94233600Y-105809800D01*
X84963000Y-107615000D02*
X84963000Y-107897998D01*
X92670600Y-110339400D02*
X90920600Y-110339400D01*
X90920600Y-110339400D02*
X90395000Y-110865000D01*
X90395000Y-110865000D02*
X90395000Y-111815000D01*
X90395000Y-111815000D02*
X90395000Y-111815000D01*
X84963000Y-107615000D02*
X84963000Y-107883000D01*
X84963000Y-107883000D02*
X86395000Y-109315000D01*
X86395000Y-109315000D02*
X86395000Y-111115000D01*
X86395000Y-111115000D02*
X86395000Y-111115000D01*
X100045000Y-105265000D02*
X100345000Y-105565000D01*
X95945000Y-105265000D02*
X100045000Y-105265000D01*
X126395000Y-110865000D02*
X126395000Y-111815000D01*
X122395000Y-111115000D02*
X122395000Y-111115000D01*
X122395000Y-109315000D02*
X122395000Y-111115000D01*
X126920600Y-110339400D02*
X126395000Y-110865000D01*
X126395000Y-111815000D02*
X126395000Y-111815000D01*
X120963000Y-107883000D02*
X122395000Y-109315000D01*
X120963000Y-107615000D02*
X120963000Y-107883000D01*
X128670600Y-110339400D02*
X126920600Y-110339400D01*
D18*
X161370000Y-91119134D02*
X161189223Y-90938357D01*
D17*
X170545000Y-91665000D02*
X172445000Y-93565000D01*
X156963000Y-89615000D02*
X156963000Y-89720322D01*
X166995000Y-89532158D02*
X166995000Y-89815000D01*
X166995000Y-88571200D02*
X166995000Y-89532158D01*
X166233600Y-87809800D02*
X166995000Y-88571200D01*
X166233600Y-87559800D02*
X166233600Y-87809800D01*
X156963000Y-89615000D02*
X156963000Y-89897998D01*
X164670600Y-92339400D02*
X162920600Y-92339400D01*
X162920600Y-92339400D02*
X162395000Y-92865000D01*
X162395000Y-92865000D02*
X162395000Y-93815000D01*
X162395000Y-93815000D02*
X162395000Y-93815000D01*
X156963000Y-89615000D02*
X156963000Y-89883000D01*
X156963000Y-89883000D02*
X158395000Y-91315000D01*
X158395000Y-91315000D02*
X158395000Y-93115000D01*
X158395000Y-93115000D02*
X158395000Y-93115000D01*
X172045000Y-87265000D02*
X172345000Y-87565000D01*
X167945000Y-87265000D02*
X172045000Y-87265000D01*
X185420001Y-92889999D02*
X185420001Y-89239999D01*
X185420001Y-93289999D02*
X184895000Y-93815000D01*
X184895000Y-93815000D02*
X184895000Y-93815000D01*
X180295000Y-89532158D02*
X180295000Y-89815000D01*
X185420001Y-92889999D02*
X185420001Y-93289999D01*
X187045000Y-85465000D02*
X185420001Y-87089999D01*
X185689800Y-82659800D02*
X187045000Y-84015000D01*
X186094999Y-88565001D02*
X189545001Y-88565001D01*
X181033600Y-87809800D02*
X180295000Y-88548400D01*
X185420001Y-89239999D02*
X186094999Y-88565001D01*
X180295000Y-88548400D02*
X180295000Y-89532158D01*
X181033600Y-87559800D02*
X181033600Y-87809800D01*
X185420001Y-87089999D02*
X185420001Y-89239999D01*
X189545001Y-88565001D02*
X190345000Y-89365000D01*
X187045000Y-84015000D02*
X187045000Y-85465000D01*
X184233600Y-82659800D02*
X185689800Y-82659800D01*
X186545000Y-91165000D02*
X185895000Y-91815000D01*
X190345000Y-91165000D02*
X186545000Y-91165000D01*
X185895000Y-93115000D02*
X185895000Y-91815000D01*
X185895000Y-91815000D02*
X185895000Y-91815000D01*
X182645000Y-97765000D02*
X184095000Y-97765000D01*
X184095000Y-97765000D02*
X185345000Y-96515000D01*
X185345000Y-96515000D02*
X185345000Y-93965000D01*
X185895000Y-93415000D02*
X185895000Y-93115000D01*
X185345000Y-93965000D02*
X185895000Y-93415000D01*
X181783600Y-82659800D02*
X182278400Y-82165000D01*
X181033600Y-82659800D02*
X181783600Y-82659800D01*
X182278400Y-82165000D02*
X182645000Y-82165000D01*
X182645000Y-82165000D02*
X182645000Y-82165000D01*
X190445000Y-93565000D02*
X190869991Y-93565000D01*
X187645000Y-91665000D02*
X188545000Y-91665000D01*
X176868000Y-94928000D02*
X176169500Y-95626500D01*
X179370000Y-93925546D02*
X178076914Y-92632460D01*
X179370000Y-95765000D02*
X178213000Y-95765000D01*
X190491000Y-93565000D02*
X190869991Y-93565000D01*
X177045000Y-82115000D02*
X177045000Y-88265000D01*
X176069099Y-89240901D02*
X176069099Y-90331433D01*
X177045000Y-88265000D02*
X176069099Y-89240901D01*
X176069099Y-90331433D02*
X176868000Y-91130334D01*
X176868000Y-91130334D02*
X176868000Y-94928000D01*
X177045000Y-97515000D02*
X177045000Y-96502000D01*
X177045000Y-96502000D02*
X176169500Y-95626500D01*
X175095000Y-97365000D02*
X176895000Y-97365000D01*
X176895000Y-97365000D02*
X177045000Y-97515000D01*
X179189223Y-90938357D02*
X179189223Y-91520151D01*
X179189223Y-91520151D02*
X178076914Y-92632460D01*
X179370000Y-95765000D02*
X179370000Y-93925546D01*
D18*
X179370000Y-91119134D02*
X179189223Y-90938357D01*
D17*
X174963000Y-89615000D02*
X174963000Y-89720322D01*
X188545000Y-91665000D02*
X190445000Y-93565000D01*
X184233600Y-87809800D02*
X184995000Y-88571200D01*
X184233600Y-87559800D02*
X184233600Y-87809800D01*
X184995000Y-89532158D02*
X184995000Y-89815000D01*
X184995000Y-88571200D02*
X184995000Y-89532158D01*
X176395000Y-91315000D02*
X176395000Y-93115000D01*
X180395000Y-92865000D02*
X180395000Y-93815000D01*
X174963000Y-89615000D02*
X174963000Y-89897998D01*
X182670600Y-92339400D02*
X180920600Y-92339400D01*
X180920600Y-92339400D02*
X180395000Y-92865000D01*
X174963000Y-89883000D02*
X176395000Y-91315000D01*
X174963000Y-89615000D02*
X174963000Y-89883000D01*
X176395000Y-93115000D02*
X176395000Y-93115000D01*
X180395000Y-93815000D02*
X180395000Y-93815000D01*
X185945000Y-87265000D02*
X190045000Y-87265000D01*
X121095000Y-115365000D02*
X122895000Y-115365000D01*
X122895000Y-115365000D02*
X123045000Y-115515000D01*
X125189223Y-108938357D02*
X125189223Y-109520151D01*
X125189223Y-109520151D02*
X124076914Y-110632460D01*
X125370000Y-113765000D02*
X125370000Y-111925546D01*
D18*
X125370000Y-109119134D02*
X125189223Y-108938357D01*
D17*
X190045000Y-105265000D02*
X190345000Y-105565000D01*
D18*
X161370000Y-109119134D02*
X161189223Y-108938357D01*
D17*
X170545000Y-109665000D02*
X172445000Y-111565000D01*
X156963000Y-107615000D02*
X156963000Y-107720322D01*
X166995000Y-107532158D02*
X166995000Y-107815000D01*
X166995000Y-106571200D02*
X166995000Y-107532158D01*
X166233600Y-105809800D02*
X166995000Y-106571200D01*
X166233600Y-105559800D02*
X166233600Y-105809800D01*
X156963000Y-107615000D02*
X156963000Y-107897998D01*
X164670600Y-110339400D02*
X162920600Y-110339400D01*
X162920600Y-110339400D02*
X162395000Y-110865000D01*
X162395000Y-110865000D02*
X162395000Y-111815000D01*
X162395000Y-111815000D02*
X162395000Y-111815000D01*
X156963000Y-107615000D02*
X156963000Y-107883000D01*
X156963000Y-107883000D02*
X158395000Y-109315000D01*
X158395000Y-109315000D02*
X158395000Y-111115000D01*
X158395000Y-111115000D02*
X158395000Y-111115000D01*
X175095000Y-115365000D02*
X176895000Y-115365000D01*
X176895000Y-115365000D02*
X177045000Y-115515000D01*
X179189223Y-108938357D02*
X179189223Y-109520151D01*
X179189223Y-109520151D02*
X178076914Y-110632460D01*
X179370000Y-113765000D02*
X179370000Y-111925546D01*
D18*
X179370000Y-109119134D02*
X179189223Y-108938357D01*
D17*
X174963000Y-107615000D02*
X174963000Y-107720322D01*
X188545000Y-109665000D02*
X190445000Y-111565000D01*
X184233600Y-105809800D02*
X184995000Y-106571200D01*
X184233600Y-105559800D02*
X184233600Y-105809800D01*
X184995000Y-107532158D02*
X184995000Y-107815000D01*
X184995000Y-106571200D02*
X184995000Y-107532158D01*
X176395000Y-109315000D02*
X176395000Y-111115000D01*
X180395000Y-110865000D02*
X180395000Y-111815000D01*
X174963000Y-107615000D02*
X174963000Y-107897998D01*
X182670600Y-110339400D02*
X180920600Y-110339400D01*
X180920600Y-110339400D02*
X180395000Y-110865000D01*
X174963000Y-107883000D02*
X176395000Y-109315000D01*
X174963000Y-107615000D02*
X174963000Y-107883000D01*
X176395000Y-111115000D02*
X176395000Y-111115000D01*
X180395000Y-111815000D02*
X180395000Y-111815000D01*
X185945000Y-105265000D02*
X190045000Y-105265000D01*
X138963000Y-107615000D02*
X138963000Y-107720322D01*
D18*
X143370000Y-109119134D02*
X143189223Y-108938357D01*
D17*
X113420001Y-110889999D02*
X113420001Y-107239999D01*
X113420001Y-111289999D02*
X112895000Y-111815000D01*
X112895000Y-111815000D02*
X112895000Y-111815000D01*
X108295000Y-107532158D02*
X108295000Y-107815000D01*
X113420001Y-110889999D02*
X113420001Y-111289999D01*
X115045000Y-103465000D02*
X113420001Y-105089999D01*
X113689800Y-100659800D02*
X115045000Y-102015000D01*
X114094999Y-106565001D02*
X117545001Y-106565001D01*
X109033600Y-105809800D02*
X108295000Y-106548400D01*
X113420001Y-107239999D02*
X114094999Y-106565001D01*
X108295000Y-106548400D02*
X108295000Y-107532158D01*
X109033600Y-105559800D02*
X109033600Y-105809800D01*
X113420001Y-105089999D02*
X113420001Y-107239999D01*
X117545001Y-106565001D02*
X118345000Y-107365000D01*
X115045000Y-102015000D02*
X115045000Y-103465000D01*
X112233600Y-100659800D02*
X113689800Y-100659800D01*
X114545000Y-109165000D02*
X113895000Y-109815000D01*
X120963000Y-107615000D02*
X120963000Y-107897998D01*
X130233600Y-105559800D02*
X130233600Y-105809800D01*
X130233600Y-105809800D02*
X130995000Y-106571200D01*
X130995000Y-106571200D02*
X130995000Y-107532158D01*
X130995000Y-107532158D02*
X130995000Y-107815000D01*
X131945000Y-105265000D02*
X136045000Y-105265000D01*
X136045000Y-105265000D02*
X136345000Y-105565000D01*
X134545000Y-109665000D02*
X136445000Y-111565000D01*
X148895000Y-111815000D02*
X148895000Y-111815000D01*
X149420001Y-110889999D02*
X149420001Y-111289999D01*
X144295000Y-107532158D02*
X144295000Y-107815000D01*
X149420001Y-111289999D02*
X148895000Y-111815000D01*
X149420001Y-110889999D02*
X149420001Y-107239999D01*
X149895000Y-109815000D02*
X149895000Y-109815000D01*
X149895000Y-111115000D02*
X149895000Y-109815000D01*
X150545000Y-109165000D02*
X149895000Y-109815000D01*
X154345000Y-109165000D02*
X150545000Y-109165000D01*
X148233600Y-100659800D02*
X149689800Y-100659800D01*
X153545001Y-106565001D02*
X154345000Y-107365000D01*
X151045000Y-102015000D02*
X151045000Y-103465000D01*
X144295000Y-106548400D02*
X144295000Y-107532158D01*
X149420001Y-107239999D02*
X150094999Y-106565001D01*
X149420001Y-105089999D02*
X149420001Y-107239999D01*
X145033600Y-105559800D02*
X145033600Y-105809800D01*
X149689800Y-100659800D02*
X151045000Y-102015000D01*
X151045000Y-103465000D02*
X149420001Y-105089999D01*
X150094999Y-106565001D02*
X153545001Y-106565001D01*
X145033600Y-105809800D02*
X144295000Y-106548400D01*
X120963000Y-107615000D02*
X120963000Y-107720322D01*
X146645000Y-115765000D02*
X148095000Y-115765000D01*
X148095000Y-115765000D02*
X149345000Y-114515000D01*
X145033600Y-100659800D02*
X145783600Y-100659800D01*
X149345000Y-114515000D02*
X149345000Y-111965000D01*
X146278400Y-100165000D02*
X146645000Y-100165000D01*
X145783600Y-100659800D02*
X146278400Y-100165000D01*
X149895000Y-111415000D02*
X149895000Y-111115000D01*
X146645000Y-100165000D02*
X146645000Y-100165000D01*
X149345000Y-111965000D02*
X149895000Y-111415000D01*
X152545000Y-109665000D02*
X154445000Y-111565000D01*
X148233600Y-105809800D02*
X148995000Y-106571200D01*
X148233600Y-105559800D02*
X148233600Y-105809800D01*
X148995000Y-107532158D02*
X148995000Y-107815000D01*
X148995000Y-106571200D02*
X148995000Y-107532158D01*
X140395000Y-109315000D02*
X140395000Y-111115000D01*
X144395000Y-110865000D02*
X144395000Y-111815000D01*
X138963000Y-107615000D02*
X138963000Y-107897998D01*
X146670600Y-110339400D02*
X144920600Y-110339400D01*
X144920600Y-110339400D02*
X144395000Y-110865000D01*
X138963000Y-107883000D02*
X140395000Y-109315000D01*
X138963000Y-107615000D02*
X138963000Y-107883000D01*
X140395000Y-111115000D02*
X140395000Y-111115000D01*
X144395000Y-111815000D02*
X144395000Y-111815000D01*
X149945000Y-105265000D02*
X154045000Y-105265000D01*
X154045000Y-105265000D02*
X154345000Y-105565000D01*
X131895000Y-111115000D02*
X131895000Y-109815000D01*
X133045000Y-103465000D02*
X131420001Y-105089999D01*
X133045000Y-102015000D02*
X133045000Y-103465000D01*
X131420001Y-105089999D02*
X131420001Y-107239999D01*
X161370000Y-113765000D02*
X161370000Y-111925546D01*
X131689800Y-100659800D02*
X133045000Y-102015000D01*
X130233600Y-100659800D02*
X131689800Y-100659800D01*
X131895000Y-109815000D02*
X131895000Y-109815000D01*
X136345000Y-109165000D02*
X132545000Y-109165000D01*
X132545000Y-109165000D02*
X131895000Y-109815000D01*
X130895000Y-111815000D02*
X130895000Y-111815000D01*
X131420001Y-111289999D02*
X130895000Y-111815000D01*
X131420001Y-110889999D02*
X131420001Y-111289999D01*
X131420001Y-110889999D02*
X131420001Y-107239999D01*
X131420001Y-107239999D02*
X132094999Y-106565001D01*
X132094999Y-106565001D02*
X135545001Y-106565001D01*
X127033600Y-105559800D02*
X127033600Y-105809800D01*
X127033600Y-105809800D02*
X126295000Y-106548400D01*
X135545001Y-106565001D02*
X136345000Y-107365000D01*
X126295000Y-106548400D02*
X126295000Y-107532158D01*
X126295000Y-107532158D02*
X126295000Y-107815000D01*
X128645000Y-115765000D02*
X130095000Y-115765000D01*
X130095000Y-115765000D02*
X131345000Y-114515000D01*
X131345000Y-114515000D02*
X131345000Y-111965000D01*
X131895000Y-111415000D02*
X131895000Y-111115000D01*
X131345000Y-111965000D02*
X131895000Y-111415000D01*
X127783600Y-100659800D02*
X128278400Y-100165000D01*
X127033600Y-100659800D02*
X127783600Y-100659800D01*
X128278400Y-100165000D02*
X128645000Y-100165000D01*
X128645000Y-100165000D02*
X128645000Y-100165000D01*
X136445000Y-111565000D02*
X136869991Y-111565000D01*
X133645000Y-109665000D02*
X134545000Y-109665000D01*
X122868000Y-112928000D02*
X122169500Y-113626500D01*
X125370000Y-111925546D02*
X124076914Y-110632460D01*
X125370000Y-113765000D02*
X124213000Y-113765000D01*
X136491000Y-111565000D02*
X136869991Y-111565000D01*
X123045000Y-100115000D02*
X123045000Y-106265000D01*
X122069099Y-107240901D02*
X122069099Y-108331433D01*
X123045000Y-106265000D02*
X122069099Y-107240901D01*
X122069099Y-108331433D02*
X122868000Y-109130334D01*
X122868000Y-109130334D02*
X122868000Y-112928000D01*
X123045000Y-115515000D02*
X123045000Y-114502000D01*
X123045000Y-114502000D02*
X122169500Y-113626500D01*
X166095000Y-115765000D02*
X167345000Y-114515000D01*
X167345000Y-114515000D02*
X167345000Y-111965000D01*
X167895000Y-111415000D02*
X167895000Y-111115000D01*
X167345000Y-111965000D02*
X167895000Y-111415000D01*
X163783600Y-100659800D02*
X164278400Y-100165000D01*
X163033600Y-100659800D02*
X163783600Y-100659800D01*
X164278400Y-100165000D02*
X164645000Y-100165000D01*
X164645000Y-100165000D02*
X164645000Y-100165000D01*
X172445000Y-111565000D02*
X172869991Y-111565000D01*
X169645000Y-109665000D02*
X170545000Y-109665000D01*
X158868000Y-112928000D02*
X158169500Y-113626500D01*
X161370000Y-111925546D02*
X160076914Y-110632460D01*
X143370000Y-111925546D02*
X142076914Y-110632460D01*
X118345000Y-109165000D02*
X114545000Y-109165000D01*
X113895000Y-111115000D02*
X113895000Y-109815000D01*
X113895000Y-109815000D02*
X113895000Y-109815000D01*
X110645000Y-115765000D02*
X112095000Y-115765000D01*
X112095000Y-115765000D02*
X113345000Y-114515000D01*
X113345000Y-114515000D02*
X113345000Y-111965000D01*
X113895000Y-111415000D02*
X113895000Y-111115000D01*
X113345000Y-111965000D02*
X113895000Y-111415000D01*
X109783600Y-100659800D02*
X110278400Y-100165000D01*
X109033600Y-100659800D02*
X109783600Y-100659800D01*
X110278400Y-100165000D02*
X110645000Y-100165000D01*
X110645000Y-100165000D02*
X110645000Y-100165000D01*
X118445000Y-111565000D02*
X118869991Y-111565000D01*
X115645000Y-109665000D02*
X116545000Y-109665000D01*
X104868000Y-112928000D02*
X104169500Y-113626500D01*
X107370000Y-111925546D02*
X106076914Y-110632460D01*
X107370000Y-113765000D02*
X106213000Y-113765000D01*
X118491000Y-111565000D02*
X118869991Y-111565000D01*
X105045000Y-100115000D02*
X105045000Y-106265000D01*
X104069099Y-107240901D02*
X104069099Y-108331433D01*
X105045000Y-106265000D02*
X104069099Y-107240901D01*
X104069099Y-108331433D02*
X104868000Y-109130334D01*
X104868000Y-109130334D02*
X104868000Y-112928000D01*
X105045000Y-115515000D02*
X105045000Y-114502000D01*
X105045000Y-114502000D02*
X104169500Y-113626500D01*
X103095000Y-115365000D02*
X104895000Y-115365000D01*
X104895000Y-115365000D02*
X105045000Y-115515000D01*
X107189223Y-108938357D02*
X107189223Y-109520151D01*
X107189223Y-109520151D02*
X106076914Y-110632460D01*
X107370000Y-113765000D02*
X107370000Y-111925546D01*
D18*
X107370000Y-109119134D02*
X107189223Y-108938357D01*
D17*
X140069099Y-108331433D02*
X140868000Y-109130334D01*
X143189223Y-109520151D02*
X142076914Y-110632460D01*
X141045000Y-106265000D02*
X140069099Y-107240901D01*
X141045000Y-115515000D02*
X141045000Y-114502000D01*
X141045000Y-114502000D02*
X140169500Y-113626500D01*
X140868000Y-109130334D02*
X140868000Y-112928000D01*
X140069099Y-107240901D02*
X140069099Y-108331433D01*
X141045000Y-100115000D02*
X141045000Y-106265000D01*
X143189223Y-108938357D02*
X143189223Y-109520151D01*
X143370000Y-113765000D02*
X143370000Y-111925546D01*
X139095000Y-115365000D02*
X140895000Y-115365000D01*
X154491000Y-111565000D02*
X154869991Y-111565000D01*
X140895000Y-115365000D02*
X141045000Y-115515000D01*
X102963000Y-107615000D02*
X102963000Y-107720322D01*
X116545000Y-109665000D02*
X118445000Y-111565000D01*
X112233600Y-105809800D02*
X112995000Y-106571200D01*
X112233600Y-105559800D02*
X112233600Y-105809800D01*
X112995000Y-107532158D02*
X112995000Y-107815000D01*
X112995000Y-106571200D02*
X112995000Y-107532158D01*
X104395000Y-109315000D02*
X104395000Y-111115000D01*
X108395000Y-110865000D02*
X108395000Y-111815000D01*
X102963000Y-107615000D02*
X102963000Y-107897998D01*
X110670600Y-110339400D02*
X108920600Y-110339400D01*
X108920600Y-110339400D02*
X108395000Y-110865000D01*
X102963000Y-107883000D02*
X104395000Y-109315000D01*
X102963000Y-107615000D02*
X102963000Y-107883000D01*
X104395000Y-111115000D02*
X104395000Y-111115000D01*
X108395000Y-111815000D02*
X108395000Y-111815000D01*
X157095000Y-115365000D02*
X158895000Y-115365000D01*
X158868000Y-109130334D02*
X158868000Y-112928000D01*
X161189223Y-108938357D02*
X161189223Y-109520151D01*
X161189223Y-109520151D02*
X160076914Y-110632460D01*
X159045000Y-115515000D02*
X159045000Y-114502000D01*
X158069099Y-108331433D02*
X158868000Y-109130334D01*
X158069099Y-107240901D02*
X158069099Y-108331433D01*
X172491000Y-111565000D02*
X172869991Y-111565000D01*
X159045000Y-114502000D02*
X158169500Y-113626500D01*
X158895000Y-115365000D02*
X159045000Y-115515000D01*
X159045000Y-100115000D02*
X159045000Y-106265000D01*
X159045000Y-106265000D02*
X158069099Y-107240901D01*
X143370000Y-113765000D02*
X142213000Y-113765000D01*
X113945000Y-105265000D02*
X118045000Y-105265000D01*
X118045000Y-105265000D02*
X118345000Y-105565000D01*
X161370000Y-113765000D02*
X160213000Y-113765000D01*
X140868000Y-112928000D02*
X140169500Y-113626500D01*
X151645000Y-109665000D02*
X152545000Y-109665000D01*
X172345000Y-109165000D02*
X168545000Y-109165000D01*
X167420001Y-105089999D02*
X167420001Y-107239999D01*
X167420001Y-110889999D02*
X167420001Y-107239999D01*
X167895000Y-109815000D02*
X167895000Y-109815000D01*
X162295000Y-106548400D02*
X162295000Y-107532158D01*
X167895000Y-111115000D02*
X167895000Y-109815000D01*
X163033600Y-105559800D02*
X163033600Y-105809800D01*
X163033600Y-105809800D02*
X162295000Y-106548400D01*
X166233600Y-100659800D02*
X167689800Y-100659800D01*
X166895000Y-111815000D02*
X166895000Y-111815000D01*
X171545001Y-106565001D02*
X172345000Y-107365000D01*
X167420001Y-111289999D02*
X166895000Y-111815000D01*
X167420001Y-107239999D02*
X168094999Y-106565001D01*
X162295000Y-107532158D02*
X162295000Y-107815000D01*
X168094999Y-106565001D02*
X171545001Y-106565001D01*
X167420001Y-110889999D02*
X167420001Y-111289999D01*
X167689800Y-100659800D02*
X169045000Y-102015000D01*
X169045000Y-103465000D02*
X167420001Y-105089999D01*
X168545000Y-109165000D02*
X167895000Y-109815000D01*
X169045000Y-102015000D02*
X169045000Y-103465000D01*
X164645000Y-115765000D02*
X166095000Y-115765000D01*
X138963000Y-89615000D02*
X138963000Y-89720322D01*
D18*
X143370000Y-91119134D02*
X143189223Y-90938357D01*
D17*
X113420001Y-92889999D02*
X113420001Y-89239999D01*
X113420001Y-93289999D02*
X112895000Y-93815000D01*
X112895000Y-93815000D02*
X112895000Y-93815000D01*
X108295000Y-89532158D02*
X108295000Y-89815000D01*
X113420001Y-92889999D02*
X113420001Y-93289999D01*
X115045000Y-85465000D02*
X113420001Y-87089999D01*
X113689800Y-82659800D02*
X115045000Y-84015000D01*
X114094999Y-88565001D02*
X117545001Y-88565001D01*
X109033600Y-87809800D02*
X108295000Y-88548400D01*
X113420001Y-89239999D02*
X114094999Y-88565001D01*
X108295000Y-88548400D02*
X108295000Y-89532158D01*
X109033600Y-87559800D02*
X109033600Y-87809800D01*
X113420001Y-87089999D02*
X113420001Y-89239999D01*
X117545001Y-88565001D02*
X118345000Y-89365000D01*
X115045000Y-84015000D02*
X115045000Y-85465000D01*
X112233600Y-82659800D02*
X113689800Y-82659800D01*
X114545000Y-91165000D02*
X113895000Y-91815000D01*
X118345000Y-91165000D02*
X114545000Y-91165000D01*
X113895000Y-93115000D02*
X113895000Y-91815000D01*
X113895000Y-91815000D02*
X113895000Y-91815000D01*
X110645000Y-97765000D02*
X112095000Y-97765000D01*
X112095000Y-97765000D02*
X113345000Y-96515000D01*
X113345000Y-96515000D02*
X113345000Y-93965000D01*
X113895000Y-93415000D02*
X113895000Y-93115000D01*
X113345000Y-93965000D02*
X113895000Y-93415000D01*
X109783600Y-82659800D02*
X110278400Y-82165000D01*
X109033600Y-82659800D02*
X109783600Y-82659800D01*
X110278400Y-82165000D02*
X110645000Y-82165000D01*
X110645000Y-82165000D02*
X110645000Y-82165000D01*
X118445000Y-93565000D02*
X118869991Y-93565000D01*
X115645000Y-91665000D02*
X116545000Y-91665000D01*
X104868000Y-94928000D02*
X104169500Y-95626500D01*
X107370000Y-93925546D02*
X106076914Y-92632460D01*
X107370000Y-95765000D02*
X106213000Y-95765000D01*
X118491000Y-93565000D02*
X118869991Y-93565000D01*
X105045000Y-82115000D02*
X105045000Y-88265000D01*
X104069099Y-89240901D02*
X104069099Y-90331433D01*
X105045000Y-88265000D02*
X104069099Y-89240901D01*
X104069099Y-90331433D02*
X104868000Y-91130334D01*
X104868000Y-91130334D02*
X104868000Y-94928000D01*
X105045000Y-97515000D02*
X105045000Y-96502000D01*
X105045000Y-96502000D02*
X104169500Y-95626500D01*
X103095000Y-97365000D02*
X104895000Y-97365000D01*
X104895000Y-97365000D02*
X105045000Y-97515000D01*
X107189223Y-90938357D02*
X107189223Y-91520151D01*
X107189223Y-91520151D02*
X106076914Y-92632460D01*
X107370000Y-95765000D02*
X107370000Y-93925546D01*
D18*
X107370000Y-91119134D02*
X107189223Y-90938357D01*
D17*
X140069099Y-90331433D02*
X140868000Y-91130334D01*
X143189223Y-91520151D02*
X142076914Y-92632460D01*
X141045000Y-88265000D02*
X140069099Y-89240901D01*
X141045000Y-97515000D02*
X141045000Y-96502000D01*
X141045000Y-96502000D02*
X140169500Y-95626500D01*
X140868000Y-91130334D02*
X140868000Y-94928000D01*
X140069099Y-89240901D02*
X140069099Y-90331433D01*
X141045000Y-82115000D02*
X141045000Y-88265000D01*
X143189223Y-90938357D02*
X143189223Y-91520151D01*
X143370000Y-95765000D02*
X143370000Y-93925546D01*
X139095000Y-97365000D02*
X140895000Y-97365000D01*
X154491000Y-93565000D02*
X154869991Y-93565000D01*
X140895000Y-97365000D02*
X141045000Y-97515000D01*
X102963000Y-89615000D02*
X102963000Y-89720322D01*
X116545000Y-91665000D02*
X118445000Y-93565000D01*
X112233600Y-87809800D02*
X112995000Y-88571200D01*
X112233600Y-87559800D02*
X112233600Y-87809800D01*
X112995000Y-89532158D02*
X112995000Y-89815000D01*
X112995000Y-88571200D02*
X112995000Y-89532158D01*
X104395000Y-91315000D02*
X104395000Y-93115000D01*
X108395000Y-92865000D02*
X108395000Y-93815000D01*
X102963000Y-89615000D02*
X102963000Y-89897998D01*
X110670600Y-92339400D02*
X108920600Y-92339400D01*
X108920600Y-92339400D02*
X108395000Y-92865000D01*
X102963000Y-89883000D02*
X104395000Y-91315000D01*
X102963000Y-89615000D02*
X102963000Y-89883000D01*
X104395000Y-93115000D02*
X104395000Y-93115000D01*
X108395000Y-93815000D02*
X108395000Y-93815000D01*
X157095000Y-97365000D02*
X158895000Y-97365000D01*
X158868000Y-91130334D02*
X158868000Y-94928000D01*
X161189223Y-90938357D02*
X161189223Y-91520151D01*
X161189223Y-91520151D02*
X160076914Y-92632460D01*
X159045000Y-97515000D02*
X159045000Y-96502000D01*
X158069099Y-90331433D02*
X158868000Y-91130334D01*
X158069099Y-89240901D02*
X158069099Y-90331433D01*
X172491000Y-93565000D02*
X172869991Y-93565000D01*
X159045000Y-96502000D02*
X158169500Y-95626500D01*
X158895000Y-97365000D02*
X159045000Y-97515000D01*
X159045000Y-82115000D02*
X159045000Y-88265000D01*
X159045000Y-88265000D02*
X158069099Y-89240901D01*
X143370000Y-95765000D02*
X142213000Y-95765000D01*
X113945000Y-87265000D02*
X118045000Y-87265000D01*
X118045000Y-87265000D02*
X118345000Y-87565000D01*
X161370000Y-95765000D02*
X160213000Y-95765000D01*
X140868000Y-94928000D02*
X140169500Y-95626500D01*
X151645000Y-91665000D02*
X152545000Y-91665000D01*
X172345000Y-91165000D02*
X168545000Y-91165000D01*
X167420001Y-87089999D02*
X167420001Y-89239999D01*
X167420001Y-92889999D02*
X167420001Y-89239999D01*
X167895000Y-91815000D02*
X167895000Y-91815000D01*
X162295000Y-88548400D02*
X162295000Y-89532158D01*
X167895000Y-93115000D02*
X167895000Y-91815000D01*
X163033600Y-87559800D02*
X163033600Y-87809800D01*
X163033600Y-87809800D02*
X162295000Y-88548400D01*
X166233600Y-82659800D02*
X167689800Y-82659800D01*
X166895000Y-93815000D02*
X166895000Y-93815000D01*
X171545001Y-88565001D02*
X172345000Y-89365000D01*
X167420001Y-93289999D02*
X166895000Y-93815000D01*
X167420001Y-89239999D02*
X168094999Y-88565001D01*
X162295000Y-89532158D02*
X162295000Y-89815000D01*
X168094999Y-88565001D02*
X171545001Y-88565001D01*
X167420001Y-92889999D02*
X167420001Y-93289999D01*
X167689800Y-82659800D02*
X169045000Y-84015000D01*
X169045000Y-85465000D02*
X167420001Y-87089999D01*
X168545000Y-91165000D02*
X167895000Y-91815000D01*
X169045000Y-84015000D02*
X169045000Y-85465000D01*
X164645000Y-97765000D02*
X166095000Y-97765000D01*
X166095000Y-97765000D02*
X167345000Y-96515000D01*
X167345000Y-96515000D02*
X167345000Y-93965000D01*
X167895000Y-93415000D02*
X167895000Y-93115000D01*
X167345000Y-93965000D02*
X167895000Y-93415000D01*
X163783600Y-82659800D02*
X164278400Y-82165000D01*
X163033600Y-82659800D02*
X163783600Y-82659800D01*
X164278400Y-82165000D02*
X164645000Y-82165000D01*
X164645000Y-82165000D02*
X164645000Y-82165000D01*
X172445000Y-93565000D02*
X172869991Y-93565000D01*
X169645000Y-91665000D02*
X170545000Y-91665000D01*
X158868000Y-94928000D02*
X158169500Y-95626500D01*
X161370000Y-93925546D02*
X160076914Y-92632460D01*
X143370000Y-93925546D02*
X142076914Y-92632460D01*
X89370000Y-93925546D02*
X88076914Y-92632460D01*
X89370000Y-95765000D02*
X88213000Y-95765000D01*
X89189223Y-90938357D02*
X89189223Y-91520151D01*
X89189223Y-91520151D02*
X88076914Y-92632460D01*
X89370000Y-95765000D02*
X89370000Y-93925546D01*
D18*
X89370000Y-91119134D02*
X89189223Y-90938357D01*
D17*
X86868000Y-94928000D02*
X86169500Y-95626500D01*
X87045000Y-82115000D02*
X87045000Y-88265000D01*
X86069099Y-89240901D02*
X86069099Y-90331433D01*
X87045000Y-88265000D02*
X86069099Y-89240901D01*
X86069099Y-90331433D02*
X86868000Y-91130334D01*
X86868000Y-91130334D02*
X86868000Y-94928000D01*
X87045000Y-97515000D02*
X87045000Y-96502000D01*
X87045000Y-96502000D02*
X86169500Y-95626500D01*
X85095000Y-97365000D02*
X86895000Y-97365000D01*
X86895000Y-97365000D02*
X87045000Y-97515000D01*
X100445000Y-93565000D02*
X100869991Y-93565000D01*
X97645000Y-91665000D02*
X98545000Y-91665000D01*
X100491000Y-93565000D02*
X100869991Y-93565000D01*
X98545000Y-91665000D02*
X100445000Y-93565000D01*
X84963000Y-89615000D02*
X84963000Y-89720322D01*
X94995000Y-89532158D02*
X94995000Y-89815000D01*
X94995000Y-88571200D02*
X94995000Y-89532158D01*
X94233600Y-87809800D02*
X94995000Y-88571200D01*
X94233600Y-87559800D02*
X94233600Y-87809800D01*
X84963000Y-89615000D02*
X84963000Y-89897998D01*
X92670600Y-92339400D02*
X90920600Y-92339400D01*
X90920600Y-92339400D02*
X90395000Y-92865000D01*
X90395000Y-92865000D02*
X90395000Y-93815000D01*
X90395000Y-93815000D02*
X90395000Y-93815000D01*
X84963000Y-89615000D02*
X84963000Y-89883000D01*
X84963000Y-89883000D02*
X86395000Y-91315000D01*
X86395000Y-91315000D02*
X86395000Y-93115000D01*
X86395000Y-93115000D02*
X86395000Y-93115000D01*
X100045000Y-87265000D02*
X100345000Y-87565000D01*
X95945000Y-87265000D02*
X100045000Y-87265000D01*
X90295000Y-88548400D02*
X90295000Y-89532158D01*
X90295000Y-89532158D02*
X90295000Y-89815000D01*
X91033600Y-87809800D02*
X90295000Y-88548400D01*
X91033600Y-87559800D02*
X91033600Y-87809800D01*
X99545001Y-88565001D02*
X100345000Y-89365000D01*
X96094999Y-88565001D02*
X99545001Y-88565001D01*
X95420001Y-89239999D02*
X96094999Y-88565001D01*
X95420001Y-92889999D02*
X95420001Y-89239999D01*
X95420001Y-92889999D02*
X95420001Y-93289999D01*
X95420001Y-93289999D02*
X94895000Y-93815000D01*
X94895000Y-93815000D02*
X94895000Y-93815000D01*
X95420001Y-87089999D02*
X95420001Y-89239999D01*
X97045000Y-84015000D02*
X97045000Y-85465000D01*
X95689800Y-82659800D02*
X97045000Y-84015000D01*
X97045000Y-85465000D02*
X95420001Y-87089999D01*
X94233600Y-82659800D02*
X95689800Y-82659800D01*
X96545000Y-91165000D02*
X95895000Y-91815000D01*
X100345000Y-91165000D02*
X96545000Y-91165000D01*
X95895000Y-93115000D02*
X95895000Y-91815000D01*
X95895000Y-91815000D02*
X95895000Y-91815000D01*
X92645000Y-97765000D02*
X94095000Y-97765000D01*
X94095000Y-97765000D02*
X95345000Y-96515000D01*
X95345000Y-96515000D02*
X95345000Y-93965000D01*
X95895000Y-93415000D02*
X95895000Y-93115000D01*
X95345000Y-93965000D02*
X95895000Y-93415000D01*
X91783600Y-82659800D02*
X92278400Y-82165000D01*
X91033600Y-82659800D02*
X91783600Y-82659800D01*
X92278400Y-82165000D02*
X92645000Y-82165000D01*
X92645000Y-82165000D02*
X92645000Y-82165000D01*
X154445000Y-129565000D02*
X154869991Y-129565000D01*
X126395000Y-128865000D02*
X126395000Y-129815000D01*
X122395000Y-129115000D02*
X122395000Y-129115000D01*
X122395000Y-127315000D02*
X122395000Y-129115000D01*
X126920600Y-128339400D02*
X126395000Y-128865000D01*
X126395000Y-129815000D02*
X126395000Y-129815000D01*
X120963000Y-125883000D02*
X122395000Y-127315000D01*
X120963000Y-125615000D02*
X120963000Y-125883000D01*
X128670600Y-128339400D02*
X126920600Y-128339400D01*
X120963000Y-125615000D02*
X120963000Y-125897998D01*
X130233600Y-123559800D02*
X130233600Y-123809800D01*
X130233600Y-123809800D02*
X130995000Y-124571200D01*
X130995000Y-124571200D02*
X130995000Y-125532158D01*
X130995000Y-125532158D02*
X130995000Y-125815000D01*
X131945000Y-123265000D02*
X136045000Y-123265000D01*
X136045000Y-123265000D02*
X136345000Y-123565000D01*
X134545000Y-127665000D02*
X136445000Y-129565000D01*
X148895000Y-129815000D02*
X148895000Y-129815000D01*
X149420001Y-128889999D02*
X149420001Y-129289999D01*
X144295000Y-125532158D02*
X144295000Y-125815000D01*
X149420001Y-129289999D02*
X148895000Y-129815000D01*
X149420001Y-128889999D02*
X149420001Y-125239999D01*
X149895000Y-127815000D02*
X149895000Y-127815000D01*
X149895000Y-129115000D02*
X149895000Y-127815000D01*
X150545000Y-127165000D02*
X149895000Y-127815000D01*
X154345000Y-127165000D02*
X150545000Y-127165000D01*
X148233600Y-118659800D02*
X149689800Y-118659800D01*
X153545001Y-124565001D02*
X154345000Y-125365000D01*
X151045000Y-120015000D02*
X151045000Y-121465000D01*
X144295000Y-124548400D02*
X144295000Y-125532158D01*
X149420001Y-125239999D02*
X150094999Y-124565001D01*
X149420001Y-123089999D02*
X149420001Y-125239999D01*
X145033600Y-123559800D02*
X145033600Y-123809800D01*
X149689800Y-118659800D02*
X151045000Y-120015000D01*
X151045000Y-121465000D02*
X149420001Y-123089999D01*
X150094999Y-124565001D02*
X153545001Y-124565001D01*
X145033600Y-123809800D02*
X144295000Y-124548400D01*
X120963000Y-125615000D02*
X120963000Y-125720322D01*
X146645000Y-133765000D02*
X148095000Y-133765000D01*
X148095000Y-133765000D02*
X149345000Y-132515000D01*
X145033600Y-118659800D02*
X145783600Y-118659800D01*
X149345000Y-132515000D02*
X149345000Y-129965000D01*
X146278400Y-118165000D02*
X146645000Y-118165000D01*
X145783600Y-118659800D02*
X146278400Y-118165000D01*
X149895000Y-129415000D02*
X149895000Y-129115000D01*
X146645000Y-118165000D02*
X146645000Y-118165000D01*
X149345000Y-129965000D02*
X149895000Y-129415000D01*
X152545000Y-127665000D02*
X154445000Y-129565000D01*
X148233600Y-123809800D02*
X148995000Y-124571200D01*
X148233600Y-123559800D02*
X148233600Y-123809800D01*
X148995000Y-125532158D02*
X148995000Y-125815000D01*
X148995000Y-124571200D02*
X148995000Y-125532158D01*
X140395000Y-127315000D02*
X140395000Y-129115000D01*
X144395000Y-128865000D02*
X144395000Y-129815000D01*
X138963000Y-125615000D02*
X138963000Y-125897998D01*
X146670600Y-128339400D02*
X144920600Y-128339400D01*
X144920600Y-128339400D02*
X144395000Y-128865000D01*
X138963000Y-125883000D02*
X140395000Y-127315000D01*
X138963000Y-125615000D02*
X138963000Y-125883000D01*
X140395000Y-129115000D02*
X140395000Y-129115000D01*
X144395000Y-129815000D02*
X144395000Y-129815000D01*
X149945000Y-123265000D02*
X154045000Y-123265000D01*
X154045000Y-123265000D02*
X154345000Y-123565000D01*
X99545001Y-142565001D02*
X100345000Y-143365000D01*
X91033600Y-141559800D02*
X91033600Y-141809800D01*
X91033600Y-141809800D02*
X90295000Y-142548400D01*
X90295000Y-143532158D02*
X90295000Y-143815000D01*
X94895000Y-147815000D02*
X94895000Y-147815000D01*
X90295000Y-142548400D02*
X90295000Y-143532158D01*
X95420001Y-147289999D02*
X94895000Y-147815000D01*
X95420001Y-146889999D02*
X95420001Y-147289999D01*
X95420001Y-146889999D02*
X95420001Y-143239999D01*
X95420001Y-143239999D02*
X96094999Y-142565001D01*
X96094999Y-142565001D02*
X99545001Y-142565001D01*
X95420001Y-141089999D02*
X95420001Y-143239999D01*
X97045000Y-138015000D02*
X97045000Y-139465000D01*
X95689800Y-136659800D02*
X97045000Y-138015000D01*
X97045000Y-139465000D02*
X95420001Y-141089999D01*
X94233600Y-136659800D02*
X95689800Y-136659800D01*
X96545000Y-145165000D02*
X95895000Y-145815000D01*
X100345000Y-145165000D02*
X96545000Y-145165000D01*
X95895000Y-147115000D02*
X95895000Y-145815000D01*
X95895000Y-145815000D02*
X95895000Y-145815000D01*
X92645000Y-151765000D02*
X94095000Y-151765000D01*
X94095000Y-151765000D02*
X95345000Y-150515000D01*
X95345000Y-150515000D02*
X95345000Y-147965000D01*
X95895000Y-147415000D02*
X95895000Y-147115000D01*
X95345000Y-147965000D02*
X95895000Y-147415000D01*
X91783600Y-136659800D02*
X92278400Y-136165000D01*
X91033600Y-136659800D02*
X91783600Y-136659800D01*
X92278400Y-136165000D02*
X92645000Y-136165000D01*
X92645000Y-136165000D02*
X92645000Y-136165000D01*
X154445000Y-147565000D02*
X154869991Y-147565000D01*
X100445000Y-147565000D02*
X100869991Y-147565000D01*
X97645000Y-145665000D02*
X98545000Y-145665000D01*
X172045000Y-141265000D02*
X172345000Y-141565000D01*
X167945000Y-141265000D02*
X172045000Y-141265000D01*
X185420001Y-146889999D02*
X185420001Y-143239999D01*
X185420001Y-147289999D02*
X184895000Y-147815000D01*
X184895000Y-147815000D02*
X184895000Y-147815000D01*
X180295000Y-143532158D02*
X180295000Y-143815000D01*
X185420001Y-146889999D02*
X185420001Y-147289999D01*
X187045000Y-139465000D02*
X185420001Y-141089999D01*
X185689800Y-136659800D02*
X187045000Y-138015000D01*
X186094999Y-142565001D02*
X189545001Y-142565001D01*
X181033600Y-141809800D02*
X180295000Y-142548400D01*
X185420001Y-143239999D02*
X186094999Y-142565001D01*
X180295000Y-142548400D02*
X180295000Y-143532158D01*
X181033600Y-141559800D02*
X181033600Y-141809800D01*
X185420001Y-141089999D02*
X185420001Y-143239999D01*
X189545001Y-142565001D02*
X190345000Y-143365000D01*
X187045000Y-138015000D02*
X187045000Y-139465000D01*
X184233600Y-136659800D02*
X185689800Y-136659800D01*
X186545000Y-145165000D02*
X185895000Y-145815000D01*
X190345000Y-145165000D02*
X186545000Y-145165000D01*
X185895000Y-147115000D02*
X185895000Y-145815000D01*
X185895000Y-145815000D02*
X185895000Y-145815000D01*
X182645000Y-151765000D02*
X184095000Y-151765000D01*
X184095000Y-151765000D02*
X185345000Y-150515000D01*
X185345000Y-150515000D02*
X185345000Y-147965000D01*
X185895000Y-147415000D02*
X185895000Y-147115000D01*
X185345000Y-147965000D02*
X185895000Y-147415000D01*
X181783600Y-136659800D02*
X182278400Y-136165000D01*
X181033600Y-136659800D02*
X181783600Y-136659800D01*
X182278400Y-136165000D02*
X182645000Y-136165000D01*
X182645000Y-136165000D02*
X182645000Y-136165000D01*
X190445000Y-147565000D02*
X190869991Y-147565000D01*
X187645000Y-145665000D02*
X188545000Y-145665000D01*
X176868000Y-148928000D02*
X176169500Y-149626500D01*
X179370000Y-147925546D02*
X178076914Y-146632460D01*
X179370000Y-149765000D02*
X178213000Y-149765000D01*
X190491000Y-147565000D02*
X190869991Y-147565000D01*
X177045000Y-136115000D02*
X177045000Y-142265000D01*
X176069099Y-143240901D02*
X176069099Y-144331433D01*
X177045000Y-142265000D02*
X176069099Y-143240901D01*
X176069099Y-144331433D02*
X176868000Y-145130334D01*
X176868000Y-145130334D02*
X176868000Y-148928000D01*
X177045000Y-151515000D02*
X177045000Y-150502000D01*
X177045000Y-150502000D02*
X176169500Y-149626500D01*
X131895000Y-129115000D02*
X131895000Y-127815000D01*
X133045000Y-121465000D02*
X131420001Y-123089999D01*
X133045000Y-120015000D02*
X133045000Y-121465000D01*
X131420001Y-123089999D02*
X131420001Y-125239999D01*
X161370000Y-131765000D02*
X161370000Y-129925546D01*
X131689800Y-118659800D02*
X133045000Y-120015000D01*
X130233600Y-118659800D02*
X131689800Y-118659800D01*
X131895000Y-127815000D02*
X131895000Y-127815000D01*
X136345000Y-127165000D02*
X132545000Y-127165000D01*
X132545000Y-127165000D02*
X131895000Y-127815000D01*
X130895000Y-129815000D02*
X130895000Y-129815000D01*
X131420001Y-129289999D02*
X130895000Y-129815000D01*
X131420001Y-128889999D02*
X131420001Y-129289999D01*
X131420001Y-128889999D02*
X131420001Y-125239999D01*
X131420001Y-125239999D02*
X132094999Y-124565001D01*
X132094999Y-124565001D02*
X135545001Y-124565001D01*
X127033600Y-123559800D02*
X127033600Y-123809800D01*
X127033600Y-123809800D02*
X126295000Y-124548400D01*
X135545001Y-124565001D02*
X136345000Y-125365000D01*
X126295000Y-124548400D02*
X126295000Y-125532158D01*
X126295000Y-125532158D02*
X126295000Y-125815000D01*
X128645000Y-133765000D02*
X130095000Y-133765000D01*
X130095000Y-133765000D02*
X131345000Y-132515000D01*
X131345000Y-132515000D02*
X131345000Y-129965000D01*
X131895000Y-129415000D02*
X131895000Y-129115000D01*
X131345000Y-129965000D02*
X131895000Y-129415000D01*
X127783600Y-118659800D02*
X128278400Y-118165000D01*
X127033600Y-118659800D02*
X127783600Y-118659800D01*
X128278400Y-118165000D02*
X128645000Y-118165000D01*
X128645000Y-118165000D02*
X128645000Y-118165000D01*
X136445000Y-129565000D02*
X136869991Y-129565000D01*
X133645000Y-127665000D02*
X134545000Y-127665000D01*
X122868000Y-130928000D02*
X122169500Y-131626500D01*
X125370000Y-129925546D02*
X124076914Y-128632460D01*
X125370000Y-131765000D02*
X124213000Y-131765000D01*
X136491000Y-129565000D02*
X136869991Y-129565000D01*
X123045000Y-118115000D02*
X123045000Y-124265000D01*
X122069099Y-125240901D02*
X122069099Y-126331433D01*
X123045000Y-124265000D02*
X122069099Y-125240901D01*
X122069099Y-126331433D02*
X122868000Y-127130334D01*
X122868000Y-127130334D02*
X122868000Y-130928000D01*
X123045000Y-133515000D02*
X123045000Y-132502000D01*
X123045000Y-132502000D02*
X122169500Y-131626500D01*
X121095000Y-133365000D02*
X122895000Y-133365000D01*
X122895000Y-133365000D02*
X123045000Y-133515000D01*
X125189223Y-126938357D02*
X125189223Y-127520151D01*
X125189223Y-127520151D02*
X124076914Y-128632460D01*
X125370000Y-131765000D02*
X125370000Y-129925546D01*
D18*
X125370000Y-127119134D02*
X125189223Y-126938357D01*
D17*
X190045000Y-123265000D02*
X190345000Y-123565000D01*
X86868000Y-148928000D02*
X86169500Y-149626500D01*
X89370000Y-147925546D02*
X88076914Y-146632460D01*
X89370000Y-149765000D02*
X88213000Y-149765000D01*
X100491000Y-147565000D02*
X100869991Y-147565000D01*
X87045000Y-136115000D02*
X87045000Y-142265000D01*
X86069099Y-143240901D02*
X86069099Y-144331433D01*
X87045000Y-142265000D02*
X86069099Y-143240901D01*
X86069099Y-144331433D02*
X86868000Y-145130334D01*
X86868000Y-145130334D02*
X86868000Y-148928000D01*
X87045000Y-151515000D02*
X87045000Y-150502000D01*
X87045000Y-150502000D02*
X86169500Y-149626500D01*
X85095000Y-151365000D02*
X86895000Y-151365000D01*
X86895000Y-151365000D02*
X87045000Y-151515000D01*
X89189223Y-144938357D02*
X89189223Y-145520151D01*
X89189223Y-145520151D02*
X88076914Y-146632460D01*
X89370000Y-149765000D02*
X89370000Y-147925546D01*
D18*
X89370000Y-145119134D02*
X89189223Y-144938357D01*
D17*
X98545000Y-145665000D02*
X100445000Y-147565000D01*
X84963000Y-143615000D02*
X84963000Y-143720322D01*
X94995000Y-143532158D02*
X94995000Y-143815000D01*
X94995000Y-142571200D02*
X94995000Y-143532158D01*
X94233600Y-141809800D02*
X94995000Y-142571200D01*
X94233600Y-141559800D02*
X94233600Y-141809800D01*
X84963000Y-143615000D02*
X84963000Y-143897998D01*
X92670600Y-146339400D02*
X90920600Y-146339400D01*
X90920600Y-146339400D02*
X90395000Y-146865000D01*
X90395000Y-146865000D02*
X90395000Y-147815000D01*
X90395000Y-147815000D02*
X90395000Y-147815000D01*
X84963000Y-143615000D02*
X84963000Y-143883000D01*
X84963000Y-143883000D02*
X86395000Y-145315000D01*
X86395000Y-145315000D02*
X86395000Y-147115000D01*
X86395000Y-147115000D02*
X86395000Y-147115000D01*
X100045000Y-141265000D02*
X100345000Y-141565000D01*
X95945000Y-141265000D02*
X100045000Y-141265000D01*
X126395000Y-146865000D02*
X126395000Y-147815000D01*
X122395000Y-147115000D02*
X122395000Y-147115000D01*
X122395000Y-145315000D02*
X122395000Y-147115000D01*
X126920600Y-146339400D02*
X126395000Y-146865000D01*
X126395000Y-147815000D02*
X126395000Y-147815000D01*
X120963000Y-143883000D02*
X122395000Y-145315000D01*
X120963000Y-143615000D02*
X120963000Y-143883000D01*
X128670600Y-146339400D02*
X126920600Y-146339400D01*
D18*
X161370000Y-127119134D02*
X161189223Y-126938357D01*
D17*
X170545000Y-127665000D02*
X172445000Y-129565000D01*
X156963000Y-125615000D02*
X156963000Y-125720322D01*
X166995000Y-125532158D02*
X166995000Y-125815000D01*
X166995000Y-124571200D02*
X166995000Y-125532158D01*
X166233600Y-123809800D02*
X166995000Y-124571200D01*
X166233600Y-123559800D02*
X166233600Y-123809800D01*
X156963000Y-125615000D02*
X156963000Y-125897998D01*
X164670600Y-128339400D02*
X162920600Y-128339400D01*
X162920600Y-128339400D02*
X162395000Y-128865000D01*
X162395000Y-128865000D02*
X162395000Y-129815000D01*
X162395000Y-129815000D02*
X162395000Y-129815000D01*
X156963000Y-125615000D02*
X156963000Y-125883000D01*
X156963000Y-125883000D02*
X158395000Y-127315000D01*
X158395000Y-127315000D02*
X158395000Y-129115000D01*
X158395000Y-129115000D02*
X158395000Y-129115000D01*
X172045000Y-123265000D02*
X172345000Y-123565000D01*
X167945000Y-123265000D02*
X172045000Y-123265000D01*
X185420001Y-128889999D02*
X185420001Y-125239999D01*
X185420001Y-129289999D02*
X184895000Y-129815000D01*
X184895000Y-129815000D02*
X184895000Y-129815000D01*
X180295000Y-125532158D02*
X180295000Y-125815000D01*
X185420001Y-128889999D02*
X185420001Y-129289999D01*
X187045000Y-121465000D02*
X185420001Y-123089999D01*
X185689800Y-118659800D02*
X187045000Y-120015000D01*
X186094999Y-124565001D02*
X189545001Y-124565001D01*
X181033600Y-123809800D02*
X180295000Y-124548400D01*
X185420001Y-125239999D02*
X186094999Y-124565001D01*
X180295000Y-124548400D02*
X180295000Y-125532158D01*
X181033600Y-123559800D02*
X181033600Y-123809800D01*
X185420001Y-123089999D02*
X185420001Y-125239999D01*
X189545001Y-124565001D02*
X190345000Y-125365000D01*
X187045000Y-120015000D02*
X187045000Y-121465000D01*
X184233600Y-118659800D02*
X185689800Y-118659800D01*
X186545000Y-127165000D02*
X185895000Y-127815000D01*
X190345000Y-127165000D02*
X186545000Y-127165000D01*
X185895000Y-129115000D02*
X185895000Y-127815000D01*
X185895000Y-127815000D02*
X185895000Y-127815000D01*
X182645000Y-133765000D02*
X184095000Y-133765000D01*
X184095000Y-133765000D02*
X185345000Y-132515000D01*
X185345000Y-132515000D02*
X185345000Y-129965000D01*
X185895000Y-129415000D02*
X185895000Y-129115000D01*
X185345000Y-129965000D02*
X185895000Y-129415000D01*
X181783600Y-118659800D02*
X182278400Y-118165000D01*
X181033600Y-118659800D02*
X181783600Y-118659800D01*
X182278400Y-118165000D02*
X182645000Y-118165000D01*
X182645000Y-118165000D02*
X182645000Y-118165000D01*
X190445000Y-129565000D02*
X190869991Y-129565000D01*
X187645000Y-127665000D02*
X188545000Y-127665000D01*
X176868000Y-130928000D02*
X176169500Y-131626500D01*
X179370000Y-129925546D02*
X178076914Y-128632460D01*
X179370000Y-131765000D02*
X178213000Y-131765000D01*
X190491000Y-129565000D02*
X190869991Y-129565000D01*
X177045000Y-118115000D02*
X177045000Y-124265000D01*
X176069099Y-125240901D02*
X176069099Y-126331433D01*
X177045000Y-124265000D02*
X176069099Y-125240901D01*
X176069099Y-126331433D02*
X176868000Y-127130334D01*
X176868000Y-127130334D02*
X176868000Y-130928000D01*
X177045000Y-133515000D02*
X177045000Y-132502000D01*
X177045000Y-132502000D02*
X176169500Y-131626500D01*
X175095000Y-133365000D02*
X176895000Y-133365000D01*
X176895000Y-133365000D02*
X177045000Y-133515000D01*
X179189223Y-126938357D02*
X179189223Y-127520151D01*
X179189223Y-127520151D02*
X178076914Y-128632460D01*
X179370000Y-131765000D02*
X179370000Y-129925546D01*
D18*
X179370000Y-127119134D02*
X179189223Y-126938357D01*
D17*
X174963000Y-125615000D02*
X174963000Y-125720322D01*
X188545000Y-127665000D02*
X190445000Y-129565000D01*
X184233600Y-123809800D02*
X184995000Y-124571200D01*
X184233600Y-123559800D02*
X184233600Y-123809800D01*
X184995000Y-125532158D02*
X184995000Y-125815000D01*
X184995000Y-124571200D02*
X184995000Y-125532158D01*
X176395000Y-127315000D02*
X176395000Y-129115000D01*
X180395000Y-128865000D02*
X180395000Y-129815000D01*
X174963000Y-125615000D02*
X174963000Y-125897998D01*
X182670600Y-128339400D02*
X180920600Y-128339400D01*
X180920600Y-128339400D02*
X180395000Y-128865000D01*
X174963000Y-125883000D02*
X176395000Y-127315000D01*
X174963000Y-125615000D02*
X174963000Y-125883000D01*
X176395000Y-129115000D02*
X176395000Y-129115000D01*
X180395000Y-129815000D02*
X180395000Y-129815000D01*
X185945000Y-123265000D02*
X190045000Y-123265000D01*
X121095000Y-151365000D02*
X122895000Y-151365000D01*
X122895000Y-151365000D02*
X123045000Y-151515000D01*
X125189223Y-144938357D02*
X125189223Y-145520151D01*
X125189223Y-145520151D02*
X124076914Y-146632460D01*
X125370000Y-149765000D02*
X125370000Y-147925546D01*
D18*
X125370000Y-145119134D02*
X125189223Y-144938357D01*
D17*
X190045000Y-141265000D02*
X190345000Y-141565000D01*
D18*
X161370000Y-145119134D02*
X161189223Y-144938357D01*
D17*
X170545000Y-145665000D02*
X172445000Y-147565000D01*
X156963000Y-143615000D02*
X156963000Y-143720322D01*
X166995000Y-143532158D02*
X166995000Y-143815000D01*
X166995000Y-142571200D02*
X166995000Y-143532158D01*
X166233600Y-141809800D02*
X166995000Y-142571200D01*
X166233600Y-141559800D02*
X166233600Y-141809800D01*
X156963000Y-143615000D02*
X156963000Y-143897998D01*
X164670600Y-146339400D02*
X162920600Y-146339400D01*
X162920600Y-146339400D02*
X162395000Y-146865000D01*
X162395000Y-146865000D02*
X162395000Y-147815000D01*
X162395000Y-147815000D02*
X162395000Y-147815000D01*
X156963000Y-143615000D02*
X156963000Y-143883000D01*
X156963000Y-143883000D02*
X158395000Y-145315000D01*
X158395000Y-145315000D02*
X158395000Y-147115000D01*
X158395000Y-147115000D02*
X158395000Y-147115000D01*
X175095000Y-151365000D02*
X176895000Y-151365000D01*
X176895000Y-151365000D02*
X177045000Y-151515000D01*
X179189223Y-144938357D02*
X179189223Y-145520151D01*
X179189223Y-145520151D02*
X178076914Y-146632460D01*
X179370000Y-149765000D02*
X179370000Y-147925546D01*
D18*
X179370000Y-145119134D02*
X179189223Y-144938357D01*
D17*
X174963000Y-143615000D02*
X174963000Y-143720322D01*
X188545000Y-145665000D02*
X190445000Y-147565000D01*
X184233600Y-141809800D02*
X184995000Y-142571200D01*
X184233600Y-141559800D02*
X184233600Y-141809800D01*
X184995000Y-143532158D02*
X184995000Y-143815000D01*
X184995000Y-142571200D02*
X184995000Y-143532158D01*
X176395000Y-145315000D02*
X176395000Y-147115000D01*
X180395000Y-146865000D02*
X180395000Y-147815000D01*
X174963000Y-143615000D02*
X174963000Y-143897998D01*
X182670600Y-146339400D02*
X180920600Y-146339400D01*
X180920600Y-146339400D02*
X180395000Y-146865000D01*
X174963000Y-143883000D02*
X176395000Y-145315000D01*
X174963000Y-143615000D02*
X174963000Y-143883000D01*
X176395000Y-147115000D02*
X176395000Y-147115000D01*
X180395000Y-147815000D02*
X180395000Y-147815000D01*
X185945000Y-141265000D02*
X190045000Y-141265000D01*
X138963000Y-143615000D02*
X138963000Y-143720322D01*
D18*
X143370000Y-145119134D02*
X143189223Y-144938357D01*
D17*
X113420001Y-146889999D02*
X113420001Y-143239999D01*
X113420001Y-147289999D02*
X112895000Y-147815000D01*
X112895000Y-147815000D02*
X112895000Y-147815000D01*
X108295000Y-143532158D02*
X108295000Y-143815000D01*
X113420001Y-146889999D02*
X113420001Y-147289999D01*
X115045000Y-139465000D02*
X113420001Y-141089999D01*
X113689800Y-136659800D02*
X115045000Y-138015000D01*
X114094999Y-142565001D02*
X117545001Y-142565001D01*
X109033600Y-141809800D02*
X108295000Y-142548400D01*
X113420001Y-143239999D02*
X114094999Y-142565001D01*
X108295000Y-142548400D02*
X108295000Y-143532158D01*
X109033600Y-141559800D02*
X109033600Y-141809800D01*
X113420001Y-141089999D02*
X113420001Y-143239999D01*
X117545001Y-142565001D02*
X118345000Y-143365000D01*
X115045000Y-138015000D02*
X115045000Y-139465000D01*
X112233600Y-136659800D02*
X113689800Y-136659800D01*
X114545000Y-145165000D02*
X113895000Y-145815000D01*
X120963000Y-143615000D02*
X120963000Y-143897998D01*
X130233600Y-141559800D02*
X130233600Y-141809800D01*
X130233600Y-141809800D02*
X130995000Y-142571200D01*
X130995000Y-142571200D02*
X130995000Y-143532158D01*
X130995000Y-143532158D02*
X130995000Y-143815000D01*
X131945000Y-141265000D02*
X136045000Y-141265000D01*
X136045000Y-141265000D02*
X136345000Y-141565000D01*
X134545000Y-145665000D02*
X136445000Y-147565000D01*
X148895000Y-147815000D02*
X148895000Y-147815000D01*
X149420001Y-146889999D02*
X149420001Y-147289999D01*
X144295000Y-143532158D02*
X144295000Y-143815000D01*
X149420001Y-147289999D02*
X148895000Y-147815000D01*
X149420001Y-146889999D02*
X149420001Y-143239999D01*
X149895000Y-145815000D02*
X149895000Y-145815000D01*
X149895000Y-147115000D02*
X149895000Y-145815000D01*
X150545000Y-145165000D02*
X149895000Y-145815000D01*
X154345000Y-145165000D02*
X150545000Y-145165000D01*
X148233600Y-136659800D02*
X149689800Y-136659800D01*
X153545001Y-142565001D02*
X154345000Y-143365000D01*
X151045000Y-138015000D02*
X151045000Y-139465000D01*
X144295000Y-142548400D02*
X144295000Y-143532158D01*
X149420001Y-143239999D02*
X150094999Y-142565001D01*
X149420001Y-141089999D02*
X149420001Y-143239999D01*
X145033600Y-141559800D02*
X145033600Y-141809800D01*
X149689800Y-136659800D02*
X151045000Y-138015000D01*
X151045000Y-139465000D02*
X149420001Y-141089999D01*
X150094999Y-142565001D02*
X153545001Y-142565001D01*
X145033600Y-141809800D02*
X144295000Y-142548400D01*
X120963000Y-143615000D02*
X120963000Y-143720322D01*
X146645000Y-151765000D02*
X148095000Y-151765000D01*
X148095000Y-151765000D02*
X149345000Y-150515000D01*
X145033600Y-136659800D02*
X145783600Y-136659800D01*
X149345000Y-150515000D02*
X149345000Y-147965000D01*
X146278400Y-136165000D02*
X146645000Y-136165000D01*
X145783600Y-136659800D02*
X146278400Y-136165000D01*
X149895000Y-147415000D02*
X149895000Y-147115000D01*
X146645000Y-136165000D02*
X146645000Y-136165000D01*
X149345000Y-147965000D02*
X149895000Y-147415000D01*
X152545000Y-145665000D02*
X154445000Y-147565000D01*
X148233600Y-141809800D02*
X148995000Y-142571200D01*
X148233600Y-141559800D02*
X148233600Y-141809800D01*
X148995000Y-143532158D02*
X148995000Y-143815000D01*
X148995000Y-142571200D02*
X148995000Y-143532158D01*
X140395000Y-145315000D02*
X140395000Y-147115000D01*
X144395000Y-146865000D02*
X144395000Y-147815000D01*
X138963000Y-143615000D02*
X138963000Y-143897998D01*
X146670600Y-146339400D02*
X144920600Y-146339400D01*
X144920600Y-146339400D02*
X144395000Y-146865000D01*
X138963000Y-143883000D02*
X140395000Y-145315000D01*
X138963000Y-143615000D02*
X138963000Y-143883000D01*
X140395000Y-147115000D02*
X140395000Y-147115000D01*
X144395000Y-147815000D02*
X144395000Y-147815000D01*
X149945000Y-141265000D02*
X154045000Y-141265000D01*
X154045000Y-141265000D02*
X154345000Y-141565000D01*
X131895000Y-147115000D02*
X131895000Y-145815000D01*
X133045000Y-139465000D02*
X131420001Y-141089999D01*
X133045000Y-138015000D02*
X133045000Y-139465000D01*
X131420001Y-141089999D02*
X131420001Y-143239999D01*
X161370000Y-149765000D02*
X161370000Y-147925546D01*
X131689800Y-136659800D02*
X133045000Y-138015000D01*
X130233600Y-136659800D02*
X131689800Y-136659800D01*
X131895000Y-145815000D02*
X131895000Y-145815000D01*
X136345000Y-145165000D02*
X132545000Y-145165000D01*
X132545000Y-145165000D02*
X131895000Y-145815000D01*
X130895000Y-147815000D02*
X130895000Y-147815000D01*
X131420001Y-147289999D02*
X130895000Y-147815000D01*
X131420001Y-146889999D02*
X131420001Y-147289999D01*
X131420001Y-146889999D02*
X131420001Y-143239999D01*
X131420001Y-143239999D02*
X132094999Y-142565001D01*
X132094999Y-142565001D02*
X135545001Y-142565001D01*
X127033600Y-141559800D02*
X127033600Y-141809800D01*
X127033600Y-141809800D02*
X126295000Y-142548400D01*
X135545001Y-142565001D02*
X136345000Y-143365000D01*
X126295000Y-142548400D02*
X126295000Y-143532158D01*
X126295000Y-143532158D02*
X126295000Y-143815000D01*
X128645000Y-151765000D02*
X130095000Y-151765000D01*
X130095000Y-151765000D02*
X131345000Y-150515000D01*
X131345000Y-150515000D02*
X131345000Y-147965000D01*
X131895000Y-147415000D02*
X131895000Y-147115000D01*
X131345000Y-147965000D02*
X131895000Y-147415000D01*
X127783600Y-136659800D02*
X128278400Y-136165000D01*
X127033600Y-136659800D02*
X127783600Y-136659800D01*
X128278400Y-136165000D02*
X128645000Y-136165000D01*
X128645000Y-136165000D02*
X128645000Y-136165000D01*
X136445000Y-147565000D02*
X136869991Y-147565000D01*
X133645000Y-145665000D02*
X134545000Y-145665000D01*
X122868000Y-148928000D02*
X122169500Y-149626500D01*
X125370000Y-147925546D02*
X124076914Y-146632460D01*
X125370000Y-149765000D02*
X124213000Y-149765000D01*
X136491000Y-147565000D02*
X136869991Y-147565000D01*
X123045000Y-136115000D02*
X123045000Y-142265000D01*
X122069099Y-143240901D02*
X122069099Y-144331433D01*
X123045000Y-142265000D02*
X122069099Y-143240901D01*
X122069099Y-144331433D02*
X122868000Y-145130334D01*
X122868000Y-145130334D02*
X122868000Y-148928000D01*
X123045000Y-151515000D02*
X123045000Y-150502000D01*
X123045000Y-150502000D02*
X122169500Y-149626500D01*
X166095000Y-151765000D02*
X167345000Y-150515000D01*
X167345000Y-150515000D02*
X167345000Y-147965000D01*
X167895000Y-147415000D02*
X167895000Y-147115000D01*
X167345000Y-147965000D02*
X167895000Y-147415000D01*
X163783600Y-136659800D02*
X164278400Y-136165000D01*
X163033600Y-136659800D02*
X163783600Y-136659800D01*
X164278400Y-136165000D02*
X164645000Y-136165000D01*
X164645000Y-136165000D02*
X164645000Y-136165000D01*
X172445000Y-147565000D02*
X172869991Y-147565000D01*
X169645000Y-145665000D02*
X170545000Y-145665000D01*
X158868000Y-148928000D02*
X158169500Y-149626500D01*
X161370000Y-147925546D02*
X160076914Y-146632460D01*
X143370000Y-147925546D02*
X142076914Y-146632460D01*
X118345000Y-145165000D02*
X114545000Y-145165000D01*
X113895000Y-147115000D02*
X113895000Y-145815000D01*
X113895000Y-145815000D02*
X113895000Y-145815000D01*
X110645000Y-151765000D02*
X112095000Y-151765000D01*
X112095000Y-151765000D02*
X113345000Y-150515000D01*
X113345000Y-150515000D02*
X113345000Y-147965000D01*
X113895000Y-147415000D02*
X113895000Y-147115000D01*
X113345000Y-147965000D02*
X113895000Y-147415000D01*
X109783600Y-136659800D02*
X110278400Y-136165000D01*
X109033600Y-136659800D02*
X109783600Y-136659800D01*
X110278400Y-136165000D02*
X110645000Y-136165000D01*
X110645000Y-136165000D02*
X110645000Y-136165000D01*
X118445000Y-147565000D02*
X118869991Y-147565000D01*
X115645000Y-145665000D02*
X116545000Y-145665000D01*
X104868000Y-148928000D02*
X104169500Y-149626500D01*
X107370000Y-147925546D02*
X106076914Y-146632460D01*
X107370000Y-149765000D02*
X106213000Y-149765000D01*
X118491000Y-147565000D02*
X118869991Y-147565000D01*
X105045000Y-136115000D02*
X105045000Y-142265000D01*
X104069099Y-143240901D02*
X104069099Y-144331433D01*
X105045000Y-142265000D02*
X104069099Y-143240901D01*
X104069099Y-144331433D02*
X104868000Y-145130334D01*
X104868000Y-145130334D02*
X104868000Y-148928000D01*
X105045000Y-151515000D02*
X105045000Y-150502000D01*
X105045000Y-150502000D02*
X104169500Y-149626500D01*
X103095000Y-151365000D02*
X104895000Y-151365000D01*
X104895000Y-151365000D02*
X105045000Y-151515000D01*
X107189223Y-144938357D02*
X107189223Y-145520151D01*
X107189223Y-145520151D02*
X106076914Y-146632460D01*
X107370000Y-149765000D02*
X107370000Y-147925546D01*
D18*
X107370000Y-145119134D02*
X107189223Y-144938357D01*
D17*
X140069099Y-144331433D02*
X140868000Y-145130334D01*
X143189223Y-145520151D02*
X142076914Y-146632460D01*
X141045000Y-142265000D02*
X140069099Y-143240901D01*
X141045000Y-151515000D02*
X141045000Y-150502000D01*
X141045000Y-150502000D02*
X140169500Y-149626500D01*
X140868000Y-145130334D02*
X140868000Y-148928000D01*
X140069099Y-143240901D02*
X140069099Y-144331433D01*
X141045000Y-136115000D02*
X141045000Y-142265000D01*
X143189223Y-144938357D02*
X143189223Y-145520151D01*
X143370000Y-149765000D02*
X143370000Y-147925546D01*
X139095000Y-151365000D02*
X140895000Y-151365000D01*
X154491000Y-147565000D02*
X154869991Y-147565000D01*
X140895000Y-151365000D02*
X141045000Y-151515000D01*
X102963000Y-143615000D02*
X102963000Y-143720322D01*
X116545000Y-145665000D02*
X118445000Y-147565000D01*
X112233600Y-141809800D02*
X112995000Y-142571200D01*
X112233600Y-141559800D02*
X112233600Y-141809800D01*
X112995000Y-143532158D02*
X112995000Y-143815000D01*
X112995000Y-142571200D02*
X112995000Y-143532158D01*
X104395000Y-145315000D02*
X104395000Y-147115000D01*
X108395000Y-146865000D02*
X108395000Y-147815000D01*
X102963000Y-143615000D02*
X102963000Y-143897998D01*
X110670600Y-146339400D02*
X108920600Y-146339400D01*
X108920600Y-146339400D02*
X108395000Y-146865000D01*
X102963000Y-143883000D02*
X104395000Y-145315000D01*
X102963000Y-143615000D02*
X102963000Y-143883000D01*
X104395000Y-147115000D02*
X104395000Y-147115000D01*
X108395000Y-147815000D02*
X108395000Y-147815000D01*
X157095000Y-151365000D02*
X158895000Y-151365000D01*
X158868000Y-145130334D02*
X158868000Y-148928000D01*
X161189223Y-144938357D02*
X161189223Y-145520151D01*
X161189223Y-145520151D02*
X160076914Y-146632460D01*
X159045000Y-151515000D02*
X159045000Y-150502000D01*
X158069099Y-144331433D02*
X158868000Y-145130334D01*
X158069099Y-143240901D02*
X158069099Y-144331433D01*
X172491000Y-147565000D02*
X172869991Y-147565000D01*
X159045000Y-150502000D02*
X158169500Y-149626500D01*
X158895000Y-151365000D02*
X159045000Y-151515000D01*
X159045000Y-136115000D02*
X159045000Y-142265000D01*
X159045000Y-142265000D02*
X158069099Y-143240901D01*
X143370000Y-149765000D02*
X142213000Y-149765000D01*
X113945000Y-141265000D02*
X118045000Y-141265000D01*
X118045000Y-141265000D02*
X118345000Y-141565000D01*
X161370000Y-149765000D02*
X160213000Y-149765000D01*
X140868000Y-148928000D02*
X140169500Y-149626500D01*
X151645000Y-145665000D02*
X152545000Y-145665000D01*
X172345000Y-145165000D02*
X168545000Y-145165000D01*
X167420001Y-141089999D02*
X167420001Y-143239999D01*
X167420001Y-146889999D02*
X167420001Y-143239999D01*
X167895000Y-145815000D02*
X167895000Y-145815000D01*
X162295000Y-142548400D02*
X162295000Y-143532158D01*
X167895000Y-147115000D02*
X167895000Y-145815000D01*
X163033600Y-141559800D02*
X163033600Y-141809800D01*
X163033600Y-141809800D02*
X162295000Y-142548400D01*
X166233600Y-136659800D02*
X167689800Y-136659800D01*
X166895000Y-147815000D02*
X166895000Y-147815000D01*
X171545001Y-142565001D02*
X172345000Y-143365000D01*
X167420001Y-147289999D02*
X166895000Y-147815000D01*
X167420001Y-143239999D02*
X168094999Y-142565001D01*
X162295000Y-143532158D02*
X162295000Y-143815000D01*
X168094999Y-142565001D02*
X171545001Y-142565001D01*
X167420001Y-146889999D02*
X167420001Y-147289999D01*
X167689800Y-136659800D02*
X169045000Y-138015000D01*
X169045000Y-139465000D02*
X167420001Y-141089999D01*
X168545000Y-145165000D02*
X167895000Y-145815000D01*
X169045000Y-138015000D02*
X169045000Y-139465000D01*
X164645000Y-151765000D02*
X166095000Y-151765000D01*
X138963000Y-125615000D02*
X138963000Y-125720322D01*
D18*
X143370000Y-127119134D02*
X143189223Y-126938357D01*
D17*
X113420001Y-128889999D02*
X113420001Y-125239999D01*
X113420001Y-129289999D02*
X112895000Y-129815000D01*
X112895000Y-129815000D02*
X112895000Y-129815000D01*
X108295000Y-125532158D02*
X108295000Y-125815000D01*
X113420001Y-128889999D02*
X113420001Y-129289999D01*
X115045000Y-121465000D02*
X113420001Y-123089999D01*
X113689800Y-118659800D02*
X115045000Y-120015000D01*
X114094999Y-124565001D02*
X117545001Y-124565001D01*
X109033600Y-123809800D02*
X108295000Y-124548400D01*
X113420001Y-125239999D02*
X114094999Y-124565001D01*
X108295000Y-124548400D02*
X108295000Y-125532158D01*
X109033600Y-123559800D02*
X109033600Y-123809800D01*
X113420001Y-123089999D02*
X113420001Y-125239999D01*
X117545001Y-124565001D02*
X118345000Y-125365000D01*
X115045000Y-120015000D02*
X115045000Y-121465000D01*
X112233600Y-118659800D02*
X113689800Y-118659800D01*
X114545000Y-127165000D02*
X113895000Y-127815000D01*
X118345000Y-127165000D02*
X114545000Y-127165000D01*
X113895000Y-129115000D02*
X113895000Y-127815000D01*
X113895000Y-127815000D02*
X113895000Y-127815000D01*
X110645000Y-133765000D02*
X112095000Y-133765000D01*
X112095000Y-133765000D02*
X113345000Y-132515000D01*
X113345000Y-132515000D02*
X113345000Y-129965000D01*
X113895000Y-129415000D02*
X113895000Y-129115000D01*
X113345000Y-129965000D02*
X113895000Y-129415000D01*
X109783600Y-118659800D02*
X110278400Y-118165000D01*
X109033600Y-118659800D02*
X109783600Y-118659800D01*
X110278400Y-118165000D02*
X110645000Y-118165000D01*
X110645000Y-118165000D02*
X110645000Y-118165000D01*
X118445000Y-129565000D02*
X118869991Y-129565000D01*
X115645000Y-127665000D02*
X116545000Y-127665000D01*
X104868000Y-130928000D02*
X104169500Y-131626500D01*
X107370000Y-129925546D02*
X106076914Y-128632460D01*
X107370000Y-131765000D02*
X106213000Y-131765000D01*
X118491000Y-129565000D02*
X118869991Y-129565000D01*
X105045000Y-118115000D02*
X105045000Y-124265000D01*
X104069099Y-125240901D02*
X104069099Y-126331433D01*
X105045000Y-124265000D02*
X104069099Y-125240901D01*
X104069099Y-126331433D02*
X104868000Y-127130334D01*
X104868000Y-127130334D02*
X104868000Y-130928000D01*
X105045000Y-133515000D02*
X105045000Y-132502000D01*
X105045000Y-132502000D02*
X104169500Y-131626500D01*
X103095000Y-133365000D02*
X104895000Y-133365000D01*
X104895000Y-133365000D02*
X105045000Y-133515000D01*
X107189223Y-126938357D02*
X107189223Y-127520151D01*
X107189223Y-127520151D02*
X106076914Y-128632460D01*
X107370000Y-131765000D02*
X107370000Y-129925546D01*
D18*
X107370000Y-127119134D02*
X107189223Y-126938357D01*
D17*
X140069099Y-126331433D02*
X140868000Y-127130334D01*
X143189223Y-127520151D02*
X142076914Y-128632460D01*
X141045000Y-124265000D02*
X140069099Y-125240901D01*
X141045000Y-133515000D02*
X141045000Y-132502000D01*
X141045000Y-132502000D02*
X140169500Y-131626500D01*
X140868000Y-127130334D02*
X140868000Y-130928000D01*
X140069099Y-125240901D02*
X140069099Y-126331433D01*
X141045000Y-118115000D02*
X141045000Y-124265000D01*
X143189223Y-126938357D02*
X143189223Y-127520151D01*
X143370000Y-131765000D02*
X143370000Y-129925546D01*
X139095000Y-133365000D02*
X140895000Y-133365000D01*
X154491000Y-129565000D02*
X154869991Y-129565000D01*
X140895000Y-133365000D02*
X141045000Y-133515000D01*
X102963000Y-125615000D02*
X102963000Y-125720322D01*
X116545000Y-127665000D02*
X118445000Y-129565000D01*
X112233600Y-123809800D02*
X112995000Y-124571200D01*
X112233600Y-123559800D02*
X112233600Y-123809800D01*
X112995000Y-125532158D02*
X112995000Y-125815000D01*
X112995000Y-124571200D02*
X112995000Y-125532158D01*
X104395000Y-127315000D02*
X104395000Y-129115000D01*
X108395000Y-128865000D02*
X108395000Y-129815000D01*
X102963000Y-125615000D02*
X102963000Y-125897998D01*
X110670600Y-128339400D02*
X108920600Y-128339400D01*
X108920600Y-128339400D02*
X108395000Y-128865000D01*
X102963000Y-125883000D02*
X104395000Y-127315000D01*
X102963000Y-125615000D02*
X102963000Y-125883000D01*
X104395000Y-129115000D02*
X104395000Y-129115000D01*
X108395000Y-129815000D02*
X108395000Y-129815000D01*
X157095000Y-133365000D02*
X158895000Y-133365000D01*
X158868000Y-127130334D02*
X158868000Y-130928000D01*
X161189223Y-126938357D02*
X161189223Y-127520151D01*
X161189223Y-127520151D02*
X160076914Y-128632460D01*
X159045000Y-133515000D02*
X159045000Y-132502000D01*
X158069099Y-126331433D02*
X158868000Y-127130334D01*
X158069099Y-125240901D02*
X158069099Y-126331433D01*
X172491000Y-129565000D02*
X172869991Y-129565000D01*
X159045000Y-132502000D02*
X158169500Y-131626500D01*
X158895000Y-133365000D02*
X159045000Y-133515000D01*
X159045000Y-118115000D02*
X159045000Y-124265000D01*
X159045000Y-124265000D02*
X158069099Y-125240901D01*
X143370000Y-131765000D02*
X142213000Y-131765000D01*
X113945000Y-123265000D02*
X118045000Y-123265000D01*
X118045000Y-123265000D02*
X118345000Y-123565000D01*
X161370000Y-131765000D02*
X160213000Y-131765000D01*
X140868000Y-130928000D02*
X140169500Y-131626500D01*
X151645000Y-127665000D02*
X152545000Y-127665000D01*
X172345000Y-127165000D02*
X168545000Y-127165000D01*
X167420001Y-123089999D02*
X167420001Y-125239999D01*
X167420001Y-128889999D02*
X167420001Y-125239999D01*
X167895000Y-127815000D02*
X167895000Y-127815000D01*
X162295000Y-124548400D02*
X162295000Y-125532158D01*
X167895000Y-129115000D02*
X167895000Y-127815000D01*
X163033600Y-123559800D02*
X163033600Y-123809800D01*
X163033600Y-123809800D02*
X162295000Y-124548400D01*
X166233600Y-118659800D02*
X167689800Y-118659800D01*
X166895000Y-129815000D02*
X166895000Y-129815000D01*
X171545001Y-124565001D02*
X172345000Y-125365000D01*
X167420001Y-129289999D02*
X166895000Y-129815000D01*
X167420001Y-125239999D02*
X168094999Y-124565001D01*
X162295000Y-125532158D02*
X162295000Y-125815000D01*
X168094999Y-124565001D02*
X171545001Y-124565001D01*
X167420001Y-128889999D02*
X167420001Y-129289999D01*
X167689800Y-118659800D02*
X169045000Y-120015000D01*
X169045000Y-121465000D02*
X167420001Y-123089999D01*
X168545000Y-127165000D02*
X167895000Y-127815000D01*
X169045000Y-120015000D02*
X169045000Y-121465000D01*
X164645000Y-133765000D02*
X166095000Y-133765000D01*
X166095000Y-133765000D02*
X167345000Y-132515000D01*
X167345000Y-132515000D02*
X167345000Y-129965000D01*
X167895000Y-129415000D02*
X167895000Y-129115000D01*
X167345000Y-129965000D02*
X167895000Y-129415000D01*
X163783600Y-118659800D02*
X164278400Y-118165000D01*
X163033600Y-118659800D02*
X163783600Y-118659800D01*
X164278400Y-118165000D02*
X164645000Y-118165000D01*
X164645000Y-118165000D02*
X164645000Y-118165000D01*
X172445000Y-129565000D02*
X172869991Y-129565000D01*
X169645000Y-127665000D02*
X170545000Y-127665000D01*
X158868000Y-130928000D02*
X158169500Y-131626500D01*
X161370000Y-129925546D02*
X160076914Y-128632460D01*
X143370000Y-129925546D02*
X142076914Y-128632460D01*
X89370000Y-129925546D02*
X88076914Y-128632460D01*
X89370000Y-131765000D02*
X88213000Y-131765000D01*
X89189223Y-126938357D02*
X89189223Y-127520151D01*
X89189223Y-127520151D02*
X88076914Y-128632460D01*
X89370000Y-131765000D02*
X89370000Y-129925546D01*
D18*
X89370000Y-127119134D02*
X89189223Y-126938357D01*
D17*
X86868000Y-130928000D02*
X86169500Y-131626500D01*
X87045000Y-118115000D02*
X87045000Y-124265000D01*
X86069099Y-125240901D02*
X86069099Y-126331433D01*
X87045000Y-124265000D02*
X86069099Y-125240901D01*
X86069099Y-126331433D02*
X86868000Y-127130334D01*
X86868000Y-127130334D02*
X86868000Y-130928000D01*
X87045000Y-133515000D02*
X87045000Y-132502000D01*
X87045000Y-132502000D02*
X86169500Y-131626500D01*
X85095000Y-133365000D02*
X86895000Y-133365000D01*
X86895000Y-133365000D02*
X87045000Y-133515000D01*
X100445000Y-129565000D02*
X100869991Y-129565000D01*
X97645000Y-127665000D02*
X98545000Y-127665000D01*
X100491000Y-129565000D02*
X100869991Y-129565000D01*
X98545000Y-127665000D02*
X100445000Y-129565000D01*
X84963000Y-125615000D02*
X84963000Y-125720322D01*
X94995000Y-125532158D02*
X94995000Y-125815000D01*
X94995000Y-124571200D02*
X94995000Y-125532158D01*
X94233600Y-123809800D02*
X94995000Y-124571200D01*
X94233600Y-123559800D02*
X94233600Y-123809800D01*
X84963000Y-125615000D02*
X84963000Y-125897998D01*
X92670600Y-128339400D02*
X90920600Y-128339400D01*
X90920600Y-128339400D02*
X90395000Y-128865000D01*
X90395000Y-128865000D02*
X90395000Y-129815000D01*
X90395000Y-129815000D02*
X90395000Y-129815000D01*
X84963000Y-125615000D02*
X84963000Y-125883000D01*
X84963000Y-125883000D02*
X86395000Y-127315000D01*
X86395000Y-127315000D02*
X86395000Y-129115000D01*
X86395000Y-129115000D02*
X86395000Y-129115000D01*
X100045000Y-123265000D02*
X100345000Y-123565000D01*
X95945000Y-123265000D02*
X100045000Y-123265000D01*
X90295000Y-124548400D02*
X90295000Y-125532158D01*
X90295000Y-125532158D02*
X90295000Y-125815000D01*
X91033600Y-123809800D02*
X90295000Y-124548400D01*
X91033600Y-123559800D02*
X91033600Y-123809800D01*
X99545001Y-124565001D02*
X100345000Y-125365000D01*
X96094999Y-124565001D02*
X99545001Y-124565001D01*
X95420001Y-125239999D02*
X96094999Y-124565001D01*
X95420001Y-128889999D02*
X95420001Y-125239999D01*
X95420001Y-128889999D02*
X95420001Y-129289999D01*
X95420001Y-129289999D02*
X94895000Y-129815000D01*
X94895000Y-129815000D02*
X94895000Y-129815000D01*
X95420001Y-123089999D02*
X95420001Y-125239999D01*
X97045000Y-120015000D02*
X97045000Y-121465000D01*
X95689800Y-118659800D02*
X97045000Y-120015000D01*
X97045000Y-121465000D02*
X95420001Y-123089999D01*
X94233600Y-118659800D02*
X95689800Y-118659800D01*
X96545000Y-127165000D02*
X95895000Y-127815000D01*
X100345000Y-127165000D02*
X96545000Y-127165000D01*
X95895000Y-129115000D02*
X95895000Y-127815000D01*
X95895000Y-127815000D02*
X95895000Y-127815000D01*
X92645000Y-133765000D02*
X94095000Y-133765000D01*
X94095000Y-133765000D02*
X95345000Y-132515000D01*
X95345000Y-132515000D02*
X95345000Y-129965000D01*
X95895000Y-129415000D02*
X95895000Y-129115000D01*
X95345000Y-129965000D02*
X95895000Y-129415000D01*
X91783600Y-118659800D02*
X92278400Y-118165000D01*
X91033600Y-118659800D02*
X91783600Y-118659800D01*
X92278400Y-118165000D02*
X92645000Y-118165000D01*
X92645000Y-118165000D02*
X92645000Y-118165000D01*
D18*
X89370000Y-55119134D02*
X89189223Y-54938357D01*
D17*
X89370000Y-59765000D02*
X88213000Y-59765000D01*
X89370000Y-57925546D02*
X88076914Y-56632460D01*
X89370000Y-59765000D02*
X89370000Y-57925546D01*
X89189223Y-55520151D02*
X88076914Y-56632460D01*
X89189223Y-54938357D02*
X89189223Y-55520151D01*
X86895000Y-61365000D02*
X87045000Y-61515000D01*
X85095000Y-61365000D02*
X86895000Y-61365000D01*
X87045000Y-60502000D02*
X86169500Y-59626500D01*
X87045000Y-61515000D02*
X87045000Y-60502000D01*
X86868000Y-58928000D02*
X86169500Y-59626500D01*
X86868000Y-55130334D02*
X86868000Y-58928000D01*
X86069099Y-54331433D02*
X86868000Y-55130334D01*
X87045000Y-52265000D02*
X86069099Y-53240901D01*
X86069099Y-53240901D02*
X86069099Y-54331433D01*
X87045000Y-46115000D02*
X87045000Y-52265000D01*
X100491000Y-57565000D02*
X100869991Y-57565000D01*
X97645000Y-55665000D02*
X98545000Y-55665000D01*
X100445000Y-57565000D02*
X100869991Y-57565000D01*
X98545000Y-55665000D02*
X100445000Y-57565000D01*
X84963000Y-53615000D02*
X84963000Y-53720322D01*
X94995000Y-53532158D02*
X94995000Y-53815000D01*
X94995000Y-52571200D02*
X94995000Y-53532158D01*
X94233600Y-51809800D02*
X94995000Y-52571200D01*
X94233600Y-51559800D02*
X94233600Y-51809800D01*
X84963000Y-53615000D02*
X84963000Y-53897998D01*
X92670600Y-56339400D02*
X90920600Y-56339400D01*
X90920600Y-56339400D02*
X90395000Y-56865000D01*
X90395000Y-56865000D02*
X90395000Y-57815000D01*
X90395000Y-57815000D02*
X90395000Y-57815000D01*
X84963000Y-53615000D02*
X84963000Y-53883000D01*
X84963000Y-53883000D02*
X86395000Y-55315000D01*
X86395000Y-55315000D02*
X86395000Y-57115000D01*
X86395000Y-57115000D02*
X86395000Y-57115000D01*
X100045000Y-51265000D02*
X100345000Y-51565000D01*
X95945000Y-51265000D02*
X100045000Y-51265000D01*
X90295000Y-52548400D02*
X90295000Y-53532158D01*
X90295000Y-53532158D02*
X90295000Y-53815000D01*
X91033600Y-51809800D02*
X90295000Y-52548400D01*
X91033600Y-51559800D02*
X91033600Y-51809800D01*
X99545001Y-52565001D02*
X100345000Y-53365000D01*
X96094999Y-52565001D02*
X99545001Y-52565001D01*
X95420001Y-53239999D02*
X96094999Y-52565001D01*
X95420001Y-56889999D02*
X95420001Y-53239999D01*
X95420001Y-56889999D02*
X95420001Y-57289999D01*
X95420001Y-57289999D02*
X94895000Y-57815000D01*
X94895000Y-57815000D02*
X94895000Y-57815000D01*
X95420001Y-51089999D02*
X95420001Y-53239999D01*
X97045000Y-48015000D02*
X97045000Y-49465000D01*
X95689800Y-46659800D02*
X97045000Y-48015000D01*
X97045000Y-49465000D02*
X95420001Y-51089999D01*
X94233600Y-46659800D02*
X95689800Y-46659800D01*
X96545000Y-55165000D02*
X95895000Y-55815000D01*
X100345000Y-55165000D02*
X96545000Y-55165000D01*
X95895000Y-57115000D02*
X95895000Y-55815000D01*
X95895000Y-55815000D02*
X95895000Y-55815000D01*
X92645000Y-61765000D02*
X94095000Y-61765000D01*
X94095000Y-61765000D02*
X95345000Y-60515000D01*
X95345000Y-60515000D02*
X95345000Y-57965000D01*
X95895000Y-57415000D02*
X95895000Y-57115000D01*
X95345000Y-57965000D02*
X95895000Y-57415000D01*
X91783600Y-46659800D02*
X92278400Y-46165000D01*
X91033600Y-46659800D02*
X91783600Y-46659800D01*
X92278400Y-46165000D02*
X92645000Y-46165000D01*
X92645000Y-46165000D02*
X92645000Y-46165000D01*
M02*
