G04 #@! TF.GenerationSoftware,KiCad,Pcbnew,(5.1.5)-3*
G04 #@! TF.CreationDate,2020-05-06T13:52:35+02:00*
G04 #@! TF.ProjectId,Cherry-Mx-Bitboard-Re-19.05mm,43686572-7279-42d4-9d78-2d426974626f,1*
G04 #@! TF.SameCoordinates,Original*
G04 #@! TF.FileFunction,Copper,L2,Bot*
G04 #@! TF.FilePolarity,Positive*
%FSLAX46Y46*%
G04 Gerber Fmt 4.6, Leading zero omitted, Abs format (unit mm)*
G04 Created by KiCad (PCBNEW (5.1.5)-3) date 2020-05-06 13:52:35*
%MOMM*%
%LPD*%
G04 APERTURE LIST*
%ADD10R,2.550000X2.500000*%
%ADD11C,1.600000*%
%ADD12C,0.100000*%
%ADD13R,1.000000X1.500000*%
%ADD14R,1.600000X1.600000*%
%ADD15C,0.700000*%
%ADD16C,0.300000*%
%ADD17C,0.250000*%
%ADD18C,0.254000*%
%ADD19C,0.200000*%
G04 APERTURE END LIST*
D10*
X85285000Y-51275000D03*
X98735000Y-48735000D03*
D11*
X89189223Y-54938357D03*
G04 #@! TA.AperFunction,ComponentPad*
D12*
G36*
X85339873Y-62469553D02*
G01*
X83990447Y-61609873D01*
X84850127Y-60260447D01*
X86199553Y-61120127D01*
X85339873Y-62469553D01*
G37*
G04 #@! TD.AperFunction*
D13*
X91033600Y-61239400D03*
X94233600Y-61239400D03*
X91033600Y-56339400D03*
X94233600Y-56339400D03*
G04 #@! TA.AperFunction,SMDPad,CuDef*
D12*
G36*
X86246366Y-60418422D02*
G01*
X85445144Y-59907987D01*
X86143634Y-58811578D01*
X86944856Y-59322013D01*
X86246366Y-60418422D01*
G37*
G04 #@! TD.AperFunction*
G04 #@! TA.AperFunction,SMDPad,CuDef*
G36*
X88153780Y-57424382D02*
G01*
X87352558Y-56913947D01*
X88051048Y-55817538D01*
X88852270Y-56327973D01*
X88153780Y-57424382D01*
G37*
G04 #@! TD.AperFunction*
D11*
X87045000Y-61515000D03*
X84963000Y-53615000D03*
D14*
X100345000Y-55165000D03*
D11*
X87045000Y-46115000D03*
X84963000Y-55415000D03*
X100345000Y-51565000D03*
D14*
X84963000Y-57215000D03*
D11*
X100345000Y-53365000D03*
X100245000Y-46215000D03*
X85045000Y-46215000D03*
D15*
X99145000Y-56315000D03*
X86395000Y-57115000D03*
X89395000Y-57815000D03*
X92670600Y-56339400D03*
X95445000Y-51215000D03*
X90545000Y-55165000D03*
X94895000Y-58815000D03*
X98245000Y-52415000D03*
X98245000Y-50615000D03*
X93145000Y-46815000D03*
X89545000Y-61715000D03*
X88745000Y-61715000D03*
X95845000Y-61215000D03*
X97845000Y-60615000D03*
X100045000Y-61015000D03*
D16*
X84963000Y-51647000D02*
X85310000Y-51300000D01*
X85471000Y-51139000D02*
X85310000Y-51300000D01*
X84995000Y-51565000D02*
X85285000Y-51275000D01*
D17*
X87758384Y-56276930D02*
X88102414Y-56620960D01*
X85285000Y-51275000D02*
X86020001Y-52010001D01*
X88102414Y-56620960D02*
X88102414Y-56025166D01*
X89189223Y-54938357D02*
X89189223Y-55534151D01*
X88102414Y-56620960D02*
X89189223Y-54938357D01*
X86845000Y-61365000D02*
X86945000Y-61465000D01*
X87045000Y-60465000D02*
X86195000Y-59615000D01*
X87045000Y-61515000D02*
X87045000Y-60465000D01*
X85045000Y-46165000D02*
X85045000Y-46437000D01*
X98735000Y-48189000D02*
X98735000Y-48735000D01*
X85217000Y-46282000D02*
X85217000Y-46609000D01*
X98609000Y-48861000D02*
X98735000Y-48735000D01*
X99220901Y-56239099D02*
X99145000Y-56315000D01*
X99220901Y-50720901D02*
X99220901Y-56239099D01*
X98735000Y-48735000D02*
X98735000Y-50235000D01*
X98735000Y-50235000D02*
X99220901Y-50720901D01*
X94185000Y-56388000D02*
X94233600Y-56339400D01*
X94233600Y-56339400D02*
X94233600Y-56089400D01*
X86395000Y-57115000D02*
X87595000Y-58315000D01*
X88895000Y-58315000D02*
X89195001Y-58014999D01*
X89195001Y-58014999D02*
X89395000Y-57815000D01*
X87595000Y-58315000D02*
X88895000Y-58315000D01*
X85260000Y-55415000D02*
X84963000Y-55415000D01*
X87935398Y-57815000D02*
X88395000Y-57815000D01*
X84963000Y-55415000D02*
X85535398Y-55415000D01*
X85535398Y-55415000D02*
X87935398Y-57815000D01*
X89870600Y-56339400D02*
X91033600Y-56339400D01*
X88395000Y-57815000D02*
X89870600Y-56339400D01*
X91033600Y-56339400D02*
X90283600Y-56339400D01*
X91033600Y-56339400D02*
X91033600Y-55653600D01*
X91033600Y-55653600D02*
X90545000Y-55165000D01*
X95094999Y-59014999D02*
X94895000Y-58815000D01*
X94983600Y-61239400D02*
X95094999Y-61128001D01*
X94233600Y-61239400D02*
X94983600Y-61239400D01*
X95094999Y-61128001D02*
X95094999Y-59014999D01*
X98245000Y-52415000D02*
X98245000Y-50615000D01*
X91033600Y-61239400D02*
X91559200Y-61765000D01*
X91559200Y-61765000D02*
X92645000Y-61765000D01*
X92645000Y-61765000D02*
X92645000Y-61765000D01*
X90283600Y-61239400D02*
X91033600Y-61239400D01*
X89895000Y-60850800D02*
X90283600Y-61239400D01*
X96345000Y-46815000D02*
X93639974Y-46815000D01*
X93639974Y-46815000D02*
X93145000Y-46815000D01*
X95895000Y-53815000D02*
X97645000Y-52065000D01*
X97645000Y-50713998D02*
X97028000Y-50096998D01*
X95895000Y-55815000D02*
X95895000Y-53815000D01*
X97645000Y-52065000D02*
X97645000Y-50713998D01*
X97028000Y-47498000D02*
X96345000Y-46815000D01*
X97028000Y-50096998D02*
X97028000Y-47498000D01*
D18*
G36*
X95796697Y-53959272D02*
G01*
X95831536Y-54024450D01*
X95878421Y-54081579D01*
X95935550Y-54128464D01*
X96000728Y-54163303D01*
X96071451Y-54184756D01*
X96145000Y-54192000D01*
X96396013Y-54192000D01*
X96400917Y-54216656D01*
X96504718Y-54467254D01*
X96655414Y-54692787D01*
X96847213Y-54884586D01*
X97072746Y-55035282D01*
X97323344Y-55139083D01*
X97589377Y-55192000D01*
X97860623Y-55192000D01*
X98126656Y-55139083D01*
X98377254Y-55035282D01*
X98408206Y-55014601D01*
X98503165Y-54995712D01*
X98718902Y-54906352D01*
X98718902Y-55725354D01*
X98681564Y-55750302D01*
X98580302Y-55851564D01*
X98542915Y-55907518D01*
X98534093Y-55901624D01*
X98192501Y-55760132D01*
X97829868Y-55688000D01*
X97460132Y-55688000D01*
X97097499Y-55760132D01*
X96755907Y-55901624D01*
X96448482Y-56107039D01*
X96187039Y-56368482D01*
X95981624Y-56675907D01*
X95840132Y-57017499D01*
X95768000Y-57380132D01*
X95768000Y-57749868D01*
X95840132Y-58112501D01*
X95981624Y-58454093D01*
X96187039Y-58761518D01*
X96448482Y-59022961D01*
X96755907Y-59228376D01*
X97097499Y-59369868D01*
X97460132Y-59442000D01*
X97829868Y-59442000D01*
X98192501Y-59369868D01*
X98534093Y-59228376D01*
X98841518Y-59022961D01*
X99102961Y-58761518D01*
X99308376Y-58454093D01*
X99449868Y-58112501D01*
X99522000Y-57749868D01*
X99522000Y-57380132D01*
X99449868Y-57017499D01*
X99435061Y-56981752D01*
X99489364Y-56959259D01*
X99608436Y-56879698D01*
X99709698Y-56778436D01*
X99789259Y-56659364D01*
X99844062Y-56527058D01*
X99872000Y-56386603D01*
X99872000Y-56243397D01*
X99844062Y-56102942D01*
X99789259Y-55970636D01*
X99722901Y-55871324D01*
X99722901Y-54364893D01*
X99787481Y-54408044D01*
X100001682Y-54496769D01*
X100229076Y-54542000D01*
X100460924Y-54542000D01*
X100688318Y-54496769D01*
X100762802Y-54465917D01*
X100762875Y-54466054D01*
X100763000Y-54466286D01*
X100763001Y-54796230D01*
X100763000Y-54796239D01*
X100763001Y-60246238D01*
X100763000Y-60813150D01*
X100760987Y-61015613D01*
X100742091Y-61208324D01*
X100692103Y-61373892D01*
X100610909Y-61526596D01*
X100501601Y-61660622D01*
X100368336Y-61770868D01*
X100216203Y-61853126D01*
X100050987Y-61904269D01*
X99860159Y-61924326D01*
X99142713Y-61933000D01*
X95112424Y-61933001D01*
X95112424Y-61724910D01*
X95176636Y-61705431D01*
X95263845Y-61658817D01*
X95340284Y-61596084D01*
X95356002Y-61576932D01*
X95432531Y-61500403D01*
X95451683Y-61484685D01*
X95514416Y-61408246D01*
X95561030Y-61321037D01*
X95589735Y-61226410D01*
X95596999Y-61152654D01*
X95596999Y-61152644D01*
X95599426Y-61128001D01*
X95596999Y-61103358D01*
X95596999Y-59039641D01*
X95599426Y-59014998D01*
X95598444Y-59005028D01*
X95622000Y-58886603D01*
X95622000Y-58743397D01*
X95594062Y-58602942D01*
X95539259Y-58470636D01*
X95459698Y-58351564D01*
X95358436Y-58250302D01*
X95239364Y-58170741D01*
X95107058Y-58115938D01*
X94966603Y-58088000D01*
X94823397Y-58088000D01*
X94682942Y-58115938D01*
X94638000Y-58134554D01*
X94638000Y-57468224D01*
X94733600Y-57468224D01*
X94807505Y-57460945D01*
X94869959Y-57442000D01*
X95395000Y-57442000D01*
X95468549Y-57434756D01*
X95539272Y-57413303D01*
X95604450Y-57378464D01*
X95661579Y-57331579D01*
X95708464Y-57274450D01*
X95743303Y-57209272D01*
X95764756Y-57138549D01*
X95772000Y-57065000D01*
X95772000Y-53971158D01*
X95793715Y-53949443D01*
X95796697Y-53959272D01*
G37*
X95796697Y-53959272D02*
X95831536Y-54024450D01*
X95878421Y-54081579D01*
X95935550Y-54128464D01*
X96000728Y-54163303D01*
X96071451Y-54184756D01*
X96145000Y-54192000D01*
X96396013Y-54192000D01*
X96400917Y-54216656D01*
X96504718Y-54467254D01*
X96655414Y-54692787D01*
X96847213Y-54884586D01*
X97072746Y-55035282D01*
X97323344Y-55139083D01*
X97589377Y-55192000D01*
X97860623Y-55192000D01*
X98126656Y-55139083D01*
X98377254Y-55035282D01*
X98408206Y-55014601D01*
X98503165Y-54995712D01*
X98718902Y-54906352D01*
X98718902Y-55725354D01*
X98681564Y-55750302D01*
X98580302Y-55851564D01*
X98542915Y-55907518D01*
X98534093Y-55901624D01*
X98192501Y-55760132D01*
X97829868Y-55688000D01*
X97460132Y-55688000D01*
X97097499Y-55760132D01*
X96755907Y-55901624D01*
X96448482Y-56107039D01*
X96187039Y-56368482D01*
X95981624Y-56675907D01*
X95840132Y-57017499D01*
X95768000Y-57380132D01*
X95768000Y-57749868D01*
X95840132Y-58112501D01*
X95981624Y-58454093D01*
X96187039Y-58761518D01*
X96448482Y-59022961D01*
X96755907Y-59228376D01*
X97097499Y-59369868D01*
X97460132Y-59442000D01*
X97829868Y-59442000D01*
X98192501Y-59369868D01*
X98534093Y-59228376D01*
X98841518Y-59022961D01*
X99102961Y-58761518D01*
X99308376Y-58454093D01*
X99449868Y-58112501D01*
X99522000Y-57749868D01*
X99522000Y-57380132D01*
X99449868Y-57017499D01*
X99435061Y-56981752D01*
X99489364Y-56959259D01*
X99608436Y-56879698D01*
X99709698Y-56778436D01*
X99789259Y-56659364D01*
X99844062Y-56527058D01*
X99872000Y-56386603D01*
X99872000Y-56243397D01*
X99844062Y-56102942D01*
X99789259Y-55970636D01*
X99722901Y-55871324D01*
X99722901Y-54364893D01*
X99787481Y-54408044D01*
X100001682Y-54496769D01*
X100229076Y-54542000D01*
X100460924Y-54542000D01*
X100688318Y-54496769D01*
X100762802Y-54465917D01*
X100762875Y-54466054D01*
X100763000Y-54466286D01*
X100763001Y-54796230D01*
X100763000Y-54796239D01*
X100763001Y-60246238D01*
X100763000Y-60813150D01*
X100760987Y-61015613D01*
X100742091Y-61208324D01*
X100692103Y-61373892D01*
X100610909Y-61526596D01*
X100501601Y-61660622D01*
X100368336Y-61770868D01*
X100216203Y-61853126D01*
X100050987Y-61904269D01*
X99860159Y-61924326D01*
X99142713Y-61933000D01*
X95112424Y-61933001D01*
X95112424Y-61724910D01*
X95176636Y-61705431D01*
X95263845Y-61658817D01*
X95340284Y-61596084D01*
X95356002Y-61576932D01*
X95432531Y-61500403D01*
X95451683Y-61484685D01*
X95514416Y-61408246D01*
X95561030Y-61321037D01*
X95589735Y-61226410D01*
X95596999Y-61152654D01*
X95596999Y-61152644D01*
X95599426Y-61128001D01*
X95596999Y-61103358D01*
X95596999Y-59039641D01*
X95599426Y-59014998D01*
X95598444Y-59005028D01*
X95622000Y-58886603D01*
X95622000Y-58743397D01*
X95594062Y-58602942D01*
X95539259Y-58470636D01*
X95459698Y-58351564D01*
X95358436Y-58250302D01*
X95239364Y-58170741D01*
X95107058Y-58115938D01*
X94966603Y-58088000D01*
X94823397Y-58088000D01*
X94682942Y-58115938D01*
X94638000Y-58134554D01*
X94638000Y-57468224D01*
X94733600Y-57468224D01*
X94807505Y-57460945D01*
X94869959Y-57442000D01*
X95395000Y-57442000D01*
X95468549Y-57434756D01*
X95539272Y-57413303D01*
X95604450Y-57378464D01*
X95661579Y-57331579D01*
X95708464Y-57274450D01*
X95743303Y-57209272D01*
X95764756Y-57138549D01*
X95772000Y-57065000D01*
X95772000Y-53971158D01*
X95793715Y-53949443D01*
X95796697Y-53959272D01*
G36*
X85949069Y-56538605D02*
G01*
X85931564Y-56550302D01*
X85830302Y-56651564D01*
X85750741Y-56770636D01*
X85695938Y-56902942D01*
X85668000Y-57043397D01*
X85668000Y-57186603D01*
X85695938Y-57327058D01*
X85750741Y-57459364D01*
X85830302Y-57578436D01*
X85931564Y-57679698D01*
X86050636Y-57759259D01*
X86182942Y-57814062D01*
X86323397Y-57842000D01*
X86412066Y-57842000D01*
X87222603Y-58652538D01*
X87238316Y-58671684D01*
X87314755Y-58734417D01*
X87401964Y-58781031D01*
X87496591Y-58809736D01*
X87570347Y-58817000D01*
X87570356Y-58817000D01*
X87594999Y-58819427D01*
X87619642Y-58817000D01*
X88870357Y-58817000D01*
X88895000Y-58819427D01*
X88919643Y-58817000D01*
X88919653Y-58817000D01*
X88993409Y-58809736D01*
X89088036Y-58781031D01*
X89175245Y-58734417D01*
X89251684Y-58671684D01*
X89267402Y-58652532D01*
X89377934Y-58542000D01*
X89466603Y-58542000D01*
X89607058Y-58514062D01*
X89739364Y-58459259D01*
X89858436Y-58379698D01*
X89959698Y-58278436D01*
X90039259Y-58159364D01*
X90094062Y-58027058D01*
X90122000Y-57886603D01*
X90122000Y-57743397D01*
X90094062Y-57602942D01*
X90039259Y-57470636D01*
X89959698Y-57351564D01*
X89858436Y-57250302D01*
X89745256Y-57174678D01*
X90078535Y-56841400D01*
X90154776Y-56841400D01*
X90154776Y-57089400D01*
X90162055Y-57163305D01*
X90183612Y-57234370D01*
X90218619Y-57299863D01*
X90265731Y-57357269D01*
X90323137Y-57404381D01*
X90388630Y-57439388D01*
X90459695Y-57460945D01*
X90533600Y-57468224D01*
X90609000Y-57468224D01*
X90609001Y-60381012D01*
X90606934Y-60402000D01*
X90615178Y-60485707D01*
X90639595Y-60566196D01*
X90679245Y-60640376D01*
X90732605Y-60705395D01*
X90797624Y-60758755D01*
X90871804Y-60798405D01*
X90952293Y-60822822D01*
X91015022Y-60829000D01*
X91015023Y-60829000D01*
X91036000Y-60831066D01*
X91056978Y-60829000D01*
X91098493Y-60829000D01*
X91187039Y-60961518D01*
X91448482Y-61222961D01*
X91755907Y-61428376D01*
X92097499Y-61569868D01*
X92460132Y-61642000D01*
X92829868Y-61642000D01*
X93192501Y-61569868D01*
X93354776Y-61502652D01*
X93354776Y-61933001D01*
X93296280Y-61933001D01*
X93288036Y-61928763D01*
X93255821Y-61916006D01*
X93223828Y-61902818D01*
X93218722Y-61901315D01*
X93218716Y-61901313D01*
X93218711Y-61901312D01*
X93209331Y-61898622D01*
X93175251Y-61892366D01*
X93141282Y-61885642D01*
X93136004Y-61885162D01*
X93136002Y-61885162D01*
X93135969Y-61885159D01*
X93126246Y-61884343D01*
X93091609Y-61884829D01*
X93081920Y-61884829D01*
X93076209Y-61882463D01*
X92989304Y-61865177D01*
X92900696Y-61865177D01*
X92870000Y-61871283D01*
X92839304Y-61865177D01*
X92750696Y-61865177D01*
X92720000Y-61871283D01*
X92689304Y-61865177D01*
X92600696Y-61865177D01*
X92570000Y-61871283D01*
X92539304Y-61865177D01*
X92450696Y-61865177D01*
X92420000Y-61871283D01*
X92389304Y-61865177D01*
X92300696Y-61865177D01*
X92213791Y-61882463D01*
X92208342Y-61884720D01*
X92194640Y-61884815D01*
X92160031Y-61884573D01*
X92154753Y-61885091D01*
X92154744Y-61885091D01*
X92154736Y-61885093D01*
X92154722Y-61885094D01*
X92145018Y-61886113D01*
X92111069Y-61893082D01*
X92077080Y-61899566D01*
X92071973Y-61901108D01*
X92062651Y-61903995D01*
X92030771Y-61917397D01*
X91998656Y-61930371D01*
X91993946Y-61932876D01*
X91993927Y-61932886D01*
X91993923Y-61932888D01*
X91993920Y-61932890D01*
X91993717Y-61933000D01*
X91888761Y-61932999D01*
X91851238Y-61932999D01*
X88780000Y-61933000D01*
X88780000Y-60315000D01*
X88761040Y-60160990D01*
X88719158Y-60043766D01*
X88655210Y-59936965D01*
X88571656Y-59844692D01*
X88471705Y-59770492D01*
X86446813Y-58555557D01*
X86347176Y-58492081D01*
X86307554Y-58472002D01*
X85971705Y-58270492D01*
X85888004Y-58228336D01*
X85768882Y-58192201D01*
X85645000Y-58180000D01*
X84527000Y-58180000D01*
X84527000Y-56508379D01*
X84619682Y-56546769D01*
X84847076Y-56592000D01*
X85078924Y-56592000D01*
X85306318Y-56546769D01*
X85520519Y-56458044D01*
X85713294Y-56329236D01*
X85726497Y-56316033D01*
X85949069Y-56538605D01*
G37*
X85949069Y-56538605D02*
X85931564Y-56550302D01*
X85830302Y-56651564D01*
X85750741Y-56770636D01*
X85695938Y-56902942D01*
X85668000Y-57043397D01*
X85668000Y-57186603D01*
X85695938Y-57327058D01*
X85750741Y-57459364D01*
X85830302Y-57578436D01*
X85931564Y-57679698D01*
X86050636Y-57759259D01*
X86182942Y-57814062D01*
X86323397Y-57842000D01*
X86412066Y-57842000D01*
X87222603Y-58652538D01*
X87238316Y-58671684D01*
X87314755Y-58734417D01*
X87401964Y-58781031D01*
X87496591Y-58809736D01*
X87570347Y-58817000D01*
X87570356Y-58817000D01*
X87594999Y-58819427D01*
X87619642Y-58817000D01*
X88870357Y-58817000D01*
X88895000Y-58819427D01*
X88919643Y-58817000D01*
X88919653Y-58817000D01*
X88993409Y-58809736D01*
X89088036Y-58781031D01*
X89175245Y-58734417D01*
X89251684Y-58671684D01*
X89267402Y-58652532D01*
X89377934Y-58542000D01*
X89466603Y-58542000D01*
X89607058Y-58514062D01*
X89739364Y-58459259D01*
X89858436Y-58379698D01*
X89959698Y-58278436D01*
X90039259Y-58159364D01*
X90094062Y-58027058D01*
X90122000Y-57886603D01*
X90122000Y-57743397D01*
X90094062Y-57602942D01*
X90039259Y-57470636D01*
X89959698Y-57351564D01*
X89858436Y-57250302D01*
X89745256Y-57174678D01*
X90078535Y-56841400D01*
X90154776Y-56841400D01*
X90154776Y-57089400D01*
X90162055Y-57163305D01*
X90183612Y-57234370D01*
X90218619Y-57299863D01*
X90265731Y-57357269D01*
X90323137Y-57404381D01*
X90388630Y-57439388D01*
X90459695Y-57460945D01*
X90533600Y-57468224D01*
X90609000Y-57468224D01*
X90609001Y-60381012D01*
X90606934Y-60402000D01*
X90615178Y-60485707D01*
X90639595Y-60566196D01*
X90679245Y-60640376D01*
X90732605Y-60705395D01*
X90797624Y-60758755D01*
X90871804Y-60798405D01*
X90952293Y-60822822D01*
X91015022Y-60829000D01*
X91015023Y-60829000D01*
X91036000Y-60831066D01*
X91056978Y-60829000D01*
X91098493Y-60829000D01*
X91187039Y-60961518D01*
X91448482Y-61222961D01*
X91755907Y-61428376D01*
X92097499Y-61569868D01*
X92460132Y-61642000D01*
X92829868Y-61642000D01*
X93192501Y-61569868D01*
X93354776Y-61502652D01*
X93354776Y-61933001D01*
X93296280Y-61933001D01*
X93288036Y-61928763D01*
X93255821Y-61916006D01*
X93223828Y-61902818D01*
X93218722Y-61901315D01*
X93218716Y-61901313D01*
X93218711Y-61901312D01*
X93209331Y-61898622D01*
X93175251Y-61892366D01*
X93141282Y-61885642D01*
X93136004Y-61885162D01*
X93136002Y-61885162D01*
X93135969Y-61885159D01*
X93126246Y-61884343D01*
X93091609Y-61884829D01*
X93081920Y-61884829D01*
X93076209Y-61882463D01*
X92989304Y-61865177D01*
X92900696Y-61865177D01*
X92870000Y-61871283D01*
X92839304Y-61865177D01*
X92750696Y-61865177D01*
X92720000Y-61871283D01*
X92689304Y-61865177D01*
X92600696Y-61865177D01*
X92570000Y-61871283D01*
X92539304Y-61865177D01*
X92450696Y-61865177D01*
X92420000Y-61871283D01*
X92389304Y-61865177D01*
X92300696Y-61865177D01*
X92213791Y-61882463D01*
X92208342Y-61884720D01*
X92194640Y-61884815D01*
X92160031Y-61884573D01*
X92154753Y-61885091D01*
X92154744Y-61885091D01*
X92154736Y-61885093D01*
X92154722Y-61885094D01*
X92145018Y-61886113D01*
X92111069Y-61893082D01*
X92077080Y-61899566D01*
X92071973Y-61901108D01*
X92062651Y-61903995D01*
X92030771Y-61917397D01*
X91998656Y-61930371D01*
X91993946Y-61932876D01*
X91993927Y-61932886D01*
X91993923Y-61932888D01*
X91993920Y-61932890D01*
X91993717Y-61933000D01*
X91888761Y-61932999D01*
X91851238Y-61932999D01*
X88780000Y-61933000D01*
X88780000Y-60315000D01*
X88761040Y-60160990D01*
X88719158Y-60043766D01*
X88655210Y-59936965D01*
X88571656Y-59844692D01*
X88471705Y-59770492D01*
X86446813Y-58555557D01*
X86347176Y-58492081D01*
X86307554Y-58472002D01*
X85971705Y-58270492D01*
X85888004Y-58228336D01*
X85768882Y-58192201D01*
X85645000Y-58180000D01*
X84527000Y-58180000D01*
X84527000Y-56508379D01*
X84619682Y-56546769D01*
X84847076Y-56592000D01*
X85078924Y-56592000D01*
X85306318Y-56546769D01*
X85520519Y-56458044D01*
X85713294Y-56329236D01*
X85726497Y-56316033D01*
X85949069Y-56538605D01*
G36*
X88018000Y-60386907D02*
G01*
X88018000Y-61049000D01*
X87979901Y-61087099D01*
X87872104Y-61248428D01*
X87797853Y-61427686D01*
X87760000Y-61617986D01*
X87760000Y-61675000D01*
X86154352Y-61675001D01*
X85448108Y-61654412D01*
X85285727Y-61638490D01*
X85168594Y-61603126D01*
X85060563Y-61545685D01*
X84965743Y-61468352D01*
X84887749Y-61374074D01*
X84829556Y-61266448D01*
X84793373Y-61149560D01*
X84777753Y-61000943D01*
X84784689Y-60299595D01*
X84785000Y-60296434D01*
X84785000Y-60268111D01*
X84785279Y-60239896D01*
X84785000Y-60236744D01*
X84785000Y-58942000D01*
X85609822Y-58942000D01*
X88018000Y-60386907D01*
G37*
X88018000Y-60386907D02*
X88018000Y-61049000D01*
X87979901Y-61087099D01*
X87872104Y-61248428D01*
X87797853Y-61427686D01*
X87760000Y-61617986D01*
X87760000Y-61675000D01*
X86154352Y-61675001D01*
X85448108Y-61654412D01*
X85285727Y-61638490D01*
X85168594Y-61603126D01*
X85060563Y-61545685D01*
X84965743Y-61468352D01*
X84887749Y-61374074D01*
X84829556Y-61266448D01*
X84793373Y-61149560D01*
X84777753Y-61000943D01*
X84784689Y-60299595D01*
X84785000Y-60296434D01*
X84785000Y-60268111D01*
X84785279Y-60239896D01*
X84785000Y-60236744D01*
X84785000Y-58942000D01*
X85609822Y-58942000D01*
X88018000Y-60386907D01*
D19*
G36*
X90704210Y-50770572D02*
G01*
X90724795Y-50838432D01*
X90758223Y-50900973D01*
X90803210Y-50955790D01*
X90858027Y-51000777D01*
X90920568Y-51034205D01*
X90988428Y-51054790D01*
X91041324Y-51060000D01*
X91045000Y-51060362D01*
X91045000Y-52148167D01*
X90850706Y-52342461D01*
X90597905Y-52720805D01*
X90423772Y-53141198D01*
X90335000Y-53587485D01*
X90335000Y-53983578D01*
X89574289Y-54744289D01*
X89561853Y-54759443D01*
X89552612Y-54776732D01*
X89546921Y-54795491D01*
X89545000Y-54815000D01*
X89545000Y-56049818D01*
X88533120Y-57061698D01*
X85809600Y-54338178D01*
X85825193Y-54322584D01*
X85946669Y-54140782D01*
X86000370Y-54011135D01*
X86028713Y-54153622D01*
X86116224Y-54364892D01*
X86243270Y-54555031D01*
X86404969Y-54716730D01*
X86595108Y-54843776D01*
X86806378Y-54931287D01*
X86907937Y-54951488D01*
X86944482Y-54975907D01*
X87182887Y-55074658D01*
X87435976Y-55125000D01*
X87694024Y-55125000D01*
X87947113Y-55074658D01*
X88185518Y-54975907D01*
X88400077Y-54832544D01*
X88582544Y-54650077D01*
X88725907Y-54435518D01*
X88824658Y-54197113D01*
X88875000Y-53944024D01*
X88875000Y-53685976D01*
X88824658Y-53432887D01*
X88725907Y-53194482D01*
X88652144Y-53084088D01*
X88656731Y-53085000D01*
X89013269Y-53085000D01*
X89362958Y-53015443D01*
X89692357Y-52879001D01*
X89988808Y-52680919D01*
X90240919Y-52428808D01*
X90439001Y-52132357D01*
X90575443Y-51802958D01*
X90645000Y-51453269D01*
X90645000Y-51096731D01*
X90575443Y-50747042D01*
X90562171Y-50715000D01*
X90698736Y-50715000D01*
X90704210Y-50770572D01*
G37*
X90704210Y-50770572D02*
X90724795Y-50838432D01*
X90758223Y-50900973D01*
X90803210Y-50955790D01*
X90858027Y-51000777D01*
X90920568Y-51034205D01*
X90988428Y-51054790D01*
X91041324Y-51060000D01*
X91045000Y-51060362D01*
X91045000Y-52148167D01*
X90850706Y-52342461D01*
X90597905Y-52720805D01*
X90423772Y-53141198D01*
X90335000Y-53587485D01*
X90335000Y-53983578D01*
X89574289Y-54744289D01*
X89561853Y-54759443D01*
X89552612Y-54776732D01*
X89546921Y-54795491D01*
X89545000Y-54815000D01*
X89545000Y-56049818D01*
X88533120Y-57061698D01*
X85809600Y-54338178D01*
X85825193Y-54322584D01*
X85946669Y-54140782D01*
X86000370Y-54011135D01*
X86028713Y-54153622D01*
X86116224Y-54364892D01*
X86243270Y-54555031D01*
X86404969Y-54716730D01*
X86595108Y-54843776D01*
X86806378Y-54931287D01*
X86907937Y-54951488D01*
X86944482Y-54975907D01*
X87182887Y-55074658D01*
X87435976Y-55125000D01*
X87694024Y-55125000D01*
X87947113Y-55074658D01*
X88185518Y-54975907D01*
X88400077Y-54832544D01*
X88582544Y-54650077D01*
X88725907Y-54435518D01*
X88824658Y-54197113D01*
X88875000Y-53944024D01*
X88875000Y-53685976D01*
X88824658Y-53432887D01*
X88725907Y-53194482D01*
X88652144Y-53084088D01*
X88656731Y-53085000D01*
X89013269Y-53085000D01*
X89362958Y-53015443D01*
X89692357Y-52879001D01*
X89988808Y-52680919D01*
X90240919Y-52428808D01*
X90439001Y-52132357D01*
X90575443Y-51802958D01*
X90645000Y-51453269D01*
X90645000Y-51096731D01*
X90575443Y-50747042D01*
X90562171Y-50715000D01*
X90698736Y-50715000D01*
X90704210Y-50770572D01*
G36*
X90145000Y-50025273D02*
G01*
X89988808Y-49869081D01*
X89692357Y-49670999D01*
X89362958Y-49534557D01*
X89013269Y-49465000D01*
X88656731Y-49465000D01*
X88307042Y-49534557D01*
X87977643Y-49670999D01*
X87681192Y-49869081D01*
X87429081Y-50121192D01*
X87230999Y-50417643D01*
X87094557Y-50747042D01*
X87025000Y-51096731D01*
X87025000Y-51453269D01*
X87094557Y-51802958D01*
X87230999Y-52132357D01*
X87429081Y-52428808D01*
X87505273Y-52505000D01*
X87435976Y-52505000D01*
X87182887Y-52555342D01*
X86944482Y-52654093D01*
X86907937Y-52678512D01*
X86806378Y-52698713D01*
X86595108Y-52786224D01*
X86404969Y-52913270D01*
X86243270Y-53074969D01*
X86116224Y-53265108D01*
X86054695Y-53413651D01*
X86030343Y-53291225D01*
X85946669Y-53089218D01*
X85825193Y-52907416D01*
X85670584Y-52752807D01*
X85488782Y-52631331D01*
X85286775Y-52547657D01*
X85072325Y-52505000D01*
X84853675Y-52505000D01*
X84639225Y-52547657D01*
X84460000Y-52621894D01*
X84460000Y-48915000D01*
X90145000Y-48915000D01*
X90145000Y-50025273D01*
G37*
X90145000Y-50025273D02*
X89988808Y-49869081D01*
X89692357Y-49670999D01*
X89362958Y-49534557D01*
X89013269Y-49465000D01*
X88656731Y-49465000D01*
X88307042Y-49534557D01*
X87977643Y-49670999D01*
X87681192Y-49869081D01*
X87429081Y-50121192D01*
X87230999Y-50417643D01*
X87094557Y-50747042D01*
X87025000Y-51096731D01*
X87025000Y-51453269D01*
X87094557Y-51802958D01*
X87230999Y-52132357D01*
X87429081Y-52428808D01*
X87505273Y-52505000D01*
X87435976Y-52505000D01*
X87182887Y-52555342D01*
X86944482Y-52654093D01*
X86907937Y-52678512D01*
X86806378Y-52698713D01*
X86595108Y-52786224D01*
X86404969Y-52913270D01*
X86243270Y-53074969D01*
X86116224Y-53265108D01*
X86054695Y-53413651D01*
X86030343Y-53291225D01*
X85946669Y-53089218D01*
X85825193Y-52907416D01*
X85670584Y-52752807D01*
X85488782Y-52631331D01*
X85286775Y-52547657D01*
X85072325Y-52505000D01*
X84853675Y-52505000D01*
X84639225Y-52547657D01*
X84460000Y-52621894D01*
X84460000Y-48915000D01*
X90145000Y-48915000D01*
X90145000Y-50025273D01*
G36*
X99826614Y-45653473D02*
G01*
X100032604Y-45673670D01*
X100210744Y-45727454D01*
X100375053Y-45814819D01*
X100519261Y-45932431D01*
X100637877Y-46075813D01*
X100726388Y-46239511D01*
X100781415Y-46417275D01*
X100802511Y-46617986D01*
X100830000Y-47321149D01*
X100830000Y-47749528D01*
X100830001Y-50564439D01*
X100668775Y-50497657D01*
X100454325Y-50455000D01*
X100235675Y-50455000D01*
X100021225Y-50497657D01*
X99819218Y-50581331D01*
X99637416Y-50702807D01*
X99482807Y-50857416D01*
X99361331Y-51039218D01*
X99277657Y-51241225D01*
X99235000Y-51455675D01*
X99235000Y-51674325D01*
X99277657Y-51888775D01*
X99361331Y-52090782D01*
X99482807Y-52272584D01*
X99637416Y-52427193D01*
X99693998Y-52465000D01*
X99637416Y-52502807D01*
X99482807Y-52657416D01*
X99361331Y-52839218D01*
X99277657Y-53041225D01*
X99235000Y-53255675D01*
X99235000Y-53412916D01*
X99173776Y-53265108D01*
X99046730Y-53074969D01*
X98885031Y-52913270D01*
X98761149Y-52830495D01*
X98829884Y-52727627D01*
X98879636Y-52607515D01*
X98905000Y-52480004D01*
X98905000Y-52349996D01*
X98879636Y-52222485D01*
X98829884Y-52102373D01*
X98757655Y-51994275D01*
X98680000Y-51916620D01*
X98680000Y-51113380D01*
X98757655Y-51035725D01*
X98829884Y-50927627D01*
X98879636Y-50807515D01*
X98905000Y-50680004D01*
X98905000Y-50549996D01*
X98879636Y-50422485D01*
X98829884Y-50302373D01*
X98757655Y-50194275D01*
X98665725Y-50102345D01*
X98557627Y-50030116D01*
X98437515Y-49980364D01*
X98310004Y-49955000D01*
X98179996Y-49955000D01*
X98052485Y-49980364D01*
X97932373Y-50030116D01*
X97824275Y-50102345D01*
X97736402Y-50190218D01*
X97705000Y-50158815D01*
X97705000Y-48815000D01*
X97699043Y-48754522D01*
X97681403Y-48696368D01*
X97652756Y-48642773D01*
X97614203Y-48595797D01*
X97567227Y-48557244D01*
X97513632Y-48528597D01*
X97463000Y-48513239D01*
X97463000Y-47519354D01*
X97465103Y-47498000D01*
X97463000Y-47476646D01*
X97463000Y-47476638D01*
X97456705Y-47412725D01*
X97431831Y-47330728D01*
X97391439Y-47255158D01*
X97337079Y-47188921D01*
X97320487Y-47175304D01*
X96667700Y-46522518D01*
X96654079Y-46505921D01*
X96587842Y-46451561D01*
X96512272Y-46411169D01*
X96430275Y-46386295D01*
X96366362Y-46380000D01*
X96366354Y-46380000D01*
X96345000Y-46377897D01*
X96323646Y-46380000D01*
X93643380Y-46380000D01*
X93565725Y-46302345D01*
X93457627Y-46230116D01*
X93337515Y-46180364D01*
X93210004Y-46155000D01*
X93079996Y-46155000D01*
X92952485Y-46180364D01*
X92832373Y-46230116D01*
X92724275Y-46302345D01*
X92632345Y-46394275D01*
X92560116Y-46502373D01*
X92510364Y-46622485D01*
X92485000Y-46749996D01*
X92485000Y-46880004D01*
X92510364Y-47007515D01*
X92560116Y-47127627D01*
X92585088Y-47165000D01*
X91076676Y-47165000D01*
X91059000Y-47163259D01*
X91041324Y-47165000D01*
X90988428Y-47170210D01*
X90920568Y-47190795D01*
X90858027Y-47224223D01*
X90803210Y-47269210D01*
X90765631Y-47315000D01*
X90245000Y-47315000D01*
X90225491Y-47316921D01*
X90206732Y-47322612D01*
X90189443Y-47331853D01*
X90174289Y-47344289D01*
X90161853Y-47359443D01*
X90152612Y-47376732D01*
X90146921Y-47395491D01*
X90145000Y-47415000D01*
X90145000Y-48505000D01*
X84460000Y-48505000D01*
X84460000Y-46600409D01*
X84479670Y-46399795D01*
X84533454Y-46221655D01*
X84620819Y-46057346D01*
X84738431Y-45913138D01*
X84881813Y-45794522D01*
X85045511Y-45706011D01*
X85223275Y-45650984D01*
X85422941Y-45629998D01*
X86044438Y-45630001D01*
X85977657Y-45791225D01*
X85935000Y-46005675D01*
X85935000Y-46224325D01*
X85977657Y-46438775D01*
X86061331Y-46640782D01*
X86182807Y-46822584D01*
X86337416Y-46977193D01*
X86519218Y-47098669D01*
X86721225Y-47182343D01*
X86935675Y-47225000D01*
X87154325Y-47225000D01*
X87368775Y-47182343D01*
X87570782Y-47098669D01*
X87752584Y-46977193D01*
X87907193Y-46822584D01*
X88028669Y-46640782D01*
X88112343Y-46438775D01*
X88155000Y-46224325D01*
X88155000Y-46005675D01*
X88112343Y-45791225D01*
X88045562Y-45630000D01*
X92012267Y-45629999D01*
X92020016Y-45635148D01*
X92023914Y-45637186D01*
X92023937Y-45637198D01*
X92023945Y-45637203D01*
X92023954Y-45637207D01*
X92032593Y-45641647D01*
X92059192Y-45652181D01*
X92085539Y-45663041D01*
X92089758Y-45664284D01*
X92099138Y-45666974D01*
X92127309Y-45672145D01*
X92155253Y-45677677D01*
X92159599Y-45678073D01*
X92159605Y-45678074D01*
X92159610Y-45678074D01*
X92159633Y-45678076D01*
X92169357Y-45678892D01*
X92197920Y-45678491D01*
X92221336Y-45678491D01*
X92233240Y-45683422D01*
X92307263Y-45698146D01*
X92382737Y-45698146D01*
X92420000Y-45690734D01*
X92457263Y-45698146D01*
X92532737Y-45698146D01*
X92570000Y-45690734D01*
X92607263Y-45698146D01*
X92682737Y-45698146D01*
X92720000Y-45690734D01*
X92757263Y-45698146D01*
X92832737Y-45698146D01*
X92870000Y-45690734D01*
X92907263Y-45698146D01*
X92982737Y-45698146D01*
X93056760Y-45683422D01*
X93068181Y-45678691D01*
X93095401Y-45678503D01*
X93123897Y-45678702D01*
X93128253Y-45678276D01*
X93128258Y-45678276D01*
X93128274Y-45678274D01*
X93137979Y-45677254D01*
X93166018Y-45671498D01*
X93194002Y-45666159D01*
X93198197Y-45664893D01*
X93198201Y-45664892D01*
X93198213Y-45664888D01*
X93207535Y-45662002D01*
X93233892Y-45650922D01*
X93260305Y-45640251D01*
X93264189Y-45638187D01*
X93264206Y-45638178D01*
X93264210Y-45638176D01*
X93272773Y-45633546D01*
X93278031Y-45630000D01*
X99139617Y-45629998D01*
X99826614Y-45653473D01*
G37*
X99826614Y-45653473D02*
X100032604Y-45673670D01*
X100210744Y-45727454D01*
X100375053Y-45814819D01*
X100519261Y-45932431D01*
X100637877Y-46075813D01*
X100726388Y-46239511D01*
X100781415Y-46417275D01*
X100802511Y-46617986D01*
X100830000Y-47321149D01*
X100830000Y-47749528D01*
X100830001Y-50564439D01*
X100668775Y-50497657D01*
X100454325Y-50455000D01*
X100235675Y-50455000D01*
X100021225Y-50497657D01*
X99819218Y-50581331D01*
X99637416Y-50702807D01*
X99482807Y-50857416D01*
X99361331Y-51039218D01*
X99277657Y-51241225D01*
X99235000Y-51455675D01*
X99235000Y-51674325D01*
X99277657Y-51888775D01*
X99361331Y-52090782D01*
X99482807Y-52272584D01*
X99637416Y-52427193D01*
X99693998Y-52465000D01*
X99637416Y-52502807D01*
X99482807Y-52657416D01*
X99361331Y-52839218D01*
X99277657Y-53041225D01*
X99235000Y-53255675D01*
X99235000Y-53412916D01*
X99173776Y-53265108D01*
X99046730Y-53074969D01*
X98885031Y-52913270D01*
X98761149Y-52830495D01*
X98829884Y-52727627D01*
X98879636Y-52607515D01*
X98905000Y-52480004D01*
X98905000Y-52349996D01*
X98879636Y-52222485D01*
X98829884Y-52102373D01*
X98757655Y-51994275D01*
X98680000Y-51916620D01*
X98680000Y-51113380D01*
X98757655Y-51035725D01*
X98829884Y-50927627D01*
X98879636Y-50807515D01*
X98905000Y-50680004D01*
X98905000Y-50549996D01*
X98879636Y-50422485D01*
X98829884Y-50302373D01*
X98757655Y-50194275D01*
X98665725Y-50102345D01*
X98557627Y-50030116D01*
X98437515Y-49980364D01*
X98310004Y-49955000D01*
X98179996Y-49955000D01*
X98052485Y-49980364D01*
X97932373Y-50030116D01*
X97824275Y-50102345D01*
X97736402Y-50190218D01*
X97705000Y-50158815D01*
X97705000Y-48815000D01*
X97699043Y-48754522D01*
X97681403Y-48696368D01*
X97652756Y-48642773D01*
X97614203Y-48595797D01*
X97567227Y-48557244D01*
X97513632Y-48528597D01*
X97463000Y-48513239D01*
X97463000Y-47519354D01*
X97465103Y-47498000D01*
X97463000Y-47476646D01*
X97463000Y-47476638D01*
X97456705Y-47412725D01*
X97431831Y-47330728D01*
X97391439Y-47255158D01*
X97337079Y-47188921D01*
X97320487Y-47175304D01*
X96667700Y-46522518D01*
X96654079Y-46505921D01*
X96587842Y-46451561D01*
X96512272Y-46411169D01*
X96430275Y-46386295D01*
X96366362Y-46380000D01*
X96366354Y-46380000D01*
X96345000Y-46377897D01*
X96323646Y-46380000D01*
X93643380Y-46380000D01*
X93565725Y-46302345D01*
X93457627Y-46230116D01*
X93337515Y-46180364D01*
X93210004Y-46155000D01*
X93079996Y-46155000D01*
X92952485Y-46180364D01*
X92832373Y-46230116D01*
X92724275Y-46302345D01*
X92632345Y-46394275D01*
X92560116Y-46502373D01*
X92510364Y-46622485D01*
X92485000Y-46749996D01*
X92485000Y-46880004D01*
X92510364Y-47007515D01*
X92560116Y-47127627D01*
X92585088Y-47165000D01*
X91076676Y-47165000D01*
X91059000Y-47163259D01*
X91041324Y-47165000D01*
X90988428Y-47170210D01*
X90920568Y-47190795D01*
X90858027Y-47224223D01*
X90803210Y-47269210D01*
X90765631Y-47315000D01*
X90245000Y-47315000D01*
X90225491Y-47316921D01*
X90206732Y-47322612D01*
X90189443Y-47331853D01*
X90174289Y-47344289D01*
X90161853Y-47359443D01*
X90152612Y-47376732D01*
X90146921Y-47395491D01*
X90145000Y-47415000D01*
X90145000Y-48505000D01*
X84460000Y-48505000D01*
X84460000Y-46600409D01*
X84479670Y-46399795D01*
X84533454Y-46221655D01*
X84620819Y-46057346D01*
X84738431Y-45913138D01*
X84881813Y-45794522D01*
X85045511Y-45706011D01*
X85223275Y-45650984D01*
X85422941Y-45629998D01*
X86044438Y-45630001D01*
X85977657Y-45791225D01*
X85935000Y-46005675D01*
X85935000Y-46224325D01*
X85977657Y-46438775D01*
X86061331Y-46640782D01*
X86182807Y-46822584D01*
X86337416Y-46977193D01*
X86519218Y-47098669D01*
X86721225Y-47182343D01*
X86935675Y-47225000D01*
X87154325Y-47225000D01*
X87368775Y-47182343D01*
X87570782Y-47098669D01*
X87752584Y-46977193D01*
X87907193Y-46822584D01*
X88028669Y-46640782D01*
X88112343Y-46438775D01*
X88155000Y-46224325D01*
X88155000Y-46005675D01*
X88112343Y-45791225D01*
X88045562Y-45630000D01*
X92012267Y-45629999D01*
X92020016Y-45635148D01*
X92023914Y-45637186D01*
X92023937Y-45637198D01*
X92023945Y-45637203D01*
X92023954Y-45637207D01*
X92032593Y-45641647D01*
X92059192Y-45652181D01*
X92085539Y-45663041D01*
X92089758Y-45664284D01*
X92099138Y-45666974D01*
X92127309Y-45672145D01*
X92155253Y-45677677D01*
X92159599Y-45678073D01*
X92159605Y-45678074D01*
X92159610Y-45678074D01*
X92159633Y-45678076D01*
X92169357Y-45678892D01*
X92197920Y-45678491D01*
X92221336Y-45678491D01*
X92233240Y-45683422D01*
X92307263Y-45698146D01*
X92382737Y-45698146D01*
X92420000Y-45690734D01*
X92457263Y-45698146D01*
X92532737Y-45698146D01*
X92570000Y-45690734D01*
X92607263Y-45698146D01*
X92682737Y-45698146D01*
X92720000Y-45690734D01*
X92757263Y-45698146D01*
X92832737Y-45698146D01*
X92870000Y-45690734D01*
X92907263Y-45698146D01*
X92982737Y-45698146D01*
X93056760Y-45683422D01*
X93068181Y-45678691D01*
X93095401Y-45678503D01*
X93123897Y-45678702D01*
X93128253Y-45678276D01*
X93128258Y-45678276D01*
X93128274Y-45678274D01*
X93137979Y-45677254D01*
X93166018Y-45671498D01*
X93194002Y-45666159D01*
X93198197Y-45664893D01*
X93198201Y-45664892D01*
X93198213Y-45664888D01*
X93207535Y-45662002D01*
X93233892Y-45650922D01*
X93260305Y-45640251D01*
X93264189Y-45638187D01*
X93264206Y-45638178D01*
X93264210Y-45638176D01*
X93272773Y-45633546D01*
X93278031Y-45630000D01*
X99139617Y-45629998D01*
X99826614Y-45653473D01*
G36*
X96593000Y-50075644D02*
G01*
X96590897Y-50096998D01*
X96593000Y-50118352D01*
X96593000Y-50118359D01*
X96599295Y-50182272D01*
X96624169Y-50264269D01*
X96664561Y-50339839D01*
X96718921Y-50406077D01*
X96735518Y-50419698D01*
X97210001Y-50894182D01*
X97210000Y-51858578D01*
X95324289Y-53744289D01*
X95311853Y-53759443D01*
X95302612Y-53776732D01*
X95296921Y-53795491D01*
X95295000Y-53815000D01*
X95295000Y-56965000D01*
X94459223Y-56965000D01*
X94411973Y-56926223D01*
X94349432Y-56892795D01*
X94281572Y-56872210D01*
X94228676Y-56867000D01*
X94211000Y-56865259D01*
X94193324Y-56867000D01*
X92245000Y-56867000D01*
X92245000Y-56090691D01*
X92417485Y-56125000D01*
X92872515Y-56125000D01*
X93318802Y-56036228D01*
X93739195Y-55862095D01*
X94117539Y-55609294D01*
X94439294Y-55287539D01*
X94692095Y-54909195D01*
X94866228Y-54488802D01*
X94955000Y-54042515D01*
X94955000Y-53587485D01*
X94866228Y-53141198D01*
X94692095Y-52720805D01*
X94439294Y-52342461D01*
X94117539Y-52020706D01*
X93739195Y-51767905D01*
X93318802Y-51593772D01*
X92872515Y-51505000D01*
X92417485Y-51505000D01*
X92245000Y-51539309D01*
X92245000Y-51060000D01*
X94216324Y-51060000D01*
X94234000Y-51061741D01*
X94251676Y-51060000D01*
X94304572Y-51054790D01*
X94372432Y-51034205D01*
X94434973Y-51000777D01*
X94489790Y-50955790D01*
X94534777Y-50900973D01*
X94568205Y-50838432D01*
X94588790Y-50770572D01*
X94595741Y-50700000D01*
X94594000Y-50682324D01*
X94594000Y-50449330D01*
X94657042Y-50475443D01*
X95006731Y-50545000D01*
X95363269Y-50545000D01*
X95712958Y-50475443D01*
X96042357Y-50339001D01*
X96338808Y-50140919D01*
X96590919Y-49888808D01*
X96593000Y-49885693D01*
X96593000Y-50075644D01*
G37*
X96593000Y-50075644D02*
X96590897Y-50096998D01*
X96593000Y-50118352D01*
X96593000Y-50118359D01*
X96599295Y-50182272D01*
X96624169Y-50264269D01*
X96664561Y-50339839D01*
X96718921Y-50406077D01*
X96735518Y-50419698D01*
X97210001Y-50894182D01*
X97210000Y-51858578D01*
X95324289Y-53744289D01*
X95311853Y-53759443D01*
X95302612Y-53776732D01*
X95296921Y-53795491D01*
X95295000Y-53815000D01*
X95295000Y-56965000D01*
X94459223Y-56965000D01*
X94411973Y-56926223D01*
X94349432Y-56892795D01*
X94281572Y-56872210D01*
X94228676Y-56867000D01*
X94211000Y-56865259D01*
X94193324Y-56867000D01*
X92245000Y-56867000D01*
X92245000Y-56090691D01*
X92417485Y-56125000D01*
X92872515Y-56125000D01*
X93318802Y-56036228D01*
X93739195Y-55862095D01*
X94117539Y-55609294D01*
X94439294Y-55287539D01*
X94692095Y-54909195D01*
X94866228Y-54488802D01*
X94955000Y-54042515D01*
X94955000Y-53587485D01*
X94866228Y-53141198D01*
X94692095Y-52720805D01*
X94439294Y-52342461D01*
X94117539Y-52020706D01*
X93739195Y-51767905D01*
X93318802Y-51593772D01*
X92872515Y-51505000D01*
X92417485Y-51505000D01*
X92245000Y-51539309D01*
X92245000Y-51060000D01*
X94216324Y-51060000D01*
X94234000Y-51061741D01*
X94251676Y-51060000D01*
X94304572Y-51054790D01*
X94372432Y-51034205D01*
X94434973Y-51000777D01*
X94489790Y-50955790D01*
X94534777Y-50900973D01*
X94568205Y-50838432D01*
X94588790Y-50770572D01*
X94595741Y-50700000D01*
X94594000Y-50682324D01*
X94594000Y-50449330D01*
X94657042Y-50475443D01*
X95006731Y-50545000D01*
X95363269Y-50545000D01*
X95712958Y-50475443D01*
X96042357Y-50339001D01*
X96338808Y-50140919D01*
X96590919Y-49888808D01*
X96593000Y-49885693D01*
X96593000Y-50075644D01*
M02*
