  0
SECTION
  2
HEADER
  9
$ANGBASE
  50
0.0
  9
$ANGDIR
  70
1
  9
$MEASUREMENT
  70
0
  0
ENDSEC
  0
SECTION
  2
TABLES
  0
TABLE
  2
LTYPE
  70
4
  0
LTYPE
  5
40F
  2
CONTINUOUS
  70
0
  3
Solid line
  72
65
  73
0
  40
0.0
  0
LTYPE
  5
410
  2
DASHDOT
 70
0
  3
Dash Dot ____ _ ____ _
 72
65
 73
4
 40
2.0
 49
1.25
 49
-0.25
 49
0.25
 49
-0.25
  0
LTYPE
  5
411
  2
DASHED
 70
0
  3
Dashed __ __ __ __ __
 72
65
 73
2
 40
0.75
 49
0.5
 49
-0.25
  0
LTYPE
  5
43B
  2
DOTTED
 70
0
  3
Dotted .  .  .  .
 72
65
 73
2
 40
0.2
 49
0.0
 49
-0.2
  0
ENDTAB
  0
TABLE
  2
STYLE
  70
4
  0
STYLE
  2
KICAD
  70
0
  40
0
  41
1
  42
1
  50
0
  71
0
  3
isocp.shx
  0
STYLE
  2
KICADB
  70
0
  40
0
  41
1
  42
1
  50
0
  71
0
  3
isocp.shx
  0
STYLE
  2
KICADI
  70
0
  40
0
  41
1
  42
1
  50
15
  71
0
  3
isocp.shx
  0
STYLE
  2
KICADBI
  70
0
  40
0
  41
1
  42
1
  50
15
  71
0
  3
isocp.shx
  0
ENDTAB
  0
TABLE
  2
LAYER
  70
1
  0
LAYER
  2
BLACK
  70
0
  62
7
  6
CONTINUOUS
  0
ENDTAB
  0
ENDSEC
  0
SECTION
  2
ENTITIES
0
LINE
8
BLACK
6
CONTINUOUS
10
3.83494
20
-2.3799
11
3.84139
21
-2.38258
0
LINE
8
BLACK
6
CONTINUOUS
10
3.84139
20
-2.38258
11
3.84719
21
-2.38645
0
LINE
8
BLACK
6
CONTINUOUS
10
3.84719
20
-2.38645
11
3.85213
21
-2.39139
0
LINE
8
BLACK
6
CONTINUOUS
10
3.85213
20
-2.39139
11
3.85601
21
-2.39719
0
LINE
8
BLACK
6
CONTINUOUS
10
3.85601
20
-2.39719
11
3.85868
21
-2.40364
0
LINE
8
BLACK
6
CONTINUOUS
10
3.85868
20
-2.40364
11
3.86004
21
-2.41049
0
LINE
8
BLACK
6
CONTINUOUS
10
3.86004
20
-2.41049
11
3.86004
21
-2.41747
0
LINE
8
BLACK
6
CONTINUOUS
10
3.86004
20
-2.41747
11
3.85868
21
-2.42431
0
LINE
8
BLACK
6
CONTINUOUS
10
3.85868
20
-2.42431
11
3.85601
21
-2.43076
0
LINE
8
BLACK
6
CONTINUOUS
10
3.85601
20
-2.43076
11
3.85213
21
-2.43656
0
LINE
8
BLACK
6
CONTINUOUS
10
3.85213
20
-2.43656
11
3.84719
21
-2.4415
0
LINE
8
BLACK
6
CONTINUOUS
10
3.84719
20
-2.4415
11
3.84139
21
-2.44538
0
LINE
8
BLACK
6
CONTINUOUS
10
3.84139
20
-2.44538
11
3.83494
21
-2.44805
0
LINE
8
BLACK
6
CONTINUOUS
10
3.83494
20
-2.44805
11
3.8281
21
-2.44941
0
LINE
8
BLACK
6
CONTINUOUS
10
3.8281
20
-2.44941
11
3.82112
21
-2.44941
0
LINE
8
BLACK
6
CONTINUOUS
10
3.82112
20
-2.44941
11
3.81427
21
-2.44805
0
LINE
8
BLACK
6
CONTINUOUS
10
3.81427
20
-2.44805
11
3.80782
21
-2.44538
0
LINE
8
BLACK
6
CONTINUOUS
10
3.80782
20
-2.44538
11
3.80202
21
-2.4415
0
LINE
8
BLACK
6
CONTINUOUS
10
3.80202
20
-2.4415
11
3.79708
21
-2.43656
0
LINE
8
BLACK
6
CONTINUOUS
10
3.79708
20
-2.43656
11
3.79321
21
-2.43076
0
LINE
8
BLACK
6
CONTINUOUS
10
3.79321
20
-2.43076
11
3.79053
21
-2.42431
0
LINE
8
BLACK
6
CONTINUOUS
10
3.79053
20
-2.42431
11
3.78917
21
-2.41747
0
LINE
8
BLACK
6
CONTINUOUS
10
3.78917
20
-2.41747
11
3.78917
21
-2.41049
0
LINE
8
BLACK
6
CONTINUOUS
10
3.78917
20
-2.41049
11
3.79053
21
-2.40364
0
LINE
8
BLACK
6
CONTINUOUS
10
3.79053
20
-2.40364
11
3.79321
21
-2.39719
0
LINE
8
BLACK
6
CONTINUOUS
10
3.79321
20
-2.39719
11
3.79708
21
-2.39139
0
LINE
8
BLACK
6
CONTINUOUS
10
3.79708
20
-2.39139
11
3.80202
21
-2.38645
0
LINE
8
BLACK
6
CONTINUOUS
10
3.80202
20
-2.38645
11
3.80782
21
-2.38258
0
LINE
8
BLACK
6
CONTINUOUS
10
3.80782
20
-2.38258
11
3.81427
21
-2.3799
0
LINE
8
BLACK
6
CONTINUOUS
10
3.81427
20
-2.3799
11
3.82112
21
-2.37854
0
LINE
8
BLACK
6
CONTINUOUS
10
3.82112
20
-2.37854
11
3.8281
21
-2.37854
0
LINE
8
BLACK
6
CONTINUOUS
10
3.8281
20
-2.37854
11
3.83494
21
-2.3799
0
LINE
8
BLACK
6
CONTINUOUS
10
3.44518
20
-2.3799
11
3.45163
21
-2.38258
0
LINE
8
BLACK
6
CONTINUOUS
10
3.45163
20
-2.38258
11
3.45743
21
-2.38645
0
LINE
8
BLACK
6
CONTINUOUS
10
3.45743
20
-2.38645
11
3.46237
21
-2.39139
0
LINE
8
BLACK
6
CONTINUOUS
10
3.46237
20
-2.39139
11
3.46624
21
-2.39719
0
LINE
8
BLACK
6
CONTINUOUS
10
3.46624
20
-2.39719
11
3.46891
21
-2.40364
0
LINE
8
BLACK
6
CONTINUOUS
10
3.46891
20
-2.40364
11
3.47028
21
-2.41049
0
LINE
8
BLACK
6
CONTINUOUS
10
3.47028
20
-2.41049
11
3.47028
21
-2.41747
0
LINE
8
BLACK
6
CONTINUOUS
10
3.47028
20
-2.41747
11
3.46891
21
-2.42431
0
LINE
8
BLACK
6
CONTINUOUS
10
3.46891
20
-2.42431
11
3.46624
21
-2.43076
0
LINE
8
BLACK
6
CONTINUOUS
10
3.46624
20
-2.43076
11
3.46237
21
-2.43656
0
LINE
8
BLACK
6
CONTINUOUS
10
3.46237
20
-2.43656
11
3.45743
21
-2.4415
0
LINE
8
BLACK
6
CONTINUOUS
10
3.45743
20
-2.4415
11
3.45163
21
-2.44538
0
LINE
8
BLACK
6
CONTINUOUS
10
3.45163
20
-2.44538
11
3.44518
21
-2.44805
0
LINE
8
BLACK
6
CONTINUOUS
10
3.44518
20
-2.44805
11
3.43833
21
-2.44941
0
LINE
8
BLACK
6
CONTINUOUS
10
3.43833
20
-2.44941
11
3.43135
21
-2.44941
0
LINE
8
BLACK
6
CONTINUOUS
10
3.43135
20
-2.44941
11
3.42451
21
-2.44805
0
LINE
8
BLACK
6
CONTINUOUS
10
3.42451
20
-2.44805
11
3.41806
21
-2.44538
0
LINE
8
BLACK
6
CONTINUOUS
10
3.41806
20
-2.44538
11
3.41226
21
-2.4415
0
LINE
8
BLACK
6
CONTINUOUS
10
3.41226
20
-2.4415
11
3.40732
21
-2.43656
0
LINE
8
BLACK
6
CONTINUOUS
10
3.40732
20
-2.43656
11
3.40344
21
-2.43076
0
LINE
8
BLACK
6
CONTINUOUS
10
3.40344
20
-2.43076
11
3.40077
21
-2.42431
0
LINE
8
BLACK
6
CONTINUOUS
10
3.40077
20
-2.42431
11
3.39941
21
-2.41747
0
LINE
8
BLACK
6
CONTINUOUS
10
3.39941
20
-2.41747
11
3.39941
21
-2.41049
0
LINE
8
BLACK
6
CONTINUOUS
10
3.39941
20
-2.41049
11
3.40077
21
-2.40364
0
LINE
8
BLACK
6
CONTINUOUS
10
3.40077
20
-2.40364
11
3.40344
21
-2.39719
0
LINE
8
BLACK
6
CONTINUOUS
10
3.40344
20
-2.39719
11
3.40732
21
-2.39139
0
LINE
8
BLACK
6
CONTINUOUS
10
3.40732
20
-2.39139
11
3.41226
21
-2.38645
0
LINE
8
BLACK
6
CONTINUOUS
10
3.41226
20
-2.38645
11
3.41806
21
-2.38258
0
LINE
8
BLACK
6
CONTINUOUS
10
3.41806
20
-2.38258
11
3.42451
21
-2.3799
0
LINE
8
BLACK
6
CONTINUOUS
10
3.42451
20
-2.3799
11
3.43135
21
-2.37854
0
LINE
8
BLACK
6
CONTINUOUS
10
3.43135
20
-2.37854
11
3.43833
21
-2.37854
0
LINE
8
BLACK
6
CONTINUOUS
10
3.43833
20
-2.37854
11
3.44518
21
-2.3799
0
LINE
8
BLACK
6
CONTINUOUS
10
3.76591
20
-2.04157
11
3.76788
21
-2.04396
0
LINE
8
BLACK
6
CONTINUOUS
10
3.76788
20
-2.04396
11
3.76934
21
-2.0467
0
LINE
8
BLACK
6
CONTINUOUS
10
3.76934
20
-2.0467
11
3.77024
21
-2.04967
0
LINE
8
BLACK
6
CONTINUOUS
10
3.77024
20
-2.04967
11
3.77047
21
-2.05198
0
LINE
8
BLACK
6
CONTINUOUS
10
3.77047
20
-2.05198
11
3.77047
21
-2.05198
0
LINE
8
BLACK
6
CONTINUOUS
10
3.77047
20
-2.05198
11
3.77055
21
-2.05276
0
LINE
8
BLACK
6
CONTINUOUS
10
3.77055
20
-2.05276
11
3.77047
21
-2.05353
0
LINE
8
BLACK
6
CONTINUOUS
10
3.77047
20
-2.05353
11
3.77047
21
-2.19962
0
LINE
8
BLACK
6
CONTINUOUS
10
3.77047
20
-2.19962
11
3.77055
21
-2.20039
0
LINE
8
BLACK
6
CONTINUOUS
10
3.77055
20
-2.20039
11
3.77047
21
-2.20117
0
LINE
8
BLACK
6
CONTINUOUS
10
3.77047
20
-2.20117
11
3.77047
21
-2.20117
0
LINE
8
BLACK
6
CONTINUOUS
10
3.77047
20
-2.20117
11
3.77024
21
-2.20348
0
LINE
8
BLACK
6
CONTINUOUS
10
3.77024
20
-2.20348
11
3.76934
21
-2.20645
0
LINE
8
BLACK
6
CONTINUOUS
10
3.76934
20
-2.20645
11
3.76788
21
-2.20919
0
LINE
8
BLACK
6
CONTINUOUS
10
3.76788
20
-2.20919
11
3.76591
21
-2.21158
0
LINE
8
BLACK
6
CONTINUOUS
10
3.76591
20
-2.21158
11
3.76531
21
-2.21208
0
LINE
8
BLACK
6
CONTINUOUS
10
3.76531
20
-2.21208
11
3.55337
21
-2.42402
0
LINE
8
BLACK
6
CONTINUOUS
10
3.55337
20
-2.42402
11
3.55118
21
-2.42621
0
LINE
8
BLACK
6
CONTINUOUS
10
3.55118
20
-2.42621
11
3.55053
21
-2.42664
0
LINE
8
BLACK
6
CONTINUOUS
10
3.55053
20
-2.42664
11
3.54993
21
-2.42713
0
LINE
8
BLACK
6
CONTINUOUS
10
3.54993
20
-2.42713
11
3.54925
21
-2.4275
0
LINE
8
BLACK
6
CONTINUOUS
10
3.54925
20
-2.4275
11
3.5486
21
-2.42793
0
LINE
8
BLACK
6
CONTINUOUS
10
3.5486
20
-2.42793
11
3.54788
21
-2.42823
0
LINE
8
BLACK
6
CONTINUOUS
10
3.54788
20
-2.42823
11
3.5472
21
-2.4286
0
LINE
8
BLACK
6
CONTINUOUS
10
3.5472
20
-2.4286
11
3.54645
21
-2.42882
0
LINE
8
BLACK
6
CONTINUOUS
10
3.54645
20
-2.42882
11
3.54574
21
-2.42912
0
LINE
8
BLACK
6
CONTINUOUS
10
3.54574
20
-2.42912
11
3.54497
21
-2.42927
0
LINE
8
BLACK
6
CONTINUOUS
10
3.54497
20
-2.42927
11
3.54423
21
-2.4295
0
LINE
8
BLACK
6
CONTINUOUS
10
3.54423
20
-2.4295
11
3.54346
21
-2.42957
0
LINE
8
BLACK
6
CONTINUOUS
10
3.54346
20
-2.42957
11
3.54269
21
-2.42972
0
LINE
8
BLACK
6
CONTINUOUS
10
3.54269
20
-2.42972
11
3.54192
21
-2.42972
0
LINE
8
BLACK
6
CONTINUOUS
10
3.54192
20
-2.42972
11
3.54114
21
-2.4298
0
LINE
8
BLACK
6
CONTINUOUS
10
3.54114
20
-2.4298
11
3.54037
21
-2.42972
0
LINE
8
BLACK
6
CONTINUOUS
10
3.54037
20
-2.42972
11
3.53959
21
-2.42972
0
LINE
8
BLACK
6
CONTINUOUS
10
3.53959
20
-2.42972
11
3.53883
21
-2.42957
0
LINE
8
BLACK
6
CONTINUOUS
10
3.53883
20
-2.42957
11
3.53805
21
-2.4295
0
LINE
8
BLACK
6
CONTINUOUS
10
3.53805
20
-2.4295
11
3.53731
21
-2.42927
0
LINE
8
BLACK
6
CONTINUOUS
10
3.53731
20
-2.42927
11
3.53655
21
-2.42912
0
LINE
8
BLACK
6
CONTINUOUS
10
3.53655
20
-2.42912
11
3.53583
21
-2.42882
0
LINE
8
BLACK
6
CONTINUOUS
10
3.53583
20
-2.42882
11
3.53509
21
-2.4286
0
LINE
8
BLACK
6
CONTINUOUS
10
3.53509
20
-2.4286
11
3.5344
21
-2.42823
0
LINE
8
BLACK
6
CONTINUOUS
10
3.5344
20
-2.42823
11
3.53368
21
-2.42793
0
LINE
8
BLACK
6
CONTINUOUS
10
3.53368
20
-2.42793
11
3.53304
21
-2.4275
0
LINE
8
BLACK
6
CONTINUOUS
10
3.53304
20
-2.4275
11
3.53235
21
-2.42713
0
LINE
8
BLACK
6
CONTINUOUS
10
3.53235
20
-2.42713
11
3.53175
21
-2.42664
0
LINE
8
BLACK
6
CONTINUOUS
10
3.53175
20
-2.42664
11
3.5311
21
-2.42621
0
LINE
8
BLACK
6
CONTINUOUS
10
3.5311
20
-2.42621
11
3.53055
21
-2.42566
0
LINE
8
BLACK
6
CONTINUOUS
10
3.53055
20
-2.42566
11
3.52995
21
-2.42517
0
LINE
8
BLACK
6
CONTINUOUS
10
3.52995
20
-2.42517
11
3.52946
21
-2.42457
0
LINE
8
BLACK
6
CONTINUOUS
10
3.52946
20
-2.42457
11
3.52891
21
-2.42402
0
LINE
8
BLACK
6
CONTINUOUS
10
3.52891
20
-2.42402
11
3.52848
21
-2.42337
0
LINE
8
BLACK
6
CONTINUOUS
10
3.52848
20
-2.42337
11
3.52798
21
-2.42277
0
LINE
8
BLACK
6
CONTINUOUS
10
3.52798
20
-2.42277
11
3.52762
21
-2.42208
0
LINE
8
BLACK
6
CONTINUOUS
10
3.52762
20
-2.42208
11
3.52719
21
-2.42144
0
LINE
8
BLACK
6
CONTINUOUS
10
3.52719
20
-2.42144
11
3.52689
21
-2.42072
0
LINE
8
BLACK
6
CONTINUOUS
10
3.52689
20
-2.42072
11
3.52652
21
-2.42003
0
LINE
8
BLACK
6
CONTINUOUS
10
3.52652
20
-2.42003
11
3.5263
21
-2.41929
0
LINE
8
BLACK
6
CONTINUOUS
10
3.5263
20
-2.41929
11
3.526
21
-2.41857
0
LINE
8
BLACK
6
CONTINUOUS
10
3.526
20
-2.41857
11
3.52585
21
-2.41781
0
LINE
8
BLACK
6
CONTINUOUS
10
3.52585
20
-2.41781
11
3.52562
21
-2.41706
0
LINE
8
BLACK
6
CONTINUOUS
10
3.52562
20
-2.41706
11
3.52555
21
-2.41629
0
LINE
8
BLACK
6
CONTINUOUS
10
3.52555
20
-2.41629
11
3.52539
21
-2.41553
0
LINE
8
BLACK
6
CONTINUOUS
10
3.52539
20
-2.41553
11
3.52539
21
-2.41475
0
LINE
8
BLACK
6
CONTINUOUS
10
3.52539
20
-2.41475
11
3.52532
21
-2.41398
0
LINE
8
BLACK
6
CONTINUOUS
10
3.52532
20
-2.41398
11
3.52539
21
-2.4132
0
LINE
8
BLACK
6
CONTINUOUS
10
3.52539
20
-2.4132
11
3.52539
21
-2.41243
0
LINE
8
BLACK
6
CONTINUOUS
10
3.52539
20
-2.41243
11
3.52555
21
-2.41166
0
LINE
8
BLACK
6
CONTINUOUS
10
3.52555
20
-2.41166
11
3.52562
21
-2.41089
0
LINE
8
BLACK
6
CONTINUOUS
10
3.52562
20
-2.41089
11
3.52585
21
-2.41015
0
LINE
8
BLACK
6
CONTINUOUS
10
3.52585
20
-2.41015
11
3.526
21
-2.40938
0
LINE
8
BLACK
6
CONTINUOUS
10
3.526
20
-2.40938
11
3.5263
21
-2.40866
0
LINE
8
BLACK
6
CONTINUOUS
10
3.5263
20
-2.40866
11
3.52652
21
-2.40792
0
LINE
8
BLACK
6
CONTINUOUS
10
3.52652
20
-2.40792
11
3.52689
21
-2.40724
0
LINE
8
BLACK
6
CONTINUOUS
10
3.52689
20
-2.40724
11
3.52719
21
-2.40652
0
LINE
8
BLACK
6
CONTINUOUS
10
3.52719
20
-2.40652
11
3.52762
21
-2.40587
0
LINE
8
BLACK
6
CONTINUOUS
10
3.52762
20
-2.40587
11
3.52798
21
-2.40518
0
LINE
8
BLACK
6
CONTINUOUS
10
3.52798
20
-2.40518
11
3.52848
21
-2.40458
0
LINE
8
BLACK
6
CONTINUOUS
10
3.52848
20
-2.40458
11
3.52891
21
-2.40394
0
LINE
8
BLACK
6
CONTINUOUS
10
3.52891
20
-2.40394
11
3.5311
21
-2.40174
0
LINE
8
BLACK
6
CONTINUOUS
10
3.5311
20
-2.40174
11
3.61498
21
-2.31787
0
LINE
8
BLACK
6
CONTINUOUS
10
3.61498
20
-2.31787
11
3.61577
21
-2.31597
0
LINE
8
BLACK
6
CONTINUOUS
10
3.61577
20
-2.31597
11
3.61749
21
-2.31339
0
LINE
8
BLACK
6
CONTINUOUS
10
3.61749
20
-2.31339
11
3.61969
21
-2.31119
0
LINE
8
BLACK
6
CONTINUOUS
10
3.61969
20
-2.31119
11
3.62226
21
-2.30947
0
LINE
8
BLACK
6
CONTINUOUS
10
3.62226
20
-2.30947
11
3.62416
21
-2.30868
0
LINE
8
BLACK
6
CONTINUOUS
10
3.62416
20
-2.30868
11
3.73898
21
-2.19387
0
LINE
8
BLACK
6
CONTINUOUS
10
3.73898
20
-2.19387
11
3.73898
21
-2.05928
0
LINE
8
BLACK
6
CONTINUOUS
10
3.73898
20
-2.05928
11
3.51316
21
-1.83346
0
LINE
8
BLACK
6
CONTINUOUS
10
3.51316
20
-1.83346
11
3.51273
21
-1.83282
0
LINE
8
BLACK
6
CONTINUOUS
10
3.51273
20
-1.83282
11
3.51224
21
-1.83222
0
LINE
8
BLACK
6
CONTINUOUS
10
3.51224
20
-1.83222
11
3.51187
21
-1.83153
0
LINE
8
BLACK
6
CONTINUOUS
10
3.51187
20
-1.83153
11
3.51144
21
-1.83088
0
LINE
8
BLACK
6
CONTINUOUS
10
3.51144
20
-1.83088
11
3.51114
21
-1.83017
0
LINE
8
BLACK
6
CONTINUOUS
10
3.51114
20
-1.83017
11
3.51077
21
-1.82948
0
LINE
8
BLACK
6
CONTINUOUS
10
3.51077
20
-1.82948
11
3.51055
21
-1.82874
0
LINE
8
BLACK
6
CONTINUOUS
10
3.51055
20
-1.82874
11
3.51025
21
-1.82802
0
LINE
8
BLACK
6
CONTINUOUS
10
3.51025
20
-1.82802
11
3.5101
21
-1.82726
0
LINE
8
BLACK
6
CONTINUOUS
10
3.5101
20
-1.82726
11
3.50987
21
-1.82651
0
LINE
8
BLACK
6
CONTINUOUS
10
3.50987
20
-1.82651
11
3.5098
21
-1.82574
0
LINE
8
BLACK
6
CONTINUOUS
10
3.5098
20
-1.82574
11
3.50965
21
-1.82498
0
LINE
8
BLACK
6
CONTINUOUS
10
3.50965
20
-1.82498
11
3.50965
21
-1.8242
0
LINE
8
BLACK
6
CONTINUOUS
10
3.50965
20
-1.8242
11
3.50957
21
-1.82343
0
LINE
8
BLACK
6
CONTINUOUS
10
3.50957
20
-1.82343
11
3.50965
21
-1.82265
0
LINE
8
BLACK
6
CONTINUOUS
10
3.50965
20
-1.82265
11
3.50965
21
-1.82187
0
LINE
8
BLACK
6
CONTINUOUS
10
3.50965
20
-1.82187
11
3.5098
21
-1.82111
0
LINE
8
BLACK
6
CONTINUOUS
10
3.5098
20
-1.82111
11
3.50987
21
-1.82034
0
LINE
8
BLACK
6
CONTINUOUS
10
3.50987
20
-1.82034
11
3.5101
21
-1.81959
0
LINE
8
BLACK
6
CONTINUOUS
10
3.5101
20
-1.81959
11
3.51025
21
-1.81883
0
LINE
8
BLACK
6
CONTINUOUS
10
3.51025
20
-1.81883
11
3.51055
21
-1.81811
0
LINE
8
BLACK
6
CONTINUOUS
10
3.51055
20
-1.81811
11
3.51077
21
-1.81737
0
LINE
8
BLACK
6
CONTINUOUS
10
3.51077
20
-1.81737
11
3.51114
21
-1.81668
0
LINE
8
BLACK
6
CONTINUOUS
10
3.51114
20
-1.81668
11
3.51144
21
-1.81597
0
LINE
8
BLACK
6
CONTINUOUS
10
3.51144
20
-1.81597
11
3.51187
21
-1.81532
0
LINE
8
BLACK
6
CONTINUOUS
10
3.51187
20
-1.81532
11
3.51224
21
-1.81463
0
LINE
8
BLACK
6
CONTINUOUS
10
3.51224
20
-1.81463
11
3.51273
21
-1.81403
0
LINE
8
BLACK
6
CONTINUOUS
10
3.51273
20
-1.81403
11
3.51316
21
-1.81339
0
LINE
8
BLACK
6
CONTINUOUS
10
3.51316
20
-1.81339
11
3.51371
21
-1.81284
0
LINE
8
BLACK
6
CONTINUOUS
10
3.51371
20
-1.81284
11
3.5142
21
-1.81224
0
LINE
8
BLACK
6
CONTINUOUS
10
3.5142
20
-1.81224
11
3.5148
21
-1.81174
0
LINE
8
BLACK
6
CONTINUOUS
10
3.5148
20
-1.81174
11
3.51535
21
-1.81119
0
LINE
8
BLACK
6
CONTINUOUS
10
3.51535
20
-1.81119
11
3.516
21
-1.81076
0
LINE
8
BLACK
6
CONTINUOUS
10
3.516
20
-1.81076
11
3.5166
21
-1.81027
0
LINE
8
BLACK
6
CONTINUOUS
10
3.5166
20
-1.81027
11
3.51729
21
-1.8099
0
LINE
8
BLACK
6
CONTINUOUS
10
3.51729
20
-1.8099
11
3.51793
21
-1.80947
0
LINE
8
BLACK
6
CONTINUOUS
10
3.51793
20
-1.80947
11
3.51865
21
-1.80917
0
LINE
8
BLACK
6
CONTINUOUS
10
3.51865
20
-1.80917
11
3.51934
21
-1.80881
0
LINE
8
BLACK
6
CONTINUOUS
10
3.51934
20
-1.80881
11
3.52008
21
-1.80858
0
LINE
8
BLACK
6
CONTINUOUS
10
3.52008
20
-1.80858
11
3.5208
21
-1.80828
0
LINE
8
BLACK
6
CONTINUOUS
10
3.5208
20
-1.80828
11
3.52156
21
-1.80813
0
LINE
8
BLACK
6
CONTINUOUS
10
3.52156
20
-1.80813
11
3.52231
21
-1.80791
0
LINE
8
BLACK
6
CONTINUOUS
10
3.52231
20
-1.80791
11
3.52308
21
-1.80783
0
LINE
8
BLACK
6
CONTINUOUS
10
3.52308
20
-1.80783
11
3.52384
21
-1.80768
0
LINE
8
BLACK
6
CONTINUOUS
10
3.52384
20
-1.80768
11
3.52462
21
-1.80768
0
LINE
8
BLACK
6
CONTINUOUS
10
3.52462
20
-1.80768
11
3.52539
21
-1.8076
0
LINE
8
BLACK
6
CONTINUOUS
10
3.52539
20
-1.8076
11
3.52617
21
-1.80768
0
LINE
8
BLACK
6
CONTINUOUS
10
3.52617
20
-1.80768
11
3.52694
21
-1.80768
0
LINE
8
BLACK
6
CONTINUOUS
10
3.52694
20
-1.80768
11
3.52771
21
-1.80783
0
LINE
8
BLACK
6
CONTINUOUS
10
3.52771
20
-1.80783
11
3.52848
21
-1.80791
0
LINE
8
BLACK
6
CONTINUOUS
10
3.52848
20
-1.80791
11
3.52922
21
-1.80813
0
LINE
8
BLACK
6
CONTINUOUS
10
3.52922
20
-1.80813
11
3.52999
21
-1.80828
0
LINE
8
BLACK
6
CONTINUOUS
10
3.52999
20
-1.80828
11
3.53071
21
-1.80858
0
LINE
8
BLACK
6
CONTINUOUS
10
3.53071
20
-1.80858
11
3.53145
21
-1.80881
0
LINE
8
BLACK
6
CONTINUOUS
10
3.53145
20
-1.80881
11
3.53213
21
-1.80917
0
LINE
8
BLACK
6
CONTINUOUS
10
3.53213
20
-1.80917
11
3.53285
21
-1.80947
0
LINE
8
BLACK
6
CONTINUOUS
10
3.53285
20
-1.80947
11
3.5335
21
-1.8099
0
LINE
8
BLACK
6
CONTINUOUS
10
3.5335
20
-1.8099
11
3.53419
21
-1.81027
0
LINE
8
BLACK
6
CONTINUOUS
10
3.53419
20
-1.81027
11
3.53479
21
-1.81076
0
LINE
8
BLACK
6
CONTINUOUS
10
3.53479
20
-1.81076
11
3.53543
21
-1.81119
0
LINE
8
BLACK
6
CONTINUOUS
10
3.53543
20
-1.81119
11
3.76531
21
-2.04107
0
LINE
8
BLACK
6
CONTINUOUS
10
3.76531
20
-2.04107
11
3.76591
21
-2.04157
0
LINE
8
BLACK
6
CONTINUOUS
10
3.3625
20
-2.27361
11
3.36895
21
-2.27628
0
LINE
8
BLACK
6
CONTINUOUS
10
3.36895
20
-2.27628
11
3.37475
21
-2.28015
0
LINE
8
BLACK
6
CONTINUOUS
10
3.37475
20
-2.28015
11
3.37969
21
-2.28509
0
LINE
8
BLACK
6
CONTINUOUS
10
3.37969
20
-2.28509
11
3.38357
21
-2.29089
0
LINE
8
BLACK
6
CONTINUOUS
10
3.38357
20
-2.29089
11
3.38624
21
-2.29734
0
LINE
8
BLACK
6
CONTINUOUS
10
3.38624
20
-2.29734
11
3.3876
21
-2.30419
0
LINE
8
BLACK
6
CONTINUOUS
10
3.3876
20
-2.30419
11
3.3876
21
-2.31117
0
LINE
8
BLACK
6
CONTINUOUS
10
3.3876
20
-2.31117
11
3.38624
21
-2.31801
0
LINE
8
BLACK
6
CONTINUOUS
10
3.38624
20
-2.31801
11
3.38357
21
-2.32446
0
LINE
8
BLACK
6
CONTINUOUS
10
3.38357
20
-2.32446
11
3.37969
21
-2.33026
0
LINE
8
BLACK
6
CONTINUOUS
10
3.37969
20
-2.33026
11
3.37475
21
-2.3352
0
LINE
8
BLACK
6
CONTINUOUS
10
3.37475
20
-2.3352
11
3.36895
21
-2.33908
0
LINE
8
BLACK
6
CONTINUOUS
10
3.36895
20
-2.33908
11
3.3625
21
-2.34175
0
LINE
8
BLACK
6
CONTINUOUS
10
3.3625
20
-2.34175
11
3.35566
21
-2.34311
0
LINE
8
BLACK
6
CONTINUOUS
10
3.35566
20
-2.34311
11
3.34868
21
-2.34311
0
LINE
8
BLACK
6
CONTINUOUS
10
3.34868
20
-2.34311
11
3.34183
21
-2.34175
0
LINE
8
BLACK
6
CONTINUOUS
10
3.34183
20
-2.34175
11
3.33538
21
-2.33908
0
LINE
8
BLACK
6
CONTINUOUS
10
3.33538
20
-2.33908
11
3.32958
21
-2.3352
0
LINE
8
BLACK
6
CONTINUOUS
10
3.32958
20
-2.3352
11
3.32464
21
-2.33026
0
LINE
8
BLACK
6
CONTINUOUS
10
3.32464
20
-2.33026
11
3.32076
21
-2.32446
0
LINE
8
BLACK
6
CONTINUOUS
10
3.32076
20
-2.32446
11
3.31809
21
-2.31801
0
LINE
8
BLACK
6
CONTINUOUS
10
3.31809
20
-2.31801
11
3.31673
21
-2.31117
0
LINE
8
BLACK
6
CONTINUOUS
10
3.31673
20
-2.31117
11
3.31673
21
-2.30419
0
LINE
8
BLACK
6
CONTINUOUS
10
3.31673
20
-2.30419
11
3.31809
21
-2.29734
0
LINE
8
BLACK
6
CONTINUOUS
10
3.31809
20
-2.29734
11
3.32076
21
-2.29089
0
LINE
8
BLACK
6
CONTINUOUS
10
3.32076
20
-2.29089
11
3.32464
21
-2.28509
0
LINE
8
BLACK
6
CONTINUOUS
10
3.32464
20
-2.28509
11
3.32958
21
-2.28015
0
LINE
8
BLACK
6
CONTINUOUS
10
3.32958
20
-2.28015
11
3.33538
21
-2.27628
0
LINE
8
BLACK
6
CONTINUOUS
10
3.33538
20
-2.27628
11
3.34183
21
-2.27361
0
LINE
8
BLACK
6
CONTINUOUS
10
3.34183
20
-2.27361
11
3.34868
21
-2.27224
0
LINE
8
BLACK
6
CONTINUOUS
10
3.34868
20
-2.27224
11
3.35566
21
-2.27224
0
LINE
8
BLACK
6
CONTINUOUS
10
3.35566
20
-2.27224
11
3.3625
21
-2.27361
0
LINE
8
BLACK
6
CONTINUOUS
10
3.95305
20
-2.26573
11
3.9595
21
-2.2684
0
LINE
8
BLACK
6
CONTINUOUS
10
3.9595
20
-2.2684
11
3.9653
21
-2.27228
0
LINE
8
BLACK
6
CONTINUOUS
10
3.9653
20
-2.27228
11
3.97024
21
-2.27722
0
LINE
8
BLACK
6
CONTINUOUS
10
3.97024
20
-2.27722
11
3.97412
21
-2.28302
0
LINE
8
BLACK
6
CONTINUOUS
10
3.97412
20
-2.28302
11
3.97679
21
-2.28947
0
LINE
8
BLACK
6
CONTINUOUS
10
3.97679
20
-2.28947
11
3.97815
21
-2.29631
0
LINE
8
BLACK
6
CONTINUOUS
10
3.97815
20
-2.29631
11
3.97815
21
-2.30329
0
LINE
8
BLACK
6
CONTINUOUS
10
3.97815
20
-2.30329
11
3.97679
21
-2.31014
0
LINE
8
BLACK
6
CONTINUOUS
10
3.97679
20
-2.31014
11
3.97412
21
-2.31659
0
LINE
8
BLACK
6
CONTINUOUS
10
3.97412
20
-2.31659
11
3.97024
21
-2.32239
0
LINE
8
BLACK
6
CONTINUOUS
10
3.97024
20
-2.32239
11
3.9653
21
-2.32733
0
LINE
8
BLACK
6
CONTINUOUS
10
3.9653
20
-2.32733
11
3.9595
21
-2.3312
0
LINE
8
BLACK
6
CONTINUOUS
10
3.9595
20
-2.3312
11
3.95305
21
-2.33387
0
LINE
8
BLACK
6
CONTINUOUS
10
3.95305
20
-2.33387
11
3.94621
21
-2.33524
0
LINE
8
BLACK
6
CONTINUOUS
10
3.94621
20
-2.33524
11
3.93923
21
-2.33524
0
LINE
8
BLACK
6
CONTINUOUS
10
3.93923
20
-2.33524
11
3.93238
21
-2.33387
0
LINE
8
BLACK
6
CONTINUOUS
10
3.93238
20
-2.33387
11
3.92593
21
-2.3312
0
LINE
8
BLACK
6
CONTINUOUS
10
3.92593
20
-2.3312
11
3.92013
21
-2.32733
0
LINE
8
BLACK
6
CONTINUOUS
10
3.92013
20
-2.32733
11
3.91519
21
-2.32239
0
LINE
8
BLACK
6
CONTINUOUS
10
3.91519
20
-2.32239
11
3.91132
21
-2.31659
0
LINE
8
BLACK
6
CONTINUOUS
10
3.91132
20
-2.31659
11
3.90865
21
-2.31014
0
LINE
8
BLACK
6
CONTINUOUS
10
3.90865
20
-2.31014
11
3.90728
21
-2.30329
0
LINE
8
BLACK
6
CONTINUOUS
10
3.90728
20
-2.30329
11
3.90728
21
-2.29631
0
LINE
8
BLACK
6
CONTINUOUS
10
3.90728
20
-2.29631
11
3.90865
21
-2.28947
0
LINE
8
BLACK
6
CONTINUOUS
10
3.90865
20
-2.28947
11
3.91132
21
-2.28302
0
LINE
8
BLACK
6
CONTINUOUS
10
3.91132
20
-2.28302
11
3.91519
21
-2.27722
0
LINE
8
BLACK
6
CONTINUOUS
10
3.91519
20
-2.27722
11
3.92013
21
-2.27228
0
LINE
8
BLACK
6
CONTINUOUS
10
3.92013
20
-2.27228
11
3.92593
21
-2.2684
0
LINE
8
BLACK
6
CONTINUOUS
10
3.92593
20
-2.2684
11
3.93238
21
-2.26573
0
LINE
8
BLACK
6
CONTINUOUS
10
3.93238
20
-2.26573
11
3.93923
21
-2.26437
0
LINE
8
BLACK
6
CONTINUOUS
10
3.93923
20
-2.26437
11
3.94621
21
-2.26437
0
LINE
8
BLACK
6
CONTINUOUS
10
3.94621
20
-2.26437
11
3.95305
21
-2.26573
0
LINE
8
BLACK
6
CONTINUOUS
10
3.82146
20
-2.2998
11
3.75846
21
-2.2998
0
LINE
8
BLACK
6
CONTINUOUS
10
3.75846
20
-2.2998
11
3.75846
21
-2.23681
0
LINE
8
BLACK
6
CONTINUOUS
10
3.75846
20
-2.23681
11
3.82146
21
-2.23681
0
LINE
8
BLACK
6
CONTINUOUS
10
3.82146
20
-2.23681
11
3.82146
21
-2.2998
0
LINE
8
BLACK
6
CONTINUOUS
10
3.52146
20
-2.2998
11
3.45846
21
-2.2998
0
LINE
8
BLACK
6
CONTINUOUS
10
3.45846
20
-2.2998
11
3.45846
21
-2.23681
0
LINE
8
BLACK
6
CONTINUOUS
10
3.45846
20
-2.23681
11
3.52146
21
-2.23681
0
LINE
8
BLACK
6
CONTINUOUS
10
3.52146
20
-2.23681
11
3.52146
21
-2.2998
0
LINE
8
BLACK
6
CONTINUOUS
10
3.67139
20
-2.04397
11
3.68572
21
-2.04991
0
LINE
8
BLACK
6
CONTINUOUS
10
3.68572
20
-2.04991
11
3.69862
21
-2.05852
0
LINE
8
BLACK
6
CONTINUOUS
10
3.69862
20
-2.05852
11
3.70959
21
-2.06949
0
LINE
8
BLACK
6
CONTINUOUS
10
3.70959
20
-2.06949
11
3.7182
21
-2.08239
0
LINE
8
BLACK
6
CONTINUOUS
10
3.7182
20
-2.08239
11
3.72414
21
-2.09672
0
LINE
8
BLACK
6
CONTINUOUS
10
3.72414
20
-2.09672
11
3.72717
21
-2.11193
0
LINE
8
BLACK
6
CONTINUOUS
10
3.72717
20
-2.11193
11
3.72717
21
-2.12744
0
LINE
8
BLACK
6
CONTINUOUS
10
3.72717
20
-2.12744
11
3.72414
21
-2.14265
0
LINE
8
BLACK
6
CONTINUOUS
10
3.72414
20
-2.14265
11
3.7182
21
-2.15698
0
LINE
8
BLACK
6
CONTINUOUS
10
3.7182
20
-2.15698
11
3.70959
21
-2.16988
0
LINE
8
BLACK
6
CONTINUOUS
10
3.70959
20
-2.16988
11
3.69862
21
-2.18085
0
LINE
8
BLACK
6
CONTINUOUS
10
3.69862
20
-2.18085
11
3.68572
21
-2.18946
0
LINE
8
BLACK
6
CONTINUOUS
10
3.68572
20
-2.18946
11
3.67139
21
-2.1954
0
LINE
8
BLACK
6
CONTINUOUS
10
3.67139
20
-2.1954
11
3.65618
21
-2.19843
0
LINE
8
BLACK
6
CONTINUOUS
10
3.65618
20
-2.19843
11
3.64067
21
-2.19843
0
LINE
8
BLACK
6
CONTINUOUS
10
3.64067
20
-2.19843
11
3.62546
21
-2.1954
0
LINE
8
BLACK
6
CONTINUOUS
10
3.62546
20
-2.1954
11
3.61113
21
-2.18946
0
LINE
8
BLACK
6
CONTINUOUS
10
3.61113
20
-2.18946
11
3.59823
21
-2.18085
0
LINE
8
BLACK
6
CONTINUOUS
10
3.59823
20
-2.18085
11
3.58726
21
-2.16988
0
LINE
8
BLACK
6
CONTINUOUS
10
3.58726
20
-2.16988
11
3.57865
21
-2.15698
0
LINE
8
BLACK
6
CONTINUOUS
10
3.57865
20
-2.15698
11
3.57271
21
-2.14265
0
LINE
8
BLACK
6
CONTINUOUS
10
3.57271
20
-2.14265
11
3.56969
21
-2.12744
0
LINE
8
BLACK
6
CONTINUOUS
10
3.56969
20
-2.12744
11
3.56969
21
-2.11193
0
LINE
8
BLACK
6
CONTINUOUS
10
3.56969
20
-2.11193
11
3.57271
21
-2.09672
0
LINE
8
BLACK
6
CONTINUOUS
10
3.57271
20
-2.09672
11
3.57865
21
-2.08239
0
LINE
8
BLACK
6
CONTINUOUS
10
3.57865
20
-2.08239
11
3.58726
21
-2.06949
0
LINE
8
BLACK
6
CONTINUOUS
10
3.58726
20
-2.06949
11
3.59823
21
-2.05852
0
LINE
8
BLACK
6
CONTINUOUS
10
3.59823
20
-2.05852
11
3.61113
21
-2.04991
0
LINE
8
BLACK
6
CONTINUOUS
10
3.61113
20
-2.04991
11
3.62546
21
-2.04397
0
LINE
8
BLACK
6
CONTINUOUS
10
3.62546
20
-2.04397
11
3.64067
21
-2.04094
0
LINE
8
BLACK
6
CONTINUOUS
10
3.64067
20
-2.04094
11
3.65618
21
-2.04094
0
LINE
8
BLACK
6
CONTINUOUS
10
3.65618
20
-2.04094
11
3.67139
21
-2.04397
0
LINE
8
BLACK
6
CONTINUOUS
10
3.45991
20
-2.08183
11
3.46707
21
-2.0848
0
LINE
8
BLACK
6
CONTINUOUS
10
3.46707
20
-2.0848
11
3.47352
21
-2.0891
0
LINE
8
BLACK
6
CONTINUOUS
10
3.47352
20
-2.0891
11
3.47901
21
-2.09459
0
LINE
8
BLACK
6
CONTINUOUS
10
3.47901
20
-2.09459
11
3.48331
21
-2.10104
0
LINE
8
BLACK
6
CONTINUOUS
10
3.48331
20
-2.10104
11
3.48628
21
-2.1082
0
LINE
8
BLACK
6
CONTINUOUS
10
3.48628
20
-2.1082
11
3.4878
21
-2.11581
0
LINE
8
BLACK
6
CONTINUOUS
10
3.4878
20
-2.11581
11
3.4878
21
-2.12356
0
LINE
8
BLACK
6
CONTINUOUS
10
3.4878
20
-2.12356
11
3.48628
21
-2.13117
0
LINE
8
BLACK
6
CONTINUOUS
10
3.48628
20
-2.13117
11
3.48331
21
-2.13833
0
LINE
8
BLACK
6
CONTINUOUS
10
3.48331
20
-2.13833
11
3.47901
21
-2.14478
0
LINE
8
BLACK
6
CONTINUOUS
10
3.47901
20
-2.14478
11
3.47352
21
-2.15027
0
LINE
8
BLACK
6
CONTINUOUS
10
3.47352
20
-2.15027
11
3.46707
21
-2.15457
0
LINE
8
BLACK
6
CONTINUOUS
10
3.46707
20
-2.15457
11
3.45991
21
-2.15754
0
LINE
8
BLACK
6
CONTINUOUS
10
3.45991
20
-2.15754
11
3.4523
21
-2.15906
0
LINE
8
BLACK
6
CONTINUOUS
10
3.4523
20
-2.15906
11
3.44455
21
-2.15906
0
LINE
8
BLACK
6
CONTINUOUS
10
3.44455
20
-2.15906
11
3.43694
21
-2.15754
0
LINE
8
BLACK
6
CONTINUOUS
10
3.43694
20
-2.15754
11
3.42978
21
-2.15457
0
LINE
8
BLACK
6
CONTINUOUS
10
3.42978
20
-2.15457
11
3.42333
21
-2.15027
0
LINE
8
BLACK
6
CONTINUOUS
10
3.42333
20
-2.15027
11
3.41784
21
-2.14478
0
LINE
8
BLACK
6
CONTINUOUS
10
3.41784
20
-2.14478
11
3.41354
21
-2.13833
0
LINE
8
BLACK
6
CONTINUOUS
10
3.41354
20
-2.13833
11
3.41057
21
-2.13117
0
LINE
8
BLACK
6
CONTINUOUS
10
3.41057
20
-2.13117
11
3.40906
21
-2.12356
0
LINE
8
BLACK
6
CONTINUOUS
10
3.40906
20
-2.12356
11
3.40906
21
-2.11581
0
LINE
8
BLACK
6
CONTINUOUS
10
3.40906
20
-2.11581
11
3.41057
21
-2.1082
0
LINE
8
BLACK
6
CONTINUOUS
10
3.41057
20
-2.1082
11
3.41354
21
-2.10104
0
LINE
8
BLACK
6
CONTINUOUS
10
3.41354
20
-2.10104
11
3.41784
21
-2.09459
0
LINE
8
BLACK
6
CONTINUOUS
10
3.41784
20
-2.09459
11
3.42333
21
-2.0891
0
LINE
8
BLACK
6
CONTINUOUS
10
3.42333
20
-2.0891
11
3.42978
21
-2.0848
0
LINE
8
BLACK
6
CONTINUOUS
10
3.42978
20
-2.0848
11
3.43694
21
-2.08183
0
LINE
8
BLACK
6
CONTINUOUS
10
3.43694
20
-2.08183
11
3.44455
21
-2.08031
0
LINE
8
BLACK
6
CONTINUOUS
10
3.44455
20
-2.08031
11
3.4523
21
-2.08031
0
LINE
8
BLACK
6
CONTINUOUS
10
3.4523
20
-2.08031
11
3.45991
21
-2.08183
0
LINE
8
BLACK
6
CONTINUOUS
10
3.85991
20
-2.08183
11
3.86707
21
-2.0848
0
LINE
8
BLACK
6
CONTINUOUS
10
3.86707
20
-2.0848
11
3.87352
21
-2.0891
0
LINE
8
BLACK
6
CONTINUOUS
10
3.87352
20
-2.0891
11
3.87901
21
-2.09459
0
LINE
8
BLACK
6
CONTINUOUS
10
3.87901
20
-2.09459
11
3.88331
21
-2.10104
0
LINE
8
BLACK
6
CONTINUOUS
10
3.88331
20
-2.10104
11
3.88628
21
-2.1082
0
LINE
8
BLACK
6
CONTINUOUS
10
3.88628
20
-2.1082
11
3.8878
21
-2.11581
0
LINE
8
BLACK
6
CONTINUOUS
10
3.8878
20
-2.11581
11
3.8878
21
-2.12356
0
LINE
8
BLACK
6
CONTINUOUS
10
3.8878
20
-2.12356
11
3.88628
21
-2.13117
0
LINE
8
BLACK
6
CONTINUOUS
10
3.88628
20
-2.13117
11
3.88331
21
-2.13833
0
LINE
8
BLACK
6
CONTINUOUS
10
3.88331
20
-2.13833
11
3.87901
21
-2.14478
0
LINE
8
BLACK
6
CONTINUOUS
10
3.87901
20
-2.14478
11
3.87352
21
-2.15027
0
LINE
8
BLACK
6
CONTINUOUS
10
3.87352
20
-2.15027
11
3.86707
21
-2.15457
0
LINE
8
BLACK
6
CONTINUOUS
10
3.86707
20
-2.15457
11
3.85991
21
-2.15754
0
LINE
8
BLACK
6
CONTINUOUS
10
3.85991
20
-2.15754
11
3.8523
21
-2.15906
0
LINE
8
BLACK
6
CONTINUOUS
10
3.8523
20
-2.15906
11
3.84455
21
-2.15906
0
LINE
8
BLACK
6
CONTINUOUS
10
3.84455
20
-2.15906
11
3.83694
21
-2.15754
0
LINE
8
BLACK
6
CONTINUOUS
10
3.83694
20
-2.15754
11
3.82978
21
-2.15457
0
LINE
8
BLACK
6
CONTINUOUS
10
3.82978
20
-2.15457
11
3.82333
21
-2.15027
0
LINE
8
BLACK
6
CONTINUOUS
10
3.82333
20
-2.15027
11
3.81784
21
-2.14478
0
LINE
8
BLACK
6
CONTINUOUS
10
3.81784
20
-2.14478
11
3.81354
21
-2.13833
0
LINE
8
BLACK
6
CONTINUOUS
10
3.81354
20
-2.13833
11
3.81057
21
-2.13117
0
LINE
8
BLACK
6
CONTINUOUS
10
3.81057
20
-2.13117
11
3.80906
21
-2.12356
0
LINE
8
BLACK
6
CONTINUOUS
10
3.80906
20
-2.12356
11
3.80906
21
-2.11581
0
LINE
8
BLACK
6
CONTINUOUS
10
3.80906
20
-2.11581
11
3.81057
21
-2.1082
0
LINE
8
BLACK
6
CONTINUOUS
10
3.81057
20
-2.1082
11
3.81354
21
-2.10104
0
LINE
8
BLACK
6
CONTINUOUS
10
3.81354
20
-2.10104
11
3.81784
21
-2.09459
0
LINE
8
BLACK
6
CONTINUOUS
10
3.81784
20
-2.09459
11
3.82333
21
-2.0891
0
LINE
8
BLACK
6
CONTINUOUS
10
3.82333
20
-2.0891
11
3.82978
21
-2.0848
0
LINE
8
BLACK
6
CONTINUOUS
10
3.82978
20
-2.0848
11
3.83694
21
-2.08183
0
LINE
8
BLACK
6
CONTINUOUS
10
3.83694
20
-2.08183
11
3.84455
21
-2.08031
0
LINE
8
BLACK
6
CONTINUOUS
10
3.84455
20
-2.08031
11
3.8523
21
-2.08031
0
LINE
8
BLACK
6
CONTINUOUS
10
3.8523
20
-2.08031
11
3.85991
21
-2.08183
0
LINE
8
BLACK
6
CONTINUOUS
10
3.51565
20
-1.9629
11
3.5264
21
-1.96735
0
LINE
8
BLACK
6
CONTINUOUS
10
3.5264
20
-1.96735
11
3.53607
21
-1.97381
0
LINE
8
BLACK
6
CONTINUOUS
10
3.53607
20
-1.97381
11
3.5443
21
-1.98204
0
LINE
8
BLACK
6
CONTINUOUS
10
3.5443
20
-1.98204
11
3.55076
21
-1.99171
0
LINE
8
BLACK
6
CONTINUOUS
10
3.55076
20
-1.99171
11
3.55521
21
-2.00246
0
LINE
8
BLACK
6
CONTINUOUS
10
3.55521
20
-2.00246
11
3.55748
21
-2.01387
0
LINE
8
BLACK
6
CONTINUOUS
10
3.55748
20
-2.01387
11
3.55748
21
-2.0255
0
LINE
8
BLACK
6
CONTINUOUS
10
3.55748
20
-2.0255
11
3.55521
21
-2.03691
0
LINE
8
BLACK
6
CONTINUOUS
10
3.55521
20
-2.03691
11
3.55076
21
-2.04766
0
LINE
8
BLACK
6
CONTINUOUS
10
3.55076
20
-2.04766
11
3.5443
21
-2.05733
0
LINE
8
BLACK
6
CONTINUOUS
10
3.5443
20
-2.05733
11
3.53607
21
-2.06556
0
LINE
8
BLACK
6
CONTINUOUS
10
3.53607
20
-2.06556
11
3.5264
21
-2.07202
0
LINE
8
BLACK
6
CONTINUOUS
10
3.5264
20
-2.07202
11
3.51565
21
-2.07647
0
LINE
8
BLACK
6
CONTINUOUS
10
3.51565
20
-2.07647
11
3.50424
21
-2.07874
0
LINE
8
BLACK
6
CONTINUOUS
10
3.50424
20
-2.07874
11
3.49261
21
-2.07874
0
LINE
8
BLACK
6
CONTINUOUS
10
3.49261
20
-2.07874
11
3.4812
21
-2.07647
0
LINE
8
BLACK
6
CONTINUOUS
10
3.4812
20
-2.07647
11
3.47045
21
-2.07202
0
LINE
8
BLACK
6
CONTINUOUS
10
3.47045
20
-2.07202
11
3.46078
21
-2.06556
0
LINE
8
BLACK
6
CONTINUOUS
10
3.46078
20
-2.06556
11
3.45255
21
-2.05733
0
LINE
8
BLACK
6
CONTINUOUS
10
3.45255
20
-2.05733
11
3.44609
21
-2.04766
0
LINE
8
BLACK
6
CONTINUOUS
10
3.44609
20
-2.04766
11
3.44164
21
-2.03691
0
LINE
8
BLACK
6
CONTINUOUS
10
3.44164
20
-2.03691
11
3.43937
21
-2.0255
0
LINE
8
BLACK
6
CONTINUOUS
10
3.43937
20
-2.0255
11
3.43937
21
-2.01387
0
LINE
8
BLACK
6
CONTINUOUS
10
3.43937
20
-2.01387
11
3.44164
21
-2.00246
0
LINE
8
BLACK
6
CONTINUOUS
10
3.44164
20
-2.00246
11
3.44609
21
-1.99171
0
LINE
8
BLACK
6
CONTINUOUS
10
3.44609
20
-1.99171
11
3.45255
21
-1.98204
0
LINE
8
BLACK
6
CONTINUOUS
10
3.45255
20
-1.98204
11
3.46078
21
-1.97381
0
LINE
8
BLACK
6
CONTINUOUS
10
3.46078
20
-1.97381
11
3.47045
21
-1.96735
0
LINE
8
BLACK
6
CONTINUOUS
10
3.47045
20
-1.96735
11
3.4812
21
-1.9629
0
LINE
8
BLACK
6
CONTINUOUS
10
3.4812
20
-1.9629
11
3.49261
21
-1.96063
0
LINE
8
BLACK
6
CONTINUOUS
10
3.49261
20
-1.96063
11
3.50424
21
-1.96063
0
LINE
8
BLACK
6
CONTINUOUS
10
3.50424
20
-1.96063
11
3.51565
21
-1.9629
0
LINE
8
BLACK
6
CONTINUOUS
10
3.95305
20
-1.98955
11
3.9595
21
-1.99222
0
LINE
8
BLACK
6
CONTINUOUS
10
3.9595
20
-1.99222
11
3.9653
21
-1.9961
0
LINE
8
BLACK
6
CONTINUOUS
10
3.9653
20
-1.9961
11
3.97024
21
-2.00103
0
LINE
8
BLACK
6
CONTINUOUS
10
3.97024
20
-2.00103
11
3.97412
21
-2.00684
0
LINE
8
BLACK
6
CONTINUOUS
10
3.97412
20
-2.00684
11
3.97679
21
-2.01329
0
LINE
8
BLACK
6
CONTINUOUS
10
3.97679
20
-2.01329
11
3.97815
21
-2.02013
0
LINE
8
BLACK
6
CONTINUOUS
10
3.97815
20
-2.02013
11
3.97815
21
-2.02711
0
LINE
8
BLACK
6
CONTINUOUS
10
3.97815
20
-2.02711
11
3.97679
21
-2.03396
0
LINE
8
BLACK
6
CONTINUOUS
10
3.97679
20
-2.03396
11
3.97412
21
-2.04041
0
LINE
8
BLACK
6
CONTINUOUS
10
3.97412
20
-2.04041
11
3.97024
21
-2.04621
0
LINE
8
BLACK
6
CONTINUOUS
10
3.97024
20
-2.04621
11
3.9653
21
-2.05114
0
LINE
8
BLACK
6
CONTINUOUS
10
3.9653
20
-2.05114
11
3.9595
21
-2.05502
0
LINE
8
BLACK
6
CONTINUOUS
10
3.9595
20
-2.05502
11
3.95305
21
-2.05769
0
LINE
8
BLACK
6
CONTINUOUS
10
3.95305
20
-2.05769
11
3.94621
21
-2.05906
0
LINE
8
BLACK
6
CONTINUOUS
10
3.94621
20
-2.05906
11
3.93923
21
-2.05906
0
LINE
8
BLACK
6
CONTINUOUS
10
3.93923
20
-2.05906
11
3.93238
21
-2.05769
0
LINE
8
BLACK
6
CONTINUOUS
10
3.93238
20
-2.05769
11
3.92593
21
-2.05502
0
LINE
8
BLACK
6
CONTINUOUS
10
3.92593
20
-2.05502
11
3.92013
21
-2.05114
0
LINE
8
BLACK
6
CONTINUOUS
10
3.92013
20
-2.05114
11
3.91519
21
-2.04621
0
LINE
8
BLACK
6
CONTINUOUS
10
3.91519
20
-2.04621
11
3.91132
21
-2.04041
0
LINE
8
BLACK
6
CONTINUOUS
10
3.91132
20
-2.04041
11
3.90865
21
-2.03396
0
LINE
8
BLACK
6
CONTINUOUS
10
3.90865
20
-2.03396
11
3.90728
21
-2.02711
0
LINE
8
BLACK
6
CONTINUOUS
10
3.90728
20
-2.02711
11
3.90728
21
-2.02013
0
LINE
8
BLACK
6
CONTINUOUS
10
3.90728
20
-2.02013
11
3.90865
21
-2.01329
0
LINE
8
BLACK
6
CONTINUOUS
10
3.90865
20
-2.01329
11
3.91132
21
-2.00684
0
LINE
8
BLACK
6
CONTINUOUS
10
3.91132
20
-2.00684
11
3.91519
21
-2.00103
0
LINE
8
BLACK
6
CONTINUOUS
10
3.91519
20
-2.00103
11
3.92013
21
-1.9961
0
LINE
8
BLACK
6
CONTINUOUS
10
3.92013
20
-1.9961
11
3.92593
21
-1.99222
0
LINE
8
BLACK
6
CONTINUOUS
10
3.92593
20
-1.99222
11
3.93238
21
-1.98955
0
LINE
8
BLACK
6
CONTINUOUS
10
3.93238
20
-1.98955
11
3.93923
21
-1.98819
0
LINE
8
BLACK
6
CONTINUOUS
10
3.93923
20
-1.98819
11
3.94621
21
-1.98819
0
LINE
8
BLACK
6
CONTINUOUS
10
3.94621
20
-1.98819
11
3.95305
21
-1.98955
0
LINE
8
BLACK
6
CONTINUOUS
10
3.76565
20
-1.8629
11
3.7764
21
-1.86735
0
LINE
8
BLACK
6
CONTINUOUS
10
3.7764
20
-1.86735
11
3.78607
21
-1.87381
0
LINE
8
BLACK
6
CONTINUOUS
10
3.78607
20
-1.87381
11
3.7943
21
-1.88204
0
LINE
8
BLACK
6
CONTINUOUS
10
3.7943
20
-1.88204
11
3.80076
21
-1.89171
0
LINE
8
BLACK
6
CONTINUOUS
10
3.80076
20
-1.89171
11
3.80521
21
-1.90246
0
LINE
8
BLACK
6
CONTINUOUS
10
3.80521
20
-1.90246
11
3.80748
21
-1.91387
0
LINE
8
BLACK
6
CONTINUOUS
10
3.80748
20
-1.91387
11
3.80748
21
-1.9255
0
LINE
8
BLACK
6
CONTINUOUS
10
3.80748
20
-1.9255
11
3.80521
21
-1.93691
0
LINE
8
BLACK
6
CONTINUOUS
10
3.80521
20
-1.93691
11
3.80076
21
-1.94766
0
LINE
8
BLACK
6
CONTINUOUS
10
3.80076
20
-1.94766
11
3.7943
21
-1.95733
0
LINE
8
BLACK
6
CONTINUOUS
10
3.7943
20
-1.95733
11
3.78607
21
-1.96556
0
LINE
8
BLACK
6
CONTINUOUS
10
3.78607
20
-1.96556
11
3.7764
21
-1.97202
0
LINE
8
BLACK
6
CONTINUOUS
10
3.7764
20
-1.97202
11
3.76565
21
-1.97647
0
LINE
8
BLACK
6
CONTINUOUS
10
3.76565
20
-1.97647
11
3.75424
21
-1.97874
0
LINE
8
BLACK
6
CONTINUOUS
10
3.75424
20
-1.97874
11
3.74261
21
-1.97874
0
LINE
8
BLACK
6
CONTINUOUS
10
3.74261
20
-1.97874
11
3.7312
21
-1.97647
0
LINE
8
BLACK
6
CONTINUOUS
10
3.7312
20
-1.97647
11
3.72045
21
-1.97202
0
LINE
8
BLACK
6
CONTINUOUS
10
3.72045
20
-1.97202
11
3.71078
21
-1.96556
0
LINE
8
BLACK
6
CONTINUOUS
10
3.71078
20
-1.96556
11
3.70255
21
-1.95733
0
LINE
8
BLACK
6
CONTINUOUS
10
3.70255
20
-1.95733
11
3.69609
21
-1.94766
0
LINE
8
BLACK
6
CONTINUOUS
10
3.69609
20
-1.94766
11
3.69164
21
-1.93691
0
LINE
8
BLACK
6
CONTINUOUS
10
3.69164
20
-1.93691
11
3.68937
21
-1.9255
0
LINE
8
BLACK
6
CONTINUOUS
10
3.68937
20
-1.9255
11
3.68937
21
-1.91387
0
LINE
8
BLACK
6
CONTINUOUS
10
3.68937
20
-1.91387
11
3.69164
21
-1.90246
0
LINE
8
BLACK
6
CONTINUOUS
10
3.69164
20
-1.90246
11
3.69609
21
-1.89171
0
LINE
8
BLACK
6
CONTINUOUS
10
3.69609
20
-1.89171
11
3.70255
21
-1.88204
0
LINE
8
BLACK
6
CONTINUOUS
10
3.70255
20
-1.88204
11
3.71078
21
-1.87381
0
LINE
8
BLACK
6
CONTINUOUS
10
3.71078
20
-1.87381
11
3.72045
21
-1.86735
0
LINE
8
BLACK
6
CONTINUOUS
10
3.72045
20
-1.86735
11
3.7312
21
-1.8629
0
LINE
8
BLACK
6
CONTINUOUS
10
3.7312
20
-1.8629
11
3.74261
21
-1.86063
0
LINE
8
BLACK
6
CONTINUOUS
10
3.74261
20
-1.86063
11
3.75424
21
-1.86063
0
LINE
8
BLACK
6
CONTINUOUS
10
3.75424
20
-1.86063
11
3.76565
21
-1.8629
0
LINE
8
BLACK
6
CONTINUOUS
10
3.3627
20
-1.88955
11
3.36915
21
-1.89222
0
LINE
8
BLACK
6
CONTINUOUS
10
3.36915
20
-1.89222
11
3.37495
21
-1.8961
0
LINE
8
BLACK
6
CONTINUOUS
10
3.37495
20
-1.8961
11
3.37988
21
-1.90103
0
LINE
8
BLACK
6
CONTINUOUS
10
3.37988
20
-1.90103
11
3.38376
21
-1.90684
0
LINE
8
BLACK
6
CONTINUOUS
10
3.38376
20
-1.90684
11
3.38643
21
-1.91329
0
LINE
8
BLACK
6
CONTINUOUS
10
3.38643
20
-1.91329
11
3.3878
21
-1.92013
0
LINE
8
BLACK
6
CONTINUOUS
10
3.3878
20
-1.92013
11
3.3878
21
-1.92711
0
LINE
8
BLACK
6
CONTINUOUS
10
3.3878
20
-1.92711
11
3.38643
21
-1.93396
0
LINE
8
BLACK
6
CONTINUOUS
10
3.38643
20
-1.93396
11
3.38376
21
-1.94041
0
LINE
8
BLACK
6
CONTINUOUS
10
3.38376
20
-1.94041
11
3.37988
21
-1.94621
0
LINE
8
BLACK
6
CONTINUOUS
10
3.37988
20
-1.94621
11
3.37495
21
-1.95114
0
LINE
8
BLACK
6
CONTINUOUS
10
3.37495
20
-1.95114
11
3.36915
21
-1.95502
0
LINE
8
BLACK
6
CONTINUOUS
10
3.36915
20
-1.95502
11
3.3627
21
-1.95769
0
LINE
8
BLACK
6
CONTINUOUS
10
3.3627
20
-1.95769
11
3.35585
21
-1.95906
0
LINE
8
BLACK
6
CONTINUOUS
10
3.35585
20
-1.95906
11
3.34887
21
-1.95906
0
LINE
8
BLACK
6
CONTINUOUS
10
3.34887
20
-1.95906
11
3.34203
21
-1.95769
0
LINE
8
BLACK
6
CONTINUOUS
10
3.34203
20
-1.95769
11
3.33558
21
-1.95502
0
LINE
8
BLACK
6
CONTINUOUS
10
3.33558
20
-1.95502
11
3.32977
21
-1.95114
0
LINE
8
BLACK
6
CONTINUOUS
10
3.32977
20
-1.95114
11
3.32484
21
-1.94621
0
LINE
8
BLACK
6
CONTINUOUS
10
3.32484
20
-1.94621
11
3.32096
21
-1.94041
0
LINE
8
BLACK
6
CONTINUOUS
10
3.32096
20
-1.94041
11
3.31829
21
-1.93396
0
LINE
8
BLACK
6
CONTINUOUS
10
3.31829
20
-1.93396
11
3.31693
21
-1.92711
0
LINE
8
BLACK
6
CONTINUOUS
10
3.31693
20
-1.92711
11
3.31693
21
-1.92013
0
LINE
8
BLACK
6
CONTINUOUS
10
3.31693
20
-1.92013
11
3.31829
21
-1.91329
0
LINE
8
BLACK
6
CONTINUOUS
10
3.31829
20
-1.91329
11
3.32096
21
-1.90684
0
LINE
8
BLACK
6
CONTINUOUS
10
3.32096
20
-1.90684
11
3.32484
21
-1.90103
0
LINE
8
BLACK
6
CONTINUOUS
10
3.32484
20
-1.90103
11
3.32977
21
-1.8961
0
LINE
8
BLACK
6
CONTINUOUS
10
3.32977
20
-1.8961
11
3.33558
21
-1.89222
0
LINE
8
BLACK
6
CONTINUOUS
10
3.33558
20
-1.89222
11
3.34203
21
-1.88955
0
LINE
8
BLACK
6
CONTINUOUS
10
3.34203
20
-1.88955
11
3.34887
21
-1.88819
0
LINE
8
BLACK
6
CONTINUOUS
10
3.34887
20
-1.88819
11
3.35585
21
-1.88819
0
LINE
8
BLACK
6
CONTINUOUS
10
3.35585
20
-1.88819
11
3.3627
21
-1.88955
0
LINE
8
BLACK
6
CONTINUOUS
10
3.44518
20
-1.78935
11
3.45163
21
-1.79202
0
LINE
8
BLACK
6
CONTINUOUS
10
3.45163
20
-1.79202
11
3.45743
21
-1.7959
0
LINE
8
BLACK
6
CONTINUOUS
10
3.45743
20
-1.7959
11
3.46237
21
-1.80084
0
LINE
8
BLACK
6
CONTINUOUS
10
3.46237
20
-1.80084
11
3.46624
21
-1.80664
0
LINE
8
BLACK
6
CONTINUOUS
10
3.46624
20
-1.80664
11
3.46891
21
-1.81309
0
LINE
8
BLACK
6
CONTINUOUS
10
3.46891
20
-1.81309
11
3.47028
21
-1.81994
0
LINE
8
BLACK
6
CONTINUOUS
10
3.47028
20
-1.81994
11
3.47028
21
-1.82692
0
LINE
8
BLACK
6
CONTINUOUS
10
3.47028
20
-1.82692
11
3.46891
21
-1.83376
0
LINE
8
BLACK
6
CONTINUOUS
10
3.46891
20
-1.83376
11
3.46624
21
-1.84021
0
LINE
8
BLACK
6
CONTINUOUS
10
3.46624
20
-1.84021
11
3.46237
21
-1.84601
0
LINE
8
BLACK
6
CONTINUOUS
10
3.46237
20
-1.84601
11
3.45743
21
-1.85095
0
LINE
8
BLACK
6
CONTINUOUS
10
3.45743
20
-1.85095
11
3.45163
21
-1.85483
0
LINE
8
BLACK
6
CONTINUOUS
10
3.45163
20
-1.85483
11
3.44518
21
-1.8575
0
LINE
8
BLACK
6
CONTINUOUS
10
3.44518
20
-1.8575
11
3.43833
21
-1.85886
0
LINE
8
BLACK
6
CONTINUOUS
10
3.43833
20
-1.85886
11
3.43135
21
-1.85886
0
LINE
8
BLACK
6
CONTINUOUS
10
3.43135
20
-1.85886
11
3.42451
21
-1.8575
0
LINE
8
BLACK
6
CONTINUOUS
10
3.42451
20
-1.8575
11
3.41806
21
-1.85483
0
LINE
8
BLACK
6
CONTINUOUS
10
3.41806
20
-1.85483
11
3.41226
21
-1.85095
0
LINE
8
BLACK
6
CONTINUOUS
10
3.41226
20
-1.85095
11
3.40732
21
-1.84601
0
LINE
8
BLACK
6
CONTINUOUS
10
3.40732
20
-1.84601
11
3.40344
21
-1.84021
0
LINE
8
BLACK
6
CONTINUOUS
10
3.40344
20
-1.84021
11
3.40077
21
-1.83376
0
LINE
8
BLACK
6
CONTINUOUS
10
3.40077
20
-1.83376
11
3.39941
21
-1.82692
0
LINE
8
BLACK
6
CONTINUOUS
10
3.39941
20
-1.82692
11
3.39941
21
-1.81994
0
LINE
8
BLACK
6
CONTINUOUS
10
3.39941
20
-1.81994
11
3.40077
21
-1.81309
0
LINE
8
BLACK
6
CONTINUOUS
10
3.40077
20
-1.81309
11
3.40344
21
-1.80664
0
LINE
8
BLACK
6
CONTINUOUS
10
3.40344
20
-1.80664
11
3.40732
21
-1.80084
0
LINE
8
BLACK
6
CONTINUOUS
10
3.40732
20
-1.80084
11
3.41226
21
-1.7959
0
LINE
8
BLACK
6
CONTINUOUS
10
3.41226
20
-1.7959
11
3.41806
21
-1.79202
0
LINE
8
BLACK
6
CONTINUOUS
10
3.41806
20
-1.79202
11
3.42451
21
-1.78935
0
LINE
8
BLACK
6
CONTINUOUS
10
3.42451
20
-1.78935
11
3.43135
21
-1.78799
0
LINE
8
BLACK
6
CONTINUOUS
10
3.43135
20
-1.78799
11
3.43833
21
-1.78799
0
LINE
8
BLACK
6
CONTINUOUS
10
3.43833
20
-1.78799
11
3.44518
21
-1.78935
0
LINE
8
BLACK
6
CONTINUOUS
10
3.83494
20
-1.78935
11
3.84139
21
-1.79202
0
LINE
8
BLACK
6
CONTINUOUS
10
3.84139
20
-1.79202
11
3.84719
21
-1.7959
0
LINE
8
BLACK
6
CONTINUOUS
10
3.84719
20
-1.7959
11
3.85213
21
-1.80084
0
LINE
8
BLACK
6
CONTINUOUS
10
3.85213
20
-1.80084
11
3.85601
21
-1.80664
0
LINE
8
BLACK
6
CONTINUOUS
10
3.85601
20
-1.80664
11
3.85868
21
-1.81309
0
LINE
8
BLACK
6
CONTINUOUS
10
3.85868
20
-1.81309
11
3.86004
21
-1.81994
0
LINE
8
BLACK
6
CONTINUOUS
10
3.86004
20
-1.81994
11
3.86004
21
-1.82692
0
LINE
8
BLACK
6
CONTINUOUS
10
3.86004
20
-1.82692
11
3.85868
21
-1.83376
0
LINE
8
BLACK
6
CONTINUOUS
10
3.85868
20
-1.83376
11
3.85601
21
-1.84021
0
LINE
8
BLACK
6
CONTINUOUS
10
3.85601
20
-1.84021
11
3.85213
21
-1.84601
0
LINE
8
BLACK
6
CONTINUOUS
10
3.85213
20
-1.84601
11
3.84719
21
-1.85095
0
LINE
8
BLACK
6
CONTINUOUS
10
3.84719
20
-1.85095
11
3.84139
21
-1.85483
0
LINE
8
BLACK
6
CONTINUOUS
10
3.84139
20
-1.85483
11
3.83494
21
-1.8575
0
LINE
8
BLACK
6
CONTINUOUS
10
3.83494
20
-1.8575
11
3.8281
21
-1.85886
0
LINE
8
BLACK
6
CONTINUOUS
10
3.8281
20
-1.85886
11
3.82112
21
-1.85886
0
LINE
8
BLACK
6
CONTINUOUS
10
3.82112
20
-1.85886
11
3.81427
21
-1.8575
0
LINE
8
BLACK
6
CONTINUOUS
10
3.81427
20
-1.8575
11
3.80782
21
-1.85483
0
LINE
8
BLACK
6
CONTINUOUS
10
3.80782
20
-1.85483
11
3.80202
21
-1.85095
0
LINE
8
BLACK
6
CONTINUOUS
10
3.80202
20
-1.85095
11
3.79708
21
-1.84601
0
LINE
8
BLACK
6
CONTINUOUS
10
3.79708
20
-1.84601
11
3.79321
21
-1.84021
0
LINE
8
BLACK
6
CONTINUOUS
10
3.79321
20
-1.84021
11
3.79053
21
-1.83376
0
LINE
8
BLACK
6
CONTINUOUS
10
3.79053
20
-1.83376
11
3.78917
21
-1.82692
0
LINE
8
BLACK
6
CONTINUOUS
10
3.78917
20
-1.82692
11
3.78917
21
-1.81994
0
LINE
8
BLACK
6
CONTINUOUS
10
3.78917
20
-1.81994
11
3.79053
21
-1.81309
0
LINE
8
BLACK
6
CONTINUOUS
10
3.79053
20
-1.81309
11
3.79321
21
-1.80664
0
LINE
8
BLACK
6
CONTINUOUS
10
3.79321
20
-1.80664
11
3.79708
21
-1.80084
0
LINE
8
BLACK
6
CONTINUOUS
10
3.79708
20
-1.80084
11
3.80202
21
-1.7959
0
LINE
8
BLACK
6
CONTINUOUS
10
3.80202
20
-1.7959
11
3.80782
21
-1.79202
0
LINE
8
BLACK
6
CONTINUOUS
10
3.80782
20
-1.79202
11
3.81427
21
-1.78935
0
LINE
8
BLACK
6
CONTINUOUS
10
3.81427
20
-1.78935
11
3.82112
21
-1.78799
0
LINE
8
BLACK
6
CONTINUOUS
10
3.82112
20
-1.78799
11
3.8281
21
-1.78799
0
LINE
8
BLACK
6
CONTINUOUS
10
3.8281
20
-1.78799
11
3.83494
21
-1.78935
0
CIRCLE
8
BLACK
10
3.54114
20
-2.41398
40
0.00787402
0
CIRCLE
8
BLACK
10
3.62972
20
-2.32343
40
0.00787402
0
CIRCLE
8
BLACK
10
3.52539
20
-1.82343
40
0.00787402
  0
ENDSEC
  0
EOF
