G04 #@! TF.GenerationSoftware,KiCad,Pcbnew,(5.1.5)-3*
G04 #@! TF.CreationDate,2020-05-06T13:52:35+02:00*
G04 #@! TF.ProjectId,Cherry-Mx-Bitboard-Re-19.05mm,43686572-7279-42d4-9d78-2d426974626f,1*
G04 #@! TF.SameCoordinates,Original*
G04 #@! TF.FileFunction,Profile,NP*
%FSLAX46Y46*%
G04 Gerber Fmt 4.6, Leading zero omitted, Abs format (unit mm)*
G04 Created by KiCad (PCBNEW (5.1.5)-3) date 2020-05-06 13:52:35*
%MOMM*%
%LPD*%
G04 APERTURE LIST*
%ADD10C,0.010000*%
%ADD11C,0.100000*%
G04 APERTURE END LIST*
D10*
X84145000Y-53315000D02*
X84145000Y-48765000D01*
X84195000Y-53515000D02*
G75*
G03X84195000Y-53515000I-50000J0D01*
G01*
X84195000Y-53815000D02*
G75*
G03X84195000Y-53815000I-50000J0D01*
G01*
X83645000Y-53365000D02*
X84095000Y-53365000D01*
X84095000Y-53365000D02*
G75*
G03X84145000Y-53315000I50000J0D01*
G01*
X84095000Y-54265000D02*
X83645000Y-54265000D01*
X84195000Y-53665000D02*
G75*
G03X84195000Y-53665000I-50000J0D01*
G01*
X84195000Y-53965000D02*
G75*
G03X84195000Y-53965000I-50000J0D01*
G01*
X84145000Y-54315000D02*
G75*
G03X84095000Y-54265000I0J50000D01*
G01*
X84195000Y-54115000D02*
G75*
G03X84195000Y-54115000I-50000J0D01*
G01*
X83645000Y-54265000D02*
X83645000Y-53365000D01*
X101195000Y-53515000D02*
G75*
G03X101195000Y-53515000I-50000J0D01*
G01*
X101195000Y-53815000D02*
G75*
G03X101195000Y-53815000I-50000J0D01*
G01*
X101645000Y-53365000D02*
X101195000Y-53365000D01*
X101195000Y-53365000D02*
G75*
G02X101145000Y-53315000I-50000J0D01*
G01*
X101195000Y-54265000D02*
X101645000Y-54265000D01*
X101195000Y-53665000D02*
G75*
G03X101195000Y-53665000I-50000J0D01*
G01*
X101195000Y-53965000D02*
G75*
G03X101195000Y-53965000I-50000J0D01*
G01*
X101145000Y-54315000D02*
G75*
G02X101195000Y-54265000I0J50000D01*
G01*
X101195000Y-54115000D02*
G75*
G03X101195000Y-54115000I-50000J0D01*
G01*
X101645000Y-54265000D02*
X101645000Y-53365000D01*
X92145000Y-62315000D02*
X91869998Y-62314999D01*
X93670000Y-62315001D02*
X93145000Y-62315000D01*
X92995000Y-62315000D02*
G75*
G03X92995000Y-62315000I-50000J0D01*
G01*
X92695000Y-62315000D02*
G75*
G03X92695000Y-62315000I-50000J0D01*
G01*
X93095000Y-62815000D02*
X93095000Y-62365000D01*
X93095000Y-62365000D02*
G75*
G02X93145000Y-62315000I0J50000D01*
G01*
X92195000Y-62365000D02*
X92195000Y-62815000D01*
X92845000Y-62315000D02*
G75*
G03X92845000Y-62315000I-50000J0D01*
G01*
X92545000Y-62315000D02*
G75*
G03X92545000Y-62315000I-50000J0D01*
G01*
X92145000Y-62315000D02*
G75*
G02X92195000Y-62365000I50000J0D01*
G01*
X92395000Y-62315000D02*
G75*
G03X92395000Y-62315000I-50000J0D01*
G01*
X92195000Y-62815000D02*
X93095000Y-62815000D01*
X93145000Y-45315000D02*
X99145001Y-45314999D01*
X92145000Y-45315000D02*
X86145000Y-45315001D01*
X92395000Y-45315000D02*
G75*
G03X92395000Y-45315000I-50000J0D01*
G01*
X92695000Y-45315000D02*
G75*
G03X92695000Y-45315000I-50000J0D01*
G01*
X92195000Y-44815000D02*
X92195000Y-45265000D01*
X92195000Y-45265000D02*
G75*
G02X92145000Y-45315000I0J-50000D01*
G01*
X93095000Y-45265000D02*
X93095000Y-44815000D01*
X92545000Y-45315000D02*
G75*
G03X92545000Y-45315000I-50000J0D01*
G01*
X92845000Y-45315000D02*
G75*
G03X92845000Y-45315000I-50000J0D01*
G01*
X93145000Y-45315000D02*
G75*
G02X93095000Y-45265000I-50000J0D01*
G01*
X92995000Y-45315000D02*
G75*
G03X92995000Y-45315000I-50000J0D01*
G01*
X93095000Y-44815000D02*
X92195000Y-44815000D01*
X101145000Y-47765000D02*
X101145000Y-47314999D01*
X101145000Y-60815000D02*
X101145000Y-60265000D01*
X101145000Y-60815000D02*
X101142800Y-61036200D01*
X101145000Y-54315000D02*
X101145000Y-54815000D01*
D11*
X94234000Y-50700000D02*
X94234000Y-47525000D01*
D10*
X84137500Y-61023500D02*
X84145000Y-60265000D01*
D11*
X91059000Y-47525000D02*
X91059000Y-50700000D01*
X94234000Y-47525000D02*
X91059000Y-47525000D01*
X91059000Y-50700000D02*
X94234000Y-50700000D01*
X94211000Y-57227000D02*
X91036000Y-57227000D01*
X94211000Y-60402000D02*
X94211000Y-57227000D01*
X91036000Y-60402000D02*
X94211000Y-60402000D01*
X91036000Y-57227000D02*
X91036000Y-60402000D01*
D10*
X101117400Y-46609000D02*
X101145000Y-47314999D01*
X99145001Y-45314999D02*
X99847400Y-45339000D01*
X99847400Y-45339000D02*
G75*
G02X101117400Y-46609000I0J-1270000D01*
G01*
X99872800Y-62306200D02*
X99145001Y-62315000D01*
X101142800Y-61036200D02*
G75*
G02X99872800Y-62306200I-1270000J0D01*
G01*
X86144999Y-62315000D02*
X85407500Y-62293500D01*
X85407500Y-62293500D02*
G75*
G02X84137500Y-61023500I0J1270000D01*
G01*
X84145000Y-46584999D02*
X84145000Y-48765000D01*
X86145000Y-45315001D02*
X85415000Y-45314999D01*
X84145000Y-46584999D02*
G75*
G02X85415000Y-45314999I1270000J0D01*
G01*
X93670000Y-62315001D02*
X99145001Y-62315000D01*
X101145000Y-54815000D02*
X101145000Y-60265000D01*
X86144999Y-62315000D02*
X91869998Y-62314999D01*
X84145000Y-54315000D02*
X84145000Y-60265000D01*
X101145000Y-47765000D02*
X101145000Y-53315000D01*
M02*
