M48
; DRILL file {KiCad (5.1.5)-3} date 5/6/2020 2:38:38 PM
; FORMAT={-:-/ absolute / inch / decimal}
; #@! TF.CreationDate,2020-05-06T14:38:38+02:00
; #@! TF.GenerationSoftware,Kicad,Pcbnew,(5.1.5)-3
; #@! TF.FileFunction,Plated,1,2,PTH
FMAT,2
INCH
T1C0.0118
T2C0.0315
%
G90
G05
T1
X3.4014Y-2.2486
X3.4939Y-2.4297
X3.5195Y-2.2762
X3.5254Y-2.4297
X3.5648Y-2.1719
X3.6484Y-2.2181
X3.6671Y-1.8431
X3.736Y-2.3156
X3.7577Y-2.0163
X3.7734Y-2.41
X3.8522Y-2.3864
X3.8679Y-1.9927
X3.8679Y-2.0636
X3.9033Y-2.2171
X3.9388Y-2.4022
T2
X3.345Y-2.1108
X3.427Y-2.4219
X3.3502Y-2.4159
X3.5114Y-2.1629
X3.345Y-2.2526
X3.9506Y-2.1719
X3.9506Y-2.0301
X3.345Y-2.1817
X3.9467Y-1.8195
X3.3482Y-1.8195
X3.427Y-1.8156
X3.9506Y-2.101
T0
M30
