G04 #@! TF.GenerationSoftware,KiCad,Pcbnew,(5.1.5)-3*
G04 #@! TF.CreationDate,2020-05-06T13:52:35+02:00*
G04 #@! TF.ProjectId,Cherry-Mx-Bitboard-Re-19.05mm,43686572-7279-42d4-9d78-2d426974626f,1*
G04 #@! TF.SameCoordinates,Original*
G04 #@! TF.FileFunction,Soldermask,Bot*
G04 #@! TF.FilePolarity,Negative*
%FSLAX46Y46*%
G04 Gerber Fmt 4.6, Leading zero omitted, Abs format (unit mm)*
G04 Created by KiCad (PCBNEW (5.1.5)-3) date 2020-05-06 13:52:35*
%MOMM*%
%LPD*%
G04 APERTURE LIST*
%ADD10R,2.550000X2.500000*%
%ADD11C,2.000000*%
%ADD12C,3.000000*%
%ADD13C,4.000000*%
%ADD14C,1.701800*%
%ADD15C,3.429000*%
%ADD16C,1.600000*%
%ADD17C,0.100000*%
%ADD18R,1.000000X1.500000*%
%ADD19R,1.600000X1.600000*%
G04 APERTURE END LIST*
D10*
X85285000Y-51275000D03*
X98735000Y-48735000D03*
D11*
X87565000Y-53815000D03*
D12*
X88835000Y-51275000D03*
D13*
X92645000Y-53815000D03*
D12*
X95185000Y-48735000D03*
D11*
X97725000Y-53815000D03*
D14*
X98145000Y-53815000D03*
X87145000Y-53815000D03*
D12*
X97645000Y-57565000D03*
D15*
X92645000Y-53815000D03*
D12*
X92645000Y-59765000D03*
D16*
X89189223Y-54938357D03*
D17*
G36*
X85339873Y-62469553D02*
G01*
X83990447Y-61609873D01*
X84850127Y-60260447D01*
X86199553Y-61120127D01*
X85339873Y-62469553D01*
G37*
D18*
X91033600Y-61239400D03*
X94233600Y-61239400D03*
X91033600Y-56339400D03*
X94233600Y-56339400D03*
D17*
G36*
X86246366Y-60418422D02*
G01*
X85445144Y-59907987D01*
X86143634Y-58811578D01*
X86944856Y-59322013D01*
X86246366Y-60418422D01*
G37*
G36*
X88153780Y-57424382D02*
G01*
X87352558Y-56913947D01*
X88051048Y-55817538D01*
X88852270Y-56327973D01*
X88153780Y-57424382D01*
G37*
D16*
X87045000Y-61515000D03*
X84963000Y-53615000D03*
D19*
X100345000Y-55165000D03*
D16*
X87045000Y-46115000D03*
X84963000Y-55415000D03*
X100345000Y-51565000D03*
D19*
X84963000Y-57215000D03*
D16*
X100345000Y-53365000D03*
X100245000Y-46215000D03*
X85045000Y-46215000D03*
M02*
