  0
SECTION
  2
HEADER
  9
$ANGBASE
  50
0.0
  9
$ANGDIR
  70
1
  9
$MEASUREMENT
  70
0
  0
ENDSEC
  0
SECTION
  2
TABLES
  0
TABLE
  2
LTYPE
  70
4
  0
LTYPE
  5
40F
  2
CONTINUOUS
  70
0
  3
Solid line
  72
65
  73
0
  40
0.0
  0
LTYPE
  5
410
  2
DASHDOT
 70
0
  3
Dash Dot ____ _ ____ _
 72
65
 73
4
 40
2.0
 49
1.25
 49
-0.25
 49
0.25
 49
-0.25
  0
LTYPE
  5
411
  2
DASHED
 70
0
  3
Dashed __ __ __ __ __
 72
65
 73
2
 40
0.75
 49
0.5
 49
-0.25
  0
LTYPE
  5
43B
  2
DOTTED
 70
0
  3
Dotted .  .  .  .
 72
65
 73
2
 40
0.2
 49
0.0
 49
-0.2
  0
ENDTAB
  0
TABLE
  2
STYLE
  70
4
  0
STYLE
  2
KICAD
  70
0
  40
0
  41
1
  42
1
  50
0
  71
0
  3
isocp.shx
  0
STYLE
  2
KICADB
  70
0
  40
0
  41
1
  42
1
  50
0
  71
0
  3
isocp.shx
  0
STYLE
  2
KICADI
  70
0
  40
0
  41
1
  42
1
  50
15
  71
0
  3
isocp.shx
  0
STYLE
  2
KICADBI
  70
0
  40
0
  41
1
  42
1
  50
15
  71
0
  3
isocp.shx
  0
ENDTAB
  0
TABLE
  2
LAYER
  70
1
  0
LAYER
  2
BLACK
  70
0
  62
7
  6
CONTINUOUS
  0
ENDTAB
  0
ENDSEC
  0
SECTION
  2
ENTITIES
0
LINE
8
BLACK
6
CONTINUOUS
10
3.90448
20
-1.86083
11
3.90491
21
-1.86087
0
LINE
8
BLACK
6
CONTINUOUS
10
3.90491
20
-1.86087
11
3.90547
21
-1.86104
0
LINE
8
BLACK
6
CONTINUOUS
10
3.90547
20
-1.86104
11
3.90598
21
-1.86131
0
LINE
8
BLACK
6
CONTINUOUS
10
3.90598
20
-1.86131
11
3.90643
21
-1.86168
0
LINE
8
BLACK
6
CONTINUOUS
10
3.90643
20
-1.86168
11
3.9068
21
-1.86213
0
LINE
8
BLACK
6
CONTINUOUS
10
3.9068
20
-1.86213
11
3.90707
21
-1.86264
0
LINE
8
BLACK
6
CONTINUOUS
10
3.90707
20
-1.86264
11
3.90724
21
-1.8632
0
LINE
8
BLACK
6
CONTINUOUS
10
3.90724
20
-1.8632
11
3.9073
21
-1.86378
0
LINE
8
BLACK
6
CONTINUOUS
10
3.9073
20
-1.86378
11
3.90728
21
-1.86392
0
LINE
8
BLACK
6
CONTINUOUS
10
3.90728
20
-1.86392
11
3.90728
21
-2.37545
0
LINE
8
BLACK
6
CONTINUOUS
10
3.90728
20
-2.37545
11
3.9073
21
-2.37559
0
LINE
8
BLACK
6
CONTINUOUS
10
3.9073
20
-2.37559
11
3.90724
21
-2.37617
0
LINE
8
BLACK
6
CONTINUOUS
10
3.90724
20
-2.37617
11
3.90707
21
-2.37673
0
LINE
8
BLACK
6
CONTINUOUS
10
3.90707
20
-2.37673
11
3.9068
21
-2.37724
0
LINE
8
BLACK
6
CONTINUOUS
10
3.9068
20
-2.37724
11
3.90643
21
-2.37769
0
LINE
8
BLACK
6
CONTINUOUS
10
3.90643
20
-2.37769
11
3.90598
21
-2.37806
0
LINE
8
BLACK
6
CONTINUOUS
10
3.90598
20
-2.37806
11
3.90547
21
-2.37833
0
LINE
8
BLACK
6
CONTINUOUS
10
3.90547
20
-2.37833
11
3.90491
21
-2.3785
0
LINE
8
BLACK
6
CONTINUOUS
10
3.90491
20
-2.3785
11
3.90448
21
-2.37854
0
LINE
8
BLACK
6
CONTINUOUS
10
3.90448
20
-2.37854
11
3.90433
21
-2.37856
0
LINE
8
BLACK
6
CONTINUOUS
10
3.90433
20
-2.37856
11
3.90419
21
-2.37854
0
LINE
8
BLACK
6
CONTINUOUS
10
3.90419
20
-2.37854
11
3.39266
21
-2.37854
0
LINE
8
BLACK
6
CONTINUOUS
10
3.39266
20
-2.37854
11
3.39252
21
-2.37856
0
LINE
8
BLACK
6
CONTINUOUS
10
3.39252
20
-2.37856
11
3.39194
21
-2.3785
0
LINE
8
BLACK
6
CONTINUOUS
10
3.39194
20
-2.3785
11
3.39138
21
-2.37833
0
LINE
8
BLACK
6
CONTINUOUS
10
3.39138
20
-2.37833
11
3.39087
21
-2.37806
0
LINE
8
BLACK
6
CONTINUOUS
10
3.39087
20
-2.37806
11
3.39042
21
-2.37769
0
LINE
8
BLACK
6
CONTINUOUS
10
3.39042
20
-2.37769
11
3.39005
21
-2.37724
0
LINE
8
BLACK
6
CONTINUOUS
10
3.39005
20
-2.37724
11
3.38978
21
-2.37673
0
LINE
8
BLACK
6
CONTINUOUS
10
3.38978
20
-2.37673
11
3.38961
21
-2.37617
0
LINE
8
BLACK
6
CONTINUOUS
10
3.38961
20
-2.37617
11
3.38955
21
-2.37559
0
LINE
8
BLACK
6
CONTINUOUS
10
3.38955
20
-2.37559
11
3.38957
21
-2.37545
0
LINE
8
BLACK
6
CONTINUOUS
10
3.38957
20
-2.37545
11
3.38957
21
-1.86392
0
LINE
8
BLACK
6
CONTINUOUS
10
3.38957
20
-1.86392
11
3.38955
21
-1.86378
0
LINE
8
BLACK
6
CONTINUOUS
10
3.38955
20
-1.86378
11
3.38961
21
-1.8632
0
LINE
8
BLACK
6
CONTINUOUS
10
3.38961
20
-1.8632
11
3.38978
21
-1.86264
0
LINE
8
BLACK
6
CONTINUOUS
10
3.38978
20
-1.86264
11
3.39005
21
-1.86213
0
LINE
8
BLACK
6
CONTINUOUS
10
3.39005
20
-1.86213
11
3.39042
21
-1.86168
0
LINE
8
BLACK
6
CONTINUOUS
10
3.39042
20
-1.86168
11
3.39087
21
-1.86131
0
LINE
8
BLACK
6
CONTINUOUS
10
3.39087
20
-1.86131
11
3.39138
21
-1.86104
0
LINE
8
BLACK
6
CONTINUOUS
10
3.39138
20
-1.86104
11
3.39194
21
-1.86087
0
LINE
8
BLACK
6
CONTINUOUS
10
3.39194
20
-1.86087
11
3.39237
21
-1.86083
0
LINE
8
BLACK
6
CONTINUOUS
10
3.39237
20
-1.86083
11
3.39252
21
-1.86081
0
LINE
8
BLACK
6
CONTINUOUS
10
3.39252
20
-1.86081
11
3.39266
21
-1.86083
0
LINE
8
BLACK
6
CONTINUOUS
10
3.39266
20
-1.86083
11
3.90419
21
-1.86083
0
LINE
8
BLACK
6
CONTINUOUS
10
3.90419
20
-1.86083
11
3.90433
21
-1.86081
0
LINE
8
BLACK
6
CONTINUOUS
10
3.90433
20
-1.86081
11
3.90448
21
-1.86083
0
LINE
8
BLACK
6
CONTINUOUS
10
3.39547
20
-1.86673
11
3.39547
21
-2.37264
0
LINE
8
BLACK
6
CONTINUOUS
10
3.39547
20
-2.37264
11
3.90138
21
-2.37264
0
LINE
8
BLACK
6
CONTINUOUS
10
3.90138
20
-2.37264
11
3.90138
21
-1.86673
0
LINE
8
BLACK
6
CONTINUOUS
10
3.90138
20
-1.86673
11
3.39547
21
-1.86673
  0
ENDSEC
  0
EOF
