  0
SECTION
  2
HEADER
  9
$ANGBASE
  50
0.0
  9
$ANGDIR
  70
1
  9
$MEASUREMENT
  70
0
  0
ENDSEC
  0
SECTION
  2
TABLES
  0
TABLE
  2
LTYPE
  70
4
  0
LTYPE
  5
40F
  2
CONTINUOUS
  70
0
  3
Solid line
  72
65
  73
0
  40
0.0
  0
LTYPE
  5
410
  2
DASHDOT
 70
0
  3
Dash Dot ____ _ ____ _
 72
65
 73
4
 40
2.0
 49
1.25
 49
-0.25
 49
0.25
 49
-0.25
  0
LTYPE
  5
411
  2
DASHED
 70
0
  3
Dashed __ __ __ __ __
 72
65
 73
2
 40
0.75
 49
0.5
 49
-0.25
  0
LTYPE
  5
43B
  2
DOTTED
 70
0
  3
Dotted .  .  .  .
 72
65
 73
2
 40
0.2
 49
0.0
 49
-0.2
  0
ENDTAB
  0
TABLE
  2
STYLE
  70
4
  0
STYLE
  2
KICAD
  70
0
  40
0
  41
1
  42
1
  50
0
  71
0
  3
isocp.shx
  0
STYLE
  2
KICADB
  70
0
  40
0
  41
1
  42
1
  50
0
  71
0
  3
isocp.shx
  0
STYLE
  2
KICADI
  70
0
  40
0
  41
1
  42
1
  50
15
  71
0
  3
isocp.shx
  0
STYLE
  2
KICADBI
  70
0
  40
0
  41
1
  42
1
  50
15
  71
0
  3
isocp.shx
  0
ENDTAB
  0
TABLE
  2
LAYER
  70
1
  0
LAYER
  2
BLACK
  70
0
  62
7
  6
CONTINUOUS
  0
ENDTAB
  0
ENDSEC
  0
SECTION
  2
ENTITIES
0
LINE
8
BLACK
6
CONTINUOUS
10
3.90373
20
-1.78212
11
3.9041
21
-1.78223
0
LINE
8
BLACK
6
CONTINUOUS
10
3.9041
20
-1.78223
11
3.90445
21
-1.78241
0
LINE
8
BLACK
6
CONTINUOUS
10
3.90445
20
-1.78241
11
3.90475
21
-1.78266
0
LINE
8
BLACK
6
CONTINUOUS
10
3.90475
20
-1.78266
11
3.90499
21
-1.78296
0
LINE
8
BLACK
6
CONTINUOUS
10
3.90499
20
-1.78296
11
3.90517
21
-1.7833
0
LINE
8
BLACK
6
CONTINUOUS
10
3.90517
20
-1.7833
11
3.9052
21
-1.78339
0
LINE
8
BLACK
6
CONTINUOUS
10
3.9052
20
-1.78339
11
3.91205
21
-1.79984
0
LINE
8
BLACK
6
CONTINUOUS
10
3.91205
20
-1.79984
11
3.92486
21
-1.82006
0
LINE
8
BLACK
6
CONTINUOUS
10
3.92486
20
-1.82006
11
3.94134
21
-1.83738
0
LINE
8
BLACK
6
CONTINUOUS
10
3.94134
20
-1.83738
11
3.96087
21
-1.85118
0
LINE
8
BLACK
6
CONTINUOUS
10
3.96087
20
-1.85118
11
3.98278
21
-1.86095
0
LINE
8
BLACK
6
CONTINUOUS
10
3.98278
20
-1.86095
11
3.98284
21
-1.86097
0
LINE
8
BLACK
6
CONTINUOUS
10
3.98284
20
-1.86097
11
3.98319
21
-1.86115
0
LINE
8
BLACK
6
CONTINUOUS
10
3.98319
20
-1.86115
11
3.98349
21
-1.8614
0
LINE
8
BLACK
6
CONTINUOUS
10
3.98349
20
-1.8614
11
3.98373
21
-1.8617
0
LINE
8
BLACK
6
CONTINUOUS
10
3.98373
20
-1.8617
11
3.98391
21
-1.86204
0
LINE
8
BLACK
6
CONTINUOUS
10
3.98391
20
-1.86204
11
3.98403
21
-1.86241
0
LINE
8
BLACK
6
CONTINUOUS
10
3.98403
20
-1.86241
11
3.98406
21
-1.8627
0
LINE
8
BLACK
6
CONTINUOUS
10
3.98406
20
-1.8627
11
3.98406
21
-2.08916
0
LINE
8
BLACK
6
CONTINUOUS
10
3.98406
20
-2.08916
11
3.98406
21
-2.08928
0
LINE
8
BLACK
6
CONTINUOUS
10
3.98406
20
-2.08928
11
3.98437
21
-2.09204
0
LINE
8
BLACK
6
CONTINUOUS
10
3.98437
20
-2.09204
11
3.98518
21
-2.0946
0
LINE
8
BLACK
6
CONTINUOUS
10
3.98518
20
-2.0946
11
3.98647
21
-2.09695
0
LINE
8
BLACK
6
CONTINUOUS
10
3.98647
20
-2.09695
11
3.9882
21
-2.09901
0
LINE
8
BLACK
6
CONTINUOUS
10
3.9882
20
-2.09901
11
3.99029
21
-2.1007
0
LINE
8
BLACK
6
CONTINUOUS
10
3.99029
20
-2.1007
11
3.99268
21
-2.10194
0
LINE
8
BLACK
6
CONTINUOUS
10
3.99268
20
-2.10194
11
3.99525
21
-2.1027
0
LINE
8
BLACK
6
CONTINUOUS
10
3.99525
20
-2.1027
11
3.99793
21
-2.10294
0
LINE
8
BLACK
6
CONTINUOUS
10
3.99793
20
-2.10294
11
4.0006
21
-2.10266
0
LINE
8
BLACK
6
CONTINUOUS
10
4.0006
20
-2.10266
11
4.00317
21
-2.10187
0
LINE
8
BLACK
6
CONTINUOUS
10
4.00317
20
-2.10187
11
4.00553
21
-2.10059
0
LINE
8
BLACK
6
CONTINUOUS
10
4.00553
20
-2.10059
11
4.00761
21
-2.09888
0
LINE
8
BLACK
6
CONTINUOUS
10
4.00761
20
-2.09888
11
4.0093
21
-2.09679
0
LINE
8
BLACK
6
CONTINUOUS
10
4.0093
20
-2.09679
11
4.01057
21
-2.09442
0
LINE
8
BLACK
6
CONTINUOUS
10
4.01057
20
-2.09442
11
4.01134
21
-2.09185
0
LINE
8
BLACK
6
CONTINUOUS
10
4.01134
20
-2.09185
11
4.01162
21
-2.08898
0
LINE
8
BLACK
6
CONTINUOUS
10
4.01162
20
-2.08898
11
4.01162
21
-2.08897
0
LINE
8
BLACK
6
CONTINUOUS
10
4.01162
20
-2.08897
11
4.01164
21
-2.08879
0
LINE
8
BLACK
6
CONTINUOUS
10
4.01164
20
-2.08879
11
4.01176
21
-2.08842
0
LINE
8
BLACK
6
CONTINUOUS
10
4.01176
20
-2.08842
11
4.01194
21
-2.08807
0
LINE
8
BLACK
6
CONTINUOUS
10
4.01194
20
-2.08807
11
4.01218
21
-2.08777
0
LINE
8
BLACK
6
CONTINUOUS
10
4.01218
20
-2.08777
11
4.01248
21
-2.08753
0
LINE
8
BLACK
6
CONTINUOUS
10
4.01248
20
-2.08753
11
4.01283
21
-2.08735
0
LINE
8
BLACK
6
CONTINUOUS
10
4.01283
20
-2.08735
11
4.0132
21
-2.08723
0
LINE
8
BLACK
6
CONTINUOUS
10
4.0132
20
-2.08723
11
4.01358
21
-2.0872
0
LINE
8
BLACK
6
CONTINUOUS
10
4.01358
20
-2.0872
11
4.01379
21
-2.08722
0
LINE
8
BLACK
6
CONTINUOUS
10
4.01379
20
-2.08722
11
4.01379
21
-2.08722
0
LINE
8
BLACK
6
CONTINUOUS
10
4.01379
20
-2.08722
11
4.01379
21
-2.08722
0
LINE
8
BLACK
6
CONTINUOUS
10
4.01379
20
-2.08722
11
4.01397
21
-2.08723
0
LINE
8
BLACK
6
CONTINUOUS
10
4.01397
20
-2.08723
11
4.01416
21
-2.08729
0
LINE
8
BLACK
6
CONTINUOUS
10
4.01416
20
-2.08729
11
4.01416
21
-2.08729
0
LINE
8
BLACK
6
CONTINUOUS
10
4.01416
20
-2.08729
11
4.01417
21
-2.08729
0
LINE
8
BLACK
6
CONTINUOUS
10
4.01417
20
-2.08729
11
4.01434
21
-2.08735
0
LINE
8
BLACK
6
CONTINUOUS
10
4.01434
20
-2.08735
11
4.01452
21
-2.08744
0
LINE
8
BLACK
6
CONTINUOUS
10
4.01452
20
-2.08744
11
4.01452
21
-2.08744
0
LINE
8
BLACK
6
CONTINUOUS
10
4.01452
20
-2.08744
11
4.01452
21
-2.08744
0
LINE
8
BLACK
6
CONTINUOUS
10
4.01452
20
-2.08744
11
4.01468
21
-2.08753
0
LINE
8
BLACK
6
CONTINUOUS
10
4.01468
20
-2.08753
11
4.01484
21
-2.08766
0
LINE
8
BLACK
6
CONTINUOUS
10
4.01484
20
-2.08766
11
4.01484
21
-2.08766
0
LINE
8
BLACK
6
CONTINUOUS
10
4.01484
20
-2.08766
11
4.01484
21
-2.08766
0
LINE
8
BLACK
6
CONTINUOUS
10
4.01484
20
-2.08766
11
4.01498
21
-2.08777
0
LINE
8
BLACK
6
CONTINUOUS
10
4.01498
20
-2.08777
11
4.01511
21
-2.08793
0
LINE
8
BLACK
6
CONTINUOUS
10
4.01511
20
-2.08793
11
4.01511
21
-2.08793
0
LINE
8
BLACK
6
CONTINUOUS
10
4.01511
20
-2.08793
11
4.01511
21
-2.08793
0
LINE
8
BLACK
6
CONTINUOUS
10
4.01511
20
-2.08793
11
4.01523
21
-2.08807
0
LINE
8
BLACK
6
CONTINUOUS
10
4.01523
20
-2.08807
11
4.01532
21
-2.08825
0
LINE
8
BLACK
6
CONTINUOUS
10
4.01532
20
-2.08825
11
4.01532
21
-2.08825
0
LINE
8
BLACK
6
CONTINUOUS
10
4.01532
20
-2.08825
11
4.01532
21
-2.08825
0
LINE
8
BLACK
6
CONTINUOUS
10
4.01532
20
-2.08825
11
4.01541
21
-2.08842
0
LINE
8
BLACK
6
CONTINUOUS
10
4.01541
20
-2.08842
11
4.01547
21
-2.0886
0
LINE
8
BLACK
6
CONTINUOUS
10
4.01547
20
-2.0886
11
4.01547
21
-2.0886
0
LINE
8
BLACK
6
CONTINUOUS
10
4.01547
20
-2.0886
11
4.01547
21
-2.0886
0
LINE
8
BLACK
6
CONTINUOUS
10
4.01547
20
-2.0886
11
4.01552
21
-2.08879
0
LINE
8
BLACK
6
CONTINUOUS
10
4.01552
20
-2.08879
11
4.01554
21
-2.08898
0
LINE
8
BLACK
6
CONTINUOUS
10
4.01554
20
-2.08898
11
4.01554
21
-2.08898
0
LINE
8
BLACK
6
CONTINUOUS
10
4.01554
20
-2.08898
11
4.01554
21
-2.08898
0
LINE
8
BLACK
6
CONTINUOUS
10
4.01554
20
-2.08898
11
4.01555
21
-2.08908
0
LINE
8
BLACK
6
CONTINUOUS
10
4.01555
20
-2.08908
11
4.01555
21
-2.15817
0
LINE
8
BLACK
6
CONTINUOUS
10
4.01555
20
-2.15817
11
4.01552
21
-2.15846
0
LINE
8
BLACK
6
CONTINUOUS
10
4.01552
20
-2.15846
11
4.01541
21
-2.15883
0
LINE
8
BLACK
6
CONTINUOUS
10
4.01541
20
-2.15883
11
4.01523
21
-2.15917
0
LINE
8
BLACK
6
CONTINUOUS
10
4.01523
20
-2.15917
11
4.01498
21
-2.15947
0
LINE
8
BLACK
6
CONTINUOUS
10
4.01498
20
-2.15947
11
4.01468
21
-2.15972
0
LINE
8
BLACK
6
CONTINUOUS
10
4.01468
20
-2.15972
11
4.01434
21
-2.1599
0
LINE
8
BLACK
6
CONTINUOUS
10
4.01434
20
-2.1599
11
4.01397
21
-2.16001
0
LINE
8
BLACK
6
CONTINUOUS
10
4.01397
20
-2.16001
11
4.01358
21
-2.16005
0
LINE
8
BLACK
6
CONTINUOUS
10
4.01358
20
-2.16005
11
4.0132
21
-2.16001
0
LINE
8
BLACK
6
CONTINUOUS
10
4.0132
20
-2.16001
11
4.01283
21
-2.1599
0
LINE
8
BLACK
6
CONTINUOUS
10
4.01283
20
-2.1599
11
4.01248
21
-2.15972
0
LINE
8
BLACK
6
CONTINUOUS
10
4.01248
20
-2.15972
11
4.01218
21
-2.15947
0
LINE
8
BLACK
6
CONTINUOUS
10
4.01218
20
-2.15947
11
4.01194
21
-2.15917
0
LINE
8
BLACK
6
CONTINUOUS
10
4.01194
20
-2.15917
11
4.01176
21
-2.15883
0
LINE
8
BLACK
6
CONTINUOUS
10
4.01176
20
-2.15883
11
4.01164
21
-2.15846
0
LINE
8
BLACK
6
CONTINUOUS
10
4.01164
20
-2.15846
11
4.01161
21
-2.15817
0
LINE
8
BLACK
6
CONTINUOUS
10
4.01161
20
-2.15817
11
4.01161
21
-2.15808
0
LINE
8
BLACK
6
CONTINUOUS
10
4.01161
20
-2.15808
11
4.01161
21
-2.15797
0
LINE
8
BLACK
6
CONTINUOUS
10
4.01161
20
-2.15797
11
4.0113
21
-2.15521
0
LINE
8
BLACK
6
CONTINUOUS
10
4.0113
20
-2.15521
11
4.01049
21
-2.15265
0
LINE
8
BLACK
6
CONTINUOUS
10
4.01049
20
-2.15265
11
4.0092
21
-2.15029
0
LINE
8
BLACK
6
CONTINUOUS
10
4.0092
20
-2.15029
11
4.00747
21
-2.14823
0
LINE
8
BLACK
6
CONTINUOUS
10
4.00747
20
-2.14823
11
4.00537
21
-2.14655
0
LINE
8
BLACK
6
CONTINUOUS
10
4.00537
20
-2.14655
11
4.00299
21
-2.1453
0
LINE
8
BLACK
6
CONTINUOUS
10
4.00299
20
-2.1453
11
4.00041
21
-2.14454
0
LINE
8
BLACK
6
CONTINUOUS
10
4.00041
20
-2.14454
11
3.99774
21
-2.1443
0
LINE
8
BLACK
6
CONTINUOUS
10
3.99774
20
-2.1443
11
3.99507
21
-2.14458
0
LINE
8
BLACK
6
CONTINUOUS
10
3.99507
20
-2.14458
11
3.9925
21
-2.14538
0
LINE
8
BLACK
6
CONTINUOUS
10
3.9925
20
-2.14538
11
3.99013
21
-2.14665
0
LINE
8
BLACK
6
CONTINUOUS
10
3.99013
20
-2.14665
11
3.98806
21
-2.14837
0
LINE
8
BLACK
6
CONTINUOUS
10
3.98806
20
-2.14837
11
3.98637
21
-2.15045
0
LINE
8
BLACK
6
CONTINUOUS
10
3.98637
20
-2.15045
11
3.9851
21
-2.15282
0
LINE
8
BLACK
6
CONTINUOUS
10
3.9851
20
-2.15282
11
3.98433
21
-2.1554
0
LINE
8
BLACK
6
CONTINUOUS
10
3.98433
20
-2.1554
11
3.98406
21
-2.15817
0
LINE
8
BLACK
6
CONTINUOUS
10
3.98406
20
-2.15817
11
3.98406
21
-2.3747
0
LINE
8
BLACK
6
CONTINUOUS
10
3.98406
20
-2.3747
11
3.98403
21
-2.37499
0
LINE
8
BLACK
6
CONTINUOUS
10
3.98403
20
-2.37499
11
3.98391
21
-2.37536
0
LINE
8
BLACK
6
CONTINUOUS
10
3.98391
20
-2.37536
11
3.98373
21
-2.37571
0
LINE
8
BLACK
6
CONTINUOUS
10
3.98373
20
-2.37571
11
3.98349
21
-2.376
0
LINE
8
BLACK
6
CONTINUOUS
10
3.98349
20
-2.376
11
3.98319
21
-2.37625
0
LINE
8
BLACK
6
CONTINUOUS
10
3.98319
20
-2.37625
11
3.98284
21
-2.37643
0
LINE
8
BLACK
6
CONTINUOUS
10
3.98284
20
-2.37643
11
3.98275
21
-2.37646
0
LINE
8
BLACK
6
CONTINUOUS
10
3.98275
20
-2.37646
11
3.9663
21
-2.38331
0
LINE
8
BLACK
6
CONTINUOUS
10
3.9663
20
-2.38331
11
3.94608
21
-2.39612
0
LINE
8
BLACK
6
CONTINUOUS
10
3.94608
20
-2.39612
11
3.92876
21
-2.4126
0
LINE
8
BLACK
6
CONTINUOUS
10
3.92876
20
-2.4126
11
3.91496
21
-2.43213
0
LINE
8
BLACK
6
CONTINUOUS
10
3.91496
20
-2.43213
11
3.90519
21
-2.45404
0
LINE
8
BLACK
6
CONTINUOUS
10
3.90519
20
-2.45404
11
3.90517
21
-2.4541
0
LINE
8
BLACK
6
CONTINUOUS
10
3.90517
20
-2.4541
11
3.90499
21
-2.45445
0
LINE
8
BLACK
6
CONTINUOUS
10
3.90499
20
-2.45445
11
3.90475
21
-2.45475
0
LINE
8
BLACK
6
CONTINUOUS
10
3.90475
20
-2.45475
11
3.90445
21
-2.45499
0
LINE
8
BLACK
6
CONTINUOUS
10
3.90445
20
-2.45499
11
3.9041
21
-2.45517
0
LINE
8
BLACK
6
CONTINUOUS
10
3.9041
20
-2.45517
11
3.90373
21
-2.45529
0
LINE
8
BLACK
6
CONTINUOUS
10
3.90373
20
-2.45529
11
3.90344
21
-2.45531
0
LINE
8
BLACK
6
CONTINUOUS
10
3.90344
20
-2.45531
11
3.6878
21
-2.45532
0
LINE
8
BLACK
6
CONTINUOUS
10
3.6878
20
-2.45532
11
3.68769
21
-2.45532
0
LINE
8
BLACK
6
CONTINUOUS
10
3.68769
20
-2.45532
11
3.68493
21
-2.45563
0
LINE
8
BLACK
6
CONTINUOUS
10
3.68493
20
-2.45563
11
3.68237
21
-2.45644
0
LINE
8
BLACK
6
CONTINUOUS
10
3.68237
20
-2.45644
11
3.68002
21
-2.45773
0
LINE
8
BLACK
6
CONTINUOUS
10
3.68002
20
-2.45773
11
3.67796
21
-2.45946
0
LINE
8
BLACK
6
CONTINUOUS
10
3.67796
20
-2.45946
11
3.67627
21
-2.46155
0
LINE
8
BLACK
6
CONTINUOUS
10
3.67627
20
-2.46155
11
3.67503
21
-2.46394
0
LINE
8
BLACK
6
CONTINUOUS
10
3.67503
20
-2.46394
11
3.67427
21
-2.46651
0
LINE
8
BLACK
6
CONTINUOUS
10
3.67427
20
-2.46651
11
3.67403
21
-2.46919
0
LINE
8
BLACK
6
CONTINUOUS
10
3.67403
20
-2.46919
11
3.67431
21
-2.47186
0
LINE
8
BLACK
6
CONTINUOUS
10
3.67431
20
-2.47186
11
3.6751
21
-2.47443
0
LINE
8
BLACK
6
CONTINUOUS
10
3.6751
20
-2.47443
11
3.67638
21
-2.47679
0
LINE
8
BLACK
6
CONTINUOUS
10
3.67638
20
-2.47679
11
3.67809
21
-2.47887
0
LINE
8
BLACK
6
CONTINUOUS
10
3.67809
20
-2.47887
11
3.68017
21
-2.48056
0
LINE
8
BLACK
6
CONTINUOUS
10
3.68017
20
-2.48056
11
3.68255
21
-2.48183
0
LINE
8
BLACK
6
CONTINUOUS
10
3.68255
20
-2.48183
11
3.68512
21
-2.4826
0
LINE
8
BLACK
6
CONTINUOUS
10
3.68512
20
-2.4826
11
3.68789
21
-2.48287
0
LINE
8
BLACK
6
CONTINUOUS
10
3.68789
20
-2.48287
11
3.68789
21
-2.48287
0
LINE
8
BLACK
6
CONTINUOUS
10
3.68789
20
-2.48287
11
3.68794
21
-2.48288
0
LINE
8
BLACK
6
CONTINUOUS
10
3.68794
20
-2.48288
11
3.68799
21
-2.48288
0
LINE
8
BLACK
6
CONTINUOUS
10
3.68799
20
-2.48288
11
3.68799
21
-2.48288
0
LINE
8
BLACK
6
CONTINUOUS
10
3.68799
20
-2.48288
11
3.68818
21
-2.4829
0
LINE
8
BLACK
6
CONTINUOUS
10
3.68818
20
-2.4829
11
3.68855
21
-2.48302
0
LINE
8
BLACK
6
CONTINUOUS
10
3.68855
20
-2.48302
11
3.68889
21
-2.4832
0
LINE
8
BLACK
6
CONTINUOUS
10
3.68889
20
-2.4832
11
3.68919
21
-2.48344
0
LINE
8
BLACK
6
CONTINUOUS
10
3.68919
20
-2.48344
11
3.68944
21
-2.48374
0
LINE
8
BLACK
6
CONTINUOUS
10
3.68944
20
-2.48374
11
3.68962
21
-2.48409
0
LINE
8
BLACK
6
CONTINUOUS
10
3.68962
20
-2.48409
11
3.68974
21
-2.48446
0
LINE
8
BLACK
6
CONTINUOUS
10
3.68974
20
-2.48446
11
3.68977
21
-2.48484
0
LINE
8
BLACK
6
CONTINUOUS
10
3.68977
20
-2.48484
11
3.68975
21
-2.48505
0
LINE
8
BLACK
6
CONTINUOUS
10
3.68975
20
-2.48505
11
3.68975
21
-2.48505
0
LINE
8
BLACK
6
CONTINUOUS
10
3.68975
20
-2.48505
11
3.68975
21
-2.48505
0
LINE
8
BLACK
6
CONTINUOUS
10
3.68975
20
-2.48505
11
3.68974
21
-2.48523
0
LINE
8
BLACK
6
CONTINUOUS
10
3.68974
20
-2.48523
11
3.68968
21
-2.48542
0
LINE
8
BLACK
6
CONTINUOUS
10
3.68968
20
-2.48542
11
3.68968
21
-2.48542
0
LINE
8
BLACK
6
CONTINUOUS
10
3.68968
20
-2.48542
11
3.68968
21
-2.48543
0
LINE
8
BLACK
6
CONTINUOUS
10
3.68968
20
-2.48543
11
3.68962
21
-2.4856
0
LINE
8
BLACK
6
CONTINUOUS
10
3.68962
20
-2.4856
11
3.68953
21
-2.48578
0
LINE
8
BLACK
6
CONTINUOUS
10
3.68953
20
-2.48578
11
3.68953
21
-2.48578
0
LINE
8
BLACK
6
CONTINUOUS
10
3.68953
20
-2.48578
11
3.68953
21
-2.48578
0
LINE
8
BLACK
6
CONTINUOUS
10
3.68953
20
-2.48578
11
3.68944
21
-2.48594
0
LINE
8
BLACK
6
CONTINUOUS
10
3.68944
20
-2.48594
11
3.68931
21
-2.4861
0
LINE
8
BLACK
6
CONTINUOUS
10
3.68931
20
-2.4861
11
3.68931
21
-2.4861
0
LINE
8
BLACK
6
CONTINUOUS
10
3.68931
20
-2.4861
11
3.68931
21
-2.4861
0
LINE
8
BLACK
6
CONTINUOUS
10
3.68931
20
-2.4861
11
3.68919
21
-2.48624
0
LINE
8
BLACK
6
CONTINUOUS
10
3.68919
20
-2.48624
11
3.68904
21
-2.48637
0
LINE
8
BLACK
6
CONTINUOUS
10
3.68904
20
-2.48637
11
3.68904
21
-2.48637
0
LINE
8
BLACK
6
CONTINUOUS
10
3.68904
20
-2.48637
11
3.68904
21
-2.48637
0
LINE
8
BLACK
6
CONTINUOUS
10
3.68904
20
-2.48637
11
3.68889
21
-2.48649
0
LINE
8
BLACK
6
CONTINUOUS
10
3.68889
20
-2.48649
11
3.68872
21
-2.48658
0
LINE
8
BLACK
6
CONTINUOUS
10
3.68872
20
-2.48658
11
3.68872
21
-2.48658
0
LINE
8
BLACK
6
CONTINUOUS
10
3.68872
20
-2.48658
11
3.68872
21
-2.48658
0
LINE
8
BLACK
6
CONTINUOUS
10
3.68872
20
-2.48658
11
3.68855
21
-2.48667
0
LINE
8
BLACK
6
CONTINUOUS
10
3.68855
20
-2.48667
11
3.68836
21
-2.48673
0
LINE
8
BLACK
6
CONTINUOUS
10
3.68836
20
-2.48673
11
3.68836
21
-2.48673
0
LINE
8
BLACK
6
CONTINUOUS
10
3.68836
20
-2.48673
11
3.68836
21
-2.48673
0
LINE
8
BLACK
6
CONTINUOUS
10
3.68836
20
-2.48673
11
3.68818
21
-2.48678
0
LINE
8
BLACK
6
CONTINUOUS
10
3.68818
20
-2.48678
11
3.68799
21
-2.4868
0
LINE
8
BLACK
6
CONTINUOUS
10
3.68799
20
-2.4868
11
3.68799
21
-2.4868
0
LINE
8
BLACK
6
CONTINUOUS
10
3.68799
20
-2.4868
11
3.68799
21
-2.4868
0
LINE
8
BLACK
6
CONTINUOUS
10
3.68799
20
-2.4868
11
3.68789
21
-2.48681
0
LINE
8
BLACK
6
CONTINUOUS
10
3.68789
20
-2.48681
11
3.61683
21
-2.48681
0
LINE
8
BLACK
6
CONTINUOUS
10
3.61683
20
-2.48681
11
3.61654
21
-2.48678
0
LINE
8
BLACK
6
CONTINUOUS
10
3.61654
20
-2.48678
11
3.61617
21
-2.48667
0
LINE
8
BLACK
6
CONTINUOUS
10
3.61617
20
-2.48667
11
3.61583
21
-2.48649
0
LINE
8
BLACK
6
CONTINUOUS
10
3.61583
20
-2.48649
11
3.61553
21
-2.48624
0
LINE
8
BLACK
6
CONTINUOUS
10
3.61553
20
-2.48624
11
3.61528
21
-2.48594
0
LINE
8
BLACK
6
CONTINUOUS
10
3.61528
20
-2.48594
11
3.6151
21
-2.4856
0
LINE
8
BLACK
6
CONTINUOUS
10
3.6151
20
-2.4856
11
3.61499
21
-2.48523
0
LINE
8
BLACK
6
CONTINUOUS
10
3.61499
20
-2.48523
11
3.61495
21
-2.48484
0
LINE
8
BLACK
6
CONTINUOUS
10
3.61495
20
-2.48484
11
3.61499
21
-2.48446
0
LINE
8
BLACK
6
CONTINUOUS
10
3.61499
20
-2.48446
11
3.6151
21
-2.48409
0
LINE
8
BLACK
6
CONTINUOUS
10
3.6151
20
-2.48409
11
3.61528
21
-2.48374
0
LINE
8
BLACK
6
CONTINUOUS
10
3.61528
20
-2.48374
11
3.61553
21
-2.48344
0
LINE
8
BLACK
6
CONTINUOUS
10
3.61553
20
-2.48344
11
3.61583
21
-2.4832
0
LINE
8
BLACK
6
CONTINUOUS
10
3.61583
20
-2.4832
11
3.61617
21
-2.48302
0
LINE
8
BLACK
6
CONTINUOUS
10
3.61617
20
-2.48302
11
3.61654
21
-2.4829
0
LINE
8
BLACK
6
CONTINUOUS
10
3.61654
20
-2.4829
11
3.61683
21
-2.48287
0
LINE
8
BLACK
6
CONTINUOUS
10
3.61683
20
-2.48287
11
3.61692
21
-2.48287
0
LINE
8
BLACK
6
CONTINUOUS
10
3.61692
20
-2.48287
11
3.61703
21
-2.48287
0
LINE
8
BLACK
6
CONTINUOUS
10
3.61703
20
-2.48287
11
3.61979
21
-2.48256
0
LINE
8
BLACK
6
CONTINUOUS
10
3.61979
20
-2.48256
11
3.62235
21
-2.48175
0
LINE
8
BLACK
6
CONTINUOUS
10
3.62235
20
-2.48175
11
3.62471
21
-2.48046
0
LINE
8
BLACK
6
CONTINUOUS
10
3.62471
20
-2.48046
11
3.62677
21
-2.47873
0
LINE
8
BLACK
6
CONTINUOUS
10
3.62677
20
-2.47873
11
3.62845
21
-2.47663
0
LINE
8
BLACK
6
CONTINUOUS
10
3.62845
20
-2.47663
11
3.6297
21
-2.47425
0
LINE
8
BLACK
6
CONTINUOUS
10
3.6297
20
-2.47425
11
3.63046
21
-2.47167
0
LINE
8
BLACK
6
CONTINUOUS
10
3.63046
20
-2.47167
11
3.6307
21
-2.469
0
LINE
8
BLACK
6
CONTINUOUS
10
3.6307
20
-2.469
11
3.63042
21
-2.46633
0
LINE
8
BLACK
6
CONTINUOUS
10
3.63042
20
-2.46633
11
3.62962
21
-2.46376
0
LINE
8
BLACK
6
CONTINUOUS
10
3.62962
20
-2.46376
11
3.62835
21
-2.46139
0
LINE
8
BLACK
6
CONTINUOUS
10
3.62835
20
-2.46139
11
3.62663
21
-2.45932
0
LINE
8
BLACK
6
CONTINUOUS
10
3.62663
20
-2.45932
11
3.62455
21
-2.45762
0
LINE
8
BLACK
6
CONTINUOUS
10
3.62455
20
-2.45762
11
3.62218
21
-2.45636
0
LINE
8
BLACK
6
CONTINUOUS
10
3.62218
20
-2.45636
11
3.6196
21
-2.45559
0
LINE
8
BLACK
6
CONTINUOUS
10
3.6196
20
-2.45559
11
3.61683
21
-2.45531
0
LINE
8
BLACK
6
CONTINUOUS
10
3.61683
20
-2.45531
11
3.39144
21
-2.45531
0
LINE
8
BLACK
6
CONTINUOUS
10
3.39144
20
-2.45531
11
3.39115
21
-2.45529
0
LINE
8
BLACK
6
CONTINUOUS
10
3.39115
20
-2.45529
11
3.39078
21
-2.45517
0
LINE
8
BLACK
6
CONTINUOUS
10
3.39078
20
-2.45517
11
3.39044
21
-2.45499
0
LINE
8
BLACK
6
CONTINUOUS
10
3.39044
20
-2.45499
11
3.39014
21
-2.45475
0
LINE
8
BLACK
6
CONTINUOUS
10
3.39014
20
-2.45475
11
3.38989
21
-2.45445
0
LINE
8
BLACK
6
CONTINUOUS
10
3.38989
20
-2.45445
11
3.38971
21
-2.4541
0
LINE
8
BLACK
6
CONTINUOUS
10
3.38971
20
-2.4541
11
3.38968
21
-2.45401
0
LINE
8
BLACK
6
CONTINUOUS
10
3.38968
20
-2.45401
11
3.38283
21
-2.43756
0
LINE
8
BLACK
6
CONTINUOUS
10
3.38283
20
-2.43756
11
3.37002
21
-2.41734
0
LINE
8
BLACK
6
CONTINUOUS
10
3.37002
20
-2.41734
11
3.35354
21
-2.40002
0
LINE
8
BLACK
6
CONTINUOUS
10
3.35354
20
-2.40002
11
3.33401
21
-2.38622
0
LINE
8
BLACK
6
CONTINUOUS
10
3.33401
20
-2.38622
11
3.31211
21
-2.37645
0
LINE
8
BLACK
6
CONTINUOUS
10
3.31211
20
-2.37645
11
3.31204
21
-2.37643
0
LINE
8
BLACK
6
CONTINUOUS
10
3.31204
20
-2.37643
11
3.3117
21
-2.37625
0
LINE
8
BLACK
6
CONTINUOUS
10
3.3117
20
-2.37625
11
3.3114
21
-2.376
0
LINE
8
BLACK
6
CONTINUOUS
10
3.3114
20
-2.376
11
3.31115
21
-2.37571
0
LINE
8
BLACK
6
CONTINUOUS
10
3.31115
20
-2.37571
11
3.31097
21
-2.37536
0
LINE
8
BLACK
6
CONTINUOUS
10
3.31097
20
-2.37536
11
3.31086
21
-2.37499
0
LINE
8
BLACK
6
CONTINUOUS
10
3.31086
20
-2.37499
11
3.31083
21
-2.3747
0
LINE
8
BLACK
6
CONTINUOUS
10
3.31083
20
-2.3747
11
3.31083
21
-1.8627
0
LINE
8
BLACK
6
CONTINUOUS
10
3.31083
20
-1.8627
11
3.31086
21
-1.86241
0
LINE
8
BLACK
6
CONTINUOUS
10
3.31086
20
-1.86241
11
3.31097
21
-1.86204
0
LINE
8
BLACK
6
CONTINUOUS
10
3.31097
20
-1.86204
11
3.31115
21
-1.8617
0
LINE
8
BLACK
6
CONTINUOUS
10
3.31115
20
-1.8617
11
3.3114
21
-1.8614
0
LINE
8
BLACK
6
CONTINUOUS
10
3.3114
20
-1.8614
11
3.3117
21
-1.86115
0
LINE
8
BLACK
6
CONTINUOUS
10
3.3117
20
-1.86115
11
3.31204
21
-1.86097
0
LINE
8
BLACK
6
CONTINUOUS
10
3.31204
20
-1.86097
11
3.31213
21
-1.86094
0
LINE
8
BLACK
6
CONTINUOUS
10
3.31213
20
-1.86094
11
3.32858
21
-1.85409
0
LINE
8
BLACK
6
CONTINUOUS
10
3.32858
20
-1.85409
11
3.3488
21
-1.84128
0
LINE
8
BLACK
6
CONTINUOUS
10
3.3488
20
-1.84128
11
3.36612
21
-1.8248
0
LINE
8
BLACK
6
CONTINUOUS
10
3.36612
20
-1.8248
11
3.37992
21
-1.80527
0
LINE
8
BLACK
6
CONTINUOUS
10
3.37992
20
-1.80527
11
3.38969
21
-1.78337
0
LINE
8
BLACK
6
CONTINUOUS
10
3.38969
20
-1.78337
11
3.38971
21
-1.7833
0
LINE
8
BLACK
6
CONTINUOUS
10
3.38971
20
-1.7833
11
3.38989
21
-1.78296
0
LINE
8
BLACK
6
CONTINUOUS
10
3.38989
20
-1.78296
11
3.39014
21
-1.78266
0
LINE
8
BLACK
6
CONTINUOUS
10
3.39014
20
-1.78266
11
3.39044
21
-1.78241
0
LINE
8
BLACK
6
CONTINUOUS
10
3.39044
20
-1.78241
11
3.39078
21
-1.78223
0
LINE
8
BLACK
6
CONTINUOUS
10
3.39078
20
-1.78223
11
3.39115
21
-1.78212
0
LINE
8
BLACK
6
CONTINUOUS
10
3.39115
20
-1.78212
11
3.39144
21
-1.78209
0
LINE
8
BLACK
6
CONTINUOUS
10
3.39144
20
-1.78209
11
3.90335
21
-1.78209
0
LINE
8
BLACK
6
CONTINUOUS
10
3.90335
20
-1.78209
11
3.90344
21
-1.78209
0
LINE
8
BLACK
6
CONTINUOUS
10
3.90344
20
-1.78209
11
3.90373
21
-1.78212
0
LINE
8
BLACK
6
CONTINUOUS
10
3.62353
20
-2.45266
11
3.62369
21
-2.45273
0
LINE
8
BLACK
6
CONTINUOUS
10
3.62369
20
-2.45273
11
3.62385
21
-2.4528
0
LINE
8
BLACK
6
CONTINUOUS
10
3.62385
20
-2.4528
11
3.62657
21
-2.45424
0
LINE
8
BLACK
6
CONTINUOUS
10
3.62657
20
-2.45424
11
3.62657
21
-2.45424
0
LINE
8
BLACK
6
CONTINUOUS
10
3.62657
20
-2.45424
11
3.62659
21
-2.45425
0
LINE
8
BLACK
6
CONTINUOUS
10
3.62659
20
-2.45425
11
3.62674
21
-2.45435
0
LINE
8
BLACK
6
CONTINUOUS
10
3.62674
20
-2.45435
11
3.62689
21
-2.45445
0
LINE
8
BLACK
6
CONTINUOUS
10
3.62689
20
-2.45445
11
3.62927
21
-2.45639
0
LINE
8
BLACK
6
CONTINUOUS
10
3.62927
20
-2.45639
11
3.62927
21
-2.45639
0
LINE
8
BLACK
6
CONTINUOUS
10
3.62927
20
-2.45639
11
3.62927
21
-2.4564
0
LINE
8
BLACK
6
CONTINUOUS
10
3.62927
20
-2.4564
11
3.62929
21
-2.45641
0
LINE
8
BLACK
6
CONTINUOUS
10
3.62929
20
-2.45641
11
3.62941
21
-2.45654
0
LINE
8
BLACK
6
CONTINUOUS
10
3.62941
20
-2.45654
11
3.62954
21
-2.45667
0
LINE
8
BLACK
6
CONTINUOUS
10
3.62954
20
-2.45667
11
3.6315
21
-2.45903
0
LINE
8
BLACK
6
CONTINUOUS
10
3.6315
20
-2.45903
11
3.63152
21
-2.45905
0
LINE
8
BLACK
6
CONTINUOUS
10
3.63152
20
-2.45905
11
3.63162
21
-2.4592
0
LINE
8
BLACK
6
CONTINUOUS
10
3.63162
20
-2.4592
11
3.63172
21
-2.45935
0
LINE
8
BLACK
6
CONTINUOUS
10
3.63172
20
-2.45935
11
3.63318
21
-2.46206
0
LINE
8
BLACK
6
CONTINUOUS
10
3.63318
20
-2.46206
11
3.63318
21
-2.46206
0
LINE
8
BLACK
6
CONTINUOUS
10
3.63318
20
-2.46206
11
3.63318
21
-2.46206
0
LINE
8
BLACK
6
CONTINUOUS
10
3.63318
20
-2.46206
11
3.63319
21
-2.46208
0
LINE
8
BLACK
6
CONTINUOUS
10
3.63319
20
-2.46208
11
3.63326
21
-2.46224
0
LINE
8
BLACK
6
CONTINUOUS
10
3.63326
20
-2.46224
11
3.63333
21
-2.46241
0
LINE
8
BLACK
6
CONTINUOUS
10
3.63333
20
-2.46241
11
3.63424
21
-2.46535
0
LINE
8
BLACK
6
CONTINUOUS
10
3.63424
20
-2.46535
11
3.63424
21
-2.46537
0
LINE
8
BLACK
6
CONTINUOUS
10
3.63424
20
-2.46537
11
3.63428
21
-2.46555
0
LINE
8
BLACK
6
CONTINUOUS
10
3.63428
20
-2.46555
11
3.63431
21
-2.46572
0
LINE
8
BLACK
6
CONTINUOUS
10
3.63431
20
-2.46572
11
3.63463
21
-2.46878
0
LINE
8
BLACK
6
CONTINUOUS
10
3.63463
20
-2.46878
11
3.63464
21
-2.46881
0
LINE
8
BLACK
6
CONTINUOUS
10
3.63464
20
-2.46881
11
3.63464
21
-2.46898
0
LINE
8
BLACK
6
CONTINUOUS
10
3.63464
20
-2.46898
11
3.63464
21
-2.46916
0
LINE
8
BLACK
6
CONTINUOUS
10
3.63464
20
-2.46916
11
3.63436
21
-2.47222
0
LINE
8
BLACK
6
CONTINUOUS
10
3.63436
20
-2.47222
11
3.63436
21
-2.47222
0
LINE
8
BLACK
6
CONTINUOUS
10
3.63436
20
-2.47222
11
3.63436
21
-2.47222
0
LINE
8
BLACK
6
CONTINUOUS
10
3.63436
20
-2.47222
11
3.63436
21
-2.47225
0
LINE
8
BLACK
6
CONTINUOUS
10
3.63436
20
-2.47225
11
3.63432
21
-2.47242
0
LINE
8
BLACK
6
CONTINUOUS
10
3.63432
20
-2.47242
11
3.63429
21
-2.4726
0
LINE
8
BLACK
6
CONTINUOUS
10
3.63429
20
-2.4726
11
3.63342
21
-2.47555
0
LINE
8
BLACK
6
CONTINUOUS
10
3.63342
20
-2.47555
11
3.63341
21
-2.47558
0
LINE
8
BLACK
6
CONTINUOUS
10
3.63341
20
-2.47558
11
3.63334
21
-2.47574
0
LINE
8
BLACK
6
CONTINUOUS
10
3.63334
20
-2.47574
11
3.63327
21
-2.47591
0
LINE
8
BLACK
6
CONTINUOUS
10
3.63327
20
-2.47591
11
3.63185
21
-2.47863
0
LINE
8
BLACK
6
CONTINUOUS
10
3.63185
20
-2.47863
11
3.63185
21
-2.47863
0
LINE
8
BLACK
6
CONTINUOUS
10
3.63185
20
-2.47863
11
3.63185
21
-2.47863
0
LINE
8
BLACK
6
CONTINUOUS
10
3.63185
20
-2.47863
11
3.63184
21
-2.47865
0
LINE
8
BLACK
6
CONTINUOUS
10
3.63184
20
-2.47865
11
3.63174
21
-2.4788
0
LINE
8
BLACK
6
CONTINUOUS
10
3.63174
20
-2.4788
11
3.63164
21
-2.47895
0
LINE
8
BLACK
6
CONTINUOUS
10
3.63164
20
-2.47895
11
3.62972
21
-2.48135
0
LINE
8
BLACK
6
CONTINUOUS
10
3.62972
20
-2.48135
11
3.62971
21
-2.48135
0
LINE
8
BLACK
6
CONTINUOUS
10
3.62971
20
-2.48135
11
3.62971
21
-2.48135
0
LINE
8
BLACK
6
CONTINUOUS
10
3.62971
20
-2.48135
11
3.6297
21
-2.48137
0
LINE
8
BLACK
6
CONTINUOUS
10
3.6297
20
-2.48137
11
3.62957
21
-2.48149
0
LINE
8
BLACK
6
CONTINUOUS
10
3.62957
20
-2.48149
11
3.62945
21
-2.48162
0
LINE
8
BLACK
6
CONTINUOUS
10
3.62945
20
-2.48162
11
3.62795
21
-2.48287
0
LINE
8
BLACK
6
CONTINUOUS
10
3.62795
20
-2.48287
11
3.67678
21
-2.48287
0
LINE
8
BLACK
6
CONTINUOUS
10
3.67678
20
-2.48287
11
3.67545
21
-2.48179
0
LINE
8
BLACK
6
CONTINUOUS
10
3.67545
20
-2.48179
11
3.67545
21
-2.48179
0
LINE
8
BLACK
6
CONTINUOUS
10
3.67545
20
-2.48179
11
3.67545
21
-2.48179
0
LINE
8
BLACK
6
CONTINUOUS
10
3.67545
20
-2.48179
11
3.67543
21
-2.48178
0
LINE
8
BLACK
6
CONTINUOUS
10
3.67543
20
-2.48178
11
3.67531
21
-2.48165
0
LINE
8
BLACK
6
CONTINUOUS
10
3.67531
20
-2.48165
11
3.67518
21
-2.48152
0
LINE
8
BLACK
6
CONTINUOUS
10
3.67518
20
-2.48152
11
3.67322
21
-2.47916
0
LINE
8
BLACK
6
CONTINUOUS
10
3.67322
20
-2.47916
11
3.67321
21
-2.47913
0
LINE
8
BLACK
6
CONTINUOUS
10
3.67321
20
-2.47913
11
3.67311
21
-2.47899
0
LINE
8
BLACK
6
CONTINUOUS
10
3.67311
20
-2.47899
11
3.67301
21
-2.47884
0
LINE
8
BLACK
6
CONTINUOUS
10
3.67301
20
-2.47884
11
3.67155
21
-2.47613
0
LINE
8
BLACK
6
CONTINUOUS
10
3.67155
20
-2.47613
11
3.67153
21
-2.47611
0
LINE
8
BLACK
6
CONTINUOUS
10
3.67153
20
-2.47611
11
3.67147
21
-2.47594
0
LINE
8
BLACK
6
CONTINUOUS
10
3.67147
20
-2.47594
11
3.6714
21
-2.47578
0
LINE
8
BLACK
6
CONTINUOUS
10
3.6714
20
-2.47578
11
3.67049
21
-2.47284
0
LINE
8
BLACK
6
CONTINUOUS
10
3.67049
20
-2.47284
11
3.67048
21
-2.47282
0
LINE
8
BLACK
6
CONTINUOUS
10
3.67048
20
-2.47282
11
3.67045
21
-2.47264
0
LINE
8
BLACK
6
CONTINUOUS
10
3.67045
20
-2.47264
11
3.67041
21
-2.47247
0
LINE
8
BLACK
6
CONTINUOUS
10
3.67041
20
-2.47247
11
3.67009
21
-2.46941
0
LINE
8
BLACK
6
CONTINUOUS
10
3.67009
20
-2.46941
11
3.67009
21
-2.46938
0
LINE
8
BLACK
6
CONTINUOUS
10
3.67009
20
-2.46938
11
3.67009
21
-2.4692
0
LINE
8
BLACK
6
CONTINUOUS
10
3.67009
20
-2.4692
11
3.67009
21
-2.46903
0
LINE
8
BLACK
6
CONTINUOUS
10
3.67009
20
-2.46903
11
3.67037
21
-2.46597
0
LINE
8
BLACK
6
CONTINUOUS
10
3.67037
20
-2.46597
11
3.67037
21
-2.46597
0
LINE
8
BLACK
6
CONTINUOUS
10
3.67037
20
-2.46597
11
3.67037
21
-2.46596
0
LINE
8
BLACK
6
CONTINUOUS
10
3.67037
20
-2.46596
11
3.67037
21
-2.46594
0
LINE
8
BLACK
6
CONTINUOUS
10
3.67037
20
-2.46594
11
3.6704
21
-2.46576
0
LINE
8
BLACK
6
CONTINUOUS
10
3.6704
20
-2.46576
11
3.67044
21
-2.46559
0
LINE
8
BLACK
6
CONTINUOUS
10
3.67044
20
-2.46559
11
3.67131
21
-2.46264
0
LINE
8
BLACK
6
CONTINUOUS
10
3.67131
20
-2.46264
11
3.67131
21
-2.46261
0
LINE
8
BLACK
6
CONTINUOUS
10
3.67131
20
-2.46261
11
3.67138
21
-2.46245
0
LINE
8
BLACK
6
CONTINUOUS
10
3.67138
20
-2.46245
11
3.67145
21
-2.46228
0
LINE
8
BLACK
6
CONTINUOUS
10
3.67145
20
-2.46228
11
3.67287
21
-2.45956
0
LINE
8
BLACK
6
CONTINUOUS
10
3.67287
20
-2.45956
11
3.67289
21
-2.45954
0
LINE
8
BLACK
6
CONTINUOUS
10
3.67289
20
-2.45954
11
3.67299
21
-2.45939
0
LINE
8
BLACK
6
CONTINUOUS
10
3.67299
20
-2.45939
11
3.67308
21
-2.45924
0
LINE
8
BLACK
6
CONTINUOUS
10
3.67308
20
-2.45924
11
3.67501
21
-2.45684
0
LINE
8
BLACK
6
CONTINUOUS
10
3.67501
20
-2.45684
11
3.67503
21
-2.45682
0
LINE
8
BLACK
6
CONTINUOUS
10
3.67503
20
-2.45682
11
3.67515
21
-2.4567
0
LINE
8
BLACK
6
CONTINUOUS
10
3.67515
20
-2.4567
11
3.67528
21
-2.45657
0
LINE
8
BLACK
6
CONTINUOUS
10
3.67528
20
-2.45657
11
3.67763
21
-2.45459
0
LINE
8
BLACK
6
CONTINUOUS
10
3.67763
20
-2.45459
11
3.67763
21
-2.45459
0
LINE
8
BLACK
6
CONTINUOUS
10
3.67763
20
-2.45459
11
3.67763
21
-2.45459
0
LINE
8
BLACK
6
CONTINUOUS
10
3.67763
20
-2.45459
11
3.67765
21
-2.45458
0
LINE
8
BLACK
6
CONTINUOUS
10
3.67765
20
-2.45458
11
3.6778
21
-2.45448
0
LINE
8
BLACK
6
CONTINUOUS
10
3.6778
20
-2.45448
11
3.67795
21
-2.45438
0
LINE
8
BLACK
6
CONTINUOUS
10
3.67795
20
-2.45438
11
3.68064
21
-2.45289
0
LINE
8
BLACK
6
CONTINUOUS
10
3.68064
20
-2.45289
11
3.68067
21
-2.45288
0
LINE
8
BLACK
6
CONTINUOUS
10
3.68067
20
-2.45288
11
3.68083
21
-2.45281
0
LINE
8
BLACK
6
CONTINUOUS
10
3.68083
20
-2.45281
11
3.681
21
-2.45274
0
LINE
8
BLACK
6
CONTINUOUS
10
3.681
20
-2.45274
11
3.68393
21
-2.45181
0
LINE
8
BLACK
6
CONTINUOUS
10
3.68393
20
-2.45181
11
3.68393
21
-2.45181
0
LINE
8
BLACK
6
CONTINUOUS
10
3.68393
20
-2.45181
11
3.68393
21
-2.45181
0
LINE
8
BLACK
6
CONTINUOUS
10
3.68393
20
-2.45181
11
3.68395
21
-2.45181
0
LINE
8
BLACK
6
CONTINUOUS
10
3.68395
20
-2.45181
11
3.68413
21
-2.45177
0
LINE
8
BLACK
6
CONTINUOUS
10
3.68413
20
-2.45177
11
3.6843
21
-2.45173
0
LINE
8
BLACK
6
CONTINUOUS
10
3.6843
20
-2.45173
11
3.68736
21
-2.45139
0
LINE
8
BLACK
6
CONTINUOUS
10
3.68736
20
-2.45139
11
3.68738
21
-2.45139
0
LINE
8
BLACK
6
CONTINUOUS
10
3.68738
20
-2.45139
11
3.68747
21
-2.45139
0
LINE
8
BLACK
6
CONTINUOUS
10
3.68747
20
-2.45139
11
3.68756
21
-2.45138
0
LINE
8
BLACK
6
CONTINUOUS
10
3.68756
20
-2.45138
11
3.68769
21
-2.45138
0
LINE
8
BLACK
6
CONTINUOUS
10
3.68769
20
-2.45138
11
3.6877
21
-2.45138
0
LINE
8
BLACK
6
CONTINUOUS
10
3.6877
20
-2.45138
11
3.90207
21
-2.45138
0
LINE
8
BLACK
6
CONTINUOUS
10
3.90207
20
-2.45138
11
3.91145
21
-2.43035
0
LINE
8
BLACK
6
CONTINUOUS
10
3.91145
20
-2.43035
11
3.91146
21
-2.43033
0
LINE
8
BLACK
6
CONTINUOUS
10
3.91146
20
-2.43033
11
3.91155
21
-2.43018
0
LINE
8
BLACK
6
CONTINUOUS
10
3.91155
20
-2.43018
11
3.91164
21
-2.43002
0
LINE
8
BLACK
6
CONTINUOUS
10
3.91164
20
-2.43002
11
3.92565
21
-2.41017
0
LINE
8
BLACK
6
CONTINUOUS
10
3.92565
20
-2.41017
11
3.92565
21
-2.41017
0
LINE
8
BLACK
6
CONTINUOUS
10
3.92565
20
-2.41017
11
3.92565
21
-2.41017
0
LINE
8
BLACK
6
CONTINUOUS
10
3.92565
20
-2.41017
11
3.92567
21
-2.41015
0
LINE
8
BLACK
6
CONTINUOUS
10
3.92567
20
-2.41015
11
3.92579
21
-2.41002
0
LINE
8
BLACK
6
CONTINUOUS
10
3.92579
20
-2.41002
11
3.9259
21
-2.40988
0
LINE
8
BLACK
6
CONTINUOUS
10
3.9259
20
-2.40988
11
3.94351
21
-2.39314
0
LINE
8
BLACK
6
CONTINUOUS
10
3.94351
20
-2.39314
11
3.94351
21
-2.39314
0
LINE
8
BLACK
6
CONTINUOUS
10
3.94351
20
-2.39314
11
3.94351
21
-2.39314
0
LINE
8
BLACK
6
CONTINUOUS
10
3.94351
20
-2.39314
11
3.94353
21
-2.39312
0
LINE
8
BLACK
6
CONTINUOUS
10
3.94353
20
-2.39312
11
3.94367
21
-2.39301
0
LINE
8
BLACK
6
CONTINUOUS
10
3.94367
20
-2.39301
11
3.94381
21
-2.3929
0
LINE
8
BLACK
6
CONTINUOUS
10
3.94381
20
-2.3929
11
3.96434
21
-2.37989
0
LINE
8
BLACK
6
CONTINUOUS
10
3.96434
20
-2.37989
11
3.96436
21
-2.37988
0
LINE
8
BLACK
6
CONTINUOUS
10
3.96436
20
-2.37988
11
3.9645
21
-2.37981
0
LINE
8
BLACK
6
CONTINUOUS
10
3.9645
20
-2.37981
11
3.96463
21
-2.37974
0
LINE
8
BLACK
6
CONTINUOUS
10
3.96463
20
-2.37974
11
3.98012
21
-2.37329
0
LINE
8
BLACK
6
CONTINUOUS
10
3.98012
20
-2.37329
11
3.98012
21
-2.15797
0
LINE
8
BLACK
6
CONTINUOUS
10
3.98012
20
-2.15797
11
3.98013
21
-2.15788
0
LINE
8
BLACK
6
CONTINUOUS
10
3.98013
20
-2.15788
11
3.98043
21
-2.15482
0
LINE
8
BLACK
6
CONTINUOUS
10
3.98043
20
-2.15482
11
3.98043
21
-2.15482
0
LINE
8
BLACK
6
CONTINUOUS
10
3.98043
20
-2.15482
11
3.98043
21
-2.15482
0
LINE
8
BLACK
6
CONTINUOUS
10
3.98043
20
-2.15482
11
3.98043
21
-2.15479
0
LINE
8
BLACK
6
CONTINUOUS
10
3.98043
20
-2.15479
11
3.98047
21
-2.15462
0
LINE
8
BLACK
6
CONTINUOUS
10
3.98047
20
-2.15462
11
3.9805
21
-2.15444
0
LINE
8
BLACK
6
CONTINUOUS
10
3.9805
20
-2.15444
11
3.98139
21
-2.1515
0
LINE
8
BLACK
6
CONTINUOUS
10
3.98139
20
-2.1515
11
3.9814
21
-2.15147
0
LINE
8
BLACK
6
CONTINUOUS
10
3.9814
20
-2.15147
11
3.98147
21
-2.15131
0
LINE
8
BLACK
6
CONTINUOUS
10
3.98147
20
-2.15131
11
3.98154
21
-2.15115
0
LINE
8
BLACK
6
CONTINUOUS
10
3.98154
20
-2.15115
11
3.98298
21
-2.14843
0
LINE
8
BLACK
6
CONTINUOUS
10
3.98298
20
-2.14843
11
3.98299
21
-2.14841
0
LINE
8
BLACK
6
CONTINUOUS
10
3.98299
20
-2.14841
11
3.98309
21
-2.14826
0
LINE
8
BLACK
6
CONTINUOUS
10
3.98309
20
-2.14826
11
3.98319
21
-2.14811
0
LINE
8
BLACK
6
CONTINUOUS
10
3.98319
20
-2.14811
11
3.98513
21
-2.14573
0
LINE
8
BLACK
6
CONTINUOUS
10
3.98513
20
-2.14573
11
3.98513
21
-2.14573
0
LINE
8
BLACK
6
CONTINUOUS
10
3.98513
20
-2.14573
11
3.98514
21
-2.14573
0
LINE
8
BLACK
6
CONTINUOUS
10
3.98514
20
-2.14573
11
3.98515
21
-2.14571
0
LINE
8
BLACK
6
CONTINUOUS
10
3.98515
20
-2.14571
11
3.98528
21
-2.14559
0
LINE
8
BLACK
6
CONTINUOUS
10
3.98528
20
-2.14559
11
3.98541
21
-2.14546
0
LINE
8
BLACK
6
CONTINUOUS
10
3.98541
20
-2.14546
11
3.98777
21
-2.1435
0
LINE
8
BLACK
6
CONTINUOUS
10
3.98777
20
-2.1435
11
3.98779
21
-2.14348
0
LINE
8
BLACK
6
CONTINUOUS
10
3.98779
20
-2.14348
11
3.98794
21
-2.14338
0
LINE
8
BLACK
6
CONTINUOUS
10
3.98794
20
-2.14338
11
3.98809
21
-2.14328
0
LINE
8
BLACK
6
CONTINUOUS
10
3.98809
20
-2.14328
11
3.9908
21
-2.14182
0
LINE
8
BLACK
6
CONTINUOUS
10
3.9908
20
-2.14182
11
3.9908
21
-2.14182
0
LINE
8
BLACK
6
CONTINUOUS
10
3.9908
20
-2.14182
11
3.9908
21
-2.14182
0
LINE
8
BLACK
6
CONTINUOUS
10
3.9908
20
-2.14182
11
3.99082
21
-2.14181
0
LINE
8
BLACK
6
CONTINUOUS
10
3.99082
20
-2.14181
11
3.99098
21
-2.14174
0
LINE
8
BLACK
6
CONTINUOUS
10
3.99098
20
-2.14174
11
3.99115
21
-2.14167
0
LINE
8
BLACK
6
CONTINUOUS
10
3.99115
20
-2.14167
11
3.99409
21
-2.14076
0
LINE
8
BLACK
6
CONTINUOUS
10
3.99409
20
-2.14076
11
3.99411
21
-2.14076
0
LINE
8
BLACK
6
CONTINUOUS
10
3.99411
20
-2.14076
11
3.99429
21
-2.14072
0
LINE
8
BLACK
6
CONTINUOUS
10
3.99429
20
-2.14072
11
3.99446
21
-2.14069
0
LINE
8
BLACK
6
CONTINUOUS
10
3.99446
20
-2.14069
11
3.99752
21
-2.14037
0
LINE
8
BLACK
6
CONTINUOUS
10
3.99752
20
-2.14037
11
3.99752
21
-2.14037
0
LINE
8
BLACK
6
CONTINUOUS
10
3.99752
20
-2.14037
11
3.99755
21
-2.14036
0
LINE
8
BLACK
6
CONTINUOUS
10
3.99755
20
-2.14036
11
3.99772
21
-2.14036
0
LINE
8
BLACK
6
CONTINUOUS
10
3.99772
20
-2.14036
11
3.9979
21
-2.14036
0
LINE
8
BLACK
6
CONTINUOUS
10
3.9979
20
-2.14036
11
4.00096
21
-2.14064
0
LINE
8
BLACK
6
CONTINUOUS
10
4.00096
20
-2.14064
11
4.00096
21
-2.14064
0
LINE
8
BLACK
6
CONTINUOUS
10
4.00096
20
-2.14064
11
4.00096
21
-2.14064
0
LINE
8
BLACK
6
CONTINUOUS
10
4.00096
20
-2.14064
11
4.00099
21
-2.14064
0
LINE
8
BLACK
6
CONTINUOUS
10
4.00099
20
-2.14064
11
4.00116
21
-2.14068
0
LINE
8
BLACK
6
CONTINUOUS
10
4.00116
20
-2.14068
11
4.00134
21
-2.14071
0
LINE
8
BLACK
6
CONTINUOUS
10
4.00134
20
-2.14071
11
4.00429
21
-2.14158
0
LINE
8
BLACK
6
CONTINUOUS
10
4.00429
20
-2.14158
11
4.00432
21
-2.14159
0
LINE
8
BLACK
6
CONTINUOUS
10
4.00432
20
-2.14159
11
4.00448
21
-2.14166
0
LINE
8
BLACK
6
CONTINUOUS
10
4.00448
20
-2.14166
11
4.00465
21
-2.14173
0
LINE
8
BLACK
6
CONTINUOUS
10
4.00465
20
-2.14173
11
4.00737
21
-2.14315
0
LINE
8
BLACK
6
CONTINUOUS
10
4.00737
20
-2.14315
11
4.00739
21
-2.14316
0
LINE
8
BLACK
6
CONTINUOUS
10
4.00739
20
-2.14316
11
4.00754
21
-2.14326
0
LINE
8
BLACK
6
CONTINUOUS
10
4.00754
20
-2.14326
11
4.00769
21
-2.14336
0
LINE
8
BLACK
6
CONTINUOUS
10
4.00769
20
-2.14336
11
4.01009
21
-2.14529
0
LINE
8
BLACK
6
CONTINUOUS
10
4.01009
20
-2.14529
11
4.01011
21
-2.1453
0
LINE
8
BLACK
6
CONTINUOUS
10
4.01011
20
-2.1453
11
4.01023
21
-2.14543
0
LINE
8
BLACK
6
CONTINUOUS
10
4.01023
20
-2.14543
11
4.01036
21
-2.14555
0
LINE
8
BLACK
6
CONTINUOUS
10
4.01036
20
-2.14555
11
4.01161
21
-2.14705
0
LINE
8
BLACK
6
CONTINUOUS
10
4.01161
20
-2.14705
11
4.01161
21
-2.10019
0
LINE
8
BLACK
6
CONTINUOUS
10
4.01161
20
-2.10019
11
4.01053
21
-2.10151
0
LINE
8
BLACK
6
CONTINUOUS
10
4.01053
20
-2.10151
11
4.01053
21
-2.10151
0
LINE
8
BLACK
6
CONTINUOUS
10
4.01053
20
-2.10151
11
4.01053
21
-2.10151
0
LINE
8
BLACK
6
CONTINUOUS
10
4.01053
20
-2.10151
11
4.01052
21
-2.10154
0
LINE
8
BLACK
6
CONTINUOUS
10
4.01052
20
-2.10154
11
4.01039
21
-2.10166
0
LINE
8
BLACK
6
CONTINUOUS
10
4.01039
20
-2.10166
11
4.01026
21
-2.10179
0
LINE
8
BLACK
6
CONTINUOUS
10
4.01026
20
-2.10179
11
4.0079
21
-2.10375
0
LINE
8
BLACK
6
CONTINUOUS
10
4.0079
20
-2.10375
11
4.0079
21
-2.10375
0
LINE
8
BLACK
6
CONTINUOUS
10
4.0079
20
-2.10375
11
4.0079
21
-2.10375
0
LINE
8
BLACK
6
CONTINUOUS
10
4.0079
20
-2.10375
11
4.00787
21
-2.10376
0
LINE
8
BLACK
6
CONTINUOUS
10
4.00787
20
-2.10376
11
4.00773
21
-2.10386
0
LINE
8
BLACK
6
CONTINUOUS
10
4.00773
20
-2.10386
11
4.00758
21
-2.10396
0
LINE
8
BLACK
6
CONTINUOUS
10
4.00758
20
-2.10396
11
4.00487
21
-2.10542
0
LINE
8
BLACK
6
CONTINUOUS
10
4.00487
20
-2.10542
11
4.00485
21
-2.10544
0
LINE
8
BLACK
6
CONTINUOUS
10
4.00485
20
-2.10544
11
4.00468
21
-2.1055
0
LINE
8
BLACK
6
CONTINUOUS
10
4.00468
20
-2.1055
11
4.00452
21
-2.10557
0
LINE
8
BLACK
6
CONTINUOUS
10
4.00452
20
-2.10557
11
4.00158
21
-2.10648
0
LINE
8
BLACK
6
CONTINUOUS
10
4.00158
20
-2.10648
11
4.00158
21
-2.10648
0
LINE
8
BLACK
6
CONTINUOUS
10
4.00158
20
-2.10648
11
4.00156
21
-2.10649
0
LINE
8
BLACK
6
CONTINUOUS
10
4.00156
20
-2.10649
11
4.00138
21
-2.10652
0
LINE
8
BLACK
6
CONTINUOUS
10
4.00138
20
-2.10652
11
4.00121
21
-2.10656
0
LINE
8
BLACK
6
CONTINUOUS
10
4.00121
20
-2.10656
11
3.99815
21
-2.10688
0
LINE
8
BLACK
6
CONTINUOUS
10
3.99815
20
-2.10688
11
3.99815
21
-2.10688
0
LINE
8
BLACK
6
CONTINUOUS
10
3.99815
20
-2.10688
11
3.99812
21
-2.10688
0
LINE
8
BLACK
6
CONTINUOUS
10
3.99812
20
-2.10688
11
3.99794
21
-2.10688
0
LINE
8
BLACK
6
CONTINUOUS
10
3.99794
20
-2.10688
11
3.99777
21
-2.10688
0
LINE
8
BLACK
6
CONTINUOUS
10
3.99777
20
-2.10688
11
3.99471
21
-2.1066
0
LINE
8
BLACK
6
CONTINUOUS
10
3.99471
20
-2.1066
11
3.99471
21
-2.1066
0
LINE
8
BLACK
6
CONTINUOUS
10
3.99471
20
-2.1066
11
3.99468
21
-2.1066
0
LINE
8
BLACK
6
CONTINUOUS
10
3.99468
20
-2.1066
11
3.9945
21
-2.10656
0
LINE
8
BLACK
6
CONTINUOUS
10
3.9945
20
-2.10656
11
3.99433
21
-2.10653
0
LINE
8
BLACK
6
CONTINUOUS
10
3.99433
20
-2.10653
11
3.99138
21
-2.10566
0
LINE
8
BLACK
6
CONTINUOUS
10
3.99138
20
-2.10566
11
3.99135
21
-2.10566
0
LINE
8
BLACK
6
CONTINUOUS
10
3.99135
20
-2.10566
11
3.99119
21
-2.10559
0
LINE
8
BLACK
6
CONTINUOUS
10
3.99119
20
-2.10559
11
3.99102
21
-2.10552
0
LINE
8
BLACK
6
CONTINUOUS
10
3.99102
20
-2.10552
11
3.9883
21
-2.1041
0
LINE
8
BLACK
6
CONTINUOUS
10
3.9883
20
-2.1041
11
3.9883
21
-2.1041
0
LINE
8
BLACK
6
CONTINUOUS
10
3.9883
20
-2.1041
11
3.9883
21
-2.10409
0
LINE
8
BLACK
6
CONTINUOUS
10
3.9883
20
-2.10409
11
3.98828
21
-2.10408
0
LINE
8
BLACK
6
CONTINUOUS
10
3.98828
20
-2.10408
11
3.98813
21
-2.10398
0
LINE
8
BLACK
6
CONTINUOUS
10
3.98813
20
-2.10398
11
3.98798
21
-2.10388
0
LINE
8
BLACK
6
CONTINUOUS
10
3.98798
20
-2.10388
11
3.98558
21
-2.10196
0
LINE
8
BLACK
6
CONTINUOUS
10
3.98558
20
-2.10196
11
3.98556
21
-2.10194
0
LINE
8
BLACK
6
CONTINUOUS
10
3.98556
20
-2.10194
11
3.98544
21
-2.10181
0
LINE
8
BLACK
6
CONTINUOUS
10
3.98544
20
-2.10181
11
3.98531
21
-2.10169
0
LINE
8
BLACK
6
CONTINUOUS
10
3.98531
20
-2.10169
11
3.98333
21
-2.09934
0
LINE
8
BLACK
6
CONTINUOUS
10
3.98333
20
-2.09934
11
3.98333
21
-2.09934
0
LINE
8
BLACK
6
CONTINUOUS
10
3.98333
20
-2.09934
11
3.98333
21
-2.09934
0
LINE
8
BLACK
6
CONTINUOUS
10
3.98333
20
-2.09934
11
3.98332
21
-2.09931
0
LINE
8
BLACK
6
CONTINUOUS
10
3.98332
20
-2.09931
11
3.98322
21
-2.09917
0
LINE
8
BLACK
6
CONTINUOUS
10
3.98322
20
-2.09917
11
3.98312
21
-2.09902
0
LINE
8
BLACK
6
CONTINUOUS
10
3.98312
20
-2.09902
11
3.98164
21
-2.09633
0
LINE
8
BLACK
6
CONTINUOUS
10
3.98164
20
-2.09633
11
3.98163
21
-2.09633
0
LINE
8
BLACK
6
CONTINUOUS
10
3.98163
20
-2.09633
11
3.98163
21
-2.09633
0
LINE
8
BLACK
6
CONTINUOUS
10
3.98163
20
-2.09633
11
3.98162
21
-2.0963
0
LINE
8
BLACK
6
CONTINUOUS
10
3.98162
20
-2.0963
11
3.98155
21
-2.09614
0
LINE
8
BLACK
6
CONTINUOUS
10
3.98155
20
-2.09614
11
3.98148
21
-2.09597
0
LINE
8
BLACK
6
CONTINUOUS
10
3.98148
20
-2.09597
11
3.98055
21
-2.09304
0
LINE
8
BLACK
6
CONTINUOUS
10
3.98055
20
-2.09304
11
3.98055
21
-2.09302
0
LINE
8
BLACK
6
CONTINUOUS
10
3.98055
20
-2.09302
11
3.98051
21
-2.09284
0
LINE
8
BLACK
6
CONTINUOUS
10
3.98051
20
-2.09284
11
3.98047
21
-2.09267
0
LINE
8
BLACK
6
CONTINUOUS
10
3.98047
20
-2.09267
11
3.98013
21
-2.08961
0
LINE
8
BLACK
6
CONTINUOUS
10
3.98013
20
-2.08961
11
3.98013
21
-2.08959
0
LINE
8
BLACK
6
CONTINUOUS
10
3.98013
20
-2.08959
11
3.98013
21
-2.0895
0
LINE
8
BLACK
6
CONTINUOUS
10
3.98013
20
-2.0895
11
3.98012
21
-2.08941
0
LINE
8
BLACK
6
CONTINUOUS
10
3.98012
20
-2.08941
11
3.98012
21
-2.08928
0
LINE
8
BLACK
6
CONTINUOUS
10
3.98012
20
-2.08928
11
3.98012
21
-2.08927
0
LINE
8
BLACK
6
CONTINUOUS
10
3.98012
20
-2.08927
11
3.98012
21
-1.86407
0
LINE
8
BLACK
6
CONTINUOUS
10
3.98012
20
-1.86407
11
3.95909
21
-1.8547
0
LINE
8
BLACK
6
CONTINUOUS
10
3.95909
20
-1.8547
11
3.95907
21
-1.85469
0
LINE
8
BLACK
6
CONTINUOUS
10
3.95907
20
-1.85469
11
3.95892
21
-1.8546
0
LINE
8
BLACK
6
CONTINUOUS
10
3.95892
20
-1.8546
11
3.95876
21
-1.85451
0
LINE
8
BLACK
6
CONTINUOUS
10
3.95876
20
-1.85451
11
3.93891
21
-1.84049
0
LINE
8
BLACK
6
CONTINUOUS
10
3.93891
20
-1.84049
11
3.93889
21
-1.84047
0
LINE
8
BLACK
6
CONTINUOUS
10
3.93889
20
-1.84047
11
3.93876
21
-1.84036
0
LINE
8
BLACK
6
CONTINUOUS
10
3.93876
20
-1.84036
11
3.93862
21
-1.84024
0
LINE
8
BLACK
6
CONTINUOUS
10
3.93862
20
-1.84024
11
3.92188
21
-1.82263
0
LINE
8
BLACK
6
CONTINUOUS
10
3.92188
20
-1.82263
11
3.92186
21
-1.82261
0
LINE
8
BLACK
6
CONTINUOUS
10
3.92186
20
-1.82261
11
3.92175
21
-1.82247
0
LINE
8
BLACK
6
CONTINUOUS
10
3.92175
20
-1.82247
11
3.92164
21
-1.82233
0
LINE
8
BLACK
6
CONTINUOUS
10
3.92164
20
-1.82233
11
3.90863
21
-1.8018
0
LINE
8
BLACK
6
CONTINUOUS
10
3.90863
20
-1.8018
11
3.90862
21
-1.80178
0
LINE
8
BLACK
6
CONTINUOUS
10
3.90862
20
-1.80178
11
3.90855
21
-1.80164
0
LINE
8
BLACK
6
CONTINUOUS
10
3.90855
20
-1.80164
11
3.90848
21
-1.80151
0
LINE
8
BLACK
6
CONTINUOUS
10
3.90848
20
-1.80151
11
3.90203
21
-1.78602
0
LINE
8
BLACK
6
CONTINUOUS
10
3.90203
20
-1.78602
11
3.39281
21
-1.78602
0
LINE
8
BLACK
6
CONTINUOUS
10
3.39281
20
-1.78602
11
3.38344
21
-1.80705
0
LINE
8
BLACK
6
CONTINUOUS
10
3.38344
20
-1.80705
11
3.38343
21
-1.80707
0
LINE
8
BLACK
6
CONTINUOUS
10
3.38343
20
-1.80707
11
3.38334
21
-1.80722
0
LINE
8
BLACK
6
CONTINUOUS
10
3.38334
20
-1.80722
11
3.38325
21
-1.80738
0
LINE
8
BLACK
6
CONTINUOUS
10
3.38325
20
-1.80738
11
3.36923
21
-1.82723
0
LINE
8
BLACK
6
CONTINUOUS
10
3.36923
20
-1.82723
11
3.36921
21
-1.82725
0
LINE
8
BLACK
6
CONTINUOUS
10
3.36921
20
-1.82725
11
3.3691
21
-1.82738
0
LINE
8
BLACK
6
CONTINUOUS
10
3.3691
20
-1.82738
11
3.36898
21
-1.82752
0
LINE
8
BLACK
6
CONTINUOUS
10
3.36898
20
-1.82752
11
3.35137
21
-1.84426
0
LINE
8
BLACK
6
CONTINUOUS
10
3.35137
20
-1.84426
11
3.35135
21
-1.84428
0
LINE
8
BLACK
6
CONTINUOUS
10
3.35135
20
-1.84428
11
3.35121
21
-1.84439
0
LINE
8
BLACK
6
CONTINUOUS
10
3.35121
20
-1.84439
11
3.35107
21
-1.8445
0
LINE
8
BLACK
6
CONTINUOUS
10
3.35107
20
-1.8445
11
3.33055
21
-1.85751
0
LINE
8
BLACK
6
CONTINUOUS
10
3.33055
20
-1.85751
11
3.33052
21
-1.85752
0
LINE
8
BLACK
6
CONTINUOUS
10
3.33052
20
-1.85752
11
3.33038
21
-1.85759
0
LINE
8
BLACK
6
CONTINUOUS
10
3.33038
20
-1.85759
11
3.33025
21
-1.85766
0
LINE
8
BLACK
6
CONTINUOUS
10
3.33025
20
-1.85766
11
3.31476
21
-1.86411
0
LINE
8
BLACK
6
CONTINUOUS
10
3.31476
20
-1.86411
11
3.31476
21
-2.37333
0
LINE
8
BLACK
6
CONTINUOUS
10
3.31476
20
-2.37333
11
3.33579
21
-2.3827
0
LINE
8
BLACK
6
CONTINUOUS
10
3.33579
20
-2.3827
11
3.33579
21
-2.3827
0
LINE
8
BLACK
6
CONTINUOUS
10
3.33579
20
-2.3827
11
3.33579
21
-2.3827
0
LINE
8
BLACK
6
CONTINUOUS
10
3.33579
20
-2.3827
11
3.33581
21
-2.38272
0
LINE
8
BLACK
6
CONTINUOUS
10
3.33581
20
-2.38272
11
3.33597
21
-2.38281
0
LINE
8
BLACK
6
CONTINUOUS
10
3.33597
20
-2.38281
11
3.33612
21
-2.38289
0
LINE
8
BLACK
6
CONTINUOUS
10
3.33612
20
-2.38289
11
3.35597
21
-2.39691
0
LINE
8
BLACK
6
CONTINUOUS
10
3.35597
20
-2.39691
11
3.35597
21
-2.39691
0
LINE
8
BLACK
6
CONTINUOUS
10
3.35597
20
-2.39691
11
3.35597
21
-2.39691
0
LINE
8
BLACK
6
CONTINUOUS
10
3.35597
20
-2.39691
11
3.35599
21
-2.39693
0
LINE
8
BLACK
6
CONTINUOUS
10
3.35599
20
-2.39693
11
3.35612
21
-2.39705
0
LINE
8
BLACK
6
CONTINUOUS
10
3.35612
20
-2.39705
11
3.35626
21
-2.39716
0
LINE
8
BLACK
6
CONTINUOUS
10
3.35626
20
-2.39716
11
3.373
21
-2.41477
0
LINE
8
BLACK
6
CONTINUOUS
10
3.373
20
-2.41477
11
3.373
21
-2.41477
0
LINE
8
BLACK
6
CONTINUOUS
10
3.373
20
-2.41477
11
3.37301
21
-2.41477
0
LINE
8
BLACK
6
CONTINUOUS
10
3.37301
20
-2.41477
11
3.37302
21
-2.41479
0
LINE
8
BLACK
6
CONTINUOUS
10
3.37302
20
-2.41479
11
3.37313
21
-2.41493
0
LINE
8
BLACK
6
CONTINUOUS
10
3.37313
20
-2.41493
11
3.37324
21
-2.41507
0
LINE
8
BLACK
6
CONTINUOUS
10
3.37324
20
-2.41507
11
3.38625
21
-2.4356
0
LINE
8
BLACK
6
CONTINUOUS
10
3.38625
20
-2.4356
11
3.38626
21
-2.43562
0
LINE
8
BLACK
6
CONTINUOUS
10
3.38626
20
-2.43562
11
3.38633
21
-2.43576
0
LINE
8
BLACK
6
CONTINUOUS
10
3.38633
20
-2.43576
11
3.3864
21
-2.43589
0
LINE
8
BLACK
6
CONTINUOUS
10
3.3864
20
-2.43589
11
3.39285
21
-2.45138
0
LINE
8
BLACK
6
CONTINUOUS
10
3.39285
20
-2.45138
11
3.61703
21
-2.45138
0
LINE
8
BLACK
6
CONTINUOUS
10
3.61703
20
-2.45138
11
3.61712
21
-2.45139
0
LINE
8
BLACK
6
CONTINUOUS
10
3.61712
20
-2.45139
11
3.61712
21
-2.45139
0
LINE
8
BLACK
6
CONTINUOUS
10
3.61712
20
-2.45139
11
3.62018
21
-2.45169
0
LINE
8
BLACK
6
CONTINUOUS
10
3.62018
20
-2.45169
11
3.62018
21
-2.45169
0
LINE
8
BLACK
6
CONTINUOUS
10
3.62018
20
-2.45169
11
3.62018
21
-2.45169
0
LINE
8
BLACK
6
CONTINUOUS
10
3.62018
20
-2.45169
11
3.62021
21
-2.45169
0
LINE
8
BLACK
6
CONTINUOUS
10
3.62021
20
-2.45169
11
3.62038
21
-2.45173
0
LINE
8
BLACK
6
CONTINUOUS
10
3.62038
20
-2.45173
11
3.62056
21
-2.45176
0
LINE
8
BLACK
6
CONTINUOUS
10
3.62056
20
-2.45176
11
3.6235
21
-2.45265
0
LINE
8
BLACK
6
CONTINUOUS
10
3.6235
20
-2.45265
11
3.6235
21
-2.45265
0
LINE
8
BLACK
6
CONTINUOUS
10
3.6235
20
-2.45265
11
3.62353
21
-2.45266
  0
ENDSEC
  0
EOF
