G04 #@! TF.GenerationSoftware,KiCad,Pcbnew,(5.1.5)-3*
G04 #@! TF.CreationDate,2020-05-06T14:38:42+02:00*
G04 #@! TF.ProjectId,Cherry-Mx-Bitboard-Re-19.05mm,43686572-7279-42d4-9d78-2d426974626f,1*
G04 #@! TF.SameCoordinates,Original*
G04 #@! TF.FileFunction,Legend,Top*
G04 #@! TF.FilePolarity,Positive*
%FSLAX46Y46*%
G04 Gerber Fmt 4.6, Leading zero omitted, Abs format (unit mm)*
G04 Created by KiCad (PCBNEW (5.1.5)-3) date 2020-05-06 14:38:42*
%MOMM*%
%LPD*%
G04 APERTURE LIST*
%ADD10C,0.150000*%
%ADD11C,0.125000*%
%ADD12C,0.187500*%
%ADD13C,0.500000*%
%ADD14C,2.000000*%
%ADD15C,3.000000*%
%ADD16C,4.000000*%
%ADD17C,1.701800*%
%ADD18R,2.600000X2.600000*%
%ADD19C,3.429000*%
%ADD20R,1.600000X2.600000*%
%ADD21C,1.600000*%
%ADD22C,0.100000*%
%ADD23R,1.000000X1.500000*%
%ADD24R,1.600000X1.600000*%
G04 APERTURE END LIST*
D10*
X90145000Y-47715000D02*
X90945000Y-47715000D01*
X90145000Y-47465000D02*
X90145000Y-47715000D01*
X91845000Y-45665000D02*
X91845000Y-47365000D01*
X90145000Y-45665000D02*
X91845000Y-45665000D01*
X90145000Y-47465000D02*
X90145000Y-45665000D01*
D11*
X85507957Y-49180476D02*
X85507957Y-47930476D01*
X85888871Y-49180476D02*
X85603185Y-48466190D01*
X85888871Y-47930476D02*
X85507957Y-48644761D01*
X86269785Y-49180476D02*
X86206300Y-49120952D01*
X86174557Y-49061428D01*
X86142814Y-48942380D01*
X86142814Y-48585238D01*
X86174557Y-48466190D01*
X86206300Y-48406666D01*
X86269785Y-48347142D01*
X86365014Y-48347142D01*
X86428500Y-48406666D01*
X86460242Y-48466190D01*
X86491985Y-48585238D01*
X86491985Y-48942380D01*
X86460242Y-49061428D01*
X86428500Y-49120952D01*
X86365014Y-49180476D01*
X86269785Y-49180476D01*
X86777671Y-49180476D02*
X86777671Y-48347142D01*
X86777671Y-48466190D02*
X86809414Y-48406666D01*
X86872900Y-48347142D01*
X86968128Y-48347142D01*
X87031614Y-48406666D01*
X87063357Y-48525714D01*
X87063357Y-49180476D01*
X87063357Y-48525714D02*
X87095100Y-48406666D01*
X87158585Y-48347142D01*
X87253814Y-48347142D01*
X87317300Y-48406666D01*
X87349042Y-48525714D01*
X87349042Y-49180476D01*
X87666471Y-48347142D02*
X87666471Y-49597142D01*
X87666471Y-48406666D02*
X87729957Y-48347142D01*
X87856928Y-48347142D01*
X87920414Y-48406666D01*
X87952157Y-48466190D01*
X87983900Y-48585238D01*
X87983900Y-48942380D01*
X87952157Y-49061428D01*
X87920414Y-49120952D01*
X87856928Y-49180476D01*
X87729957Y-49180476D01*
X87666471Y-49120952D01*
X88555271Y-49180476D02*
X88555271Y-48525714D01*
X88523528Y-48406666D01*
X88460042Y-48347142D01*
X88333071Y-48347142D01*
X88269585Y-48406666D01*
X88555271Y-49120952D02*
X88491785Y-49180476D01*
X88333071Y-49180476D01*
X88269585Y-49120952D01*
X88237842Y-49001904D01*
X88237842Y-48882857D01*
X88269585Y-48763809D01*
X88333071Y-48704285D01*
X88491785Y-48704285D01*
X88555271Y-48644761D01*
X89158385Y-49120952D02*
X89094900Y-49180476D01*
X88967928Y-49180476D01*
X88904442Y-49120952D01*
X88872700Y-49061428D01*
X88840957Y-48942380D01*
X88840957Y-48585238D01*
X88872700Y-48466190D01*
X88904442Y-48406666D01*
X88967928Y-48347142D01*
X89094900Y-48347142D01*
X89158385Y-48406666D01*
X89348842Y-48347142D02*
X89602785Y-48347142D01*
X89444071Y-47930476D02*
X89444071Y-49001904D01*
X89475814Y-49120952D01*
X89539300Y-49180476D01*
X89602785Y-49180476D01*
X90078928Y-49120952D02*
X90015442Y-49180476D01*
X89888471Y-49180476D01*
X89824985Y-49120952D01*
X89793242Y-49001904D01*
X89793242Y-48525714D01*
X89824985Y-48406666D01*
X89888471Y-48347142D01*
X90015442Y-48347142D01*
X90078928Y-48406666D01*
X90110671Y-48525714D01*
X90110671Y-48644761D01*
X89793242Y-48763809D01*
X90682042Y-49180476D02*
X90682042Y-47930476D01*
X90682042Y-49120952D02*
X90618557Y-49180476D01*
X90491585Y-49180476D01*
X90428100Y-49120952D01*
X90396357Y-49061428D01*
X90364614Y-48942380D01*
X90364614Y-48585238D01*
X90396357Y-48466190D01*
X90428100Y-48406666D01*
X90491585Y-48347142D01*
X90618557Y-48347142D01*
X90682042Y-48406666D01*
X86264047Y-56415000D02*
X86216428Y-56391190D01*
X86145000Y-56391190D01*
X86073571Y-56415000D01*
X86025952Y-56462619D01*
X86002142Y-56510238D01*
X85978333Y-56605476D01*
X85978333Y-56676904D01*
X86002142Y-56772142D01*
X86025952Y-56819761D01*
X86073571Y-56867380D01*
X86145000Y-56891190D01*
X86192619Y-56891190D01*
X86264047Y-56867380D01*
X86287857Y-56843571D01*
X86287857Y-56676904D01*
X86192619Y-56676904D01*
X86502142Y-56891190D02*
X86502142Y-56391190D01*
X86787857Y-56891190D01*
X86787857Y-56391190D01*
X87025952Y-56891190D02*
X87025952Y-56391190D01*
X87145000Y-56391190D01*
X87216428Y-56415000D01*
X87264047Y-56462619D01*
X87287857Y-56510238D01*
X87311666Y-56605476D01*
X87311666Y-56676904D01*
X87287857Y-56772142D01*
X87264047Y-56819761D01*
X87216428Y-56867380D01*
X87145000Y-56891190D01*
X87025952Y-56891190D01*
D10*
X85507260Y-54174845D02*
X86090913Y-54664588D01*
D11*
X86018809Y-56091190D02*
X86018809Y-55591190D01*
X86137857Y-55591190D01*
X86209285Y-55615000D01*
X86256904Y-55662619D01*
X86280714Y-55710238D01*
X86304523Y-55805476D01*
X86304523Y-55876904D01*
X86280714Y-55972142D01*
X86256904Y-56019761D01*
X86209285Y-56067380D01*
X86137857Y-56091190D01*
X86018809Y-56091190D01*
X86590238Y-56091190D02*
X86542619Y-56067380D01*
X86518809Y-56043571D01*
X86495000Y-55995952D01*
X86495000Y-55853095D01*
X86518809Y-55805476D01*
X86542619Y-55781666D01*
X86590238Y-55757857D01*
X86661666Y-55757857D01*
X86709285Y-55781666D01*
X86733095Y-55805476D01*
X86756904Y-55853095D01*
X86756904Y-55995952D01*
X86733095Y-56043571D01*
X86709285Y-56067380D01*
X86661666Y-56091190D01*
X86590238Y-56091190D01*
X87185476Y-55757857D02*
X87185476Y-56091190D01*
X86971190Y-55757857D02*
X86971190Y-56019761D01*
X86995000Y-56067380D01*
X87042619Y-56091190D01*
X87114047Y-56091190D01*
X87161666Y-56067380D01*
X87185476Y-56043571D01*
X87352142Y-55757857D02*
X87542619Y-55757857D01*
X87423571Y-55591190D02*
X87423571Y-56019761D01*
X87447380Y-56067380D01*
X87495000Y-56091190D01*
X87542619Y-56091190D01*
X86028333Y-54891190D02*
X86195000Y-55391190D01*
X86361666Y-54891190D01*
X86814047Y-55343571D02*
X86790238Y-55367380D01*
X86718809Y-55391190D01*
X86671190Y-55391190D01*
X86599761Y-55367380D01*
X86552142Y-55319761D01*
X86528333Y-55272142D01*
X86504523Y-55176904D01*
X86504523Y-55105476D01*
X86528333Y-55010238D01*
X86552142Y-54962619D01*
X86599761Y-54915000D01*
X86671190Y-54891190D01*
X86718809Y-54891190D01*
X86790238Y-54915000D01*
X86814047Y-54938809D01*
X87314047Y-55343571D02*
X87290238Y-55367380D01*
X87218809Y-55391190D01*
X87171190Y-55391190D01*
X87099761Y-55367380D01*
X87052142Y-55319761D01*
X87028333Y-55272142D01*
X87004523Y-55176904D01*
X87004523Y-55105476D01*
X87028333Y-55010238D01*
X87052142Y-54962619D01*
X87099761Y-54915000D01*
X87171190Y-54891190D01*
X87218809Y-54891190D01*
X87290238Y-54915000D01*
X87314047Y-54938809D01*
X98264047Y-55015000D02*
X98216428Y-54991190D01*
X98145000Y-54991190D01*
X98073571Y-55015000D01*
X98025952Y-55062619D01*
X98002142Y-55110238D01*
X97978333Y-55205476D01*
X97978333Y-55276904D01*
X98002142Y-55372142D01*
X98025952Y-55419761D01*
X98073571Y-55467380D01*
X98145000Y-55491190D01*
X98192619Y-55491190D01*
X98264047Y-55467380D01*
X98287857Y-55443571D01*
X98287857Y-55276904D01*
X98192619Y-55276904D01*
X98502142Y-55491190D02*
X98502142Y-54991190D01*
X98787857Y-55491190D01*
X98787857Y-54991190D01*
X99025952Y-55491190D02*
X99025952Y-54991190D01*
X99145000Y-54991190D01*
X99216428Y-55015000D01*
X99264047Y-55062619D01*
X99287857Y-55110238D01*
X99311666Y-55205476D01*
X99311666Y-55276904D01*
X99287857Y-55372142D01*
X99264047Y-55419761D01*
X99216428Y-55467380D01*
X99145000Y-55491190D01*
X99025952Y-55491190D01*
X98028333Y-51191190D02*
X98195000Y-51691190D01*
X98361666Y-51191190D01*
X98814047Y-51643571D02*
X98790238Y-51667380D01*
X98718809Y-51691190D01*
X98671190Y-51691190D01*
X98599761Y-51667380D01*
X98552142Y-51619761D01*
X98528333Y-51572142D01*
X98504523Y-51476904D01*
X98504523Y-51405476D01*
X98528333Y-51310238D01*
X98552142Y-51262619D01*
X98599761Y-51215000D01*
X98671190Y-51191190D01*
X98718809Y-51191190D01*
X98790238Y-51215000D01*
X98814047Y-51238809D01*
X99314047Y-51643571D02*
X99290238Y-51667380D01*
X99218809Y-51691190D01*
X99171190Y-51691190D01*
X99099761Y-51667380D01*
X99052142Y-51619761D01*
X99028333Y-51572142D01*
X99004523Y-51476904D01*
X99004523Y-51405476D01*
X99028333Y-51310238D01*
X99052142Y-51262619D01*
X99099761Y-51215000D01*
X99171190Y-51191190D01*
X99218809Y-51191190D01*
X99290238Y-51215000D01*
X99314047Y-51238809D01*
D10*
X98807260Y-52824845D02*
X99390913Y-53314588D01*
D11*
X98118809Y-52641190D02*
X98118809Y-52141190D01*
X98237857Y-52141190D01*
X98309285Y-52165000D01*
X98356904Y-52212619D01*
X98380714Y-52260238D01*
X98404523Y-52355476D01*
X98404523Y-52426904D01*
X98380714Y-52522142D01*
X98356904Y-52569761D01*
X98309285Y-52617380D01*
X98237857Y-52641190D01*
X98118809Y-52641190D01*
X98618809Y-52641190D02*
X98618809Y-52307857D01*
X98618809Y-52141190D02*
X98595000Y-52165000D01*
X98618809Y-52188809D01*
X98642619Y-52165000D01*
X98618809Y-52141190D01*
X98618809Y-52188809D01*
X98856904Y-52307857D02*
X98856904Y-52641190D01*
X98856904Y-52355476D02*
X98880714Y-52331666D01*
X98928333Y-52307857D01*
X98999761Y-52307857D01*
X99047380Y-52331666D01*
X99071190Y-52379285D01*
X99071190Y-52641190D01*
D10*
X96871190Y-61722142D02*
X96823571Y-61769761D01*
X96680714Y-61817380D01*
X96585476Y-61817380D01*
X96442619Y-61769761D01*
X96347380Y-61674523D01*
X96299761Y-61579285D01*
X96252142Y-61388809D01*
X96252142Y-61245952D01*
X96299761Y-61055476D01*
X96347380Y-60960238D01*
X96442619Y-60865000D01*
X96585476Y-60817380D01*
X96680714Y-60817380D01*
X96823571Y-60865000D01*
X96871190Y-60912619D01*
X97299761Y-61817380D02*
X97299761Y-60817380D01*
X97728333Y-61817380D02*
X97728333Y-61293571D01*
X97680714Y-61198333D01*
X97585476Y-61150714D01*
X97442619Y-61150714D01*
X97347380Y-61198333D01*
X97299761Y-61245952D01*
X98347380Y-61817380D02*
X98252142Y-61769761D01*
X98204523Y-61722142D01*
X98156904Y-61626904D01*
X98156904Y-61341190D01*
X98204523Y-61245952D01*
X98252142Y-61198333D01*
X98347380Y-61150714D01*
X98490238Y-61150714D01*
X98585476Y-61198333D01*
X98633095Y-61245952D01*
X98680714Y-61341190D01*
X98680714Y-61626904D01*
X98633095Y-61722142D01*
X98585476Y-61769761D01*
X98490238Y-61817380D01*
X98347380Y-61817380D01*
X99537857Y-61769761D02*
X99442619Y-61817380D01*
X99252142Y-61817380D01*
X99156904Y-61769761D01*
X99109285Y-61722142D01*
X99061666Y-61626904D01*
X99061666Y-61341190D01*
X99109285Y-61245952D01*
X99156904Y-61198333D01*
X99252142Y-61150714D01*
X99442619Y-61150714D01*
X99537857Y-61198333D01*
X96338828Y-60454285D02*
X96088828Y-60097142D01*
X95910257Y-60454285D02*
X95910257Y-59704285D01*
X96195971Y-59704285D01*
X96267400Y-59740000D01*
X96303114Y-59775714D01*
X96338828Y-59847142D01*
X96338828Y-59954285D01*
X96303114Y-60025714D01*
X96267400Y-60061428D01*
X96195971Y-60097142D01*
X95910257Y-60097142D01*
X96945971Y-60418571D02*
X96874542Y-60454285D01*
X96731685Y-60454285D01*
X96660257Y-60418571D01*
X96624542Y-60347142D01*
X96624542Y-60061428D01*
X96660257Y-59990000D01*
X96731685Y-59954285D01*
X96874542Y-59954285D01*
X96945971Y-59990000D01*
X96981685Y-60061428D01*
X96981685Y-60132857D01*
X96624542Y-60204285D01*
X97231685Y-59954285D02*
X97410257Y-60454285D01*
X97588828Y-59954285D01*
X98410257Y-59775714D02*
X98445971Y-59740000D01*
X98517400Y-59704285D01*
X98695971Y-59704285D01*
X98767400Y-59740000D01*
X98803114Y-59775714D01*
X98838828Y-59847142D01*
X98838828Y-59918571D01*
X98803114Y-60025714D01*
X98374542Y-60454285D01*
X98838828Y-60454285D01*
X99160257Y-60382857D02*
X99195971Y-60418571D01*
X99160257Y-60454285D01*
X99124542Y-60418571D01*
X99160257Y-60382857D01*
X99160257Y-60454285D01*
X99660257Y-59704285D02*
X99731685Y-59704285D01*
X99803114Y-59740000D01*
X99838828Y-59775714D01*
X99874542Y-59847142D01*
X99910257Y-59990000D01*
X99910257Y-60168571D01*
X99874542Y-60311428D01*
X99838828Y-60382857D01*
X99803114Y-60418571D01*
X99731685Y-60454285D01*
X99660257Y-60454285D01*
X99588828Y-60418571D01*
X99553114Y-60382857D01*
X99517400Y-60311428D01*
X99481685Y-60168571D01*
X99481685Y-59990000D01*
X99517400Y-59847142D01*
X99553114Y-59775714D01*
X99588828Y-59740000D01*
X99660257Y-59704285D01*
D12*
X88491428Y-62032857D02*
X88455714Y-62068571D01*
X88348571Y-62104285D01*
X88277142Y-62104285D01*
X88170000Y-62068571D01*
X88098571Y-61997142D01*
X88062857Y-61925714D01*
X88027142Y-61782857D01*
X88027142Y-61675714D01*
X88062857Y-61532857D01*
X88098571Y-61461428D01*
X88170000Y-61390000D01*
X88277142Y-61354285D01*
X88348571Y-61354285D01*
X88455714Y-61390000D01*
X88491428Y-61425714D01*
X88920000Y-62104285D02*
X88848571Y-62068571D01*
X88812857Y-62032857D01*
X88777142Y-61961428D01*
X88777142Y-61747142D01*
X88812857Y-61675714D01*
X88848571Y-61640000D01*
X88920000Y-61604285D01*
X89027142Y-61604285D01*
X89098571Y-61640000D01*
X89134285Y-61675714D01*
X89170000Y-61747142D01*
X89170000Y-61961428D01*
X89134285Y-62032857D01*
X89098571Y-62068571D01*
X89027142Y-62104285D01*
X88920000Y-62104285D01*
X89598571Y-62104285D02*
X89527142Y-62068571D01*
X89491428Y-61997142D01*
X89491428Y-61354285D01*
X89198571Y-45597142D02*
X89234285Y-45561428D01*
X89341428Y-45525714D01*
X89412857Y-45525714D01*
X89520000Y-45561428D01*
X89591428Y-45632857D01*
X89627142Y-45704285D01*
X89662857Y-45847142D01*
X89662857Y-45954285D01*
X89627142Y-46097142D01*
X89591428Y-46168571D01*
X89520000Y-46240000D01*
X89412857Y-46275714D01*
X89341428Y-46275714D01*
X89234285Y-46240000D01*
X89198571Y-46204285D01*
X88770000Y-45525714D02*
X88841428Y-45561428D01*
X88877142Y-45597142D01*
X88912857Y-45668571D01*
X88912857Y-45882857D01*
X88877142Y-45954285D01*
X88841428Y-45990000D01*
X88770000Y-46025714D01*
X88662857Y-46025714D01*
X88591428Y-45990000D01*
X88555714Y-45954285D01*
X88520000Y-45882857D01*
X88520000Y-45668571D01*
X88555714Y-45597142D01*
X88591428Y-45561428D01*
X88662857Y-45525714D01*
X88770000Y-45525714D01*
X88091428Y-45525714D02*
X88162857Y-45561428D01*
X88198571Y-45632857D01*
X88198571Y-46275714D01*
X100934285Y-48715000D02*
X100577142Y-48965000D01*
X100934285Y-49143571D02*
X100184285Y-49143571D01*
X100184285Y-48857857D01*
X100220000Y-48786428D01*
X100255714Y-48750714D01*
X100327142Y-48715000D01*
X100434285Y-48715000D01*
X100505714Y-48750714D01*
X100541428Y-48786428D01*
X100577142Y-48857857D01*
X100577142Y-49143571D01*
X100934285Y-48286428D02*
X100898571Y-48357857D01*
X100862857Y-48393571D01*
X100791428Y-48429285D01*
X100577142Y-48429285D01*
X100505714Y-48393571D01*
X100470000Y-48357857D01*
X100434285Y-48286428D01*
X100434285Y-48179285D01*
X100470000Y-48107857D01*
X100505714Y-48072142D01*
X100577142Y-48036428D01*
X100791428Y-48036428D01*
X100862857Y-48072142D01*
X100898571Y-48107857D01*
X100934285Y-48179285D01*
X100934285Y-48286428D01*
X100434285Y-47786428D02*
X100934285Y-47643571D01*
X100577142Y-47500714D01*
X100934285Y-47357857D01*
X100434285Y-47215000D01*
X84405714Y-47665000D02*
X84762857Y-47415000D01*
X84405714Y-47236428D02*
X85155714Y-47236428D01*
X85155714Y-47522142D01*
X85120000Y-47593571D01*
X85084285Y-47629285D01*
X85012857Y-47665000D01*
X84905714Y-47665000D01*
X84834285Y-47629285D01*
X84798571Y-47593571D01*
X84762857Y-47522142D01*
X84762857Y-47236428D01*
X84405714Y-48093571D02*
X84441428Y-48022142D01*
X84477142Y-47986428D01*
X84548571Y-47950714D01*
X84762857Y-47950714D01*
X84834285Y-47986428D01*
X84870000Y-48022142D01*
X84905714Y-48093571D01*
X84905714Y-48200714D01*
X84870000Y-48272142D01*
X84834285Y-48307857D01*
X84762857Y-48343571D01*
X84548571Y-48343571D01*
X84477142Y-48307857D01*
X84441428Y-48272142D01*
X84405714Y-48200714D01*
X84405714Y-48093571D01*
X84905714Y-48593571D02*
X84405714Y-48736428D01*
X84762857Y-48879285D01*
X84405714Y-49022142D01*
X84905714Y-49165000D01*
D10*
X95355714Y-51529285D02*
X96105714Y-51529285D01*
X95748571Y-51529285D02*
X95748571Y-51957857D01*
X95355714Y-51957857D02*
X96105714Y-51957857D01*
X95355714Y-52315000D02*
X96105714Y-52315000D01*
X95355714Y-52672142D02*
X96105714Y-52672142D01*
X96105714Y-52850714D01*
X96070000Y-52957857D01*
X95998571Y-53029285D01*
X95927142Y-53065000D01*
X95784285Y-53100714D01*
X95677142Y-53100714D01*
X95534285Y-53065000D01*
X95462857Y-53029285D01*
X95391428Y-52957857D01*
X95355714Y-52850714D01*
X95355714Y-52672142D01*
X96105714Y-53315000D02*
X96105714Y-53743571D01*
X95355714Y-53529285D02*
X96105714Y-53529285D01*
X95391428Y-54279285D02*
X95355714Y-54207857D01*
X95355714Y-54065000D01*
X95391428Y-53993571D01*
X95462857Y-53957857D01*
X95748571Y-53957857D01*
X95820000Y-53993571D01*
X95855714Y-54065000D01*
X95855714Y-54207857D01*
X95820000Y-54279285D01*
X95748571Y-54315000D01*
X95677142Y-54315000D01*
X95605714Y-53957857D01*
X95391428Y-54957857D02*
X95355714Y-54886428D01*
X95355714Y-54743571D01*
X95391428Y-54672142D01*
X95427142Y-54636428D01*
X95498571Y-54600714D01*
X95712857Y-54600714D01*
X95784285Y-54636428D01*
X95820000Y-54672142D01*
X95855714Y-54743571D01*
X95855714Y-54886428D01*
X95820000Y-54957857D01*
X95355714Y-55279285D02*
X96105714Y-55279285D01*
X95355714Y-55600714D02*
X95748571Y-55600714D01*
X95820000Y-55565000D01*
X95855714Y-55493571D01*
X95855714Y-55386428D01*
X95820000Y-55315000D01*
X95784285Y-55279285D01*
X86164212Y-58704222D02*
X87238811Y-57017439D01*
X87007603Y-59241521D02*
X88082202Y-57554738D01*
D13*
X86609028Y-58750463D02*
X86777706Y-58857923D01*
%LPC*%
D14*
X87565000Y-53815000D03*
D15*
X88835000Y-51275000D03*
D16*
X92645000Y-53815000D03*
D15*
X95185000Y-48735000D03*
D14*
X97725000Y-53815000D03*
D17*
X98145000Y-53815000D03*
X87145000Y-53815000D03*
D18*
X89370000Y-59765000D03*
D15*
X97645000Y-57565000D03*
D19*
X92645000Y-53815000D03*
D15*
X92645000Y-59765000D03*
D20*
X100395000Y-57565000D03*
D21*
X89189223Y-54938357D03*
D22*
G36*
X85339873Y-62469553D02*
G01*
X83990447Y-61609873D01*
X84850127Y-60260447D01*
X86199553Y-61120127D01*
X85339873Y-62469553D01*
G37*
D23*
X91033600Y-46659800D03*
X94233600Y-46659800D03*
X91033600Y-51559800D03*
X94233600Y-51559800D03*
D21*
X87045000Y-61515000D03*
D22*
G36*
X88128280Y-57435882D02*
G01*
X87327058Y-56925447D01*
X88025548Y-55829038D01*
X88826770Y-56339473D01*
X88128280Y-57435882D01*
G37*
G36*
X86220866Y-60429922D02*
G01*
X85419644Y-59919487D01*
X86118134Y-58823078D01*
X86919356Y-59333513D01*
X86220866Y-60429922D01*
G37*
D21*
X84963000Y-53615000D03*
D24*
X100345000Y-55165000D03*
D21*
X87045000Y-46115000D03*
X84963000Y-55415000D03*
X100345000Y-51565000D03*
D24*
X84963000Y-57215000D03*
D21*
X100345000Y-53365000D03*
X100245000Y-46215000D03*
X85045000Y-46215000D03*
M02*
