G04 #@! TF.GenerationSoftware,KiCad,Pcbnew,(5.1.5)-3*
G04 #@! TF.CreationDate,2020-05-06T16:20:12+02:00*
G04 #@! TF.ProjectId,plaque,706c6171-7565-42e6-9b69-6361645f7063,1*
G04 #@! TF.SameCoordinates,Original*
G04 #@! TF.FileFunction,Paste,Top*
G04 #@! TF.FilePolarity,Positive*
%FSLAX46Y46*%
G04 Gerber Fmt 4.6, Leading zero omitted, Abs format (unit mm)*
G04 Created by KiCad (PCBNEW (5.1.5)-3) date 2020-05-06 16:20:12*
%MOMM*%
%LPD*%
G04 APERTURE LIST*
%ADD10C,0.100000*%
%ADD11R,1.000000X1.500000*%
%ADD12R,2.600000X2.600000*%
%ADD13R,1.600000X2.600000*%
G04 APERTURE END LIST*
D10*
G36*
X124259906Y-128115842D02*
G01*
X123458684Y-127605407D01*
X124157174Y-126508998D01*
X124958396Y-127019433D01*
X124259906Y-128115842D01*
G37*
G36*
X126167320Y-125121802D02*
G01*
X125366098Y-124611367D01*
X126064588Y-123514958D01*
X126865810Y-124025393D01*
X126167320Y-125121802D01*
G37*
D11*
X132272640Y-119245720D03*
X129072640Y-119245720D03*
X132272640Y-114345720D03*
X129072640Y-114345720D03*
X111028480Y-114343180D03*
X114228480Y-114343180D03*
X111028480Y-119243180D03*
X114228480Y-119243180D03*
D12*
X109364880Y-127448380D03*
D13*
X120389880Y-125248380D03*
D12*
X127401420Y-146483140D03*
D13*
X138426420Y-144283140D03*
D10*
G36*
X126159700Y-144154022D02*
G01*
X125358478Y-143643587D01*
X126056968Y-142547178D01*
X126858190Y-143057613D01*
X126159700Y-144154022D01*
G37*
G36*
X124252286Y-147148062D02*
G01*
X123451064Y-146637627D01*
X124149554Y-145541218D01*
X124950776Y-146051653D01*
X124252286Y-147148062D01*
G37*
D11*
X129065020Y-133377940D03*
X132265020Y-133377940D03*
X129065020Y-138277940D03*
X132265020Y-138277940D03*
D13*
X138434040Y-125250920D03*
D12*
X127409040Y-127450920D03*
D10*
G36*
X108123160Y-125119262D02*
G01*
X107321938Y-124608827D01*
X108020428Y-123512418D01*
X108821650Y-124022853D01*
X108123160Y-125119262D01*
G37*
G36*
X106215746Y-128113302D02*
G01*
X105414524Y-127602867D01*
X106113014Y-126506458D01*
X106914236Y-127016893D01*
X106215746Y-128113302D01*
G37*
G36*
X90061220Y-144151482D02*
G01*
X89259998Y-143641047D01*
X89958488Y-142544638D01*
X90759710Y-143055073D01*
X90061220Y-144151482D01*
G37*
G36*
X88153806Y-147145522D02*
G01*
X87352584Y-146635087D01*
X88051074Y-145538678D01*
X88852296Y-146049113D01*
X88153806Y-147145522D01*
G37*
D12*
X73266400Y-127445840D03*
D13*
X84291400Y-125245840D03*
D10*
G36*
X72024680Y-125116722D02*
G01*
X71223458Y-124606287D01*
X71921948Y-123509878D01*
X72723170Y-124020313D01*
X72024680Y-125116722D01*
G37*
G36*
X70117266Y-128110762D02*
G01*
X69316044Y-127600327D01*
X70014534Y-126503918D01*
X70815756Y-127014353D01*
X70117266Y-128110762D01*
G37*
D11*
X74930000Y-114340640D03*
X78130000Y-114340640D03*
X74930000Y-119240640D03*
X78130000Y-119240640D03*
D13*
X102335560Y-125248380D03*
D12*
X91310560Y-127448380D03*
X91302940Y-146480600D03*
D13*
X102327940Y-144280600D03*
D10*
G36*
X106208126Y-147145522D02*
G01*
X105406904Y-146635087D01*
X106105394Y-145538678D01*
X106906616Y-146049113D01*
X106208126Y-147145522D01*
G37*
G36*
X108115540Y-144151482D02*
G01*
X107314318Y-143641047D01*
X108012808Y-142544638D01*
X108814030Y-143055073D01*
X108115540Y-144151482D01*
G37*
D11*
X114220860Y-138275400D03*
X111020860Y-138275400D03*
X114220860Y-133375400D03*
X111020860Y-133375400D03*
D13*
X120382260Y-144280600D03*
D12*
X109357260Y-146480600D03*
D10*
G36*
X70109646Y-147142982D02*
G01*
X69308424Y-146632547D01*
X70006914Y-145536138D01*
X70808136Y-146046573D01*
X70109646Y-147142982D01*
G37*
G36*
X72017060Y-144148942D02*
G01*
X71215838Y-143638507D01*
X71914328Y-142542098D01*
X72715550Y-143052533D01*
X72017060Y-144148942D01*
G37*
D11*
X92966540Y-133375400D03*
X96166540Y-133375400D03*
X92966540Y-138275400D03*
X96166540Y-138275400D03*
D13*
X84283780Y-144278060D03*
D12*
X73258780Y-146478060D03*
D11*
X78122380Y-138272860D03*
X74922380Y-138272860D03*
X78122380Y-133372860D03*
X74922380Y-133372860D03*
X96174160Y-119243180D03*
X92974160Y-119243180D03*
X96174160Y-114343180D03*
X92974160Y-114343180D03*
D10*
G36*
X88161426Y-128113302D02*
G01*
X87360204Y-127602867D01*
X88058694Y-126506458D01*
X88859916Y-127016893D01*
X88161426Y-128113302D01*
G37*
G36*
X90068840Y-125119262D02*
G01*
X89267618Y-124608827D01*
X89966108Y-123512418D01*
X90767330Y-124022853D01*
X90068840Y-125119262D01*
G37*
G36*
X54008460Y-125116722D02*
G01*
X53207238Y-124606287D01*
X53905728Y-123509878D01*
X54706950Y-124020313D01*
X54008460Y-125116722D01*
G37*
G36*
X52101046Y-128110762D02*
G01*
X51299824Y-127600327D01*
X51998314Y-126503918D01*
X52799536Y-127014353D01*
X52101046Y-128110762D01*
G37*
D11*
X56913780Y-114340640D03*
X60113780Y-114340640D03*
X56913780Y-119240640D03*
X60113780Y-119240640D03*
D10*
G36*
X34056886Y-128108222D02*
G01*
X33255664Y-127597787D01*
X33954154Y-126501378D01*
X34755376Y-127011813D01*
X34056886Y-128108222D01*
G37*
G36*
X35964300Y-125114182D02*
G01*
X35163078Y-124603747D01*
X35861568Y-123507338D01*
X36662790Y-124017773D01*
X35964300Y-125114182D01*
G37*
D11*
X42069620Y-119238100D03*
X38869620Y-119238100D03*
X42069620Y-114338100D03*
X38869620Y-114338100D03*
D13*
X48231020Y-125243300D03*
D12*
X37206020Y-127443300D03*
X55250180Y-127445840D03*
D13*
X66275180Y-125245840D03*
D10*
G36*
X52093426Y-147142982D02*
G01*
X51292204Y-146632547D01*
X51990694Y-145536138D01*
X52791916Y-146046573D01*
X52093426Y-147142982D01*
G37*
G36*
X54000840Y-144148942D02*
G01*
X53199618Y-143638507D01*
X53898108Y-142542098D01*
X54699330Y-143052533D01*
X54000840Y-144148942D01*
G37*
D13*
X66267560Y-144278060D03*
D12*
X55242560Y-146478060D03*
D11*
X60106160Y-138272860D03*
X56906160Y-138272860D03*
X60106160Y-133372860D03*
X56906160Y-133372860D03*
D10*
G36*
X35956680Y-144146402D02*
G01*
X35155458Y-143635967D01*
X35853948Y-142539558D01*
X36655170Y-143049993D01*
X35956680Y-144146402D01*
G37*
G36*
X34049266Y-147140442D02*
G01*
X33248044Y-146630007D01*
X33946534Y-145533598D01*
X34747756Y-146044033D01*
X34049266Y-147140442D01*
G37*
D12*
X37198400Y-146475520D03*
D13*
X48223400Y-144275520D03*
D11*
X38862000Y-133370320D03*
X42062000Y-133370320D03*
X38862000Y-138270320D03*
X42062000Y-138270320D03*
D10*
G36*
X124287846Y-85408282D02*
G01*
X123486624Y-84897847D01*
X124185114Y-83801438D01*
X124986336Y-84311873D01*
X124287846Y-85408282D01*
G37*
G36*
X126195260Y-82414242D02*
G01*
X125394038Y-81903807D01*
X126092528Y-80807398D01*
X126893750Y-81317833D01*
X126195260Y-82414242D01*
G37*
D11*
X132300580Y-76538160D03*
X129100580Y-76538160D03*
X132300580Y-71638160D03*
X129100580Y-71638160D03*
X111056420Y-71635620D03*
X114256420Y-71635620D03*
X111056420Y-76535620D03*
X114256420Y-76535620D03*
D12*
X109392820Y-84740820D03*
D13*
X120417820Y-82540820D03*
D12*
X127429360Y-103775580D03*
D13*
X138454360Y-101575580D03*
D10*
G36*
X126187640Y-101446462D02*
G01*
X125386418Y-100936027D01*
X126084908Y-99839618D01*
X126886130Y-100350053D01*
X126187640Y-101446462D01*
G37*
G36*
X124280226Y-104440502D02*
G01*
X123479004Y-103930067D01*
X124177494Y-102833658D01*
X124978716Y-103344093D01*
X124280226Y-104440502D01*
G37*
D11*
X129092960Y-90670380D03*
X132292960Y-90670380D03*
X129092960Y-95570380D03*
X132292960Y-95570380D03*
D13*
X138461980Y-82543360D03*
D12*
X127436980Y-84743360D03*
D10*
G36*
X108151100Y-82411702D02*
G01*
X107349878Y-81901267D01*
X108048368Y-80804858D01*
X108849590Y-81315293D01*
X108151100Y-82411702D01*
G37*
G36*
X106243686Y-85405742D02*
G01*
X105442464Y-84895307D01*
X106140954Y-83798898D01*
X106942176Y-84309333D01*
X106243686Y-85405742D01*
G37*
G36*
X90089160Y-101443922D02*
G01*
X89287938Y-100933487D01*
X89986428Y-99837078D01*
X90787650Y-100347513D01*
X90089160Y-101443922D01*
G37*
G36*
X88181746Y-104437962D02*
G01*
X87380524Y-103927527D01*
X88079014Y-102831118D01*
X88880236Y-103341553D01*
X88181746Y-104437962D01*
G37*
D12*
X73294340Y-84738280D03*
D13*
X84319340Y-82538280D03*
D10*
G36*
X72052620Y-82409162D02*
G01*
X71251398Y-81898727D01*
X71949888Y-80802318D01*
X72751110Y-81312753D01*
X72052620Y-82409162D01*
G37*
G36*
X70145206Y-85403202D02*
G01*
X69343984Y-84892767D01*
X70042474Y-83796358D01*
X70843696Y-84306793D01*
X70145206Y-85403202D01*
G37*
D11*
X74957940Y-71633080D03*
X78157940Y-71633080D03*
X74957940Y-76533080D03*
X78157940Y-76533080D03*
D13*
X102363500Y-82540820D03*
D12*
X91338500Y-84740820D03*
X91330880Y-103773040D03*
D13*
X102355880Y-101573040D03*
D10*
G36*
X106236066Y-104437962D02*
G01*
X105434844Y-103927527D01*
X106133334Y-102831118D01*
X106934556Y-103341553D01*
X106236066Y-104437962D01*
G37*
G36*
X108143480Y-101443922D02*
G01*
X107342258Y-100933487D01*
X108040748Y-99837078D01*
X108841970Y-100347513D01*
X108143480Y-101443922D01*
G37*
D11*
X114248800Y-95567840D03*
X111048800Y-95567840D03*
X114248800Y-90667840D03*
X111048800Y-90667840D03*
D13*
X120410200Y-101573040D03*
D12*
X109385200Y-103773040D03*
D10*
G36*
X70137586Y-104435422D02*
G01*
X69336364Y-103924987D01*
X70034854Y-102828578D01*
X70836076Y-103339013D01*
X70137586Y-104435422D01*
G37*
G36*
X72045000Y-101441382D02*
G01*
X71243778Y-100930947D01*
X71942268Y-99834538D01*
X72743490Y-100344973D01*
X72045000Y-101441382D01*
G37*
D11*
X92994480Y-90667840D03*
X96194480Y-90667840D03*
X92994480Y-95567840D03*
X96194480Y-95567840D03*
D13*
X84311720Y-101570500D03*
D12*
X73286720Y-103770500D03*
D11*
X78150320Y-95565300D03*
X74950320Y-95565300D03*
X78150320Y-90665300D03*
X74950320Y-90665300D03*
X96202100Y-76535620D03*
X93002100Y-76535620D03*
X96202100Y-71635620D03*
X93002100Y-71635620D03*
D10*
G36*
X88189366Y-85405742D02*
G01*
X87388144Y-84895307D01*
X88086634Y-83798898D01*
X88887856Y-84309333D01*
X88189366Y-85405742D01*
G37*
G36*
X90096780Y-82411702D02*
G01*
X89295558Y-81901267D01*
X89994048Y-80804858D01*
X90795270Y-81315293D01*
X90096780Y-82411702D01*
G37*
G36*
X54036400Y-82409162D02*
G01*
X53235178Y-81898727D01*
X53933668Y-80802318D01*
X54734890Y-81312753D01*
X54036400Y-82409162D01*
G37*
G36*
X52128986Y-85403202D02*
G01*
X51327764Y-84892767D01*
X52026254Y-83796358D01*
X52827476Y-84306793D01*
X52128986Y-85403202D01*
G37*
D11*
X56941720Y-71633080D03*
X60141720Y-71633080D03*
X56941720Y-76533080D03*
X60141720Y-76533080D03*
D10*
G36*
X34084826Y-85400662D02*
G01*
X33283604Y-84890227D01*
X33982094Y-83793818D01*
X34783316Y-84304253D01*
X34084826Y-85400662D01*
G37*
G36*
X35992240Y-82406622D02*
G01*
X35191018Y-81896187D01*
X35889508Y-80799778D01*
X36690730Y-81310213D01*
X35992240Y-82406622D01*
G37*
D11*
X42097560Y-76530540D03*
X38897560Y-76530540D03*
X42097560Y-71630540D03*
X38897560Y-71630540D03*
D13*
X48258960Y-82535740D03*
D12*
X37233960Y-84735740D03*
X55278120Y-84738280D03*
D13*
X66303120Y-82538280D03*
D10*
G36*
X52121366Y-104435422D02*
G01*
X51320144Y-103924987D01*
X52018634Y-102828578D01*
X52819856Y-103339013D01*
X52121366Y-104435422D01*
G37*
G36*
X54028780Y-101441382D02*
G01*
X53227558Y-100930947D01*
X53926048Y-99834538D01*
X54727270Y-100344973D01*
X54028780Y-101441382D01*
G37*
D13*
X66295500Y-101570500D03*
D12*
X55270500Y-103770500D03*
D11*
X60134100Y-95565300D03*
X56934100Y-95565300D03*
X60134100Y-90665300D03*
X56934100Y-90665300D03*
D10*
G36*
X35984620Y-101438842D02*
G01*
X35183398Y-100928407D01*
X35881888Y-99831998D01*
X36683110Y-100342433D01*
X35984620Y-101438842D01*
G37*
G36*
X34077206Y-104432882D02*
G01*
X33275984Y-103922447D01*
X33974474Y-102826038D01*
X34775696Y-103336473D01*
X34077206Y-104432882D01*
G37*
D12*
X37226340Y-103767960D03*
D13*
X48251340Y-101567960D03*
D11*
X38889940Y-90662760D03*
X42089940Y-90662760D03*
X38889940Y-95562760D03*
X42089940Y-95562760D03*
D10*
G36*
X126223200Y-39701602D02*
G01*
X125421978Y-39191167D01*
X126120468Y-38094758D01*
X126921690Y-38605193D01*
X126223200Y-39701602D01*
G37*
G36*
X124315786Y-42695642D02*
G01*
X123514564Y-42185207D01*
X124213054Y-41088798D01*
X125014276Y-41599233D01*
X124315786Y-42695642D01*
G37*
D11*
X129128520Y-28925520D03*
X132328520Y-28925520D03*
X129128520Y-33825520D03*
X132328520Y-33825520D03*
D10*
G36*
X106271626Y-42693102D02*
G01*
X105470404Y-42182667D01*
X106168894Y-41086258D01*
X106970116Y-41596693D01*
X106271626Y-42693102D01*
G37*
G36*
X108179040Y-39699062D02*
G01*
X107377818Y-39188627D01*
X108076308Y-38092218D01*
X108877530Y-38602653D01*
X108179040Y-39699062D01*
G37*
D11*
X114284360Y-33822980D03*
X111084360Y-33822980D03*
X114284360Y-28922980D03*
X111084360Y-28922980D03*
D13*
X120445760Y-39828180D03*
D12*
X109420760Y-42028180D03*
X127464920Y-42030720D03*
D13*
X138489920Y-39830720D03*
D10*
G36*
X124308166Y-61727862D02*
G01*
X123506944Y-61217427D01*
X124205434Y-60121018D01*
X125006656Y-60631453D01*
X124308166Y-61727862D01*
G37*
G36*
X126215580Y-58733822D02*
G01*
X125414358Y-58223387D01*
X126112848Y-57126978D01*
X126914070Y-57637413D01*
X126215580Y-58733822D01*
G37*
D13*
X138482300Y-58862940D03*
D12*
X127457300Y-61062940D03*
D11*
X132320900Y-52857740D03*
X129120900Y-52857740D03*
X132320900Y-47957740D03*
X129120900Y-47957740D03*
D10*
G36*
X108171420Y-58731282D02*
G01*
X107370198Y-58220847D01*
X108068688Y-57124438D01*
X108869910Y-57634873D01*
X108171420Y-58731282D01*
G37*
G36*
X106264006Y-61725322D02*
G01*
X105462784Y-61214887D01*
X106161274Y-60118478D01*
X106962496Y-60628913D01*
X106264006Y-61725322D01*
G37*
D12*
X109413140Y-61060400D03*
D13*
X120438140Y-58860400D03*
D11*
X111076740Y-47955200D03*
X114276740Y-47955200D03*
X111076740Y-52855200D03*
X114276740Y-52855200D03*
D10*
G36*
X90124720Y-39699062D02*
G01*
X89323498Y-39188627D01*
X90021988Y-38092218D01*
X90823210Y-38602653D01*
X90124720Y-39699062D01*
G37*
G36*
X88217306Y-42693102D02*
G01*
X87416084Y-42182667D01*
X88114574Y-41086258D01*
X88915796Y-41596693D01*
X88217306Y-42693102D01*
G37*
D11*
X93030040Y-28922980D03*
X96230040Y-28922980D03*
X93030040Y-33822980D03*
X96230040Y-33822980D03*
D10*
G36*
X70173146Y-42690562D02*
G01*
X69371924Y-42180127D01*
X70070414Y-41083718D01*
X70871636Y-41594153D01*
X70173146Y-42690562D01*
G37*
G36*
X72080560Y-39696522D02*
G01*
X71279338Y-39186087D01*
X71977828Y-38089678D01*
X72779050Y-38600113D01*
X72080560Y-39696522D01*
G37*
D11*
X78185880Y-33820440D03*
X74985880Y-33820440D03*
X78185880Y-28920440D03*
X74985880Y-28920440D03*
D13*
X84347280Y-39825640D03*
D12*
X73322280Y-42025640D03*
X91366440Y-42028180D03*
D13*
X102391440Y-39828180D03*
D10*
G36*
X88209686Y-61725322D02*
G01*
X87408464Y-61214887D01*
X88106954Y-60118478D01*
X88908176Y-60628913D01*
X88209686Y-61725322D01*
G37*
G36*
X90117100Y-58731282D02*
G01*
X89315878Y-58220847D01*
X90014368Y-57124438D01*
X90815590Y-57634873D01*
X90117100Y-58731282D01*
G37*
D13*
X102383820Y-58860400D03*
D12*
X91358820Y-61060400D03*
D11*
X96222420Y-52855200D03*
X93022420Y-52855200D03*
X96222420Y-47955200D03*
X93022420Y-47955200D03*
D10*
G36*
X72072940Y-58728742D02*
G01*
X71271718Y-58218307D01*
X71970208Y-57121898D01*
X72771430Y-57632333D01*
X72072940Y-58728742D01*
G37*
G36*
X70165526Y-61722782D02*
G01*
X69364304Y-61212347D01*
X70062794Y-60115938D01*
X70864016Y-60626373D01*
X70165526Y-61722782D01*
G37*
D12*
X73314660Y-61057860D03*
D13*
X84339660Y-58857860D03*
D11*
X74978260Y-47952660D03*
X78178260Y-47952660D03*
X74978260Y-52852660D03*
X78178260Y-52852660D03*
D10*
G36*
X52156926Y-42690562D02*
G01*
X51355704Y-42180127D01*
X52054194Y-41083718D01*
X52855416Y-41594153D01*
X52156926Y-42690562D01*
G37*
G36*
X54064340Y-39696522D02*
G01*
X53263118Y-39186087D01*
X53961608Y-38089678D01*
X54762830Y-38600113D01*
X54064340Y-39696522D01*
G37*
D11*
X60169660Y-33820440D03*
X56969660Y-33820440D03*
X60169660Y-28920440D03*
X56969660Y-28920440D03*
D13*
X66331060Y-39825640D03*
D12*
X55306060Y-42025640D03*
D10*
G36*
X54056720Y-58728742D02*
G01*
X53255498Y-58218307D01*
X53953988Y-57121898D01*
X54755210Y-57632333D01*
X54056720Y-58728742D01*
G37*
G36*
X52149306Y-61722782D02*
G01*
X51348084Y-61212347D01*
X52046574Y-60115938D01*
X52847796Y-60626373D01*
X52149306Y-61722782D01*
G37*
D12*
X55298440Y-61057860D03*
D13*
X66323440Y-58857860D03*
D11*
X56962040Y-47952660D03*
X60162040Y-47952660D03*
X56962040Y-52852660D03*
X60162040Y-52852660D03*
D10*
G36*
X34105146Y-61720242D02*
G01*
X33303924Y-61209807D01*
X34002414Y-60113398D01*
X34803636Y-60623833D01*
X34105146Y-61720242D01*
G37*
G36*
X36012560Y-58726202D02*
G01*
X35211338Y-58215767D01*
X35909828Y-57119358D01*
X36711050Y-57629793D01*
X36012560Y-58726202D01*
G37*
D11*
X42117880Y-52850120D03*
X38917880Y-52850120D03*
X42117880Y-47950120D03*
X38917880Y-47950120D03*
D13*
X48279280Y-58855320D03*
D12*
X37254280Y-61055320D03*
D10*
G36*
X36020180Y-39693982D02*
G01*
X35218958Y-39183547D01*
X35917448Y-38087138D01*
X36718670Y-38597573D01*
X36020180Y-39693982D01*
G37*
G36*
X34112766Y-42688022D02*
G01*
X33311544Y-42177587D01*
X34010034Y-41081178D01*
X34811256Y-41591613D01*
X34112766Y-42688022D01*
G37*
D11*
X38925500Y-28917900D03*
X42125500Y-28917900D03*
X38925500Y-33817900D03*
X42125500Y-33817900D03*
D12*
X37261900Y-42023100D03*
D13*
X48286900Y-39823100D03*
M02*
