G04 #@! TF.GenerationSoftware,KiCad,Pcbnew,(5.1.5)-3*
G04 #@! TF.CreationDate,2020-05-06T16:20:12+02:00*
G04 #@! TF.ProjectId,plaque,706c6171-7565-42e6-9b69-6361645f7063,1*
G04 #@! TF.SameCoordinates,Original*
G04 #@! TF.FileFunction,Paste,Bot*
G04 #@! TF.FilePolarity,Positive*
%FSLAX46Y46*%
G04 Gerber Fmt 4.6, Leading zero omitted, Abs format (unit mm)*
G04 Created by KiCad (PCBNEW (5.1.5)-3) date 2020-05-06 16:20:12*
%MOMM*%
%LPD*%
G04 APERTURE LIST*
%ADD10R,2.550000X2.500000*%
%ADD11R,1.000000X1.500000*%
%ADD12C,0.100000*%
G04 APERTURE END LIST*
D10*
X136774040Y-116420920D03*
X123324040Y-118960920D03*
D11*
X111028480Y-128922780D03*
X114228480Y-128922780D03*
X111028480Y-124022780D03*
X114228480Y-124022780D03*
D12*
G36*
X106241246Y-128101802D02*
G01*
X105440024Y-127591367D01*
X106138514Y-126494958D01*
X106939736Y-127005393D01*
X106241246Y-128101802D01*
G37*
G36*
X108148660Y-125107762D02*
G01*
X107347438Y-124597327D01*
X108045928Y-123500918D01*
X108847150Y-124011353D01*
X108148660Y-125107762D01*
G37*
D10*
X118722260Y-135450600D03*
X105272260Y-137990600D03*
X123316420Y-137993140D03*
X136766420Y-135453140D03*
D12*
G36*
X124277786Y-147136562D02*
G01*
X123476564Y-146626127D01*
X124175054Y-145529718D01*
X124976276Y-146040153D01*
X124277786Y-147136562D01*
G37*
G36*
X126185200Y-144142522D02*
G01*
X125383978Y-143632087D01*
X126082468Y-142535678D01*
X126883690Y-143046113D01*
X126185200Y-144142522D01*
G37*
D11*
X132272640Y-124025320D03*
X129072640Y-124025320D03*
X132272640Y-128925320D03*
X129072640Y-128925320D03*
D12*
G36*
X126192820Y-125110302D02*
G01*
X125391598Y-124599867D01*
X126090088Y-123503458D01*
X126891310Y-124013893D01*
X126192820Y-125110302D01*
G37*
G36*
X124285406Y-128104342D02*
G01*
X123484184Y-127593907D01*
X124182674Y-126497498D01*
X124983896Y-127007933D01*
X124285406Y-128104342D01*
G37*
D10*
X105279880Y-118958380D03*
X118729880Y-116418380D03*
D11*
X129065020Y-147957540D03*
X132265020Y-147957540D03*
X129065020Y-143057540D03*
X132265020Y-143057540D03*
D12*
G36*
X70142766Y-128099262D02*
G01*
X69341544Y-127588827D01*
X70040034Y-126492418D01*
X70841256Y-127002853D01*
X70142766Y-128099262D01*
G37*
G36*
X72050180Y-125105222D02*
G01*
X71248958Y-124594787D01*
X71947448Y-123498378D01*
X72748670Y-124008813D01*
X72050180Y-125105222D01*
G37*
D11*
X92966540Y-147955000D03*
X96166540Y-147955000D03*
X92966540Y-143055000D03*
X96166540Y-143055000D03*
D12*
G36*
X88179306Y-147134022D02*
G01*
X87378084Y-146623587D01*
X88076574Y-145527178D01*
X88877796Y-146037613D01*
X88179306Y-147134022D01*
G37*
G36*
X90086720Y-144139982D02*
G01*
X89285498Y-143629547D01*
X89983988Y-142533138D01*
X90785210Y-143043573D01*
X90086720Y-144139982D01*
G37*
D10*
X69181400Y-118955840D03*
X82631400Y-116415840D03*
D11*
X74930000Y-128920240D03*
X78130000Y-128920240D03*
X74930000Y-124020240D03*
X78130000Y-124020240D03*
D12*
G36*
X90094340Y-125107762D02*
G01*
X89293118Y-124597327D01*
X89991608Y-123500918D01*
X90792830Y-124011353D01*
X90094340Y-125107762D01*
G37*
G36*
X88186926Y-128101802D02*
G01*
X87385704Y-127591367D01*
X88084194Y-126494958D01*
X88885416Y-127005393D01*
X88186926Y-128101802D01*
G37*
D10*
X87217940Y-137990600D03*
X100667940Y-135450600D03*
D11*
X96174160Y-124022780D03*
X92974160Y-124022780D03*
X96174160Y-128922780D03*
X92974160Y-128922780D03*
D12*
G36*
X108141040Y-144139982D02*
G01*
X107339818Y-143629547D01*
X108038308Y-142533138D01*
X108839530Y-143043573D01*
X108141040Y-144139982D01*
G37*
G36*
X106233626Y-147134022D02*
G01*
X105432404Y-146623587D01*
X106130894Y-145527178D01*
X106932116Y-146037613D01*
X106233626Y-147134022D01*
G37*
D11*
X114220860Y-143055000D03*
X111020860Y-143055000D03*
X114220860Y-147955000D03*
X111020860Y-147955000D03*
X78122380Y-143052460D03*
X74922380Y-143052460D03*
X78122380Y-147952460D03*
X74922380Y-147952460D03*
D10*
X82623780Y-135448060D03*
X69173780Y-137988060D03*
D12*
G36*
X72042560Y-144137442D02*
G01*
X71241338Y-143627007D01*
X71939828Y-142530598D01*
X72741050Y-143041033D01*
X72042560Y-144137442D01*
G37*
G36*
X70135146Y-147131482D02*
G01*
X69333924Y-146621047D01*
X70032414Y-145524638D01*
X70833636Y-146035073D01*
X70135146Y-147131482D01*
G37*
D10*
X100675560Y-116418380D03*
X87225560Y-118958380D03*
X51165180Y-118955840D03*
X64615180Y-116415840D03*
X46571020Y-116413300D03*
X33121020Y-118953300D03*
D11*
X42069620Y-124017700D03*
X38869620Y-124017700D03*
X42069620Y-128917700D03*
X38869620Y-128917700D03*
D12*
G36*
X35989800Y-125102682D02*
G01*
X35188578Y-124592247D01*
X35887068Y-123495838D01*
X36688290Y-124006273D01*
X35989800Y-125102682D01*
G37*
G36*
X34082386Y-128096722D02*
G01*
X33281164Y-127586287D01*
X33979654Y-126489878D01*
X34780876Y-127000313D01*
X34082386Y-128096722D01*
G37*
D10*
X64607560Y-135448060D03*
X51157560Y-137988060D03*
D11*
X56913780Y-128920240D03*
X60113780Y-128920240D03*
X56913780Y-124020240D03*
X60113780Y-124020240D03*
D12*
G36*
X52126546Y-128099262D02*
G01*
X51325324Y-127588827D01*
X52023814Y-126492418D01*
X52825036Y-127002853D01*
X52126546Y-128099262D01*
G37*
G36*
X54033960Y-125105222D02*
G01*
X53232738Y-124594787D01*
X53931228Y-123498378D01*
X54732450Y-124008813D01*
X54033960Y-125105222D01*
G37*
D11*
X60106160Y-143052460D03*
X56906160Y-143052460D03*
X60106160Y-147952460D03*
X56906160Y-147952460D03*
D12*
G36*
X54026340Y-144137442D02*
G01*
X53225118Y-143627007D01*
X53923608Y-142530598D01*
X54724830Y-143041033D01*
X54026340Y-144137442D01*
G37*
G36*
X52118926Y-147131482D02*
G01*
X51317704Y-146621047D01*
X52016194Y-145524638D01*
X52817416Y-146035073D01*
X52118926Y-147131482D01*
G37*
D10*
X33113400Y-137985520D03*
X46563400Y-135445520D03*
D11*
X38862000Y-147949920D03*
X42062000Y-147949920D03*
X38862000Y-143049920D03*
X42062000Y-143049920D03*
D12*
G36*
X34074766Y-147128942D02*
G01*
X33273544Y-146618507D01*
X33972034Y-145522098D01*
X34773256Y-146032533D01*
X34074766Y-147128942D01*
G37*
G36*
X35982180Y-144134902D02*
G01*
X35180958Y-143624467D01*
X35879448Y-142528058D01*
X36680670Y-143038493D01*
X35982180Y-144134902D01*
G37*
D10*
X136801980Y-73713360D03*
X123351980Y-76253360D03*
D11*
X111056420Y-86215220D03*
X114256420Y-86215220D03*
X111056420Y-81315220D03*
X114256420Y-81315220D03*
D12*
G36*
X106269186Y-85394242D02*
G01*
X105467964Y-84883807D01*
X106166454Y-83787398D01*
X106967676Y-84297833D01*
X106269186Y-85394242D01*
G37*
G36*
X108176600Y-82400202D02*
G01*
X107375378Y-81889767D01*
X108073868Y-80793358D01*
X108875090Y-81303793D01*
X108176600Y-82400202D01*
G37*
D10*
X118750200Y-92743040D03*
X105300200Y-95283040D03*
X123344360Y-95285580D03*
X136794360Y-92745580D03*
D12*
G36*
X124305726Y-104429002D02*
G01*
X123504504Y-103918567D01*
X124202994Y-102822158D01*
X125004216Y-103332593D01*
X124305726Y-104429002D01*
G37*
G36*
X126213140Y-101434962D02*
G01*
X125411918Y-100924527D01*
X126110408Y-99828118D01*
X126911630Y-100338553D01*
X126213140Y-101434962D01*
G37*
D11*
X132300580Y-81317760D03*
X129100580Y-81317760D03*
X132300580Y-86217760D03*
X129100580Y-86217760D03*
D12*
G36*
X126220760Y-82402742D02*
G01*
X125419538Y-81892307D01*
X126118028Y-80795898D01*
X126919250Y-81306333D01*
X126220760Y-82402742D01*
G37*
G36*
X124313346Y-85396782D02*
G01*
X123512124Y-84886347D01*
X124210614Y-83789938D01*
X125011836Y-84300373D01*
X124313346Y-85396782D01*
G37*
D10*
X105307820Y-76250820D03*
X118757820Y-73710820D03*
D11*
X129092960Y-105249980D03*
X132292960Y-105249980D03*
X129092960Y-100349980D03*
X132292960Y-100349980D03*
D12*
G36*
X70170706Y-85391702D02*
G01*
X69369484Y-84881267D01*
X70067974Y-83784858D01*
X70869196Y-84295293D01*
X70170706Y-85391702D01*
G37*
G36*
X72078120Y-82397662D02*
G01*
X71276898Y-81887227D01*
X71975388Y-80790818D01*
X72776610Y-81301253D01*
X72078120Y-82397662D01*
G37*
D11*
X92994480Y-105247440D03*
X96194480Y-105247440D03*
X92994480Y-100347440D03*
X96194480Y-100347440D03*
D12*
G36*
X88207246Y-104426462D02*
G01*
X87406024Y-103916027D01*
X88104514Y-102819618D01*
X88905736Y-103330053D01*
X88207246Y-104426462D01*
G37*
G36*
X90114660Y-101432422D02*
G01*
X89313438Y-100921987D01*
X90011928Y-99825578D01*
X90813150Y-100336013D01*
X90114660Y-101432422D01*
G37*
D10*
X69209340Y-76248280D03*
X82659340Y-73708280D03*
D11*
X74957940Y-86212680D03*
X78157940Y-86212680D03*
X74957940Y-81312680D03*
X78157940Y-81312680D03*
D12*
G36*
X90122280Y-82400202D02*
G01*
X89321058Y-81889767D01*
X90019548Y-80793358D01*
X90820770Y-81303793D01*
X90122280Y-82400202D01*
G37*
G36*
X88214866Y-85394242D02*
G01*
X87413644Y-84883807D01*
X88112134Y-83787398D01*
X88913356Y-84297833D01*
X88214866Y-85394242D01*
G37*
D10*
X87245880Y-95283040D03*
X100695880Y-92743040D03*
D11*
X96202100Y-81315220D03*
X93002100Y-81315220D03*
X96202100Y-86215220D03*
X93002100Y-86215220D03*
D12*
G36*
X108168980Y-101432422D02*
G01*
X107367758Y-100921987D01*
X108066248Y-99825578D01*
X108867470Y-100336013D01*
X108168980Y-101432422D01*
G37*
G36*
X106261566Y-104426462D02*
G01*
X105460344Y-103916027D01*
X106158834Y-102819618D01*
X106960056Y-103330053D01*
X106261566Y-104426462D01*
G37*
D11*
X114248800Y-100347440D03*
X111048800Y-100347440D03*
X114248800Y-105247440D03*
X111048800Y-105247440D03*
X78150320Y-100344900D03*
X74950320Y-100344900D03*
X78150320Y-105244900D03*
X74950320Y-105244900D03*
D10*
X82651720Y-92740500D03*
X69201720Y-95280500D03*
D12*
G36*
X72070500Y-101429882D02*
G01*
X71269278Y-100919447D01*
X71967768Y-99823038D01*
X72768990Y-100333473D01*
X72070500Y-101429882D01*
G37*
G36*
X70163086Y-104423922D02*
G01*
X69361864Y-103913487D01*
X70060354Y-102817078D01*
X70861576Y-103327513D01*
X70163086Y-104423922D01*
G37*
D10*
X100703500Y-73710820D03*
X87253500Y-76250820D03*
X51193120Y-76248280D03*
X64643120Y-73708280D03*
X46598960Y-73705740D03*
X33148960Y-76245740D03*
D11*
X42097560Y-81310140D03*
X38897560Y-81310140D03*
X42097560Y-86210140D03*
X38897560Y-86210140D03*
D12*
G36*
X36017740Y-82395122D02*
G01*
X35216518Y-81884687D01*
X35915008Y-80788278D01*
X36716230Y-81298713D01*
X36017740Y-82395122D01*
G37*
G36*
X34110326Y-85389162D02*
G01*
X33309104Y-84878727D01*
X34007594Y-83782318D01*
X34808816Y-84292753D01*
X34110326Y-85389162D01*
G37*
D10*
X64635500Y-92740500D03*
X51185500Y-95280500D03*
D11*
X56941720Y-86212680D03*
X60141720Y-86212680D03*
X56941720Y-81312680D03*
X60141720Y-81312680D03*
D12*
G36*
X52154486Y-85391702D02*
G01*
X51353264Y-84881267D01*
X52051754Y-83784858D01*
X52852976Y-84295293D01*
X52154486Y-85391702D01*
G37*
G36*
X54061900Y-82397662D02*
G01*
X53260678Y-81887227D01*
X53959168Y-80790818D01*
X54760390Y-81301253D01*
X54061900Y-82397662D01*
G37*
D11*
X60134100Y-100344900D03*
X56934100Y-100344900D03*
X60134100Y-105244900D03*
X56934100Y-105244900D03*
D12*
G36*
X54054280Y-101429882D02*
G01*
X53253058Y-100919447D01*
X53951548Y-99823038D01*
X54752770Y-100333473D01*
X54054280Y-101429882D01*
G37*
G36*
X52146866Y-104423922D02*
G01*
X51345644Y-103913487D01*
X52044134Y-102817078D01*
X52845356Y-103327513D01*
X52146866Y-104423922D01*
G37*
D10*
X33141340Y-95277960D03*
X46591340Y-92737960D03*
D11*
X38889940Y-105242360D03*
X42089940Y-105242360D03*
X38889940Y-100342360D03*
X42089940Y-100342360D03*
D12*
G36*
X34102706Y-104421382D02*
G01*
X33301484Y-103910947D01*
X33999974Y-102814538D01*
X34801196Y-103324973D01*
X34102706Y-104421382D01*
G37*
G36*
X36010120Y-101427342D02*
G01*
X35208898Y-100916907D01*
X35907388Y-99820498D01*
X36708610Y-100330933D01*
X36010120Y-101427342D01*
G37*
D10*
X123379920Y-33540720D03*
X136829920Y-31000720D03*
X118785760Y-30998180D03*
X105335760Y-33538180D03*
D11*
X114284360Y-38602580D03*
X111084360Y-38602580D03*
X114284360Y-43502580D03*
X111084360Y-43502580D03*
D12*
G36*
X108204540Y-39687562D02*
G01*
X107403318Y-39177127D01*
X108101808Y-38080718D01*
X108903030Y-38591153D01*
X108204540Y-39687562D01*
G37*
G36*
X106297126Y-42681602D02*
G01*
X105495904Y-42171167D01*
X106194394Y-41074758D01*
X106995616Y-41585193D01*
X106297126Y-42681602D01*
G37*
D10*
X136822300Y-50032940D03*
X123372300Y-52572940D03*
D11*
X129128520Y-43505120D03*
X132328520Y-43505120D03*
X129128520Y-38605120D03*
X132328520Y-38605120D03*
D12*
G36*
X124341286Y-42684142D02*
G01*
X123540064Y-42173707D01*
X124238554Y-41077298D01*
X125039776Y-41587733D01*
X124341286Y-42684142D01*
G37*
G36*
X126248700Y-39690102D02*
G01*
X125447478Y-39179667D01*
X126145968Y-38083258D01*
X126947190Y-38593693D01*
X126248700Y-39690102D01*
G37*
D11*
X132320900Y-57637340D03*
X129120900Y-57637340D03*
X132320900Y-62537340D03*
X129120900Y-62537340D03*
D12*
G36*
X126241080Y-58722322D02*
G01*
X125439858Y-58211887D01*
X126138348Y-57115478D01*
X126939570Y-57625913D01*
X126241080Y-58722322D01*
G37*
G36*
X124333666Y-61716362D02*
G01*
X123532444Y-61205927D01*
X124230934Y-60109518D01*
X125032156Y-60619953D01*
X124333666Y-61716362D01*
G37*
D10*
X105328140Y-52570400D03*
X118778140Y-50030400D03*
D11*
X111076740Y-62534800D03*
X114276740Y-62534800D03*
X111076740Y-57634800D03*
X114276740Y-57634800D03*
D12*
G36*
X106289506Y-61713822D02*
G01*
X105488284Y-61203387D01*
X106186774Y-60106978D01*
X106987996Y-60617413D01*
X106289506Y-61713822D01*
G37*
G36*
X108196920Y-58719782D02*
G01*
X107395698Y-58209347D01*
X108094188Y-57112938D01*
X108895410Y-57623373D01*
X108196920Y-58719782D01*
G37*
D10*
X87281440Y-33538180D03*
X100731440Y-30998180D03*
X82687280Y-30995640D03*
X69237280Y-33535640D03*
D11*
X78185880Y-38600040D03*
X74985880Y-38600040D03*
X78185880Y-43500040D03*
X74985880Y-43500040D03*
D12*
G36*
X72106060Y-39685022D02*
G01*
X71304838Y-39174587D01*
X72003328Y-38078178D01*
X72804550Y-38588613D01*
X72106060Y-39685022D01*
G37*
G36*
X70198646Y-42679062D02*
G01*
X69397424Y-42168627D01*
X70095914Y-41072218D01*
X70897136Y-41582653D01*
X70198646Y-42679062D01*
G37*
D10*
X100723820Y-50030400D03*
X87273820Y-52570400D03*
D11*
X93030040Y-43502580D03*
X96230040Y-43502580D03*
X93030040Y-38602580D03*
X96230040Y-38602580D03*
D12*
G36*
X88242806Y-42681602D02*
G01*
X87441584Y-42171167D01*
X88140074Y-41074758D01*
X88941296Y-41585193D01*
X88242806Y-42681602D01*
G37*
G36*
X90150220Y-39687562D02*
G01*
X89348998Y-39177127D01*
X90047488Y-38080718D01*
X90848710Y-38591153D01*
X90150220Y-39687562D01*
G37*
D11*
X96222420Y-57634800D03*
X93022420Y-57634800D03*
X96222420Y-62534800D03*
X93022420Y-62534800D03*
D12*
G36*
X90142600Y-58719782D02*
G01*
X89341378Y-58209347D01*
X90039868Y-57112938D01*
X90841090Y-57623373D01*
X90142600Y-58719782D01*
G37*
G36*
X88235186Y-61713822D02*
G01*
X87433964Y-61203387D01*
X88132454Y-60106978D01*
X88933676Y-60617413D01*
X88235186Y-61713822D01*
G37*
D10*
X69229660Y-52567860D03*
X82679660Y-50027860D03*
D11*
X74978260Y-62532260D03*
X78178260Y-62532260D03*
X74978260Y-57632260D03*
X78178260Y-57632260D03*
D12*
G36*
X70191026Y-61711282D02*
G01*
X69389804Y-61200847D01*
X70088294Y-60104438D01*
X70889516Y-60614873D01*
X70191026Y-61711282D01*
G37*
G36*
X72098440Y-58717242D02*
G01*
X71297218Y-58206807D01*
X71995708Y-57110398D01*
X72796930Y-57620833D01*
X72098440Y-58717242D01*
G37*
D10*
X64671060Y-30995640D03*
X51221060Y-33535640D03*
D11*
X60169660Y-38600040D03*
X56969660Y-38600040D03*
X60169660Y-43500040D03*
X56969660Y-43500040D03*
D12*
G36*
X54089840Y-39685022D02*
G01*
X53288618Y-39174587D01*
X53987108Y-38078178D01*
X54788330Y-38588613D01*
X54089840Y-39685022D01*
G37*
G36*
X52182426Y-42679062D02*
G01*
X51381204Y-42168627D01*
X52079694Y-41072218D01*
X52880916Y-41582653D01*
X52182426Y-42679062D01*
G37*
D10*
X51213440Y-52567860D03*
X64663440Y-50027860D03*
D11*
X56962040Y-62532260D03*
X60162040Y-62532260D03*
X56962040Y-57632260D03*
X60162040Y-57632260D03*
D12*
G36*
X52174806Y-61711282D02*
G01*
X51373584Y-61200847D01*
X52072074Y-60104438D01*
X52873296Y-60614873D01*
X52174806Y-61711282D01*
G37*
G36*
X54082220Y-58717242D02*
G01*
X53280998Y-58206807D01*
X53979488Y-57110398D01*
X54780710Y-57620833D01*
X54082220Y-58717242D01*
G37*
D10*
X46619280Y-50025320D03*
X33169280Y-52565320D03*
D11*
X42117880Y-57629720D03*
X38917880Y-57629720D03*
X42117880Y-62529720D03*
X38917880Y-62529720D03*
D12*
G36*
X36038060Y-58714702D02*
G01*
X35236838Y-58204267D01*
X35935328Y-57107858D01*
X36736550Y-57618293D01*
X36038060Y-58714702D01*
G37*
G36*
X34130646Y-61708742D02*
G01*
X33329424Y-61198307D01*
X34027914Y-60101898D01*
X34829136Y-60612333D01*
X34130646Y-61708742D01*
G37*
G36*
X34138266Y-42676522D02*
G01*
X33337044Y-42166087D01*
X34035534Y-41069678D01*
X34836756Y-41580113D01*
X34138266Y-42676522D01*
G37*
G36*
X36045680Y-39682482D02*
G01*
X35244458Y-39172047D01*
X35942948Y-38075638D01*
X36744170Y-38586073D01*
X36045680Y-39682482D01*
G37*
D11*
X38925500Y-43497500D03*
X42125500Y-43497500D03*
X38925500Y-38597500D03*
X42125500Y-38597500D03*
D10*
X33176900Y-33533100D03*
X46626900Y-30993100D03*
M02*
