M48
; DRILL file {KiCad (5.1.5)-3} date 5/6/2020 4:20:07 PM
; FORMAT={-:-/ absolute / inch / decimal}
; #@! TF.CreationDate,2020-05-06T16:20:07+02:00
; #@! TF.GenerationSoftware,Kicad,Pcbnew,(5.1.5)-3
; #@! TF.FileFunction,Plated,1,2,PTH
FMAT,2
INCH
T1C0.0118
T2C0.0315
%
G90
G05
T1
X1.3474Y-5.6624
X1.3477Y-4.9131
X1.3485Y-3.981
X1.3488Y-3.2317
X1.3496Y-2.2994
X1.3499Y-1.5501
X1.4399Y-5.8435
X1.4402Y-5.0942
X1.441Y-4.1621
X1.4413Y-3.4128
X1.4421Y-2.4805
X1.4424Y-1.7312
X1.4655Y-5.69
X1.4658Y-4.9407
X1.4666Y-4.0086
X1.4669Y-3.2593
X1.4677Y-2.327
X1.468Y-1.5777
X1.4714Y-5.8435
X1.4717Y-5.0942
X1.4725Y-4.1621
X1.4728Y-3.4128
X1.4736Y-2.4805
X1.4739Y-1.7312
X1.5108Y-5.5857
X1.5111Y-4.8364
X1.5119Y-3.9043
X1.5122Y-3.155
X1.513Y-2.2227
X1.5133Y-1.4734
X1.5944Y-5.6319
X1.5947Y-4.8826
X1.5955Y-3.9505
X1.5958Y-3.2012
X1.5966Y-2.2689
X1.5969Y-1.5196
X1.6131Y-5.2569
X1.6134Y-4.5076
X1.6142Y-3.5755
X1.6145Y-2.8262
X1.6153Y-1.8939
X1.6156Y-1.1446
X1.682Y-5.7294
X1.6823Y-4.9801
X1.6831Y-4.048
X1.6834Y-3.2987
X1.6842Y-2.3664
X1.6845Y-1.6171
X1.7037Y-5.4301
X1.704Y-4.6808
X1.7048Y-3.7487
X1.7051Y-2.9994
X1.7059Y-2.0671
X1.7062Y-1.3178
X1.7194Y-5.8238
X1.7197Y-5.0745
X1.7205Y-4.1424
X1.7208Y-3.3931
X1.7216Y-2.4608
X1.7219Y-1.7115
X1.7982Y-5.8002
X1.7985Y-5.0509
X1.7993Y-4.1188
X1.7996Y-3.3695
X1.8004Y-2.4372
X1.8007Y-1.6879
X1.8139Y-5.4065
X1.8139Y-5.4774
X1.8142Y-4.6572
X1.8142Y-4.7281
X1.815Y-3.7251
X1.815Y-3.796
X1.8153Y-2.9758
X1.8153Y-3.0467
X1.8161Y-2.0435
X1.8161Y-2.1144
X1.8164Y-1.2942
X1.8164Y-1.3651
X1.8493Y-5.6309
X1.8496Y-4.8816
X1.8504Y-3.9495
X1.8507Y-3.2002
X1.8515Y-2.2679
X1.8518Y-1.5186
X1.8848Y-5.816
X1.8851Y-5.0667
X1.8859Y-4.1346
X1.8862Y-3.3853
X1.887Y-2.453
X1.8873Y-1.7037
X2.0578Y-5.6625
X2.0581Y-4.9132
X2.0589Y-3.9811
X2.0592Y-3.2318
X2.06Y-2.2995
X2.0603Y-1.5502
X2.1503Y-5.8436
X2.1506Y-5.0943
X2.1514Y-4.1622
X2.1517Y-3.4129
X2.1525Y-2.4806
X2.1528Y-1.7313
X2.1759Y-5.6901
X2.1762Y-4.9408
X2.177Y-4.0087
X2.1773Y-3.2594
X2.1781Y-2.3271
X2.1784Y-1.5778
X2.1818Y-5.8436
X2.1821Y-5.0943
X2.1829Y-4.1622
X2.1832Y-3.4129
X2.184Y-2.4806
X2.1843Y-1.7313
X2.2212Y-5.5858
X2.2215Y-4.8365
X2.2223Y-3.9044
X2.2226Y-3.1551
X2.2234Y-2.2228
X2.2237Y-1.4735
X2.3048Y-5.632
X2.3051Y-4.8827
X2.3059Y-3.9506
X2.3062Y-3.2013
X2.307Y-2.269
X2.3073Y-1.5197
X2.3235Y-5.257
X2.3238Y-4.5077
X2.3246Y-3.5756
X2.3249Y-2.8263
X2.3257Y-1.894
X2.326Y-1.1447
X2.3924Y-5.7295
X2.3927Y-4.9802
X2.3935Y-4.0481
X2.3938Y-3.2988
X2.3946Y-2.3665
X2.3949Y-1.6172
X2.4141Y-5.4302
X2.4144Y-4.6809
X2.4152Y-3.7488
X2.4155Y-2.9995
X2.4163Y-2.0672
X2.4166Y-1.3179
X2.4298Y-5.8239
X2.4301Y-5.0746
X2.4309Y-4.1425
X2.4312Y-3.3932
X2.432Y-2.4609
X2.4323Y-1.7116
X2.5086Y-5.8003
X2.5089Y-5.051
X2.5097Y-4.1189
X2.51Y-3.3696
X2.5108Y-2.4373
X2.5111Y-1.688
X2.5243Y-5.4066
X2.5243Y-5.4775
X2.5246Y-4.6573
X2.5246Y-4.7282
X2.5254Y-3.7252
X2.5254Y-3.7961
X2.5257Y-2.9759
X2.5257Y-3.0468
X2.5265Y-2.0436
X2.5265Y-2.1145
X2.5268Y-1.2943
X2.5268Y-1.3652
X2.5597Y-5.631
X2.56Y-4.8817
X2.5608Y-3.9496
X2.5611Y-3.2003
X2.5619Y-2.268
X2.5622Y-1.5187
X2.5952Y-5.8161
X2.5955Y-5.0668
X2.5963Y-4.1347
X2.5966Y-3.3854
X2.5974Y-2.4531
X2.5977Y-1.7038
X2.7671Y-5.6625
X2.7674Y-4.9132
X2.7682Y-3.9811
X2.7685Y-3.2318
X2.7693Y-2.2995
X2.7696Y-1.5502
X2.8596Y-5.8436
X2.8599Y-5.0943
X2.8607Y-4.1622
X2.861Y-3.4129
X2.8618Y-2.4806
X2.8621Y-1.7313
X2.8852Y-5.6901
X2.8855Y-4.9408
X2.8863Y-4.0087
X2.8866Y-3.2594
X2.8874Y-2.3271
X2.8877Y-1.5778
X2.8911Y-5.8436
X2.8914Y-5.0943
X2.8922Y-4.1622
X2.8925Y-3.4129
X2.8933Y-2.4806
X2.8936Y-1.7313
X2.9305Y-5.5858
X2.9308Y-4.8365
X2.9316Y-3.9044
X2.9319Y-3.1551
X2.9327Y-2.2228
X2.933Y-1.4735
X3.0141Y-5.632
X3.0144Y-4.8827
X3.0152Y-3.9506
X3.0155Y-3.2013
X3.0163Y-2.269
X3.0166Y-1.5197
X3.0328Y-5.257
X3.0331Y-4.5077
X3.0339Y-3.5756
X3.0342Y-2.8263
X3.035Y-1.894
X3.0353Y-1.1447
X3.1017Y-5.7295
X3.102Y-4.9802
X3.1028Y-4.0481
X3.1031Y-3.2988
X3.1039Y-2.3665
X3.1042Y-1.6172
X3.1234Y-5.4302
X3.1237Y-4.6809
X3.1245Y-3.7488
X3.1248Y-2.9995
X3.1256Y-2.0672
X3.1259Y-1.3179
X3.1391Y-5.8239
X3.1394Y-5.0746
X3.1402Y-4.1425
X3.1405Y-3.3932
X3.1413Y-2.4609
X3.1416Y-1.7116
X3.2179Y-5.8003
X3.2182Y-5.051
X3.219Y-4.1189
X3.2193Y-3.3696
X3.2201Y-2.4373
X3.2204Y-1.688
X3.2336Y-5.4066
X3.2336Y-5.4775
X3.2339Y-4.6573
X3.2339Y-4.7282
X3.2347Y-3.7252
X3.2347Y-3.7961
X3.235Y-2.9759
X3.235Y-3.0468
X3.2358Y-2.0436
X3.2358Y-2.1145
X3.2361Y-1.2943
X3.2361Y-1.3652
X3.269Y-5.631
X3.2693Y-4.8817
X3.2701Y-3.9496
X3.2704Y-3.2003
X3.2712Y-2.268
X3.2715Y-1.5187
X3.3045Y-5.8161
X3.3048Y-5.0668
X3.3056Y-4.1347
X3.3059Y-3.3854
X3.3067Y-2.4531
X3.307Y-1.7038
X3.4775Y-5.6626
X3.4778Y-4.9133
X3.4786Y-3.9812
X3.4789Y-3.2319
X3.4797Y-2.2996
X3.48Y-1.5503
X3.57Y-5.8437
X3.5703Y-5.0944
X3.5711Y-4.1623
X3.5714Y-3.413
X3.5722Y-2.4807
X3.5725Y-1.7314
X3.5956Y-5.6902
X3.5959Y-4.9409
X3.5967Y-4.0088
X3.597Y-3.2595
X3.5978Y-2.3272
X3.5981Y-1.5779
X3.6015Y-5.8437
X3.6018Y-5.0944
X3.6026Y-4.1623
X3.6029Y-3.413
X3.6037Y-2.4807
X3.604Y-1.7314
X3.6409Y-5.5859
X3.6412Y-4.8366
X3.642Y-3.9045
X3.6423Y-3.1552
X3.6431Y-2.2229
X3.6434Y-1.4736
X3.7245Y-5.6321
X3.7248Y-4.8828
X3.7256Y-3.9507
X3.7259Y-3.2014
X3.7267Y-2.2691
X3.727Y-1.5198
X3.7432Y-5.2571
X3.7435Y-4.5078
X3.7443Y-3.5757
X3.7446Y-2.8264
X3.7454Y-1.8941
X3.7457Y-1.1448
X3.8121Y-5.7296
X3.8124Y-4.9803
X3.8132Y-4.0482
X3.8135Y-3.2989
X3.8143Y-2.3666
X3.8146Y-1.6173
X3.8338Y-5.4303
X3.8341Y-4.681
X3.8349Y-3.7489
X3.8352Y-2.9996
X3.836Y-2.0673
X3.8363Y-1.318
X3.8495Y-5.824
X3.8498Y-5.0747
X3.8506Y-4.1426
X3.8509Y-3.3933
X3.8517Y-2.461
X3.852Y-1.7117
X3.9283Y-5.8004
X3.9286Y-5.0511
X3.9294Y-4.119
X3.9297Y-3.3697
X3.9305Y-2.4374
X3.9308Y-1.6881
X3.944Y-5.4067
X3.944Y-5.4776
X3.9443Y-4.6574
X3.9443Y-4.7283
X3.9451Y-3.7253
X3.9451Y-3.7962
X3.9454Y-2.976
X3.9454Y-3.0469
X3.9462Y-2.0437
X3.9462Y-2.1146
X3.9465Y-1.2944
X3.9465Y-1.3653
X3.9794Y-5.6311
X3.9797Y-4.8818
X3.9805Y-3.9497
X3.9808Y-3.2004
X3.9816Y-2.2681
X3.9819Y-1.5188
X4.0149Y-5.8162
X4.0152Y-5.0669
X4.016Y-4.1348
X4.0163Y-3.3855
X4.0171Y-2.4532
X4.0174Y-1.7039
X4.1883Y-5.6626
X4.1886Y-4.9133
X4.1894Y-3.9812
X4.1897Y-3.2319
X4.1905Y-2.2996
X4.1908Y-1.5503
X4.2808Y-5.8437
X4.2811Y-5.0944
X4.2819Y-4.1623
X4.2822Y-3.413
X4.283Y-2.4807
X4.2833Y-1.7314
X4.3064Y-5.6902
X4.3067Y-4.9409
X4.3075Y-4.0088
X4.3078Y-3.2595
X4.3086Y-2.3272
X4.3089Y-1.5779
X4.3123Y-5.8437
X4.3126Y-5.0944
X4.3134Y-4.1623
X4.3137Y-3.413
X4.3145Y-2.4807
X4.3148Y-1.7314
X4.3517Y-5.5859
X4.352Y-4.8366
X4.3528Y-3.9045
X4.3531Y-3.1552
X4.3539Y-2.2229
X4.3542Y-1.4736
X4.4353Y-5.6321
X4.4356Y-4.8828
X4.4364Y-3.9507
X4.4367Y-3.2014
X4.4375Y-2.2691
X4.4378Y-1.5198
X4.454Y-5.2571
X4.4543Y-4.5078
X4.4551Y-3.5757
X4.4554Y-2.8264
X4.4562Y-1.8941
X4.4565Y-1.1448
X4.5229Y-5.7296
X4.5232Y-4.9803
X4.524Y-4.0482
X4.5243Y-3.2989
X4.5251Y-2.3666
X4.5254Y-1.6173
X4.5446Y-5.4303
X4.5449Y-4.681
X4.5457Y-3.7489
X4.546Y-2.9996
X4.5468Y-2.0673
X4.5471Y-1.318
X4.5603Y-5.824
X4.5606Y-5.0747
X4.5614Y-4.1426
X4.5617Y-3.3933
X4.5625Y-2.461
X4.5628Y-1.7117
X4.6391Y-5.8004
X4.6394Y-5.0511
X4.6402Y-4.119
X4.6405Y-3.3697
X4.6413Y-2.4374
X4.6416Y-1.6881
X4.6548Y-5.4067
X4.6548Y-5.4776
X4.6551Y-4.6574
X4.6551Y-4.7283
X4.6559Y-3.7253
X4.6559Y-3.7962
X4.6562Y-2.976
X4.6562Y-3.0469
X4.657Y-2.0437
X4.657Y-2.1146
X4.6573Y-1.2944
X4.6573Y-1.3653
X4.6902Y-5.6311
X4.6905Y-4.8818
X4.6913Y-3.9497
X4.6916Y-3.2004
X4.6924Y-2.2681
X4.6927Y-1.5188
X4.7257Y-5.8162
X4.726Y-5.0669
X4.7268Y-4.1348
X4.7271Y-3.3855
X4.7279Y-2.4532
X4.7282Y-1.7039
X4.8987Y-5.6627
X4.899Y-4.9134
X4.8998Y-3.9813
X4.9001Y-3.232
X4.9009Y-2.2997
X4.9012Y-1.5504
X4.9912Y-5.8438
X4.9915Y-5.0945
X4.9923Y-4.1624
X4.9926Y-3.4131
X4.9934Y-2.4808
X4.9937Y-1.7315
X5.0168Y-5.6903
X5.0171Y-4.941
X5.0179Y-4.0089
X5.0182Y-3.2596
X5.019Y-2.3273
X5.0193Y-1.578
X5.0227Y-5.8438
X5.023Y-5.0945
X5.0238Y-4.1624
X5.0241Y-3.4131
X5.0249Y-2.4808
X5.0252Y-1.7315
X5.0621Y-5.586
X5.0624Y-4.8367
X5.0632Y-3.9046
X5.0635Y-3.1553
X5.0643Y-2.223
X5.0646Y-1.4737
X5.1457Y-5.6322
X5.146Y-4.8829
X5.1468Y-3.9508
X5.1471Y-3.2015
X5.1479Y-2.2692
X5.1482Y-1.5199
X5.1644Y-5.2572
X5.1647Y-4.5079
X5.1655Y-3.5758
X5.1658Y-2.8265
X5.1666Y-1.8942
X5.1669Y-1.1449
X5.2333Y-5.7297
X5.2336Y-4.9804
X5.2344Y-4.0483
X5.2347Y-3.299
X5.2355Y-2.3667
X5.2358Y-1.6174
X5.255Y-5.4304
X5.2553Y-4.6811
X5.2561Y-3.749
X5.2564Y-2.9997
X5.2572Y-2.0674
X5.2575Y-1.3181
X5.2707Y-5.8241
X5.271Y-5.0748
X5.2718Y-4.1427
X5.2721Y-3.3934
X5.2729Y-2.4611
X5.2732Y-1.7118
X5.3495Y-5.8005
X5.3498Y-5.0512
X5.3506Y-4.1191
X5.3509Y-3.3698
X5.3517Y-2.4375
X5.352Y-1.6882
X5.3652Y-5.4068
X5.3652Y-5.4777
X5.3655Y-4.6575
X5.3655Y-4.7284
X5.3663Y-3.7254
X5.3663Y-3.7963
X5.3666Y-2.9761
X5.3666Y-3.047
X5.3674Y-2.0438
X5.3674Y-2.1147
X5.3677Y-1.2945
X5.3677Y-1.3654
X5.4006Y-5.6312
X5.4009Y-4.8819
X5.4017Y-3.9498
X5.402Y-3.2005
X5.4028Y-2.2682
X5.4031Y-1.5189
X5.4361Y-5.8163
X5.4364Y-5.067
X5.4372Y-4.1349
X5.4375Y-3.3856
X5.4383Y-2.4533
X5.4386Y-1.704
T2
X3.3185Y-2.2228
X5.449Y-3.8337
X5.4482Y-4.8367
X2.7132Y-1.4124
X4.8423Y-5.5958
X5.449Y-3.7628
X3.5034Y-5.0866
X4.2142Y-4.4803
X4.1382Y-4.1485
X4.2994Y-3.8955
X2.7118Y-3.8433
X4.027Y-4.6948
X4.8486Y-4.1486
X5.0098Y-3.8956
X1.2913Y-4.7753
X4.8455Y-5.2336
X4.7386Y-3.7627
X2.7121Y-3.1649
X2.0049Y-4.4841
X4.8458Y-4.4843
X3.4254Y-3.5521
X2.0834Y-5.8358
X5.4479Y-5.4442
X1.2932Y-2.3034
X4.0281Y-3.0843
X1.8991Y-1.4025
X1.8966Y-5.5857
X4.1393Y-2.4669
X4.3005Y-2.2139
X2.0845Y-4.1544
X2.715Y-3.552
X2.0014Y-5.5247
X4.7378Y-4.7657
X1.8988Y-2.1518
X1.8969Y-4.7655
X4.0292Y-1.3318
X4.9265Y-1.8667
X1.898Y-3.0841
X2.6042Y-3.552
X4.7347Y-3.5521
X2.607Y-5.5149
X4.0231Y-4.4842
X5.4501Y-2.0812
X2.0848Y-2.7988
X3.4246Y-4.4842
X2.0068Y-1.8704
X2.0856Y-1.8665
X2.7949Y-2.4728
X4.1396Y-1.7176
X4.3008Y-1.4646
X4.7375Y-5.515
X2.0091Y-1.7175
X2.1703Y-1.4645
X4.2164Y-1.1173
X2.7142Y-4.4841
X4.027Y-4.7657
X2.711Y-4.9172
X3.3188Y-1.4026
X4.1373Y-1.8705
X4.8466Y-3.5522
X4.8437Y-3.236
X3.3163Y-5.5858
X4.1371Y-5.8299
X4.2983Y-5.5769
X4.7397Y-2.152
X5.4454Y-2.8029
X4.9257Y-2.799
X1.3733Y-4.4801
X3.3174Y-3.9044
X3.4274Y-4.1485
X3.5886Y-3.8955
X2.793Y-4.4802
X4.9268Y-1.7237
X2.717Y-4.1484
X2.8782Y-3.8954
X4.1333Y-3.165
X1.2965Y-5.0804
X1.4577Y-4.8274
X4.8475Y-5.83
X5.0087Y-5.577
X3.4225Y-3.0941
X4.0281Y-3.1552
X4.1344Y-1.4125
X3.3177Y-3.1551
X2.6073Y-4.7656
X1.8988Y-2.2227
X4.74Y-1.4736
X1.2956Y-2.8026
X4.215Y-3.5482
X2.6034Y-4.4841
X1.8991Y-1.3316
X1.8938Y-3.5519
X2.0025Y-3.9142
X2.7153Y-2.8027
X4.027Y-4.8366
X1.8988Y-2.0809
X1.8969Y-4.6946
X5.4501Y-2.1521
X1.8977Y-3.8334
X1.2924Y-3.1648
X3.3174Y-3.8335
X2.0046Y-5.2334
X4.0267Y-5.5859
X3.4236Y-1.5543
X4.8445Y-2.2328
X1.8977Y-3.7625
X4.7386Y-3.9045
X4.0289Y-2.2229
X4.848Y-1.1213
X2.0028Y-3.2358
X5.4493Y-3.0844
X5.4482Y-4.7658
X1.2984Y-2.4667
X1.4596Y-2.2137
X4.0253Y-1.1212
X4.8448Y-1.5544
X4.8426Y-4.8465
X4.0267Y-5.4441
X3.3149Y-1.1211
X2.7107Y-5.5956
X4.9243Y-5.836
X3.4236Y-1.4125
X3.3188Y-1.3317
X4.7358Y-1.8705
X3.5042Y-3.5482
X2.7927Y-5.2295
X2.0017Y-4.7754
X4.8423Y-5.6667
X3.5045Y-2.7989
X3.3135Y-3.552
X5.449Y-3.9046
X3.4222Y-3.8434
X2.7121Y-3.094
X4.7389Y-3.1552
X4.8426Y-4.7756
X4.8448Y-1.4835
X3.4225Y-3.165
X2.7938Y-4.1544
X2.6031Y-5.2334
X4.2164Y-1.7236
X3.4257Y-2.8028
X1.2967Y-1.121
X1.2935Y-1.4123
X1.893Y-4.484
X1.2921Y-3.9141
X1.291Y-5.5246
X1.8952Y-1.121
X1.373Y-5.2294
X3.4233Y-2.3036
X3.5034Y-4.4803
X5.4504Y-1.3319
X1.898Y-3.0132
X1.898Y-3.155
X1.291Y-5.5955
X1.2932Y-2.1616
X3.4233Y-2.2327
X2.0845Y-3.5481
X2.6056Y-1.1211
X4.8445Y-2.3037
X3.3138Y-2.8027
X4.7339Y-4.4842
X1.2932Y-2.2325
X3.3188Y-1.4735
X4.1341Y-2.1618
X2.6081Y-3.9044
X2.7107Y-5.6665
X2.7949Y-1.8665
X3.3124Y-5.2334
X3.3185Y-2.081
X4.2142Y-5.0866
X4.7336Y-5.2335
X4.7378Y-4.8366
X4.2161Y-1.8666
X4.133Y-3.8434
X4.1319Y-5.6666
X3.4288Y-1.7176
X3.59Y-1.4646
X2.7181Y-2.4668
X2.8793Y-2.2138
X5.4504Y-1.4028
X4.8489Y-3.3993
X5.0101Y-3.1463
X4.1385Y-3.3992
X4.2997Y-3.1462
X2.0017Y-4.8463
X3.4211Y-5.6666
X3.5056Y-1.7236
X3.3177Y-3.0133
X5.4493Y-3.0135
X2.0014Y-5.5956
X2.7941Y-3.4051
X1.8969Y-4.8364
X4.1319Y-5.5248
X4.85Y-1.7177
X5.0112Y-1.4647
X3.5045Y-3.4052
X3.4263Y-5.8299
X3.5875Y-5.5769
X4.1344Y-1.4834
X1.2913Y-4.8462
X3.5031Y-5.2296
X1.8927Y-5.2333
X1.8977Y-3.9043
X4.735Y-2.8028
X3.4214Y-4.9173
X1.2935Y-1.5541
X1.2942Y-5.2333
X2.7129Y-2.1617
X2.6084Y-3.1551
X4.0242Y-2.8028
X2.0834Y-5.2295
X3.4243Y-5.2335
X1.3755Y-1.1171
X4.8477Y-1.8706
X1.8941Y-2.8026
X2.607Y-5.5858
X2.0088Y-2.4668
X2.17Y-2.2138
X2.7184Y-1.7175
X2.8796Y-1.4645
X1.3741Y-4.1543
X4.0278Y-3.9045
X2.6095Y-1.3317
X2.6095Y-1.4735
X2.6081Y-3.8335
X3.3166Y-4.6947
X2.0859Y-1.7235
X3.4268Y-1.1212
X1.2924Y-3.0939
X4.0267Y-5.515
X4.9246Y-5.0867
X3.3127Y-4.4841
X3.3185Y-2.1519
X4.1322Y-4.9173
X4.1322Y-4.8464
X4.215Y-4.1545
X4.1344Y-1.5543
X5.4451Y-3.5522
X3.4214Y-4.8464
X4.8423Y-5.5249
X4.1341Y-2.3036
X4.9254Y-4.1546
X4.8469Y-2.8029
X2.0837Y-5.0865
X4.1374Y-5.0806
X4.2986Y-4.8276
X2.7107Y-5.5247
X2.7121Y-3.2358
X4.133Y-3.9143
X3.4225Y-3.2359
X2.0837Y-4.4802
X2.793Y-5.0865
X4.9254Y-3.5483
X3.4211Y-5.5248
X3.4277Y-3.3992
X3.5889Y-3.1462
X2.0066Y-5.8298
X2.1678Y-5.5768
X3.3174Y-3.7626
X1.3752Y-1.8664
X1.2945Y-4.484
X2.7952Y-1.1172
X4.9265Y-2.473
X2.6084Y-3.0842
X1.3744Y-3.405
X1.373Y-5.8357
X3.4211Y-5.5957
X1.2987Y-1.7174
X1.4599Y-1.4644
X1.2913Y-4.9171
X3.4285Y-2.4669
X3.5897Y-2.2139
X5.4501Y-2.223
X1.3741Y-3.548
X4.1365Y-2.8028
X2.6073Y-4.8365
X3.3166Y-4.8365
X2.0859Y-1.1172
X1.8966Y-5.5148
X4.2161Y-2.4729
X1.2924Y-3.2357
X2.0039Y-1.5542
X2.0036Y-2.2326
X2.7132Y-1.4833
X4.8497Y-2.467
X5.0109Y-2.214
X2.0077Y-4.1484
X2.1689Y-3.8954
X4.0278Y-3.8336
X4.2139Y-5.2296
X4.1322Y-4.7755
X2.0036Y-2.1617
X4.1354Y-4.4842
X2.0039Y-1.4124
X2.0025Y-3.9851
X3.3163Y-5.444
X4.8437Y-3.1651
X3.3166Y-4.7656
X2.7164Y-1.1211
X2.7139Y-5.2334
X5.4479Y-5.586
X3.3146Y-1.8704
X4.74Y-1.4027
X4.1351Y-5.2335
X2.7132Y-1.5542
X4.7397Y-2.2229
X2.711Y-4.7754
X4.2139Y-5.8359
X4.7361Y-1.1212
X4.2153Y-2.7989
X2.0069Y-5.0805
X2.1681Y-4.8275
X4.9246Y-4.4804
X5.4493Y-3.1553
X4.8434Y-3.9144
X4.0281Y-3.0134
X3.5031Y-5.8359
X2.0028Y-3.1649
X3.4222Y-3.9143
X2.6073Y-4.6947
X4.9243Y-5.2297
X4.7397Y-2.0811
X2.008Y-3.3991
X2.1692Y-3.1461
X4.7389Y-3.0843
X2.607Y-5.444
X4.1319Y-5.5957
X2.0848Y-3.4051
X1.2964Y-1.8703
X1.3755Y-1.7234
X1.8966Y-5.4439
X1.2921Y-3.985
X4.7386Y-3.8336
X1.2962Y-5.8297
X1.4574Y-5.5767
X2.7162Y-5.0805
X2.8774Y-4.8275
X1.2935Y-1.4832
X3.4233Y-2.1618
X1.2953Y-3.5519
X2.6045Y-2.8027
X4.1333Y-3.2359
X2.0017Y-4.9172
X4.7378Y-4.6948
X1.8991Y-1.4734
X3.5053Y-2.4729
X5.4465Y-1.1213
X1.3744Y-2.7987
X4.7389Y-3.0134
X4.0228Y-5.2335
X2.6092Y-2.2228
X4.0292Y-1.4736
X4.8448Y-1.4126
X2.006Y-2.8027
X2.6092Y-2.1519
X2.0036Y-2.3035
X4.025Y-1.8705
X4.9268Y-1.1174
X2.6081Y-3.7626
X3.4214Y-4.7755
X2.6095Y-1.4026
X2.0025Y-3.8433
X2.7159Y-5.8298
X2.8771Y-5.5768
X4.0289Y-2.0811
X4.9257Y-3.4053
X4.7375Y-5.4441
X4.0289Y-2.152
X4.2153Y-3.4052
X4.74Y-1.3318
X2.7941Y-2.7988
X4.7375Y-5.5859
X3.4236Y-1.4834
X4.8434Y-3.8435
X3.4266Y-5.0806
X3.5878Y-4.8276
X5.4479Y-5.5151
X2.7129Y-2.2326
X4.1376Y-1.1212
X4.8434Y-3.9853
X5.444Y-5.2336
X3.3177Y-3.0842
X4.8437Y-3.0942
X3.4222Y-3.9852
X1.3733Y-5.0864
X3.5042Y-4.1545
X5.4482Y-4.6949
X2.7118Y-3.9142
X2.7173Y-3.3991
X2.8785Y-3.1461
X5.4443Y-4.4843
X2.0028Y-3.094
X4.0239Y-3.5521
X1.8949Y-1.8703
X4.1362Y-3.5521
X2.0014Y-5.6665
X4.8426Y-4.9174
X1.291Y-5.6664
X3.5053Y-1.8666
X5.4504Y-1.4737
X1.2973Y-4.1483
X1.4585Y-3.8953
X1.2976Y-3.399
X1.4588Y-3.146
X2.7118Y-3.9851
X2.711Y-4.8463
X4.8445Y-2.1619
X4.133Y-3.9852
X2.7927Y-5.8358
X2.0856Y-2.4728
X2.7952Y-1.7235
X4.1341Y-2.2327
X2.7938Y-3.5481
X1.3752Y-2.4727
X2.0071Y-1.1211
X3.5056Y-1.1173
X2.0057Y-3.552
X4.0278Y-3.7627
X2.6092Y-2.081
X2.6053Y-1.8704
X2.0039Y-1.4833
X3.4265Y-1.8705
X5.4462Y-1.8706
X1.2921Y-3.8432
X2.7129Y-2.3035
X2.6084Y-3.0133
X4.8478Y-5.0807
X5.009Y-4.8277
X4.0292Y-1.4027
X3.3163Y-5.5149
X2.7161Y-1.8704
X4.1333Y-3.0941
T0
M30
