M48
; DRILL file {KiCad (5.1.5)-3} date 5/6/2020 4:20:07 PM
; FORMAT={-:-/ absolute / inch / decimal}
; #@! TF.CreationDate,2020-05-06T16:20:07+02:00
; #@! TF.GenerationSoftware,Kicad,Pcbnew,(5.1.5)-3
; #@! TF.FileFunction,NonPlated,1,2,NPTH
FMAT,2
INCH
T1C0.0670
T2C0.0787
T3C0.1181
T4C0.1350
T5C0.1575
%
G90
G05
T1
X1.3772Y-4.7832
X1.8103Y-4.7832
X1.3791Y-2.1695
X1.8122Y-2.1695
X2.0873Y-5.5326
X2.5204Y-5.5326
X1.3769Y-5.5325
X1.81Y-5.5325
X1.378Y-3.8511
X1.8111Y-3.8511
X1.3783Y-3.1018
X1.8114Y-3.1018
X4.2178Y-5.5327
X4.6509Y-5.5327
X4.2203Y-1.4204
X4.6534Y-1.4204
X3.5095Y-1.4204
X3.9426Y-1.4204
X3.5092Y-2.1697
X3.9423Y-2.1697
X4.22Y-2.1697
X4.6531Y-2.1697
X4.9285Y-4.7835
X5.3616Y-4.7835
X2.7991Y-1.4203
X3.2322Y-1.4203
X2.0895Y-2.1696
X2.5226Y-2.1696
X2.0887Y-3.1019
X2.5218Y-3.1019
X2.7966Y-5.5326
X3.2297Y-5.5326
X4.2181Y-4.7834
X4.6512Y-4.7834
X2.7988Y-2.1696
X3.2319Y-2.1696
X4.9293Y-3.8514
X5.3624Y-3.8514
X4.9296Y-3.1021
X5.3627Y-3.1021
X2.7969Y-4.7833
X3.23Y-4.7833
X3.5073Y-4.7834
X3.9404Y-4.7834
X3.5081Y-3.8513
X3.9412Y-3.8513
X2.0876Y-4.7833
X2.5207Y-4.7833
X3.507Y-5.5327
X3.9401Y-5.5327
X4.2189Y-3.8513
X4.652Y-3.8513
X4.9304Y-2.1698
X5.3635Y-2.1698
X4.9307Y-1.4205
X5.3638Y-1.4205
X4.2192Y-3.102
X4.6523Y-3.102
X2.798Y-3.1019
X3.2311Y-3.1019
X3.5084Y-3.102
X3.9415Y-3.102
X2.0884Y-3.8512
X2.5215Y-3.8512
X1.3794Y-1.4202
X1.8125Y-1.4202
X4.9282Y-5.5328
X5.3613Y-5.5328
X2.7977Y-3.8512
X3.2308Y-3.8512
X2.0898Y-1.4203
X2.5229Y-1.4203
T2
X4.9472Y-1.4205
X5.3472Y-1.4205
X3.5246Y-3.8513
X3.9246Y-3.8513
X2.1052Y-3.1019
X2.5052Y-3.1019
X2.1038Y-5.5326
X2.5038Y-5.5326
X4.2346Y-4.7834
X4.6346Y-4.7834
X3.5235Y-5.5327
X3.9235Y-5.5327
X2.1041Y-4.7833
X2.5041Y-4.7833
X3.526Y-1.4204
X3.926Y-1.4204
X4.9469Y-2.1698
X5.3469Y-2.1698
X1.3948Y-3.1018
X1.7948Y-3.1018
X4.9447Y-5.5328
X5.3447Y-5.5328
X4.2354Y-3.8513
X4.6354Y-3.8513
X1.3959Y-1.4202
X1.7959Y-1.4202
X1.3934Y-5.5325
X1.7934Y-5.5325
X2.8131Y-5.5326
X3.2131Y-5.5326
X4.2357Y-3.102
X4.6357Y-3.102
X2.8142Y-3.8512
X3.2142Y-3.8512
X2.8145Y-3.1019
X3.2145Y-3.1019
X2.106Y-2.1696
X2.506Y-2.1696
X4.945Y-4.7835
X5.345Y-4.7835
X1.3956Y-2.1695
X1.7956Y-2.1695
X1.3937Y-4.7832
X1.7937Y-4.7832
X2.8134Y-4.7833
X3.2134Y-4.7833
X2.1063Y-1.4203
X2.5063Y-1.4203
X2.1049Y-3.8512
X2.5049Y-3.8512
X2.8153Y-2.1696
X3.2153Y-2.1696
X3.5238Y-4.7834
X3.9238Y-4.7834
X3.5249Y-3.102
X3.9249Y-3.102
X4.2365Y-2.1697
X4.6365Y-2.1697
X1.3945Y-3.8511
X1.7945Y-3.8511
X2.8156Y-1.4203
X3.2156Y-1.4203
X4.9458Y-3.8514
X5.3458Y-3.8514
X3.5257Y-2.1697
X3.9257Y-2.1697
X4.2368Y-1.4204
X4.6368Y-1.4204
X4.9461Y-3.1021
X5.3461Y-3.1021
X4.2343Y-5.5327
X4.6343Y-5.5327
T3
X3.7249Y-3.3363
X3.9218Y-3.2496
X4.9972Y-1.3205
X5.2472Y-1.2205
X3.5746Y-3.7513
X3.8246Y-3.6513
X2.1552Y-3.0019
X2.4052Y-2.9019
X2.1538Y-5.4326
X2.4038Y-5.3326
X4.2846Y-4.6834
X4.5346Y-4.5834
X2.3049Y-4.0855
X2.5018Y-3.9988
X1.5959Y-1.6545
X1.7928Y-1.5678
X3.5735Y-5.4327
X3.8235Y-5.3327
X5.1447Y-5.7671
X5.3416Y-5.6804
X2.1541Y-4.6833
X2.4041Y-4.5833
X3.576Y-1.3204
X3.826Y-1.2204
X3.0142Y-4.0855
X3.2111Y-3.9988
X4.9969Y-2.0698
X5.2469Y-1.9698
X1.4448Y-3.0018
X1.6948Y-2.9018
X2.3063Y-1.6546
X2.5032Y-1.5679
X4.9947Y-5.4328
X5.2447Y-5.3328
X4.2854Y-3.7513
X4.5354Y-3.6513
X1.5937Y-5.0175
X1.7906Y-4.9308
X1.5956Y-2.4038
X1.7925Y-2.3171
X1.4459Y-1.3202
X1.6959Y-1.2202
X2.3038Y-5.7669
X2.5007Y-5.6802
X1.5934Y-5.7668
X1.7903Y-5.6801
X1.5945Y-4.0854
X1.7914Y-3.9987
X1.4434Y-5.4325
X1.6934Y-5.3325
X1.5948Y-3.3361
X1.7917Y-3.2494
X2.8631Y-5.4326
X3.1131Y-5.3326
X4.4343Y-5.767
X4.6312Y-5.6803
X4.2857Y-3.002
X4.5357Y-2.902
X2.8642Y-3.7512
X3.1142Y-3.6512
X2.8645Y-3.0019
X3.1145Y-2.9019
X4.4368Y-1.6547
X4.6337Y-1.568
X2.156Y-2.0696
X2.406Y-1.9696
X3.726Y-1.6547
X3.9229Y-1.568
X4.995Y-4.6835
X5.245Y-4.5835
X1.4456Y-2.0695
X1.6956Y-1.9695
X3.7257Y-2.404
X3.9226Y-2.3173
X4.4365Y-2.404
X4.6334Y-2.3173
X1.4437Y-4.6832
X1.6937Y-4.5832
X2.8634Y-4.6833
X3.1134Y-4.5833
X5.145Y-5.0178
X5.3419Y-4.9311
X3.0156Y-1.6546
X3.2125Y-1.5679
X2.306Y-2.4039
X2.5029Y-2.3172
X2.1563Y-1.3203
X2.4063Y-1.2203
X2.3052Y-3.3362
X2.5021Y-3.2495
X2.1549Y-3.7512
X2.4049Y-3.6512
X3.0131Y-5.7669
X3.21Y-5.6802
X4.4346Y-5.0177
X4.6315Y-4.931
X3.0153Y-2.4039
X3.2122Y-2.3172
X5.1458Y-4.0857
X5.3427Y-3.999
X5.1461Y-3.3364
X5.343Y-3.2497
X2.8653Y-2.0696
X3.1153Y-1.9696
X3.5738Y-4.6834
X3.8238Y-4.5834
X3.0134Y-5.0176
X3.2103Y-4.9309
X3.5749Y-3.002
X3.8249Y-2.902
X4.2865Y-2.0697
X4.5365Y-1.9697
X3.7238Y-5.0177
X3.9207Y-4.931
X1.4445Y-3.7511
X1.6945Y-3.6511
X3.7246Y-4.0856
X3.9215Y-3.9989
X2.3041Y-5.0176
X2.501Y-4.9309
X2.8656Y-1.3203
X3.1156Y-1.2203
X3.7235Y-5.767
X3.9204Y-5.6803
X4.9958Y-3.7514
X5.2458Y-3.6514
X4.4354Y-4.0856
X4.6323Y-3.9989
X5.1469Y-2.4041
X5.3438Y-2.3174
X5.1472Y-1.6548
X5.3441Y-1.5681
X3.5757Y-2.0697
X3.8257Y-1.9697
X4.2868Y-1.3204
X4.5368Y-1.2204
X4.9961Y-3.0021
X5.2461Y-2.9021
X4.2843Y-5.4327
X4.5343Y-5.3327
X4.4357Y-3.3363
X4.6326Y-3.2496
X3.0145Y-3.3362
X3.2114Y-3.2495
T4
X4.4354Y-3.8513
X5.1469Y-2.1698
X5.1472Y-1.4205
X4.4357Y-3.102
X3.0145Y-3.1019
X3.7249Y-3.102
X2.3049Y-3.8512
X1.5959Y-1.4202
X5.1447Y-5.5328
X3.0142Y-3.8512
X2.3063Y-1.4203
X1.5937Y-4.7832
X1.5956Y-2.1695
X2.3038Y-5.5326
X1.5934Y-5.5325
X1.5945Y-3.8511
X1.5948Y-3.1018
X4.4343Y-5.5327
X4.4368Y-1.4204
X3.726Y-1.4204
X3.7257Y-2.1697
X4.4365Y-2.1697
X5.145Y-4.7835
X3.0156Y-1.4203
X2.306Y-2.1696
X2.3052Y-3.1019
X3.0131Y-5.5326
X4.4346Y-4.7834
X3.0153Y-2.1696
X5.1458Y-3.8514
X5.1461Y-3.1021
X3.0134Y-4.7833
X3.7238Y-4.7834
X3.7246Y-3.8513
X2.3041Y-4.7833
X3.7235Y-5.5327
T5
X3.0153Y-2.1696
X3.7238Y-4.7834
X3.7249Y-3.102
X4.4365Y-2.1697
X1.5945Y-3.8511
X3.0156Y-1.4203
X5.1458Y-3.8514
X3.7257Y-2.1697
X4.4368Y-1.4204
X5.1461Y-3.1021
X4.4343Y-5.5327
X5.1472Y-1.4205
X3.7246Y-3.8513
X2.3052Y-3.1019
X2.3038Y-5.5326
X4.4346Y-4.7834
X3.7235Y-5.5327
X2.3041Y-4.7833
X3.726Y-1.4204
X5.1469Y-2.1698
X1.5948Y-3.1018
X5.1447Y-5.5328
X4.4354Y-3.8513
X1.5959Y-1.4202
X1.5934Y-5.5325
X3.0131Y-5.5326
X4.4357Y-3.102
X3.0142Y-3.8512
X3.0145Y-3.1019
X2.306Y-2.1696
X5.145Y-4.7835
X1.5956Y-2.1695
X1.5937Y-4.7832
X3.0134Y-4.7833
X2.3063Y-1.4203
X2.3049Y-3.8512
T0
M30
