G04 #@! TF.GenerationSoftware,KiCad,Pcbnew,(5.1.5)-3*
G04 #@! TF.CreationDate,2020-05-06T16:20:12+02:00*
G04 #@! TF.ProjectId,plaque,706c6171-7565-42e6-9b69-6361645f7063,1*
G04 #@! TF.SameCoordinates,Original*
G04 #@! TF.FileFunction,Soldermask,Bot*
G04 #@! TF.FilePolarity,Negative*
%FSLAX46Y46*%
G04 Gerber Fmt 4.6, Leading zero omitted, Abs format (unit mm)*
G04 Created by KiCad (PCBNEW (5.1.5)-3) date 2020-05-06 16:20:12*
%MOMM*%
%LPD*%
G04 APERTURE LIST*
%ADD10C,1.600000*%
%ADD11C,0.100000*%
%ADD12C,2.000000*%
%ADD13C,3.000000*%
%ADD14C,4.000000*%
%ADD15R,2.550000X2.500000*%
%ADD16R,1.000000X1.500000*%
%ADD17C,1.701800*%
%ADD18C,3.429000*%
%ADD19R,1.600000X1.600000*%
G04 APERTURE END LIST*
D10*
X125084040Y-129200920D03*
X123002040Y-123100920D03*
D11*
G36*
X123378913Y-130155473D02*
G01*
X122029487Y-129295793D01*
X122889167Y-127946367D01*
X124238593Y-128806047D01*
X123378913Y-130155473D01*
G37*
D10*
X127228263Y-122624277D03*
D12*
X135764040Y-121500920D03*
D13*
X133224040Y-116420920D03*
D14*
X130684040Y-121500920D03*
D13*
X126874040Y-118960920D03*
D12*
X125604040Y-121500920D03*
D15*
X136774040Y-116420920D03*
X123324040Y-118960920D03*
D10*
X104957880Y-121298380D03*
X107039880Y-129198380D03*
X104957880Y-123098380D03*
D16*
X111028480Y-128922780D03*
X114228480Y-128922780D03*
X111028480Y-124022780D03*
X114228480Y-124022780D03*
D11*
G36*
X106241246Y-128101802D02*
G01*
X105440024Y-127591367D01*
X106138514Y-126494958D01*
X106939736Y-127005393D01*
X106241246Y-128101802D01*
G37*
G36*
X108148660Y-125107762D02*
G01*
X107347438Y-124597327D01*
X108045928Y-123500918D01*
X108847150Y-124011353D01*
X108148660Y-125107762D01*
G37*
D17*
X118139880Y-121498380D03*
X107139880Y-121498380D03*
D13*
X117639880Y-125248380D03*
D18*
X112639880Y-121498380D03*
D13*
X112639880Y-127448380D03*
D19*
X120339880Y-122848380D03*
D12*
X117712260Y-140530600D03*
D13*
X115172260Y-135450600D03*
D14*
X112632260Y-140530600D03*
D13*
X108822260Y-137990600D03*
D12*
X107552260Y-140530600D03*
D15*
X118722260Y-135450600D03*
X105272260Y-137990600D03*
D17*
X136176420Y-140533140D03*
X125176420Y-140533140D03*
D13*
X135676420Y-144283140D03*
D18*
X130676420Y-140533140D03*
D13*
X130676420Y-146483140D03*
D10*
X125076420Y-148233140D03*
D15*
X123316420Y-137993140D03*
X136766420Y-135453140D03*
D12*
X125596420Y-140533140D03*
D13*
X126866420Y-137993140D03*
D14*
X130676420Y-140533140D03*
D13*
X133216420Y-135453140D03*
D12*
X135756420Y-140533140D03*
D19*
X138384040Y-122850920D03*
D11*
G36*
X105327133Y-149185153D02*
G01*
X103977707Y-148325473D01*
X104837387Y-146976047D01*
X106186813Y-147835727D01*
X105327133Y-149185153D01*
G37*
D10*
X109176483Y-141653957D03*
D11*
G36*
X124277786Y-147136562D02*
G01*
X123476564Y-146626127D01*
X124175054Y-145529718D01*
X124976276Y-146040153D01*
X124277786Y-147136562D01*
G37*
G36*
X126185200Y-144142522D02*
G01*
X125383978Y-143632087D01*
X126082468Y-142535678D01*
X126883690Y-143046113D01*
X126185200Y-144142522D01*
G37*
D19*
X138376420Y-141883140D03*
D16*
X132272640Y-124025320D03*
X129072640Y-124025320D03*
X132272640Y-128925320D03*
X129072640Y-128925320D03*
D10*
X122994420Y-140333140D03*
X125076420Y-132833140D03*
X138376420Y-140083140D03*
X138384040Y-119250920D03*
X123076420Y-132933140D03*
X107032260Y-148230600D03*
X138284040Y-113900920D03*
X104950260Y-142130600D03*
X138376420Y-138283140D03*
X122994420Y-142133140D03*
D11*
G36*
X126192820Y-125110302D02*
G01*
X125391598Y-124599867D01*
X126090088Y-123503458D01*
X126891310Y-124013893D01*
X126192820Y-125110302D01*
G37*
G36*
X124285406Y-128104342D02*
G01*
X123484184Y-127593907D01*
X124182674Y-126497498D01*
X124983896Y-127007933D01*
X124285406Y-128104342D01*
G37*
D13*
X130684040Y-127450920D03*
D18*
X130684040Y-121500920D03*
D13*
X135684040Y-125250920D03*
D17*
X125184040Y-121500920D03*
X136184040Y-121500920D03*
D10*
X127220643Y-141656497D03*
D11*
G36*
X123371293Y-149187693D02*
G01*
X122021867Y-148328013D01*
X122881547Y-146978587D01*
X124230973Y-147838267D01*
X123371293Y-149187693D01*
G37*
D10*
X123002040Y-121300920D03*
X109184103Y-122621737D03*
D11*
G36*
X105334753Y-130152933D02*
G01*
X103985327Y-129293253D01*
X104845007Y-127943827D01*
X106194433Y-128803507D01*
X105334753Y-130152933D01*
G37*
D10*
X123084040Y-113900920D03*
D19*
X122994420Y-143933140D03*
D15*
X105279880Y-118958380D03*
X118729880Y-116418380D03*
D12*
X107559880Y-121498380D03*
D13*
X108829880Y-118958380D03*
D14*
X112639880Y-121498380D03*
D13*
X115179880Y-116418380D03*
D12*
X117719880Y-121498380D03*
D16*
X129065020Y-147957540D03*
X132265020Y-147957540D03*
X129065020Y-143057540D03*
X132265020Y-143057540D03*
D10*
X125084040Y-113800920D03*
X138276420Y-132933140D03*
X107039880Y-113798380D03*
D19*
X123002040Y-124900920D03*
D10*
X104950260Y-140330600D03*
D11*
G36*
X70142766Y-128099262D02*
G01*
X69341544Y-127588827D01*
X70040034Y-126492418D01*
X70841256Y-127002853D01*
X70142766Y-128099262D01*
G37*
G36*
X72050180Y-125105222D02*
G01*
X71248958Y-124594787D01*
X71947448Y-123498378D01*
X72748670Y-124008813D01*
X72050180Y-125105222D01*
G37*
D10*
X70941400Y-113795840D03*
X88977940Y-132830600D03*
D16*
X92966540Y-147955000D03*
X96166540Y-147955000D03*
X92966540Y-143055000D03*
X96166540Y-143055000D03*
D17*
X82041400Y-121495840D03*
X71041400Y-121495840D03*
D13*
X81541400Y-125245840D03*
D18*
X76541400Y-121495840D03*
D13*
X76541400Y-127445840D03*
D19*
X86895940Y-143930600D03*
D10*
X68851780Y-140328060D03*
X91122163Y-141653957D03*
D11*
G36*
X87272813Y-149185153D02*
G01*
X85923387Y-148325473D01*
X86783067Y-146976047D01*
X88132493Y-147835727D01*
X87272813Y-149185153D01*
G37*
D10*
X86895940Y-140330600D03*
D11*
G36*
X88179306Y-147134022D02*
G01*
X87378084Y-146623587D01*
X88076574Y-145527178D01*
X88877796Y-146037613D01*
X88179306Y-147134022D01*
G37*
G36*
X90086720Y-144139982D02*
G01*
X89285498Y-143629547D01*
X89983988Y-142533138D01*
X90785210Y-143043573D01*
X90086720Y-144139982D01*
G37*
D10*
X102285560Y-119248380D03*
D15*
X69181400Y-118955840D03*
X82631400Y-116415840D03*
D12*
X71461400Y-121495840D03*
D13*
X72731400Y-118955840D03*
D14*
X76541400Y-121495840D03*
D13*
X79081400Y-116415840D03*
D12*
X81621400Y-121495840D03*
D16*
X74930000Y-128920240D03*
X78130000Y-128920240D03*
X74930000Y-124020240D03*
X78130000Y-124020240D03*
D10*
X88977940Y-148230600D03*
X70941400Y-129195840D03*
D13*
X94585560Y-127448380D03*
D18*
X94585560Y-121498380D03*
D13*
X99585560Y-125248380D03*
D17*
X89085560Y-121498380D03*
X100085560Y-121498380D03*
D19*
X86903560Y-124898380D03*
D10*
X86895940Y-142130600D03*
X73085623Y-122619197D03*
D11*
G36*
X69236273Y-130150393D02*
G01*
X67886847Y-129290713D01*
X68746527Y-127941287D01*
X70095953Y-128800967D01*
X69236273Y-130150393D01*
G37*
D10*
X68859400Y-123095840D03*
D19*
X102285560Y-122848380D03*
D10*
X88985560Y-113798380D03*
X70933780Y-148228060D03*
D19*
X102277940Y-141880600D03*
D11*
G36*
X90094340Y-125107762D02*
G01*
X89293118Y-124597327D01*
X89991608Y-123500918D01*
X90792830Y-124011353D01*
X90094340Y-125107762D01*
G37*
G36*
X88186926Y-128101802D02*
G01*
X87385704Y-127591367D01*
X88084194Y-126494958D01*
X88885416Y-127005393D01*
X88186926Y-128101802D01*
G37*
D15*
X87217940Y-137990600D03*
X100667940Y-135450600D03*
D12*
X89497940Y-140530600D03*
D13*
X90767940Y-137990600D03*
D14*
X94577940Y-140530600D03*
D13*
X97117940Y-135450600D03*
D12*
X99657940Y-140530600D03*
D16*
X96174160Y-124022780D03*
X92974160Y-124022780D03*
X96174160Y-128922780D03*
X92974160Y-128922780D03*
D10*
X102177940Y-132930600D03*
X86977940Y-132930600D03*
D17*
X100077940Y-140530600D03*
X89077940Y-140530600D03*
D13*
X99577940Y-144280600D03*
D18*
X94577940Y-140530600D03*
D13*
X94577940Y-146480600D03*
D10*
X102185560Y-113898380D03*
D19*
X84241400Y-122845840D03*
D10*
X86985560Y-113898380D03*
X120339880Y-121048380D03*
X120339880Y-119248380D03*
D11*
G36*
X108141040Y-144139982D02*
G01*
X107339818Y-143629547D01*
X108038308Y-142533138D01*
X108839530Y-143043573D01*
X108141040Y-144139982D01*
G37*
G36*
X106233626Y-147134022D02*
G01*
X105432404Y-146623587D01*
X106130894Y-145527178D01*
X106932116Y-146037613D01*
X106233626Y-147134022D01*
G37*
D10*
X105032260Y-132930600D03*
X120232260Y-132930600D03*
X107032260Y-132830600D03*
D19*
X104957880Y-124898380D03*
X120332260Y-141880600D03*
D10*
X120332260Y-140080600D03*
X138384040Y-121050920D03*
D19*
X104950260Y-143930600D03*
D10*
X120239880Y-113898380D03*
X105039880Y-113898380D03*
D16*
X114220860Y-143055000D03*
X111020860Y-143055000D03*
X114220860Y-147955000D03*
X111020860Y-147955000D03*
D13*
X112632260Y-146480600D03*
D18*
X112632260Y-140530600D03*
D13*
X117632260Y-144280600D03*
D17*
X107132260Y-140530600D03*
X118132260Y-140530600D03*
D19*
X68851780Y-143928060D03*
D10*
X70933780Y-132828060D03*
X102277940Y-138280600D03*
X102285560Y-121048380D03*
X84141400Y-113895840D03*
X84233780Y-138278060D03*
X84233780Y-140078060D03*
X68941400Y-113895840D03*
X102277940Y-140080600D03*
X68933780Y-132928060D03*
D13*
X76533780Y-146478060D03*
D18*
X76533780Y-140528060D03*
D13*
X81533780Y-144278060D03*
D17*
X71033780Y-140528060D03*
X82033780Y-140528060D03*
D16*
X78122380Y-143052460D03*
X74922380Y-143052460D03*
X78122380Y-147952460D03*
X74922380Y-147952460D03*
D10*
X84133780Y-132928060D03*
D19*
X84233780Y-141878060D03*
D10*
X84241400Y-121045840D03*
X84241400Y-119245840D03*
D19*
X68859400Y-124895840D03*
D12*
X81613780Y-140528060D03*
D13*
X79073780Y-135448060D03*
D14*
X76533780Y-140528060D03*
D13*
X72723780Y-137988060D03*
D12*
X71453780Y-140528060D03*
D15*
X82623780Y-135448060D03*
X69173780Y-137988060D03*
D11*
G36*
X69228653Y-149182613D02*
G01*
X67879227Y-148322933D01*
X68738907Y-146973507D01*
X70088333Y-147833187D01*
X69228653Y-149182613D01*
G37*
D10*
X73078003Y-141651417D03*
D11*
G36*
X72042560Y-144137442D02*
G01*
X71241338Y-143627007D01*
X71939828Y-142530598D01*
X72741050Y-143041033D01*
X72042560Y-144137442D01*
G37*
G36*
X70135146Y-147131482D02*
G01*
X69333924Y-146621047D01*
X70032414Y-145524638D01*
X70833636Y-146035073D01*
X70135146Y-147131482D01*
G37*
D10*
X68851780Y-142128060D03*
X120332260Y-138280600D03*
X86903560Y-121298380D03*
X86903560Y-123098380D03*
X68859400Y-121295840D03*
D11*
G36*
X87280433Y-130152933D02*
G01*
X85931007Y-129293253D01*
X86790687Y-127943827D01*
X88140113Y-128803507D01*
X87280433Y-130152933D01*
G37*
D10*
X91129783Y-122621737D03*
X88985560Y-129198380D03*
D12*
X99665560Y-121498380D03*
D13*
X97125560Y-116418380D03*
D14*
X94585560Y-121498380D03*
D13*
X90775560Y-118958380D03*
D12*
X89505560Y-121498380D03*
D15*
X100675560Y-116418380D03*
X87225560Y-118958380D03*
D10*
X50843180Y-123095840D03*
X55069403Y-122619197D03*
D11*
G36*
X51220053Y-130150393D02*
G01*
X49870627Y-129290713D01*
X50730307Y-127941287D01*
X52079733Y-128800967D01*
X51220053Y-130150393D01*
G37*
D15*
X51165180Y-118955840D03*
X64615180Y-116415840D03*
D12*
X53445180Y-121495840D03*
D13*
X54715180Y-118955840D03*
D14*
X58525180Y-121495840D03*
D13*
X61065180Y-116415840D03*
D12*
X63605180Y-121495840D03*
D10*
X52925180Y-129195840D03*
X50843180Y-121295840D03*
X32799020Y-121293300D03*
X34881020Y-129193300D03*
D12*
X45561020Y-121493300D03*
D13*
X43021020Y-116413300D03*
D14*
X40481020Y-121493300D03*
D13*
X36671020Y-118953300D03*
D12*
X35401020Y-121493300D03*
D15*
X46571020Y-116413300D03*
X33121020Y-118953300D03*
D11*
G36*
X33175893Y-130147853D02*
G01*
X31826467Y-129288173D01*
X32686147Y-127938747D01*
X34035573Y-128798427D01*
X33175893Y-130147853D01*
G37*
D10*
X37025243Y-122616657D03*
X32799020Y-123093300D03*
D16*
X42069620Y-124017700D03*
X38869620Y-124017700D03*
X42069620Y-128917700D03*
X38869620Y-128917700D03*
D11*
G36*
X35989800Y-125102682D02*
G01*
X35188578Y-124592247D01*
X35887068Y-123495838D01*
X36688290Y-124006273D01*
X35989800Y-125102682D01*
G37*
G36*
X34082386Y-128096722D02*
G01*
X33281164Y-127586287D01*
X33979654Y-126489878D01*
X34780876Y-127000313D01*
X34082386Y-128096722D01*
G37*
D10*
X34881020Y-113793300D03*
D13*
X40481020Y-127443300D03*
D18*
X40481020Y-121493300D03*
D13*
X45481020Y-125243300D03*
D17*
X34981020Y-121493300D03*
X45981020Y-121493300D03*
D19*
X48181020Y-122843300D03*
D10*
X52925180Y-113795840D03*
D17*
X64025180Y-121495840D03*
X53025180Y-121495840D03*
D13*
X63525180Y-125245840D03*
D18*
X58525180Y-121495840D03*
D13*
X58525180Y-127445840D03*
D10*
X52917560Y-148228060D03*
D12*
X63597560Y-140528060D03*
D13*
X61057560Y-135448060D03*
D14*
X58517560Y-140528060D03*
D13*
X54707560Y-137988060D03*
D12*
X53437560Y-140528060D03*
D15*
X64607560Y-135448060D03*
X51157560Y-137988060D03*
D11*
G36*
X51212433Y-149182613D02*
G01*
X49863007Y-148322933D01*
X50722687Y-146973507D01*
X52072113Y-147833187D01*
X51212433Y-149182613D01*
G37*
D10*
X55061783Y-141651417D03*
X50835560Y-142128060D03*
D19*
X66217560Y-141878060D03*
D10*
X50925180Y-113895840D03*
X52917560Y-132828060D03*
D16*
X56913780Y-128920240D03*
X60113780Y-128920240D03*
X56913780Y-124020240D03*
X60113780Y-124020240D03*
D11*
G36*
X52126546Y-128099262D02*
G01*
X51325324Y-127588827D01*
X52023814Y-126492418D01*
X52825036Y-127002853D01*
X52126546Y-128099262D01*
G37*
G36*
X54033960Y-125105222D02*
G01*
X53232738Y-124594787D01*
X53931228Y-123498378D01*
X54732450Y-124008813D01*
X54033960Y-125105222D01*
G37*
D19*
X66225180Y-122845840D03*
D10*
X50835560Y-140328060D03*
D19*
X50835560Y-143928060D03*
D10*
X66117560Y-132928060D03*
D16*
X60106160Y-143052460D03*
X56906160Y-143052460D03*
X60106160Y-147952460D03*
X56906160Y-147952460D03*
D10*
X32791400Y-140325520D03*
D11*
G36*
X54026340Y-144137442D02*
G01*
X53225118Y-143627007D01*
X53923608Y-142530598D01*
X54724830Y-143041033D01*
X54026340Y-144137442D01*
G37*
G36*
X52118926Y-147131482D02*
G01*
X51317704Y-146621047D01*
X52016194Y-145524638D01*
X52817416Y-146035073D01*
X52118926Y-147131482D01*
G37*
D19*
X50843180Y-124895840D03*
D10*
X34873400Y-148225520D03*
X50917560Y-132928060D03*
D13*
X58517560Y-146478060D03*
D18*
X58517560Y-140528060D03*
D13*
X63517560Y-144278060D03*
D17*
X53017560Y-140528060D03*
X64017560Y-140528060D03*
D10*
X66125180Y-113895840D03*
X66225180Y-119245840D03*
X66217560Y-140078060D03*
X66217560Y-138278060D03*
D15*
X33113400Y-137985520D03*
X46563400Y-135445520D03*
D12*
X35393400Y-140525520D03*
D13*
X36663400Y-137985520D03*
D14*
X40473400Y-140525520D03*
D13*
X43013400Y-135445520D03*
D12*
X45553400Y-140525520D03*
D10*
X37017623Y-141648877D03*
D11*
G36*
X33168273Y-149180073D02*
G01*
X31818847Y-148320393D01*
X32678527Y-146970967D01*
X34027953Y-147830647D01*
X33168273Y-149180073D01*
G37*
D10*
X32791400Y-142125520D03*
X66225180Y-121045840D03*
X48073400Y-132925520D03*
D19*
X32791400Y-143925520D03*
X48173400Y-141875520D03*
D10*
X32881020Y-113893300D03*
D16*
X38862000Y-147949920D03*
X42062000Y-147949920D03*
X38862000Y-143049920D03*
X42062000Y-143049920D03*
D10*
X34873400Y-132825520D03*
X32873400Y-132925520D03*
D17*
X45973400Y-140525520D03*
X34973400Y-140525520D03*
D13*
X45473400Y-144275520D03*
D18*
X40473400Y-140525520D03*
D13*
X40473400Y-146475520D03*
D10*
X48181020Y-121043300D03*
X48181020Y-119243300D03*
X48081020Y-113893300D03*
D19*
X32799020Y-124893300D03*
D11*
G36*
X34074766Y-147128942D02*
G01*
X33273544Y-146618507D01*
X33972034Y-145522098D01*
X34773256Y-146032533D01*
X34074766Y-147128942D01*
G37*
G36*
X35982180Y-144134902D02*
G01*
X35180958Y-143624467D01*
X35879448Y-142528058D01*
X36680670Y-143038493D01*
X35982180Y-144134902D01*
G37*
D10*
X48173400Y-140075520D03*
X48173400Y-138275520D03*
X125111980Y-86493360D03*
X123029980Y-80393360D03*
D11*
G36*
X123406853Y-87447913D02*
G01*
X122057427Y-86588233D01*
X122917107Y-85238807D01*
X124266533Y-86098487D01*
X123406853Y-87447913D01*
G37*
D10*
X127256203Y-79916717D03*
D12*
X135791980Y-78793360D03*
D13*
X133251980Y-73713360D03*
D14*
X130711980Y-78793360D03*
D13*
X126901980Y-76253360D03*
D12*
X125631980Y-78793360D03*
D15*
X136801980Y-73713360D03*
X123351980Y-76253360D03*
D10*
X104985820Y-78590820D03*
X107067820Y-86490820D03*
X104985820Y-80390820D03*
D16*
X111056420Y-86215220D03*
X114256420Y-86215220D03*
X111056420Y-81315220D03*
X114256420Y-81315220D03*
D11*
G36*
X106269186Y-85394242D02*
G01*
X105467964Y-84883807D01*
X106166454Y-83787398D01*
X106967676Y-84297833D01*
X106269186Y-85394242D01*
G37*
G36*
X108176600Y-82400202D02*
G01*
X107375378Y-81889767D01*
X108073868Y-80793358D01*
X108875090Y-81303793D01*
X108176600Y-82400202D01*
G37*
D17*
X118167820Y-78790820D03*
X107167820Y-78790820D03*
D13*
X117667820Y-82540820D03*
D18*
X112667820Y-78790820D03*
D13*
X112667820Y-84740820D03*
D19*
X120367820Y-80140820D03*
D12*
X117740200Y-97823040D03*
D13*
X115200200Y-92743040D03*
D14*
X112660200Y-97823040D03*
D13*
X108850200Y-95283040D03*
D12*
X107580200Y-97823040D03*
D15*
X118750200Y-92743040D03*
X105300200Y-95283040D03*
D17*
X136204360Y-97825580D03*
X125204360Y-97825580D03*
D13*
X135704360Y-101575580D03*
D18*
X130704360Y-97825580D03*
D13*
X130704360Y-103775580D03*
D10*
X125104360Y-105525580D03*
D15*
X123344360Y-95285580D03*
X136794360Y-92745580D03*
D12*
X125624360Y-97825580D03*
D13*
X126894360Y-95285580D03*
D14*
X130704360Y-97825580D03*
D13*
X133244360Y-92745580D03*
D12*
X135784360Y-97825580D03*
D19*
X138411980Y-80143360D03*
D11*
G36*
X105355073Y-106477593D02*
G01*
X104005647Y-105617913D01*
X104865327Y-104268487D01*
X106214753Y-105128167D01*
X105355073Y-106477593D01*
G37*
D10*
X109204423Y-98946397D03*
D11*
G36*
X124305726Y-104429002D02*
G01*
X123504504Y-103918567D01*
X124202994Y-102822158D01*
X125004216Y-103332593D01*
X124305726Y-104429002D01*
G37*
G36*
X126213140Y-101434962D02*
G01*
X125411918Y-100924527D01*
X126110408Y-99828118D01*
X126911630Y-100338553D01*
X126213140Y-101434962D01*
G37*
D19*
X138404360Y-99175580D03*
D16*
X132300580Y-81317760D03*
X129100580Y-81317760D03*
X132300580Y-86217760D03*
X129100580Y-86217760D03*
D10*
X123022360Y-97625580D03*
X125104360Y-90125580D03*
X138404360Y-97375580D03*
X138411980Y-76543360D03*
X123104360Y-90225580D03*
X107060200Y-105523040D03*
X138311980Y-71193360D03*
X104978200Y-99423040D03*
X138404360Y-95575580D03*
X123022360Y-99425580D03*
D11*
G36*
X126220760Y-82402742D02*
G01*
X125419538Y-81892307D01*
X126118028Y-80795898D01*
X126919250Y-81306333D01*
X126220760Y-82402742D01*
G37*
G36*
X124313346Y-85396782D02*
G01*
X123512124Y-84886347D01*
X124210614Y-83789938D01*
X125011836Y-84300373D01*
X124313346Y-85396782D01*
G37*
D13*
X130711980Y-84743360D03*
D18*
X130711980Y-78793360D03*
D13*
X135711980Y-82543360D03*
D17*
X125211980Y-78793360D03*
X136211980Y-78793360D03*
D10*
X127248583Y-98948937D03*
D11*
G36*
X123399233Y-106480133D02*
G01*
X122049807Y-105620453D01*
X122909487Y-104271027D01*
X124258913Y-105130707D01*
X123399233Y-106480133D01*
G37*
D10*
X123029980Y-78593360D03*
X109212043Y-79914177D03*
D11*
G36*
X105362693Y-87445373D02*
G01*
X104013267Y-86585693D01*
X104872947Y-85236267D01*
X106222373Y-86095947D01*
X105362693Y-87445373D01*
G37*
D10*
X123111980Y-71193360D03*
D19*
X123022360Y-101225580D03*
D15*
X105307820Y-76250820D03*
X118757820Y-73710820D03*
D12*
X107587820Y-78790820D03*
D13*
X108857820Y-76250820D03*
D14*
X112667820Y-78790820D03*
D13*
X115207820Y-73710820D03*
D12*
X117747820Y-78790820D03*
D16*
X129092960Y-105249980D03*
X132292960Y-105249980D03*
X129092960Y-100349980D03*
X132292960Y-100349980D03*
D10*
X125111980Y-71093360D03*
X138304360Y-90225580D03*
X107067820Y-71090820D03*
D19*
X123029980Y-82193360D03*
D10*
X104978200Y-97623040D03*
D11*
G36*
X70170706Y-85391702D02*
G01*
X69369484Y-84881267D01*
X70067974Y-83784858D01*
X70869196Y-84295293D01*
X70170706Y-85391702D01*
G37*
G36*
X72078120Y-82397662D02*
G01*
X71276898Y-81887227D01*
X71975388Y-80790818D01*
X72776610Y-81301253D01*
X72078120Y-82397662D01*
G37*
D10*
X70969340Y-71088280D03*
X89005880Y-90123040D03*
D16*
X92994480Y-105247440D03*
X96194480Y-105247440D03*
X92994480Y-100347440D03*
X96194480Y-100347440D03*
D17*
X82069340Y-78788280D03*
X71069340Y-78788280D03*
D13*
X81569340Y-82538280D03*
D18*
X76569340Y-78788280D03*
D13*
X76569340Y-84738280D03*
D19*
X86923880Y-101223040D03*
D10*
X68879720Y-97620500D03*
X91150103Y-98946397D03*
D11*
G36*
X87300753Y-106477593D02*
G01*
X85951327Y-105617913D01*
X86811007Y-104268487D01*
X88160433Y-105128167D01*
X87300753Y-106477593D01*
G37*
D10*
X86923880Y-97623040D03*
D11*
G36*
X88207246Y-104426462D02*
G01*
X87406024Y-103916027D01*
X88104514Y-102819618D01*
X88905736Y-103330053D01*
X88207246Y-104426462D01*
G37*
G36*
X90114660Y-101432422D02*
G01*
X89313438Y-100921987D01*
X90011928Y-99825578D01*
X90813150Y-100336013D01*
X90114660Y-101432422D01*
G37*
D10*
X102313500Y-76540820D03*
D15*
X69209340Y-76248280D03*
X82659340Y-73708280D03*
D12*
X71489340Y-78788280D03*
D13*
X72759340Y-76248280D03*
D14*
X76569340Y-78788280D03*
D13*
X79109340Y-73708280D03*
D12*
X81649340Y-78788280D03*
D16*
X74957940Y-86212680D03*
X78157940Y-86212680D03*
X74957940Y-81312680D03*
X78157940Y-81312680D03*
D10*
X89005880Y-105523040D03*
X70969340Y-86488280D03*
D13*
X94613500Y-84740820D03*
D18*
X94613500Y-78790820D03*
D13*
X99613500Y-82540820D03*
D17*
X89113500Y-78790820D03*
X100113500Y-78790820D03*
D19*
X86931500Y-82190820D03*
D10*
X86923880Y-99423040D03*
X73113563Y-79911637D03*
D11*
G36*
X69264213Y-87442833D02*
G01*
X67914787Y-86583153D01*
X68774467Y-85233727D01*
X70123893Y-86093407D01*
X69264213Y-87442833D01*
G37*
D10*
X68887340Y-80388280D03*
D19*
X102313500Y-80140820D03*
D10*
X89013500Y-71090820D03*
X70961720Y-105520500D03*
D19*
X102305880Y-99173040D03*
D11*
G36*
X90122280Y-82400202D02*
G01*
X89321058Y-81889767D01*
X90019548Y-80793358D01*
X90820770Y-81303793D01*
X90122280Y-82400202D01*
G37*
G36*
X88214866Y-85394242D02*
G01*
X87413644Y-84883807D01*
X88112134Y-83787398D01*
X88913356Y-84297833D01*
X88214866Y-85394242D01*
G37*
D15*
X87245880Y-95283040D03*
X100695880Y-92743040D03*
D12*
X89525880Y-97823040D03*
D13*
X90795880Y-95283040D03*
D14*
X94605880Y-97823040D03*
D13*
X97145880Y-92743040D03*
D12*
X99685880Y-97823040D03*
D16*
X96202100Y-81315220D03*
X93002100Y-81315220D03*
X96202100Y-86215220D03*
X93002100Y-86215220D03*
D10*
X102205880Y-90223040D03*
X87005880Y-90223040D03*
D17*
X100105880Y-97823040D03*
X89105880Y-97823040D03*
D13*
X99605880Y-101573040D03*
D18*
X94605880Y-97823040D03*
D13*
X94605880Y-103773040D03*
D10*
X102213500Y-71190820D03*
D19*
X84269340Y-80138280D03*
D10*
X87013500Y-71190820D03*
X120367820Y-78340820D03*
X120367820Y-76540820D03*
D11*
G36*
X108168980Y-101432422D02*
G01*
X107367758Y-100921987D01*
X108066248Y-99825578D01*
X108867470Y-100336013D01*
X108168980Y-101432422D01*
G37*
G36*
X106261566Y-104426462D02*
G01*
X105460344Y-103916027D01*
X106158834Y-102819618D01*
X106960056Y-103330053D01*
X106261566Y-104426462D01*
G37*
D10*
X105060200Y-90223040D03*
X120260200Y-90223040D03*
X107060200Y-90123040D03*
D19*
X104985820Y-82190820D03*
X120360200Y-99173040D03*
D10*
X120360200Y-97373040D03*
X138411980Y-78343360D03*
D19*
X104978200Y-101223040D03*
D10*
X120267820Y-71190820D03*
X105067820Y-71190820D03*
D16*
X114248800Y-100347440D03*
X111048800Y-100347440D03*
X114248800Y-105247440D03*
X111048800Y-105247440D03*
D13*
X112660200Y-103773040D03*
D18*
X112660200Y-97823040D03*
D13*
X117660200Y-101573040D03*
D17*
X107160200Y-97823040D03*
X118160200Y-97823040D03*
D19*
X68879720Y-101220500D03*
D10*
X70961720Y-90120500D03*
X102305880Y-95573040D03*
X102313500Y-78340820D03*
X84169340Y-71188280D03*
X84261720Y-95570500D03*
X84261720Y-97370500D03*
X68969340Y-71188280D03*
X102305880Y-97373040D03*
X68961720Y-90220500D03*
D13*
X76561720Y-103770500D03*
D18*
X76561720Y-97820500D03*
D13*
X81561720Y-101570500D03*
D17*
X71061720Y-97820500D03*
X82061720Y-97820500D03*
D16*
X78150320Y-100344900D03*
X74950320Y-100344900D03*
X78150320Y-105244900D03*
X74950320Y-105244900D03*
D10*
X84161720Y-90220500D03*
D19*
X84261720Y-99170500D03*
D10*
X84269340Y-78338280D03*
X84269340Y-76538280D03*
D19*
X68887340Y-82188280D03*
D12*
X81641720Y-97820500D03*
D13*
X79101720Y-92740500D03*
D14*
X76561720Y-97820500D03*
D13*
X72751720Y-95280500D03*
D12*
X71481720Y-97820500D03*
D15*
X82651720Y-92740500D03*
X69201720Y-95280500D03*
D11*
G36*
X69256593Y-106475053D02*
G01*
X67907167Y-105615373D01*
X68766847Y-104265947D01*
X70116273Y-105125627D01*
X69256593Y-106475053D01*
G37*
D10*
X73105943Y-98943857D03*
D11*
G36*
X72070500Y-101429882D02*
G01*
X71269278Y-100919447D01*
X71967768Y-99823038D01*
X72768990Y-100333473D01*
X72070500Y-101429882D01*
G37*
G36*
X70163086Y-104423922D02*
G01*
X69361864Y-103913487D01*
X70060354Y-102817078D01*
X70861576Y-103327513D01*
X70163086Y-104423922D01*
G37*
D10*
X68879720Y-99420500D03*
X120360200Y-95573040D03*
X86931500Y-78590820D03*
X86931500Y-80390820D03*
X68887340Y-78588280D03*
D11*
G36*
X87308373Y-87445373D02*
G01*
X85958947Y-86585693D01*
X86818627Y-85236267D01*
X88168053Y-86095947D01*
X87308373Y-87445373D01*
G37*
D10*
X91157723Y-79914177D03*
X89013500Y-86490820D03*
D12*
X99693500Y-78790820D03*
D13*
X97153500Y-73710820D03*
D14*
X94613500Y-78790820D03*
D13*
X90803500Y-76250820D03*
D12*
X89533500Y-78790820D03*
D15*
X100703500Y-73710820D03*
X87253500Y-76250820D03*
D10*
X50871120Y-80388280D03*
X55097343Y-79911637D03*
D11*
G36*
X51247993Y-87442833D02*
G01*
X49898567Y-86583153D01*
X50758247Y-85233727D01*
X52107673Y-86093407D01*
X51247993Y-87442833D01*
G37*
D15*
X51193120Y-76248280D03*
X64643120Y-73708280D03*
D12*
X53473120Y-78788280D03*
D13*
X54743120Y-76248280D03*
D14*
X58553120Y-78788280D03*
D13*
X61093120Y-73708280D03*
D12*
X63633120Y-78788280D03*
D10*
X52953120Y-86488280D03*
X50871120Y-78588280D03*
X32826960Y-78585740D03*
X34908960Y-86485740D03*
D12*
X45588960Y-78785740D03*
D13*
X43048960Y-73705740D03*
D14*
X40508960Y-78785740D03*
D13*
X36698960Y-76245740D03*
D12*
X35428960Y-78785740D03*
D15*
X46598960Y-73705740D03*
X33148960Y-76245740D03*
D11*
G36*
X33203833Y-87440293D02*
G01*
X31854407Y-86580613D01*
X32714087Y-85231187D01*
X34063513Y-86090867D01*
X33203833Y-87440293D01*
G37*
D10*
X37053183Y-79909097D03*
X32826960Y-80385740D03*
D16*
X42097560Y-81310140D03*
X38897560Y-81310140D03*
X42097560Y-86210140D03*
X38897560Y-86210140D03*
D11*
G36*
X36017740Y-82395122D02*
G01*
X35216518Y-81884687D01*
X35915008Y-80788278D01*
X36716230Y-81298713D01*
X36017740Y-82395122D01*
G37*
G36*
X34110326Y-85389162D02*
G01*
X33309104Y-84878727D01*
X34007594Y-83782318D01*
X34808816Y-84292753D01*
X34110326Y-85389162D01*
G37*
D10*
X34908960Y-71085740D03*
D13*
X40508960Y-84735740D03*
D18*
X40508960Y-78785740D03*
D13*
X45508960Y-82535740D03*
D17*
X35008960Y-78785740D03*
X46008960Y-78785740D03*
D19*
X48208960Y-80135740D03*
D10*
X52953120Y-71088280D03*
D17*
X64053120Y-78788280D03*
X53053120Y-78788280D03*
D13*
X63553120Y-82538280D03*
D18*
X58553120Y-78788280D03*
D13*
X58553120Y-84738280D03*
D10*
X52945500Y-105520500D03*
D12*
X63625500Y-97820500D03*
D13*
X61085500Y-92740500D03*
D14*
X58545500Y-97820500D03*
D13*
X54735500Y-95280500D03*
D12*
X53465500Y-97820500D03*
D15*
X64635500Y-92740500D03*
X51185500Y-95280500D03*
D11*
G36*
X51240373Y-106475053D02*
G01*
X49890947Y-105615373D01*
X50750627Y-104265947D01*
X52100053Y-105125627D01*
X51240373Y-106475053D01*
G37*
D10*
X55089723Y-98943857D03*
X50863500Y-99420500D03*
D19*
X66245500Y-99170500D03*
D10*
X50953120Y-71188280D03*
X52945500Y-90120500D03*
D16*
X56941720Y-86212680D03*
X60141720Y-86212680D03*
X56941720Y-81312680D03*
X60141720Y-81312680D03*
D11*
G36*
X52154486Y-85391702D02*
G01*
X51353264Y-84881267D01*
X52051754Y-83784858D01*
X52852976Y-84295293D01*
X52154486Y-85391702D01*
G37*
G36*
X54061900Y-82397662D02*
G01*
X53260678Y-81887227D01*
X53959168Y-80790818D01*
X54760390Y-81301253D01*
X54061900Y-82397662D01*
G37*
D19*
X66253120Y-80138280D03*
D10*
X50863500Y-97620500D03*
D19*
X50863500Y-101220500D03*
D10*
X66145500Y-90220500D03*
D16*
X60134100Y-100344900D03*
X56934100Y-100344900D03*
X60134100Y-105244900D03*
X56934100Y-105244900D03*
D10*
X32819340Y-97617960D03*
D11*
G36*
X54054280Y-101429882D02*
G01*
X53253058Y-100919447D01*
X53951548Y-99823038D01*
X54752770Y-100333473D01*
X54054280Y-101429882D01*
G37*
G36*
X52146866Y-104423922D02*
G01*
X51345644Y-103913487D01*
X52044134Y-102817078D01*
X52845356Y-103327513D01*
X52146866Y-104423922D01*
G37*
D19*
X50871120Y-82188280D03*
D10*
X34901340Y-105517960D03*
X50945500Y-90220500D03*
D13*
X58545500Y-103770500D03*
D18*
X58545500Y-97820500D03*
D13*
X63545500Y-101570500D03*
D17*
X53045500Y-97820500D03*
X64045500Y-97820500D03*
D10*
X66153120Y-71188280D03*
X66253120Y-76538280D03*
X66245500Y-97370500D03*
X66245500Y-95570500D03*
D15*
X33141340Y-95277960D03*
X46591340Y-92737960D03*
D12*
X35421340Y-97817960D03*
D13*
X36691340Y-95277960D03*
D14*
X40501340Y-97817960D03*
D13*
X43041340Y-92737960D03*
D12*
X45581340Y-97817960D03*
D10*
X37045563Y-98941317D03*
D11*
G36*
X33196213Y-106472513D02*
G01*
X31846787Y-105612833D01*
X32706467Y-104263407D01*
X34055893Y-105123087D01*
X33196213Y-106472513D01*
G37*
D10*
X32819340Y-99417960D03*
X66253120Y-78338280D03*
X48101340Y-90217960D03*
D19*
X32819340Y-101217960D03*
X48201340Y-99167960D03*
D10*
X32908960Y-71185740D03*
D16*
X38889940Y-105242360D03*
X42089940Y-105242360D03*
X38889940Y-100342360D03*
X42089940Y-100342360D03*
D10*
X34901340Y-90117960D03*
X32901340Y-90217960D03*
D17*
X46001340Y-97817960D03*
X35001340Y-97817960D03*
D13*
X45501340Y-101567960D03*
D18*
X40501340Y-97817960D03*
D13*
X40501340Y-103767960D03*
D10*
X48208960Y-78335740D03*
X48208960Y-76535740D03*
X48108960Y-71185740D03*
D19*
X32826960Y-82185740D03*
D11*
G36*
X34102706Y-104421382D02*
G01*
X33301484Y-103910947D01*
X33999974Y-102814538D01*
X34801196Y-103324973D01*
X34102706Y-104421382D01*
G37*
G36*
X36010120Y-101427342D02*
G01*
X35208898Y-100916907D01*
X35907388Y-99820498D01*
X36708610Y-100330933D01*
X36010120Y-101427342D01*
G37*
D10*
X48201340Y-97367960D03*
X48201340Y-95567960D03*
X123057920Y-37680720D03*
X127284143Y-37204077D03*
D11*
G36*
X123434793Y-44735273D02*
G01*
X122085367Y-43875593D01*
X122945047Y-42526167D01*
X124294473Y-43385847D01*
X123434793Y-44735273D01*
G37*
D15*
X123379920Y-33540720D03*
X136829920Y-31000720D03*
D12*
X125659920Y-36080720D03*
D13*
X126929920Y-33540720D03*
D14*
X130739920Y-36080720D03*
D13*
X133279920Y-31000720D03*
D12*
X135819920Y-36080720D03*
D10*
X125139920Y-43780720D03*
X123057920Y-35880720D03*
X105013760Y-35878180D03*
X107095760Y-43778180D03*
D12*
X117775760Y-36078180D03*
D13*
X115235760Y-30998180D03*
D14*
X112695760Y-36078180D03*
D13*
X108885760Y-33538180D03*
D12*
X107615760Y-36078180D03*
D15*
X118785760Y-30998180D03*
X105335760Y-33538180D03*
D11*
G36*
X105390633Y-44732733D02*
G01*
X104041207Y-43873053D01*
X104900887Y-42523627D01*
X106250313Y-43383307D01*
X105390633Y-44732733D01*
G37*
D10*
X109239983Y-37201537D03*
X105013760Y-37678180D03*
D16*
X114284360Y-38602580D03*
X111084360Y-38602580D03*
X114284360Y-43502580D03*
X111084360Y-43502580D03*
D11*
G36*
X108204540Y-39687562D02*
G01*
X107403318Y-39177127D01*
X108101808Y-38080718D01*
X108903030Y-38591153D01*
X108204540Y-39687562D01*
G37*
G36*
X106297126Y-42681602D02*
G01*
X105495904Y-42171167D01*
X106194394Y-41074758D01*
X106995616Y-41585193D01*
X106297126Y-42681602D01*
G37*
D10*
X107095760Y-28378180D03*
D13*
X112695760Y-42028180D03*
D18*
X112695760Y-36078180D03*
D13*
X117695760Y-39828180D03*
D17*
X107195760Y-36078180D03*
X118195760Y-36078180D03*
D19*
X120395760Y-37428180D03*
D10*
X125139920Y-28380720D03*
D17*
X136239920Y-36080720D03*
X125239920Y-36080720D03*
D13*
X135739920Y-39830720D03*
D18*
X130739920Y-36080720D03*
D13*
X130739920Y-42030720D03*
D10*
X125132300Y-62812940D03*
D12*
X135812300Y-55112940D03*
D13*
X133272300Y-50032940D03*
D14*
X130732300Y-55112940D03*
D13*
X126922300Y-52572940D03*
D12*
X125652300Y-55112940D03*
D15*
X136822300Y-50032940D03*
X123372300Y-52572940D03*
D11*
G36*
X123427173Y-63767493D02*
G01*
X122077747Y-62907813D01*
X122937427Y-61558387D01*
X124286853Y-62418067D01*
X123427173Y-63767493D01*
G37*
D10*
X127276523Y-56236297D03*
X123050300Y-56712940D03*
D19*
X138432300Y-56462940D03*
D10*
X123139920Y-28480720D03*
X125132300Y-47412940D03*
D16*
X129128520Y-43505120D03*
X132328520Y-43505120D03*
X129128520Y-38605120D03*
X132328520Y-38605120D03*
D11*
G36*
X124341286Y-42684142D02*
G01*
X123540064Y-42173707D01*
X124238554Y-41077298D01*
X125039776Y-41587733D01*
X124341286Y-42684142D01*
G37*
G36*
X126248700Y-39690102D02*
G01*
X125447478Y-39179667D01*
X126145968Y-38083258D01*
X126947190Y-38593693D01*
X126248700Y-39690102D01*
G37*
D19*
X138439920Y-37430720D03*
D10*
X123050300Y-54912940D03*
D19*
X123050300Y-58512940D03*
D10*
X138332300Y-47512940D03*
D16*
X132320900Y-57637340D03*
X129120900Y-57637340D03*
X132320900Y-62537340D03*
X129120900Y-62537340D03*
D10*
X105006140Y-54910400D03*
D11*
G36*
X126241080Y-58722322D02*
G01*
X125439858Y-58211887D01*
X126138348Y-57115478D01*
X126939570Y-57625913D01*
X126241080Y-58722322D01*
G37*
G36*
X124333666Y-61716362D02*
G01*
X123532444Y-61205927D01*
X124230934Y-60109518D01*
X125032156Y-60619953D01*
X124333666Y-61716362D01*
G37*
D19*
X123057920Y-39480720D03*
D10*
X107088140Y-62810400D03*
X123132300Y-47512940D03*
D13*
X130732300Y-61062940D03*
D18*
X130732300Y-55112940D03*
D13*
X135732300Y-58862940D03*
D17*
X125232300Y-55112940D03*
X136232300Y-55112940D03*
D10*
X138339920Y-28480720D03*
X138439920Y-33830720D03*
X138432300Y-54662940D03*
X138432300Y-52862940D03*
D15*
X105328140Y-52570400D03*
X118778140Y-50030400D03*
D12*
X107608140Y-55110400D03*
D13*
X108878140Y-52570400D03*
D14*
X112688140Y-55110400D03*
D13*
X115228140Y-50030400D03*
D12*
X117768140Y-55110400D03*
D10*
X109232363Y-56233757D03*
D11*
G36*
X105383013Y-63764953D02*
G01*
X104033587Y-62905273D01*
X104893267Y-61555847D01*
X106242693Y-62415527D01*
X105383013Y-63764953D01*
G37*
D10*
X105006140Y-56710400D03*
X138439920Y-35630720D03*
X120288140Y-47510400D03*
D19*
X105006140Y-58510400D03*
X120388140Y-56460400D03*
D10*
X105095760Y-28478180D03*
D16*
X111076740Y-62534800D03*
X114276740Y-62534800D03*
X111076740Y-57634800D03*
X114276740Y-57634800D03*
D10*
X107088140Y-47410400D03*
X105088140Y-47510400D03*
D17*
X118188140Y-55110400D03*
X107188140Y-55110400D03*
D13*
X117688140Y-58860400D03*
D18*
X112688140Y-55110400D03*
D13*
X112688140Y-61060400D03*
D10*
X120395760Y-35628180D03*
X120395760Y-33828180D03*
X120295760Y-28478180D03*
D19*
X105013760Y-39478180D03*
D11*
G36*
X106289506Y-61713822D02*
G01*
X105488284Y-61203387D01*
X106186774Y-60106978D01*
X106987996Y-60617413D01*
X106289506Y-61713822D01*
G37*
G36*
X108196920Y-58719782D02*
G01*
X107395698Y-58209347D01*
X108094188Y-57112938D01*
X108895410Y-57623373D01*
X108196920Y-58719782D01*
G37*
D10*
X120388140Y-54660400D03*
X120388140Y-52860400D03*
X86959440Y-37678180D03*
X91185663Y-37201537D03*
D11*
G36*
X87336313Y-44732733D02*
G01*
X85986887Y-43873053D01*
X86846567Y-42523627D01*
X88195993Y-43383307D01*
X87336313Y-44732733D01*
G37*
D15*
X87281440Y-33538180D03*
X100731440Y-30998180D03*
D12*
X89561440Y-36078180D03*
D13*
X90831440Y-33538180D03*
D14*
X94641440Y-36078180D03*
D13*
X97181440Y-30998180D03*
D12*
X99721440Y-36078180D03*
D10*
X89041440Y-43778180D03*
X86959440Y-35878180D03*
X68915280Y-35875640D03*
X70997280Y-43775640D03*
D12*
X81677280Y-36075640D03*
D13*
X79137280Y-30995640D03*
D14*
X76597280Y-36075640D03*
D13*
X72787280Y-33535640D03*
D12*
X71517280Y-36075640D03*
D15*
X82687280Y-30995640D03*
X69237280Y-33535640D03*
D11*
G36*
X69292153Y-44730193D02*
G01*
X67942727Y-43870513D01*
X68802407Y-42521087D01*
X70151833Y-43380767D01*
X69292153Y-44730193D01*
G37*
D10*
X73141503Y-37198997D03*
X68915280Y-37675640D03*
D16*
X78185880Y-38600040D03*
X74985880Y-38600040D03*
X78185880Y-43500040D03*
X74985880Y-43500040D03*
D11*
G36*
X72106060Y-39685022D02*
G01*
X71304838Y-39174587D01*
X72003328Y-38078178D01*
X72804550Y-38588613D01*
X72106060Y-39685022D01*
G37*
G36*
X70198646Y-42679062D02*
G01*
X69397424Y-42168627D01*
X70095914Y-41072218D01*
X70897136Y-41582653D01*
X70198646Y-42679062D01*
G37*
D10*
X70997280Y-28375640D03*
D13*
X76597280Y-42025640D03*
D18*
X76597280Y-36075640D03*
D13*
X81597280Y-39825640D03*
D17*
X71097280Y-36075640D03*
X82097280Y-36075640D03*
D19*
X84297280Y-37425640D03*
D10*
X89041440Y-28378180D03*
D17*
X100141440Y-36078180D03*
X89141440Y-36078180D03*
D13*
X99641440Y-39828180D03*
D18*
X94641440Y-36078180D03*
D13*
X94641440Y-42028180D03*
D10*
X89033820Y-62810400D03*
D12*
X99713820Y-55110400D03*
D13*
X97173820Y-50030400D03*
D14*
X94633820Y-55110400D03*
D13*
X90823820Y-52570400D03*
D12*
X89553820Y-55110400D03*
D15*
X100723820Y-50030400D03*
X87273820Y-52570400D03*
D11*
G36*
X87328693Y-63764953D02*
G01*
X85979267Y-62905273D01*
X86838947Y-61555847D01*
X88188373Y-62415527D01*
X87328693Y-63764953D01*
G37*
D10*
X91178043Y-56233757D03*
X86951820Y-56710400D03*
D19*
X102333820Y-56460400D03*
D10*
X87041440Y-28478180D03*
X89033820Y-47410400D03*
D16*
X93030040Y-43502580D03*
X96230040Y-43502580D03*
X93030040Y-38602580D03*
X96230040Y-38602580D03*
D11*
G36*
X88242806Y-42681602D02*
G01*
X87441584Y-42171167D01*
X88140074Y-41074758D01*
X88941296Y-41585193D01*
X88242806Y-42681602D01*
G37*
G36*
X90150220Y-39687562D02*
G01*
X89348998Y-39177127D01*
X90047488Y-38080718D01*
X90848710Y-38591153D01*
X90150220Y-39687562D01*
G37*
D19*
X102341440Y-37428180D03*
D10*
X86951820Y-54910400D03*
D19*
X86951820Y-58510400D03*
D10*
X102233820Y-47510400D03*
D16*
X96222420Y-57634800D03*
X93022420Y-57634800D03*
X96222420Y-62534800D03*
X93022420Y-62534800D03*
D10*
X68907660Y-54907860D03*
D11*
G36*
X90142600Y-58719782D02*
G01*
X89341378Y-58209347D01*
X90039868Y-57112938D01*
X90841090Y-57623373D01*
X90142600Y-58719782D01*
G37*
G36*
X88235186Y-61713822D02*
G01*
X87433964Y-61203387D01*
X88132454Y-60106978D01*
X88933676Y-60617413D01*
X88235186Y-61713822D01*
G37*
D19*
X86959440Y-39478180D03*
D10*
X70989660Y-62807860D03*
X87033820Y-47510400D03*
D13*
X94633820Y-61060400D03*
D18*
X94633820Y-55110400D03*
D13*
X99633820Y-58860400D03*
D17*
X89133820Y-55110400D03*
X100133820Y-55110400D03*
D10*
X102241440Y-28478180D03*
X102341440Y-33828180D03*
X102333820Y-54660400D03*
X102333820Y-52860400D03*
D15*
X69229660Y-52567860D03*
X82679660Y-50027860D03*
D12*
X71509660Y-55107860D03*
D13*
X72779660Y-52567860D03*
D14*
X76589660Y-55107860D03*
D13*
X79129660Y-50027860D03*
D12*
X81669660Y-55107860D03*
D10*
X73133883Y-56231217D03*
D11*
G36*
X69284533Y-63762413D02*
G01*
X67935107Y-62902733D01*
X68794787Y-61553307D01*
X70144213Y-62412987D01*
X69284533Y-63762413D01*
G37*
D10*
X68907660Y-56707860D03*
X102341440Y-35628180D03*
X84189660Y-47507860D03*
D19*
X68907660Y-58507860D03*
X84289660Y-56457860D03*
D10*
X68997280Y-28475640D03*
D16*
X74978260Y-62532260D03*
X78178260Y-62532260D03*
X74978260Y-57632260D03*
X78178260Y-57632260D03*
D10*
X70989660Y-47407860D03*
X68989660Y-47507860D03*
D17*
X82089660Y-55107860D03*
X71089660Y-55107860D03*
D13*
X81589660Y-58857860D03*
D18*
X76589660Y-55107860D03*
D13*
X76589660Y-61057860D03*
D10*
X84297280Y-35625640D03*
X84297280Y-33825640D03*
X84197280Y-28475640D03*
D19*
X68915280Y-39475640D03*
D11*
G36*
X70191026Y-61711282D02*
G01*
X69389804Y-61200847D01*
X70088294Y-60104438D01*
X70889516Y-60614873D01*
X70191026Y-61711282D01*
G37*
G36*
X72098440Y-58717242D02*
G01*
X71297218Y-58206807D01*
X71995708Y-57110398D01*
X72796930Y-57620833D01*
X72098440Y-58717242D01*
G37*
D10*
X84289660Y-54657860D03*
X84289660Y-52857860D03*
X50899060Y-35875640D03*
X52981060Y-43775640D03*
D12*
X63661060Y-36075640D03*
D13*
X61121060Y-30995640D03*
D14*
X58581060Y-36075640D03*
D13*
X54771060Y-33535640D03*
D12*
X53501060Y-36075640D03*
D15*
X64671060Y-30995640D03*
X51221060Y-33535640D03*
D11*
G36*
X51275933Y-44730193D02*
G01*
X49926507Y-43870513D01*
X50786187Y-42521087D01*
X52135613Y-43380767D01*
X51275933Y-44730193D01*
G37*
D10*
X55125283Y-37198997D03*
X50899060Y-37675640D03*
D16*
X60169660Y-38600040D03*
X56969660Y-38600040D03*
X60169660Y-43500040D03*
X56969660Y-43500040D03*
D11*
G36*
X54089840Y-39685022D02*
G01*
X53288618Y-39174587D01*
X53987108Y-38078178D01*
X54788330Y-38588613D01*
X54089840Y-39685022D01*
G37*
G36*
X52182426Y-42679062D02*
G01*
X51381204Y-42168627D01*
X52079694Y-41072218D01*
X52880916Y-41582653D01*
X52182426Y-42679062D01*
G37*
D10*
X52981060Y-28375640D03*
D13*
X58581060Y-42025640D03*
D18*
X58581060Y-36075640D03*
D13*
X63581060Y-39825640D03*
D17*
X53081060Y-36075640D03*
X64081060Y-36075640D03*
D19*
X66281060Y-37425640D03*
D10*
X50891440Y-54907860D03*
X52973440Y-62807860D03*
D15*
X51213440Y-52567860D03*
X64663440Y-50027860D03*
D12*
X53493440Y-55107860D03*
D13*
X54763440Y-52567860D03*
D14*
X58573440Y-55107860D03*
D13*
X61113440Y-50027860D03*
D12*
X63653440Y-55107860D03*
D10*
X55117663Y-56231217D03*
D11*
G36*
X51268313Y-63762413D02*
G01*
X49918887Y-62902733D01*
X50778567Y-61553307D01*
X52127993Y-62412987D01*
X51268313Y-63762413D01*
G37*
D10*
X50891440Y-56707860D03*
X66173440Y-47507860D03*
D19*
X50891440Y-58507860D03*
X66273440Y-56457860D03*
D10*
X50981060Y-28475640D03*
D16*
X56962040Y-62532260D03*
X60162040Y-62532260D03*
X56962040Y-57632260D03*
X60162040Y-57632260D03*
D10*
X52973440Y-47407860D03*
X50973440Y-47507860D03*
D17*
X64073440Y-55107860D03*
X53073440Y-55107860D03*
D13*
X63573440Y-58857860D03*
D18*
X58573440Y-55107860D03*
D13*
X58573440Y-61057860D03*
D10*
X66281060Y-35625640D03*
X66281060Y-33825640D03*
X66181060Y-28475640D03*
D19*
X50899060Y-39475640D03*
D11*
G36*
X52174806Y-61711282D02*
G01*
X51373584Y-61200847D01*
X52072074Y-60104438D01*
X52873296Y-60614873D01*
X52174806Y-61711282D01*
G37*
G36*
X54082220Y-58717242D02*
G01*
X53280998Y-58206807D01*
X53979488Y-57110398D01*
X54780710Y-57620833D01*
X54082220Y-58717242D01*
G37*
D10*
X66273440Y-54657860D03*
X66273440Y-52857860D03*
X32847280Y-54905320D03*
X34929280Y-62805320D03*
D12*
X45609280Y-55105320D03*
D13*
X43069280Y-50025320D03*
D14*
X40529280Y-55105320D03*
D13*
X36719280Y-52565320D03*
D12*
X35449280Y-55105320D03*
D15*
X46619280Y-50025320D03*
X33169280Y-52565320D03*
D11*
G36*
X33224153Y-63759873D02*
G01*
X31874727Y-62900193D01*
X32734407Y-61550767D01*
X34083833Y-62410447D01*
X33224153Y-63759873D01*
G37*
D10*
X37073503Y-56228677D03*
X32847280Y-56705320D03*
D16*
X42117880Y-57629720D03*
X38917880Y-57629720D03*
X42117880Y-62529720D03*
X38917880Y-62529720D03*
D11*
G36*
X36038060Y-58714702D02*
G01*
X35236838Y-58204267D01*
X35935328Y-57107858D01*
X36736550Y-57618293D01*
X36038060Y-58714702D01*
G37*
G36*
X34130646Y-61708742D02*
G01*
X33329424Y-61198307D01*
X34027914Y-60101898D01*
X34829136Y-60612333D01*
X34130646Y-61708742D01*
G37*
D10*
X34929280Y-47405320D03*
D13*
X40529280Y-61055320D03*
D18*
X40529280Y-55105320D03*
D13*
X45529280Y-58855320D03*
D17*
X35029280Y-55105320D03*
X46029280Y-55105320D03*
D19*
X48229280Y-56455320D03*
D10*
X32929280Y-47505320D03*
X48229280Y-54655320D03*
X48229280Y-52855320D03*
X48129280Y-47505320D03*
D19*
X32847280Y-58505320D03*
D10*
X32936900Y-28473100D03*
X48136900Y-28473100D03*
X48236900Y-35623100D03*
D19*
X32854900Y-39473100D03*
D10*
X48236900Y-33823100D03*
X32854900Y-37673100D03*
X34936900Y-28373100D03*
D19*
X48236900Y-37423100D03*
D10*
X32854900Y-35873100D03*
X34936900Y-43773100D03*
D11*
G36*
X34138266Y-42676522D02*
G01*
X33337044Y-42166087D01*
X34035534Y-41069678D01*
X34836756Y-41580113D01*
X34138266Y-42676522D01*
G37*
G36*
X36045680Y-39682482D02*
G01*
X35244458Y-39172047D01*
X35942948Y-38075638D01*
X36744170Y-38586073D01*
X36045680Y-39682482D01*
G37*
D16*
X38925500Y-43497500D03*
X42125500Y-43497500D03*
X38925500Y-38597500D03*
X42125500Y-38597500D03*
D10*
X37081123Y-37196457D03*
D11*
G36*
X33231773Y-44727653D02*
G01*
X31882347Y-43867973D01*
X32742027Y-42518547D01*
X34091453Y-43378227D01*
X33231773Y-44727653D01*
G37*
D17*
X46036900Y-36073100D03*
X35036900Y-36073100D03*
D13*
X45536900Y-39823100D03*
D18*
X40536900Y-36073100D03*
D13*
X40536900Y-42023100D03*
D15*
X33176900Y-33533100D03*
X46626900Y-30993100D03*
D12*
X35456900Y-36073100D03*
D13*
X36726900Y-33533100D03*
D14*
X40536900Y-36073100D03*
D13*
X43076900Y-30993100D03*
D12*
X45616900Y-36073100D03*
M02*
